M48
;DRILL file {KiCad 4.0.1-stable} date 6/16/2016 1:11:35 AM
;FORMAT={-:-/ absolute / inch / decimal}
FMAT,2
INCH,TZ
T1C0.039
T2C0.043
T3C0.120
T4C0.157
T5C0.251
%
G90
G05
M72
T1
X3.398Y-1.314
X3.398Y-1.511
T2
X7.3744Y-1.524
X7.6744Y-1.524
T3
X2.5718Y-5.801
X2.753Y-5.7165
X2.9691Y-6.6529
X3.1503Y-6.5684
T4
X1.3661Y-5.6405
X1.683Y-6.3202
X2.Y-7.
X2.028Y-6.0546
X2.0458Y-5.3236
X2.3628Y-6.0033
X2.4253Y-6.9065
X2.5212Y-6.3432
X2.6797Y-6.683
X2.85Y-2.563
X2.85Y-3.5004
X2.85Y-4.6254
X3.0425Y-5.6863
X3.2009Y-6.0262
X3.2968Y-5.4629
X3.3595Y-6.3661
X3.6Y-2.563
X3.6Y-3.3129
X3.6Y-4.0629
X3.6Y-4.8129
X3.6941Y-6.3148
X4.35Y-2.5129
X4.35Y-3.2629
X4.35Y-4.0129
X4.35Y-4.7629
X4.35Y-5.5129
X5.1Y-2.45
X5.1Y-3.2
X5.1Y-3.95
X5.1Y-4.7
X5.1Y-5.45
X5.85Y-2.5129
X5.85Y-3.2629
X5.85Y-4.0129
X5.85Y-4.7629
X5.85Y-5.5129
X6.6Y-2.638
X6.6Y-3.3879
X6.6Y-4.1379
X6.6Y-4.8879
X6.6Y-5.6379
X7.35Y-5.6379
T5
X2.122Y-6.529
X2.349Y-4.79
X2.654Y-1.462
X4.151Y-6.211
X4.654Y-1.462
X5.474Y-3.606
X7.919Y-1.462
X7.944Y-5.514
T4
X7.3499Y-2.638G85X7.5374Y-2.638
G05
X7.3499Y-3.3879G85X7.5374Y-3.3879
G05
X7.3499Y-4.1379G85X7.5374Y-4.1379
G05
X7.3499Y-4.8879G85X7.5374Y-4.8879
G05
T0
M30
