G04 #@! TF.FileFunction,Copper,L1,Top,Signal*
%FSLAX46Y46*%
G04 Gerber Fmt 4.6, Leading zero omitted, Abs format (unit mm)*
G04 Created by KiCad (PCBNEW 4.0.2-stable) date 2016/08/25 14:06:43*
%MOMM*%
G01*
G04 APERTURE LIST*
%ADD10C,0.150000*%
%ADD11C,0.609600*%
%ADD12C,1.651000*%
%ADD13C,2.286000*%
%ADD14C,1.701800*%
%ADD15R,1.752600X1.752600*%
%ADD16C,1.752600*%
%ADD17O,2.057400X1.752600*%
%ADD18R,1.651000X1.651000*%
%ADD19R,0.838200X0.838200*%
%ADD20R,2.000000X2.000000*%
%ADD21C,2.000000*%
%ADD22O,1.143000X1.651000*%
%ADD23O,1.701800X2.794000*%
%ADD24R,1.400000X1.400000*%
%ADD25C,1.400000*%
%ADD26C,2.283460*%
%ADD27C,2.280920*%
%ADD28C,0.609600*%
%ADD29C,0.254000*%
%ADD30C,0.304800*%
%ADD31C,0.508000*%
%ADD32C,1.016000*%
%ADD33C,0.406400*%
%ADD34C,0.812800*%
%ADD35C,0.711200*%
G04 APERTURE END LIST*
D10*
D11*
X53341367Y-147187736D02*
X55286576Y-146280670D01*
X58302224Y-144874450D02*
X60247433Y-143967384D01*
X70605747Y-139135936D02*
X72550956Y-138228870D01*
X75566604Y-136822650D02*
X77511813Y-135915584D01*
X68580000Y-72720200D02*
X70726300Y-72720200D01*
X74053700Y-72720200D02*
X76200000Y-72720200D01*
X80010000Y-92720160D02*
X80010000Y-90573860D01*
X80010000Y-87246460D02*
X80010000Y-85100160D01*
X80010000Y-121295160D02*
X80010000Y-119148860D01*
X80010000Y-115821460D02*
X80010000Y-113675160D01*
X182880000Y-150822660D02*
X185026300Y-150822660D01*
X188353700Y-150822660D02*
X190500000Y-150822660D01*
X87630000Y-91767660D02*
X89776300Y-91767660D01*
X93103700Y-91767660D02*
X95250000Y-91767660D01*
X42515518Y-169049321D02*
X44460727Y-168142255D01*
X47476375Y-166736035D02*
X49421584Y-165828970D01*
X50567318Y-186316241D02*
X52512527Y-185409175D01*
X55528175Y-184002955D02*
X57473384Y-183095890D01*
X34466258Y-151784941D02*
X36411467Y-150877875D01*
X39427115Y-149471655D02*
X41372324Y-148564590D01*
X51730638Y-143735681D02*
X53675847Y-142828615D01*
X56691495Y-141422395D02*
X58636704Y-140515330D01*
X163830000Y-74625200D02*
X165976300Y-74625200D01*
X169303700Y-74625200D02*
X171450000Y-74625200D01*
X144780000Y-71447660D02*
X146926300Y-71447660D01*
X150253700Y-71447660D02*
X152400000Y-71447660D01*
X125730000Y-69850000D02*
X127876300Y-69850000D01*
X131203700Y-69850000D02*
X133350000Y-69850000D01*
X106680000Y-71447660D02*
X108826300Y-71447660D01*
X112153700Y-71447660D02*
X114300000Y-71447660D01*
X144780000Y-147647660D02*
X146926300Y-147647660D01*
X150253700Y-147647660D02*
X152400000Y-147647660D01*
X163830000Y-93672660D02*
X165976300Y-93672660D01*
X169303700Y-93672660D02*
X171450000Y-93672660D01*
X125730000Y-88900000D02*
X127876300Y-88900000D01*
X131203700Y-88900000D02*
X133350000Y-88900000D01*
X106680000Y-90497660D02*
X108826300Y-90497660D01*
X112153700Y-90497660D02*
X114300000Y-90497660D01*
X163830000Y-112722660D02*
X165976300Y-112722660D01*
X169303700Y-112722660D02*
X171450000Y-112722660D01*
X144780000Y-109547660D02*
X146926300Y-109547660D01*
X150253700Y-109547660D02*
X152400000Y-109547660D01*
X125730000Y-107950000D02*
X127876300Y-107950000D01*
X131203700Y-107950000D02*
X133350000Y-107950000D01*
X106680000Y-109547660D02*
X108826300Y-109547660D01*
X112153700Y-109547660D02*
X114300000Y-109547660D01*
X87630000Y-110817660D02*
X89776300Y-110817660D01*
X93103700Y-110817660D02*
X95250000Y-110817660D01*
X163830000Y-131772660D02*
X165976300Y-131772660D01*
X169303700Y-131772660D02*
X171450000Y-131772660D01*
X144780000Y-128597660D02*
X146926300Y-128597660D01*
X150253700Y-128597660D02*
X152400000Y-128597660D01*
X125730000Y-127000000D02*
X127876300Y-127000000D01*
X131203700Y-127000000D02*
X133350000Y-127000000D01*
X106680000Y-128597660D02*
X108826300Y-128597660D01*
X112153700Y-128597660D02*
X114300000Y-128597660D01*
X87630000Y-129867660D02*
X89776300Y-129867660D01*
X93103700Y-129867660D02*
X95250000Y-129867660D01*
X163830000Y-150822660D02*
X165976300Y-150822660D01*
X169303700Y-150822660D02*
X171450000Y-150822660D01*
X125730000Y-146050000D02*
X127876300Y-146050000D01*
X131203700Y-146050000D02*
X133350000Y-146050000D01*
X106680000Y-147647660D02*
X108826300Y-147647660D01*
X112153700Y-147647660D02*
X114300000Y-147647660D01*
X89819101Y-153298162D02*
X88912035Y-151352953D01*
X87505815Y-148337305D02*
X86598750Y-146392096D01*
X72554721Y-161349962D02*
X71647655Y-159404753D01*
X70241435Y-156389105D02*
X69334370Y-154443896D01*
X144780000Y-90497660D02*
X146926300Y-90497660D01*
X150253700Y-90497660D02*
X152400000Y-90497660D01*
X87630000Y-72720200D02*
X89776300Y-72720200D01*
X93103700Y-72720200D02*
X95250000Y-72720200D01*
X187642500Y-131772660D02*
X189788800Y-131772660D01*
X193116200Y-131772660D02*
X195262500Y-131772660D01*
X187642500Y-112722660D02*
X189788800Y-112722660D01*
X193116200Y-112722660D02*
X195262500Y-112722660D01*
X187642500Y-93672660D02*
X189788800Y-93672660D01*
X193116200Y-93672660D02*
X195262500Y-93672660D01*
X187642500Y-74625200D02*
X189788800Y-74625200D01*
X193116200Y-74625200D02*
X195262500Y-74625200D01*
D12*
X78740000Y-40005000D03*
X78740000Y-37465000D03*
X78740000Y-34925000D03*
X93980000Y-40005000D03*
X93980000Y-37465000D03*
X93980000Y-34925000D03*
X53341367Y-147187736D03*
D10*
G36*
X55083862Y-146837623D02*
X54729623Y-146077956D01*
X55489290Y-145723717D01*
X55843529Y-146483384D01*
X55083862Y-146837623D01*
X55083862Y-146837623D01*
G37*
G36*
X59848147Y-145064412D02*
X59150405Y-143568098D01*
X60646719Y-142870356D01*
X61344461Y-144366670D01*
X59848147Y-145064412D01*
X59848147Y-145064412D01*
G37*
G36*
X58099510Y-145431403D02*
X57745271Y-144671736D01*
X58504938Y-144317497D01*
X58859177Y-145077164D01*
X58099510Y-145431403D01*
X58099510Y-145431403D01*
G37*
D12*
X70605747Y-139135936D03*
D10*
G36*
X72348242Y-138785823D02*
X71994003Y-138026156D01*
X72753670Y-137671917D01*
X73107909Y-138431584D01*
X72348242Y-138785823D01*
X72348242Y-138785823D01*
G37*
G36*
X77112527Y-137012612D02*
X76414785Y-135516298D01*
X77911099Y-134818556D01*
X78608841Y-136314870D01*
X77112527Y-137012612D01*
X77112527Y-137012612D01*
G37*
G36*
X75363890Y-137379603D02*
X75009651Y-136619936D01*
X75769318Y-136265697D01*
X76123557Y-137025364D01*
X75363890Y-137379603D01*
X75363890Y-137379603D01*
G37*
D13*
X77434621Y-138754526D03*
X72753017Y-143740174D03*
D14*
X72675456Y-146578921D03*
X81883544Y-142285119D03*
D13*
X79659082Y-140519823D03*
X72830577Y-140901427D03*
X60170241Y-146806326D03*
X55488637Y-151791974D03*
D14*
X55411076Y-154630721D03*
X64619164Y-150336919D03*
D13*
X62394702Y-148571623D03*
X55566197Y-148953227D03*
X85176179Y-167376434D03*
X89857783Y-162390786D03*
D14*
X89935344Y-159552039D03*
X80727256Y-163845841D03*
D13*
X82951718Y-165611137D03*
X89780223Y-165229533D03*
X67909259Y-175425694D03*
X72590863Y-170440046D03*
D14*
X72668424Y-167601299D03*
X63460336Y-171895101D03*
D13*
X65684798Y-173660397D03*
X72513303Y-173278793D03*
D12*
X70665000Y-41985000D03*
X70665000Y-52145000D03*
X73965000Y-41985000D03*
X73965000Y-52145000D03*
X77365000Y-41985000D03*
X77365000Y-52145000D03*
X101085000Y-36465000D03*
X111245000Y-36465000D03*
X101092000Y-39751000D03*
X111252000Y-39751000D03*
D15*
X161925000Y-34925000D03*
D16*
X164465000Y-34925000D03*
X167005000Y-34925000D03*
X169545000Y-34925000D03*
X172085000Y-34925000D03*
X174625000Y-34925000D03*
X177165000Y-34925000D03*
X179705000Y-34925000D03*
X182245000Y-34925000D03*
X184785000Y-34925000D03*
X187325000Y-34925000D03*
X189865000Y-34925000D03*
X189865000Y-50165000D03*
X187325000Y-50165000D03*
X184785000Y-50165000D03*
X182245000Y-50165000D03*
X179705000Y-50165000D03*
X177165000Y-50165000D03*
X174625000Y-50165000D03*
X167005000Y-50165000D03*
X164465000Y-50165000D03*
X161925000Y-50165000D03*
X172085000Y-50165000D03*
X169545000Y-50165000D03*
D17*
X90957400Y-33375600D03*
D16*
X82702400Y-38379400D03*
X87909400Y-41478200D03*
D17*
X81661000Y-33375600D03*
D16*
X84709000Y-41478200D03*
X89916000Y-38379400D03*
D13*
X74930000Y-60020200D03*
X68580000Y-62560200D03*
D14*
X67310000Y-65100200D03*
X77470000Y-65100200D03*
D13*
X76200000Y-62560200D03*
X69850000Y-60020200D03*
D12*
X68580000Y-70180200D03*
D18*
X76200000Y-70180200D03*
D12*
X68580000Y-72720200D03*
D18*
X76200000Y-72720200D03*
D19*
X70726300Y-72720200D03*
X74053700Y-72720200D03*
D13*
X67310000Y-86370160D03*
X69850000Y-92720160D03*
D14*
X72390000Y-93990160D03*
X72390000Y-83830160D03*
D13*
X69850000Y-85100160D03*
X67310000Y-91450160D03*
D12*
X77470000Y-92720160D03*
D18*
X77470000Y-85100160D03*
D12*
X80010000Y-92720160D03*
D18*
X80010000Y-85100160D03*
D19*
X80010000Y-90573860D03*
X80010000Y-87246460D03*
D13*
X67310000Y-114945160D03*
X69850000Y-121295160D03*
D14*
X72390000Y-122565160D03*
X72390000Y-112405160D03*
D13*
X69850000Y-113675160D03*
X67310000Y-120025160D03*
D12*
X77470000Y-121295160D03*
D18*
X77470000Y-113675160D03*
D12*
X80010000Y-121295160D03*
D18*
X80010000Y-113675160D03*
D19*
X80010000Y-119148860D03*
X80010000Y-115821460D03*
D13*
X189230000Y-138122660D03*
X182880000Y-140662660D03*
D14*
X181610000Y-143202660D03*
X191770000Y-143202660D03*
D13*
X190500000Y-140662660D03*
X184150000Y-138122660D03*
D12*
X182880000Y-148282660D03*
D18*
X190500000Y-148282660D03*
D12*
X182880000Y-150822660D03*
D18*
X190500000Y-150822660D03*
D19*
X185026300Y-150822660D03*
X188353700Y-150822660D03*
D13*
X93980000Y-79067660D03*
X87630000Y-81607660D03*
D14*
X86360000Y-84147660D03*
X96520000Y-84147660D03*
D13*
X95250000Y-81607660D03*
X88900000Y-79067660D03*
D12*
X87630000Y-89227660D03*
D18*
X95250000Y-89227660D03*
D12*
X87630000Y-91767660D03*
D18*
X95250000Y-91767660D03*
D19*
X89776300Y-91767660D03*
X93103700Y-91767660D03*
D13*
X42903321Y-154855586D03*
X38221717Y-159841234D03*
D14*
X38144156Y-162679981D03*
X47352244Y-158386179D03*
D13*
X45127782Y-156620883D03*
X38299277Y-157002487D03*
D12*
X41442068Y-166747299D03*
D10*
G36*
X47948847Y-164623976D02*
X47251105Y-163127662D01*
X48747419Y-162429920D01*
X49445161Y-163926234D01*
X47948847Y-164623976D01*
X47948847Y-164623976D01*
G37*
D12*
X42515518Y-169049321D03*
D10*
G36*
X49022298Y-166925998D02*
X48324556Y-165429684D01*
X49820870Y-164731942D01*
X50518612Y-166228256D01*
X49022298Y-166925998D01*
X49022298Y-166925998D01*
G37*
G36*
X44258013Y-168699208D02*
X43903774Y-167939541D01*
X44663441Y-167585302D01*
X45017680Y-168344969D01*
X44258013Y-168699208D01*
X44258013Y-168699208D01*
G37*
G36*
X47273661Y-167292988D02*
X46919422Y-166533321D01*
X47679089Y-166179082D01*
X48033328Y-166938749D01*
X47273661Y-167292988D01*
X47273661Y-167292988D01*
G37*
D13*
X50955121Y-172122506D03*
X46273517Y-177108154D03*
D14*
X46195956Y-179946901D03*
X55404044Y-175653099D03*
D13*
X53179582Y-173887803D03*
X46351077Y-174269407D03*
D12*
X49493868Y-184014219D03*
D10*
G36*
X56000647Y-181890896D02*
X55302905Y-180394582D01*
X56799219Y-179696840D01*
X57496961Y-181193154D01*
X56000647Y-181890896D01*
X56000647Y-181890896D01*
G37*
D12*
X50567318Y-186316241D03*
D10*
G36*
X57074098Y-184192918D02*
X56376356Y-182696604D01*
X57872670Y-181998862D01*
X58570412Y-183495176D01*
X57074098Y-184192918D01*
X57074098Y-184192918D01*
G37*
G36*
X52309813Y-185966128D02*
X51955574Y-185206461D01*
X52715241Y-184852222D01*
X53069480Y-185611889D01*
X52309813Y-185966128D01*
X52309813Y-185966128D01*
G37*
G36*
X55325461Y-184559908D02*
X54971222Y-183800241D01*
X55730889Y-183446002D01*
X56085128Y-184205669D01*
X55325461Y-184559908D01*
X55325461Y-184559908D01*
G37*
D13*
X34854061Y-137591206D03*
X30172457Y-142576854D03*
D14*
X30094896Y-145415601D03*
X39302984Y-141121799D03*
D13*
X37078522Y-139356503D03*
X30250017Y-139738107D03*
D12*
X33392808Y-149482919D03*
D10*
G36*
X39899587Y-147359596D02*
X39201845Y-145863282D01*
X40698159Y-145165540D01*
X41395901Y-146661854D01*
X39899587Y-147359596D01*
X39899587Y-147359596D01*
G37*
D12*
X34466258Y-151784941D03*
D10*
G36*
X40973038Y-149661618D02*
X40275296Y-148165304D01*
X41771610Y-147467562D01*
X42469352Y-148963876D01*
X40973038Y-149661618D01*
X40973038Y-149661618D01*
G37*
G36*
X36208753Y-151434828D02*
X35854514Y-150675161D01*
X36614181Y-150320922D01*
X36968420Y-151080589D01*
X36208753Y-151434828D01*
X36208753Y-151434828D01*
G37*
G36*
X39224401Y-150028608D02*
X38870162Y-149268941D01*
X39629829Y-148914702D01*
X39984068Y-149674369D01*
X39224401Y-150028608D01*
X39224401Y-150028608D01*
G37*
D13*
X52118441Y-129541946D03*
X47436837Y-134527594D03*
D14*
X47359276Y-137366341D03*
X56567364Y-133072539D03*
D13*
X54342902Y-131307243D03*
X47514397Y-131688847D03*
D12*
X50657188Y-141433659D03*
D10*
G36*
X57163967Y-139310336D02*
X56466225Y-137814022D01*
X57962539Y-137116280D01*
X58660281Y-138612594D01*
X57163967Y-139310336D01*
X57163967Y-139310336D01*
G37*
D12*
X51730638Y-143735681D03*
D10*
G36*
X58237418Y-141612358D02*
X57539676Y-140116044D01*
X59035990Y-139418302D01*
X59733732Y-140914616D01*
X58237418Y-141612358D01*
X58237418Y-141612358D01*
G37*
G36*
X53473133Y-143385568D02*
X53118894Y-142625901D01*
X53878561Y-142271662D01*
X54232800Y-143031329D01*
X53473133Y-143385568D01*
X53473133Y-143385568D01*
G37*
G36*
X56488781Y-141979348D02*
X56134542Y-141219681D01*
X56894209Y-140865442D01*
X57248448Y-141625109D01*
X56488781Y-141979348D01*
X56488781Y-141979348D01*
G37*
D13*
X170180000Y-61925200D03*
X163830000Y-64465200D03*
D14*
X162560000Y-67005200D03*
X172720000Y-67005200D03*
D13*
X171450000Y-64465200D03*
X165100000Y-61925200D03*
D12*
X163830000Y-72085200D03*
D18*
X171450000Y-72085200D03*
D12*
X163830000Y-74625200D03*
D18*
X171450000Y-74625200D03*
D19*
X165976300Y-74625200D03*
X169303700Y-74625200D03*
D13*
X151130000Y-58747660D03*
X144780000Y-61287660D03*
D14*
X143510000Y-63827660D03*
X153670000Y-63827660D03*
D13*
X152400000Y-61287660D03*
X146050000Y-58747660D03*
D12*
X144780000Y-68907660D03*
D18*
X152400000Y-68907660D03*
D12*
X144780000Y-71447660D03*
D18*
X152400000Y-71447660D03*
D19*
X146926300Y-71447660D03*
X150253700Y-71447660D03*
D13*
X132080000Y-57150000D03*
X125730000Y-59690000D03*
D14*
X124460000Y-62230000D03*
X134620000Y-62230000D03*
D13*
X133350000Y-59690000D03*
X127000000Y-57150000D03*
D12*
X125730000Y-67310000D03*
D18*
X133350000Y-67310000D03*
D12*
X125730000Y-69850000D03*
D18*
X133350000Y-69850000D03*
D19*
X127876300Y-69850000D03*
X131203700Y-69850000D03*
D13*
X113030000Y-58747660D03*
X106680000Y-61287660D03*
D14*
X105410000Y-63827660D03*
X115570000Y-63827660D03*
D13*
X114300000Y-61287660D03*
X107950000Y-58747660D03*
D12*
X106680000Y-68907660D03*
D18*
X114300000Y-68907660D03*
D12*
X106680000Y-71447660D03*
D18*
X114300000Y-71447660D03*
D19*
X108826300Y-71447660D03*
X112153700Y-71447660D03*
D13*
X151130000Y-134947660D03*
X144780000Y-137487660D03*
D14*
X143510000Y-140027660D03*
X153670000Y-140027660D03*
D13*
X152400000Y-137487660D03*
X146050000Y-134947660D03*
D12*
X144780000Y-145107660D03*
D18*
X152400000Y-145107660D03*
D12*
X144780000Y-147647660D03*
D18*
X152400000Y-147647660D03*
D19*
X146926300Y-147647660D03*
X150253700Y-147647660D03*
D13*
X170180000Y-80972660D03*
X163830000Y-83512660D03*
D14*
X162560000Y-86052660D03*
X172720000Y-86052660D03*
D13*
X171450000Y-83512660D03*
X165100000Y-80972660D03*
D12*
X163830000Y-91132660D03*
D18*
X171450000Y-91132660D03*
D12*
X163830000Y-93672660D03*
D18*
X171450000Y-93672660D03*
D19*
X165976300Y-93672660D03*
X169303700Y-93672660D03*
D13*
X132080000Y-76200000D03*
X125730000Y-78740000D03*
D14*
X124460000Y-81280000D03*
X134620000Y-81280000D03*
D13*
X133350000Y-78740000D03*
X127000000Y-76200000D03*
D12*
X125730000Y-86360000D03*
D18*
X133350000Y-86360000D03*
D12*
X125730000Y-88900000D03*
D18*
X133350000Y-88900000D03*
D19*
X127876300Y-88900000D03*
X131203700Y-88900000D03*
D13*
X113030000Y-77797660D03*
X106680000Y-80337660D03*
D14*
X105410000Y-82877660D03*
X115570000Y-82877660D03*
D13*
X114300000Y-80337660D03*
X107950000Y-77797660D03*
D12*
X106680000Y-87957660D03*
D18*
X114300000Y-87957660D03*
D12*
X106680000Y-90497660D03*
D18*
X114300000Y-90497660D03*
D19*
X108826300Y-90497660D03*
X112153700Y-90497660D03*
D13*
X170180000Y-100022660D03*
X163830000Y-102562660D03*
D14*
X162560000Y-105102660D03*
X172720000Y-105102660D03*
D13*
X171450000Y-102562660D03*
X165100000Y-100022660D03*
D12*
X163830000Y-110182660D03*
D18*
X171450000Y-110182660D03*
D12*
X163830000Y-112722660D03*
D18*
X171450000Y-112722660D03*
D19*
X165976300Y-112722660D03*
X169303700Y-112722660D03*
D13*
X151130000Y-96847660D03*
X144780000Y-99387660D03*
D14*
X143510000Y-101927660D03*
X153670000Y-101927660D03*
D13*
X152400000Y-99387660D03*
X146050000Y-96847660D03*
D12*
X144780000Y-107007660D03*
D18*
X152400000Y-107007660D03*
D12*
X144780000Y-109547660D03*
D18*
X152400000Y-109547660D03*
D19*
X146926300Y-109547660D03*
X150253700Y-109547660D03*
D13*
X132080000Y-95250000D03*
X125730000Y-97790000D03*
D14*
X124460000Y-100330000D03*
X134620000Y-100330000D03*
D13*
X133350000Y-97790000D03*
X127000000Y-95250000D03*
D12*
X125730000Y-105410000D03*
D18*
X133350000Y-105410000D03*
D12*
X125730000Y-107950000D03*
D18*
X133350000Y-107950000D03*
D19*
X127876300Y-107950000D03*
X131203700Y-107950000D03*
D13*
X113030000Y-96847660D03*
X106680000Y-99387660D03*
D14*
X105410000Y-101927660D03*
X115570000Y-101927660D03*
D13*
X114300000Y-99387660D03*
X107950000Y-96847660D03*
D12*
X106680000Y-107007660D03*
D18*
X114300000Y-107007660D03*
D12*
X106680000Y-109547660D03*
D18*
X114300000Y-109547660D03*
D19*
X108826300Y-109547660D03*
X112153700Y-109547660D03*
D13*
X93980000Y-98117660D03*
X87630000Y-100657660D03*
D14*
X86360000Y-103197660D03*
X96520000Y-103197660D03*
D13*
X95250000Y-100657660D03*
X88900000Y-98117660D03*
D12*
X87630000Y-108277660D03*
D18*
X95250000Y-108277660D03*
D12*
X87630000Y-110817660D03*
D18*
X95250000Y-110817660D03*
D19*
X89776300Y-110817660D03*
X93103700Y-110817660D03*
D13*
X170180000Y-119072660D03*
X163830000Y-121612660D03*
D14*
X162560000Y-124152660D03*
X172720000Y-124152660D03*
D13*
X171450000Y-121612660D03*
X165100000Y-119072660D03*
D12*
X163830000Y-129232660D03*
D18*
X171450000Y-129232660D03*
D12*
X163830000Y-131772660D03*
D18*
X171450000Y-131772660D03*
D19*
X165976300Y-131772660D03*
X169303700Y-131772660D03*
D13*
X151130000Y-115897660D03*
X144780000Y-118437660D03*
D14*
X143510000Y-120977660D03*
X153670000Y-120977660D03*
D13*
X152400000Y-118437660D03*
X146050000Y-115897660D03*
D12*
X144780000Y-126057660D03*
D18*
X152400000Y-126057660D03*
D12*
X144780000Y-128597660D03*
D18*
X152400000Y-128597660D03*
D19*
X146926300Y-128597660D03*
X150253700Y-128597660D03*
D13*
X132080000Y-114300000D03*
X125730000Y-116840000D03*
D14*
X124460000Y-119380000D03*
X134620000Y-119380000D03*
D13*
X133350000Y-116840000D03*
X127000000Y-114300000D03*
D12*
X125730000Y-124460000D03*
D18*
X133350000Y-124460000D03*
D12*
X125730000Y-127000000D03*
D18*
X133350000Y-127000000D03*
D19*
X127876300Y-127000000D03*
X131203700Y-127000000D03*
D13*
X113030000Y-115897660D03*
X106680000Y-118437660D03*
D14*
X105410000Y-120977660D03*
X115570000Y-120977660D03*
D13*
X114300000Y-118437660D03*
X107950000Y-115897660D03*
D12*
X106680000Y-126057660D03*
D18*
X114300000Y-126057660D03*
D12*
X106680000Y-128597660D03*
D18*
X114300000Y-128597660D03*
D19*
X108826300Y-128597660D03*
X112153700Y-128597660D03*
D13*
X93980000Y-117167660D03*
X87630000Y-119707660D03*
D14*
X86360000Y-122247660D03*
X96520000Y-122247660D03*
D13*
X95250000Y-119707660D03*
X88900000Y-117167660D03*
D12*
X87630000Y-127327660D03*
D18*
X95250000Y-127327660D03*
D12*
X87630000Y-129867660D03*
D18*
X95250000Y-129867660D03*
D19*
X89776300Y-129867660D03*
X93103700Y-129867660D03*
D13*
X170180000Y-138122660D03*
X163830000Y-140662660D03*
D14*
X162560000Y-143202660D03*
X172720000Y-143202660D03*
D13*
X171450000Y-140662660D03*
X165100000Y-138122660D03*
D12*
X163830000Y-148282660D03*
D18*
X171450000Y-148282660D03*
D12*
X163830000Y-150822660D03*
D18*
X171450000Y-150822660D03*
D19*
X165976300Y-150822660D03*
X169303700Y-150822660D03*
D13*
X132080000Y-133350000D03*
X125730000Y-135890000D03*
D14*
X124460000Y-138430000D03*
X134620000Y-138430000D03*
D13*
X133350000Y-135890000D03*
X127000000Y-133350000D03*
D12*
X125730000Y-143510000D03*
D18*
X133350000Y-143510000D03*
D12*
X125730000Y-146050000D03*
D18*
X133350000Y-146050000D03*
D19*
X127876300Y-146050000D03*
X131203700Y-146050000D03*
D13*
X113030000Y-134947660D03*
X106680000Y-137487660D03*
D14*
X105410000Y-140027660D03*
X115570000Y-140027660D03*
D13*
X114300000Y-137487660D03*
X107950000Y-134947660D03*
D12*
X106680000Y-145107660D03*
D18*
X114300000Y-145107660D03*
D12*
X106680000Y-147647660D03*
D18*
X114300000Y-147647660D03*
D19*
X108826300Y-147647660D03*
X112153700Y-147647660D03*
D13*
X75625366Y-152910359D03*
X80611014Y-157591963D03*
D14*
X83449761Y-157669524D03*
X79155959Y-148461436D03*
D13*
X77390663Y-150685898D03*
X77772267Y-157514403D03*
D12*
X87517079Y-154371612D03*
D10*
G36*
X85393756Y-147864833D02*
X83897442Y-148562575D01*
X83199700Y-147066261D01*
X84696014Y-146368519D01*
X85393756Y-147864833D01*
X85393756Y-147864833D01*
G37*
D12*
X89819101Y-153298162D03*
D10*
G36*
X87695778Y-146791382D02*
X86199464Y-147489124D01*
X85501722Y-145992810D01*
X86998036Y-145295068D01*
X87695778Y-146791382D01*
X87695778Y-146791382D01*
G37*
G36*
X89468988Y-151555667D02*
X88709321Y-151909906D01*
X88355082Y-151150239D01*
X89114749Y-150796000D01*
X89468988Y-151555667D01*
X89468988Y-151555667D01*
G37*
G36*
X88062768Y-148540019D02*
X87303101Y-148894258D01*
X86948862Y-148134591D01*
X87708529Y-147780352D01*
X88062768Y-148540019D01*
X88062768Y-148540019D01*
G37*
D13*
X58360986Y-160962159D03*
X63346634Y-165643763D03*
D14*
X66185381Y-165721324D03*
X61891579Y-156513236D03*
D13*
X60126283Y-158737698D03*
X60507887Y-165566203D03*
D12*
X70252699Y-162423412D03*
D10*
G36*
X68129376Y-155916633D02*
X66633062Y-156614375D01*
X65935320Y-155118061D01*
X67431634Y-154420319D01*
X68129376Y-155916633D01*
X68129376Y-155916633D01*
G37*
D12*
X72554721Y-161349962D03*
D10*
G36*
X70431398Y-154843182D02*
X68935084Y-155540924D01*
X68237342Y-154044610D01*
X69733656Y-153346868D01*
X70431398Y-154843182D01*
X70431398Y-154843182D01*
G37*
G36*
X72204608Y-159607467D02*
X71444941Y-159961706D01*
X71090702Y-159202039D01*
X71850369Y-158847800D01*
X72204608Y-159607467D01*
X72204608Y-159607467D01*
G37*
G36*
X70798388Y-156591819D02*
X70038721Y-156946058D01*
X69684482Y-156186391D01*
X70444149Y-155832152D01*
X70798388Y-156591819D01*
X70798388Y-156591819D01*
G37*
D13*
X151130000Y-77797660D03*
X144780000Y-80337660D03*
D14*
X143510000Y-82877660D03*
X153670000Y-82877660D03*
D13*
X152400000Y-80337660D03*
X146050000Y-77797660D03*
D12*
X144780000Y-87957660D03*
D18*
X152400000Y-87957660D03*
D12*
X144780000Y-90497660D03*
D18*
X152400000Y-90497660D03*
D19*
X146926300Y-90497660D03*
X150253700Y-90497660D03*
D13*
X93980000Y-60020200D03*
X87630000Y-62560200D03*
D14*
X86360000Y-65100200D03*
X96520000Y-65100200D03*
D13*
X95250000Y-62560200D03*
X88900000Y-60020200D03*
D12*
X87630000Y-70180200D03*
D18*
X95250000Y-70180200D03*
D12*
X87630000Y-72720200D03*
D18*
X95250000Y-72720200D03*
D19*
X89776300Y-72720200D03*
X93103700Y-72720200D03*
D16*
X164450000Y-46330000D03*
X166990000Y-46330000D03*
X169530000Y-46330000D03*
X172070000Y-46330000D03*
X174610000Y-46330000D03*
X177150000Y-46330000D03*
X179690000Y-46330000D03*
X182230000Y-46330000D03*
X184770000Y-46330000D03*
X189850000Y-46330000D03*
X192390000Y-46330000D03*
D15*
X161910000Y-46330000D03*
D16*
X194930000Y-38710000D03*
X192390000Y-38710000D03*
X189850000Y-38710000D03*
X187310000Y-38710000D03*
X184770000Y-38710000D03*
X182230000Y-38710000D03*
X179690000Y-38710000D03*
X177150000Y-38710000D03*
X174610000Y-38710000D03*
X172070000Y-38710000D03*
X169530000Y-38710000D03*
X166990000Y-38710000D03*
X164450000Y-38710000D03*
X161910000Y-38710000D03*
D20*
X66465000Y-37465000D03*
D21*
X66465000Y-34925000D03*
D20*
X66465000Y-43765000D03*
D21*
X66465000Y-41225000D03*
D20*
X66465000Y-50165000D03*
D21*
X66465000Y-47625000D03*
D22*
X136042400Y-37553900D03*
X136842500Y-35806380D03*
X137642600Y-37553900D03*
X138442700Y-35806380D03*
X139242800Y-37553900D03*
D23*
X141290040Y-32230060D03*
X133995160Y-32230060D03*
D12*
X135229600Y-40259000D03*
X132816600Y-40259000D03*
X137642600Y-40259000D03*
X142468600Y-40259000D03*
X140055600Y-40259000D03*
D24*
X199517000Y-39751000D03*
D25*
X199517000Y-44751000D03*
D13*
X193992500Y-119072660D03*
X187642500Y-121612660D03*
D14*
X196532500Y-124152660D03*
D26*
X195262500Y-121612660D03*
D13*
X188912500Y-119072660D03*
D12*
X187642500Y-129232660D03*
D18*
X195262500Y-129232660D03*
D12*
X187642500Y-131772660D03*
D18*
X195262500Y-131772660D03*
D19*
X189788800Y-131772660D03*
X193116200Y-131772660D03*
D27*
X181610000Y-121612660D03*
X184150000Y-120342660D03*
X184150000Y-127962660D03*
X181610000Y-126692660D03*
D13*
X193992500Y-100022660D03*
X187642500Y-102562660D03*
D14*
X196532500Y-105102660D03*
D26*
X195262500Y-102562660D03*
D13*
X188912500Y-100022660D03*
D12*
X187642500Y-110182660D03*
D18*
X195262500Y-110182660D03*
D12*
X187642500Y-112722660D03*
D18*
X195262500Y-112722660D03*
D19*
X189788800Y-112722660D03*
X193116200Y-112722660D03*
D27*
X181610000Y-102562660D03*
X184150000Y-101292660D03*
X184150000Y-108912660D03*
X181610000Y-107642660D03*
D13*
X193992500Y-80972660D03*
X187642500Y-83512660D03*
D14*
X196532500Y-86052660D03*
D26*
X195262500Y-83512660D03*
D13*
X188912500Y-80972660D03*
D12*
X187642500Y-91132660D03*
D18*
X195262500Y-91132660D03*
D12*
X187642500Y-93672660D03*
D18*
X195262500Y-93672660D03*
D19*
X189788800Y-93672660D03*
X193116200Y-93672660D03*
D27*
X181610000Y-83512660D03*
X184150000Y-82242660D03*
X184150000Y-89862660D03*
X181610000Y-88592660D03*
D13*
X193992500Y-61925200D03*
X187642500Y-64465200D03*
D14*
X196532500Y-67005200D03*
D26*
X195262500Y-64465200D03*
D13*
X188912500Y-61925200D03*
D12*
X187642500Y-72085200D03*
D18*
X195262500Y-72085200D03*
D12*
X187642500Y-74625200D03*
D18*
X195262500Y-74625200D03*
D19*
X189788800Y-74625200D03*
X193116200Y-74625200D03*
D27*
X181610000Y-64465200D03*
X184150000Y-63195200D03*
X184150000Y-70815200D03*
X181610000Y-69545200D03*
D28*
X158369000Y-56261000D03*
X157099000Y-57277000D03*
X154051000Y-55562500D03*
X154559000Y-56832500D03*
X154051000Y-54292500D03*
X153797000Y-52800000D03*
X153543000Y-51689000D03*
X188595000Y-37465000D03*
X80165000Y-49165000D03*
X196565000Y-46865000D03*
X195665000Y-42165000D03*
X181737000Y-41021000D03*
X78465000Y-44865000D03*
X161417000Y-54991000D03*
X160147000Y-54229000D03*
X179705000Y-58547000D03*
X178181000Y-116840000D03*
X177165000Y-97917000D03*
X177165000Y-58547000D03*
X176403000Y-78613000D03*
X175641000Y-58547000D03*
X143637000Y-42799000D03*
X152019000Y-34417000D03*
X169545000Y-33401000D03*
X195707000Y-43561000D03*
X195453000Y-37211000D03*
X130175000Y-42164000D03*
X165495000Y-55975000D03*
X189665000Y-42465000D03*
X153035000Y-46736000D03*
X150114000Y-43815000D03*
D11*
X76527660Y-90180160D02*
X75565000Y-89217500D01*
X77470000Y-90180160D02*
X76527660Y-90180160D01*
D29*
X167355000Y-57475000D02*
X174569000Y-57475000D01*
X174569000Y-57475000D02*
X174625000Y-57531000D01*
X163945000Y-57475000D02*
X167355000Y-57475000D01*
X162755000Y-56285000D02*
X163945000Y-57475000D01*
X162755000Y-56261000D02*
X162755000Y-56285000D01*
D30*
X194437000Y-57531000D02*
X174625000Y-57531000D01*
X198755000Y-62547500D02*
X198755000Y-61849000D01*
D11*
X198755000Y-68592700D02*
X198755000Y-62547500D01*
D30*
X198755000Y-61849000D02*
X194437000Y-57531000D01*
X162755000Y-56261000D02*
X158369000Y-56261000D01*
D11*
X195262500Y-129232660D02*
X198755000Y-125740160D01*
X195262500Y-91132660D02*
X198755000Y-87640160D01*
X190500000Y-148282660D02*
X190500000Y-150822660D01*
X198755000Y-133664960D02*
X198755000Y-125740160D01*
X195262500Y-110182660D02*
X195262500Y-112722660D01*
X193992500Y-144790160D02*
X193992500Y-138427460D01*
X198755000Y-125740160D02*
X198755000Y-106690160D01*
X193992500Y-138427460D02*
X198755000Y-133664960D01*
X195262500Y-72085200D02*
X198755000Y-68592700D01*
X195262500Y-91132660D02*
X195262500Y-93672660D01*
X195262500Y-110182660D02*
X198755000Y-106690160D01*
X190500000Y-148282660D02*
X193992500Y-144790160D01*
X195262500Y-129232660D02*
X195262500Y-131772660D01*
X198755000Y-106690160D02*
X198755000Y-87640160D01*
X195262500Y-72085200D02*
X195262500Y-74625200D01*
X198755000Y-87640160D02*
X198755000Y-68592700D01*
D29*
X174493000Y-59177000D02*
X174942500Y-59626500D01*
D30*
X162615000Y-57277000D02*
X157099000Y-57277000D01*
D11*
X174942500Y-60960000D02*
X174942500Y-59626500D01*
X174942500Y-68580000D02*
X174942500Y-60960000D01*
D30*
X174493000Y-59177000D02*
X173445000Y-58129000D01*
D29*
X162615000Y-57277000D02*
X162660142Y-57277000D01*
X162660142Y-57277000D02*
X163445000Y-58061858D01*
X163445000Y-58061858D02*
X168118142Y-58061858D01*
X173411858Y-58061858D02*
X173445000Y-58095000D01*
X173445000Y-58095000D02*
X173445000Y-58129000D01*
X168118142Y-58061858D02*
X173411858Y-58061858D01*
D11*
X98333560Y-164043360D02*
X101711760Y-154759660D01*
X101711760Y-154759660D02*
X104729280Y-153352500D01*
X57472580Y-183095900D02*
X98333560Y-164043360D01*
X174942500Y-144790160D02*
X174942500Y-125740160D01*
X174942500Y-125740160D02*
X174942500Y-106690160D01*
X173360080Y-146372580D02*
X174942500Y-144790160D01*
X171450000Y-91132660D02*
X171450000Y-93672660D01*
X171450000Y-129232660D02*
X171450000Y-131772660D01*
X171450000Y-72085200D02*
X171450000Y-74625200D01*
X171450000Y-110182660D02*
X174942500Y-106690160D01*
X171450000Y-148282660D02*
X171450000Y-150822660D01*
X174942500Y-106690160D02*
X174942500Y-87640160D01*
X56400700Y-180794660D02*
X57472580Y-183095900D01*
X171450000Y-72085200D02*
X171450000Y-72072500D01*
X161919920Y-146372580D02*
X157797500Y-150495000D01*
X171450000Y-91132660D02*
X174942500Y-87640160D01*
X161919920Y-146372580D02*
X173360080Y-146372580D01*
X104729280Y-153352500D02*
X117475000Y-153352500D01*
X120332500Y-150495000D02*
X117475000Y-153352500D01*
X157797500Y-150495000D02*
X120332500Y-150495000D01*
X171450000Y-72072500D02*
X174942500Y-68580000D01*
X171450000Y-129232660D02*
X174942500Y-125740160D01*
X171450000Y-148282660D02*
X173360080Y-146372580D01*
X171450000Y-110182660D02*
X171450000Y-112722660D01*
X174942500Y-68580000D02*
X174942500Y-87640160D01*
X86601300Y-146392900D02*
X92301060Y-143736060D01*
X131445000Y-147955000D02*
X133350000Y-146050000D01*
X92301060Y-143736060D02*
X99377500Y-150812500D01*
X133350000Y-67310000D02*
X136842500Y-63817500D01*
X134937500Y-93662500D02*
X134937500Y-89535000D01*
X133350000Y-105410000D02*
X133350000Y-107950000D01*
X133350000Y-124460000D02*
X136842500Y-120967500D01*
X133350000Y-105410000D02*
X136842500Y-101917500D01*
X136842500Y-140017500D02*
X136842500Y-120967500D01*
X133350000Y-143510000D02*
X133350000Y-146050000D01*
X84297520Y-147464780D02*
X86601300Y-146392900D01*
X131445000Y-147955000D02*
X119062500Y-147955000D01*
X136842500Y-87630000D02*
X136842500Y-82867500D01*
X133350000Y-143510000D02*
X136842500Y-140017500D01*
X133350000Y-124460000D02*
X133350000Y-127000000D01*
X116205000Y-150812500D02*
X99377500Y-150812500D01*
X133350000Y-86360000D02*
X136842500Y-82867500D01*
X119062500Y-147955000D02*
X116205000Y-150812500D01*
X134937500Y-89535000D02*
X136842500Y-87630000D01*
X136842500Y-95567500D02*
X134937500Y-93662500D01*
X133350000Y-67310000D02*
X133350000Y-69850000D01*
X133350000Y-86360000D02*
X133350000Y-88900000D01*
X136842500Y-120967500D02*
X136842500Y-101917500D01*
X136842500Y-101917500D02*
X136842500Y-95567500D01*
X136842500Y-63817500D02*
X136842500Y-62230000D01*
X136842500Y-82867500D02*
X136842500Y-63817500D01*
X136842500Y-62230000D02*
X143510000Y-55562500D01*
X154051000Y-55562500D02*
X143510000Y-55562500D01*
X154559000Y-56832500D02*
X144145000Y-56832500D01*
X144145000Y-56832500D02*
X141287500Y-59690000D01*
X141287500Y-64770000D02*
X141287500Y-59690000D01*
X143510000Y-105092500D02*
X141287500Y-102870000D01*
X143510000Y-143192500D02*
X141287500Y-140970000D01*
X152400000Y-145107660D02*
X150484840Y-143192500D01*
X150484840Y-143192500D02*
X143510000Y-143192500D01*
X143192500Y-93662500D02*
X143192500Y-89535000D01*
X152400000Y-107007660D02*
X150484840Y-105092500D01*
X152400000Y-107007660D02*
X152400000Y-109547660D01*
X141287500Y-87630000D02*
X141287500Y-83820000D01*
X152400000Y-126057660D02*
X150484840Y-124142500D01*
X152400000Y-68907660D02*
X152400000Y-71447660D01*
X152400000Y-68907660D02*
X150484840Y-66992500D01*
X141287500Y-95567500D02*
X143192500Y-93662500D01*
X150484840Y-86042500D02*
X143510000Y-86042500D01*
X141287500Y-140970000D02*
X141287500Y-121920000D01*
X150484840Y-124142500D02*
X143510000Y-124142500D01*
X150484840Y-105092500D02*
X143510000Y-105092500D01*
X143510000Y-86042500D02*
X141287500Y-83820000D01*
X152400000Y-145107660D02*
X152400000Y-147647660D01*
X143510000Y-124142500D02*
X141287500Y-121920000D01*
X152400000Y-87957660D02*
X152400000Y-90497660D01*
X99192080Y-152082500D02*
X116840000Y-152082500D01*
X141287500Y-102870000D02*
X141287500Y-95567500D01*
X119697500Y-149225000D02*
X116840000Y-152082500D01*
X141287500Y-145415000D02*
X141287500Y-140970000D01*
X152400000Y-126057660D02*
X152400000Y-128597660D01*
X141287500Y-145415000D02*
X137477500Y-149225000D01*
X137477500Y-149225000D02*
X119697500Y-149225000D01*
X143192500Y-89535000D02*
X141287500Y-87630000D01*
X152400000Y-87957660D02*
X150484840Y-86042500D01*
X150484840Y-66992500D02*
X143510000Y-66992500D01*
X141287500Y-121920000D02*
X141287500Y-102870000D01*
X70487540Y-153906220D02*
X73017380Y-154828240D01*
X69334380Y-154442160D02*
X70487540Y-153906220D01*
X75702160Y-160583880D02*
X78656180Y-161658300D01*
X73017380Y-154828240D02*
X75702160Y-160583880D01*
X78656180Y-161658300D02*
X99192080Y-152082500D01*
X67033140Y-155516580D02*
X69334380Y-154442160D01*
X143510000Y-66992500D02*
X141287500Y-64770000D01*
X141287500Y-83820000D02*
X141287500Y-64770000D01*
X117792500Y-65415160D02*
X117792500Y-62865000D01*
X154051000Y-54292500D02*
X126365000Y-54292500D01*
X126365000Y-54292500D02*
X117792500Y-62865000D01*
X114300000Y-87957660D02*
X117792500Y-84465160D01*
X114300000Y-145107660D02*
X117792500Y-141615160D01*
X117792500Y-84465160D02*
X117792500Y-65415160D01*
X114300000Y-107007660D02*
X117792500Y-103515160D01*
X114300000Y-87957660D02*
X114300000Y-90497660D01*
X114300000Y-107007660D02*
X114300000Y-109547660D01*
X117792500Y-141615160D02*
X117792500Y-122565160D01*
X114300000Y-68907660D02*
X114300000Y-71447660D01*
X48348900Y-163527740D02*
X49423320Y-165831520D01*
X114300000Y-126057660D02*
X117792500Y-122565160D01*
X117792500Y-122565160D02*
X117792500Y-103515160D01*
X48348900Y-163527740D02*
X49423320Y-160576260D01*
X114300000Y-147647660D02*
X112405160Y-149542500D01*
X114300000Y-145107660D02*
X114300000Y-147647660D01*
X117792500Y-103515160D02*
X117792500Y-84465160D01*
X114300000Y-126057660D02*
X114300000Y-128597660D01*
X49423320Y-160576260D02*
X91450160Y-140980160D01*
X114300000Y-68907660D02*
X117792500Y-65415160D01*
X112405160Y-149542500D02*
X100012500Y-149542500D01*
X100012500Y-149542500D02*
X91450160Y-140980160D01*
D31*
X125635000Y-52800000D02*
X125412500Y-53022500D01*
D11*
X107315000Y-55562500D02*
X98742500Y-64135000D01*
X98742500Y-66687700D02*
X98742500Y-64135000D01*
X122872500Y-55562500D02*
X107315000Y-55562500D01*
X125412500Y-53022500D02*
X122872500Y-55562500D01*
D31*
X153797000Y-52800000D02*
X125635000Y-52800000D01*
D11*
X95250000Y-70180200D02*
X98742500Y-66687700D01*
X95250000Y-89227660D02*
X95250000Y-89217500D01*
X58635900Y-140515340D02*
X61168280Y-141437360D01*
X91732100Y-133385560D02*
X78432660Y-133385560D01*
X95250000Y-89227660D02*
X95250000Y-91767660D01*
X98742500Y-104785160D02*
X98742500Y-104775000D01*
X95250000Y-108277660D02*
X98742500Y-104785160D01*
X98742500Y-104775000D02*
X98742500Y-85725000D01*
X77513180Y-135917940D02*
X78432660Y-133385560D01*
X98742500Y-123835160D02*
X95250000Y-127327660D01*
X57564020Y-138211560D02*
X58635900Y-140515340D01*
X61168280Y-141437360D02*
X78432660Y-133385560D01*
X95250000Y-70180200D02*
X95250000Y-72720200D01*
X95250000Y-129867660D02*
X91732100Y-133385560D01*
X98742500Y-85725000D02*
X98742500Y-66687700D01*
X98742500Y-104785160D02*
X98742500Y-123835160D01*
X95250000Y-89217500D02*
X98742500Y-85725000D01*
X95250000Y-108277660D02*
X95250000Y-110817660D01*
X95250000Y-127327660D02*
X95250000Y-129867660D01*
D31*
X124841000Y-51689000D02*
X153543000Y-51689000D01*
X124841000Y-51689000D02*
X124333000Y-52197000D01*
X122237500Y-54292500D02*
X124333000Y-52197000D01*
X121793000Y-54292500D02*
X122237500Y-54292500D01*
X77470000Y-85100160D02*
X77470000Y-73990200D01*
X77470000Y-73990200D02*
X76200000Y-72720200D01*
X83900000Y-82500000D02*
X83900000Y-64100000D01*
X84200000Y-63800000D02*
X84200000Y-63437500D01*
X83900000Y-64100000D02*
X84200000Y-63800000D01*
D11*
X84200000Y-63437500D02*
X84137500Y-63500000D01*
X84137500Y-59055000D02*
X84137500Y-63500000D01*
X88900000Y-54292500D02*
X84137500Y-59055000D01*
X121793000Y-54292500D02*
X88900000Y-54292500D01*
X121920000Y-54292500D02*
X121793000Y-54292500D01*
X77457300Y-70180200D02*
X84200000Y-63437500D01*
X76200000Y-70180200D02*
X77457300Y-70180200D01*
X83900000Y-103000000D02*
X83900000Y-82500000D01*
X80010000Y-113675160D02*
X80010000Y-112590000D01*
X80010000Y-112590000D02*
X83900000Y-108700000D01*
X83900000Y-111300000D02*
X83900000Y-108700000D01*
X83900000Y-111300000D02*
X83900000Y-124500000D01*
X74600000Y-133800000D02*
X83900000Y-124500000D01*
X51200000Y-138700000D02*
X53800000Y-138700000D01*
X53800000Y-138700000D02*
X58700000Y-133800000D01*
X58700000Y-133800000D02*
X74600000Y-133800000D01*
X83900000Y-108700000D02*
X83900000Y-103000000D01*
X51300000Y-138700000D02*
X51200000Y-138700000D01*
X51200000Y-138700000D02*
X50400000Y-138700000D01*
X51300000Y-138700000D02*
X56000000Y-143400000D01*
X59680049Y-143400000D02*
X56000000Y-143400000D01*
X50400000Y-138700000D02*
X49200000Y-139900000D01*
X44800000Y-139900000D02*
X49200000Y-139900000D01*
X41390660Y-143309340D02*
X44800000Y-139900000D01*
X41374060Y-143309340D02*
X40297100Y-146263360D01*
X41374060Y-143309340D02*
X41390660Y-143309340D01*
X59680049Y-143400000D02*
X60247433Y-143967384D01*
X40297100Y-146263360D02*
X41371520Y-148564600D01*
X77470000Y-113675160D02*
X80010000Y-113675160D01*
X76200000Y-70180200D02*
X76200000Y-72720200D01*
X77470000Y-85100160D02*
X80010000Y-85100160D01*
X141986000Y-47665000D02*
X142327000Y-47665000D01*
X142835000Y-47157000D02*
X152527000Y-37465000D01*
X152527000Y-37465000D02*
X153035000Y-37465000D01*
X83865000Y-47665000D02*
X141986000Y-47665000D01*
D30*
X153035000Y-37465000D02*
X153441398Y-37058602D01*
X186055000Y-37058602D02*
X186156602Y-37058602D01*
X155829000Y-37058602D02*
X186156602Y-37058602D01*
X153441398Y-37058602D02*
X155829000Y-37058602D01*
X186055000Y-37058602D02*
X186664602Y-37058602D01*
D11*
X142327000Y-47665000D02*
X142835000Y-47157000D01*
X78965000Y-43765000D02*
X79965000Y-43765000D01*
X83865000Y-47665000D02*
X80465000Y-44265000D01*
X80165000Y-43965000D02*
X80465000Y-44265000D01*
X70665000Y-42965000D02*
X70665000Y-41985000D01*
X70665000Y-42965000D02*
X71465000Y-43765000D01*
X71465000Y-43765000D02*
X78965000Y-43765000D01*
X79965000Y-43765000D02*
X80165000Y-43965000D01*
D30*
X188188602Y-37058602D02*
X188595000Y-37465000D01*
X186664602Y-37058602D02*
X188188602Y-37058602D01*
X186563000Y-37058602D02*
X186664602Y-37058602D01*
D11*
X83765000Y-47665000D02*
X83865000Y-47665000D01*
X80165000Y-49165000D02*
X80045000Y-49165000D01*
X80865000Y-49165000D02*
X80045000Y-49165000D01*
X80665000Y-49165000D02*
X80865000Y-49165000D01*
X80865000Y-49165000D02*
X143165000Y-49165000D01*
D30*
X197365000Y-46065000D02*
X196565000Y-46865000D01*
X197365000Y-43865000D02*
X197365000Y-46065000D01*
X195665000Y-42165000D02*
X197365000Y-43865000D01*
D11*
X181481000Y-40765000D02*
X181737000Y-41021000D01*
D30*
X181381000Y-40665000D02*
X181737000Y-41021000D01*
D11*
X143165000Y-49165000D02*
X143465000Y-48865000D01*
X150315000Y-42015000D02*
X143465000Y-48865000D01*
X143365000Y-48965000D02*
X143465000Y-48865000D01*
X179465000Y-40765000D02*
X181481000Y-40765000D01*
X154165000Y-40765000D02*
X179465000Y-40765000D01*
X151865000Y-40765000D02*
X151565000Y-40765000D01*
X151565000Y-40765000D02*
X150315000Y-42015000D01*
X154265000Y-40765000D02*
X154165000Y-40765000D01*
X154165000Y-40765000D02*
X151865000Y-40765000D01*
X150315000Y-42015000D02*
X150365000Y-41965000D01*
D30*
X178965000Y-40665000D02*
X179565000Y-40665000D01*
X154165000Y-40665000D02*
X154265000Y-40765000D01*
D11*
X78465000Y-49765000D02*
X78565000Y-49765000D01*
X78465000Y-44865000D02*
X78465000Y-49765000D01*
X79972201Y-51172201D02*
X83157799Y-51172201D01*
X78565000Y-49765000D02*
X79972201Y-51172201D01*
D31*
X183007000Y-48387000D02*
X184785000Y-50165000D01*
X154813000Y-45015000D02*
X155759000Y-45015000D01*
X155759000Y-45015000D02*
X159131000Y-48387000D01*
X159131000Y-48387000D02*
X183007000Y-48387000D01*
X155137000Y-45015000D02*
X154813000Y-45015000D01*
D11*
X150915000Y-45015000D02*
X155137000Y-45015000D01*
X145150598Y-50779402D02*
X150915000Y-45015000D01*
X123565000Y-50779402D02*
X145150598Y-50779402D01*
X123422201Y-50922201D02*
X123565000Y-50779402D01*
X123172201Y-51172201D02*
X123422201Y-50922201D01*
X83157799Y-51172201D02*
X123172201Y-51172201D01*
D30*
X171577000Y-54737000D02*
X182753000Y-54737000D01*
X161417000Y-54991000D02*
X161671000Y-54737000D01*
X161671000Y-54737000D02*
X171577000Y-54737000D01*
X182753000Y-54737000D02*
X187325000Y-50165000D01*
X177150000Y-46330000D02*
X177648000Y-46330000D01*
X177150000Y-46330000D02*
X177402108Y-46330000D01*
D31*
X177150000Y-46330000D02*
X177430000Y-46330000D01*
D32*
X34853880Y-137591800D02*
X36540440Y-138206480D01*
X76240640Y-151223980D02*
X77393800Y-150685500D01*
X85176360Y-167375840D02*
X83487260Y-166761160D01*
X44592240Y-155470860D02*
X45128180Y-156621480D01*
X53807360Y-130154680D02*
X54343300Y-131307840D01*
X50954940Y-172123100D02*
X52644040Y-172737780D01*
X75628500Y-152910540D02*
X76240640Y-151223980D01*
X58976260Y-159273240D02*
X60126880Y-158737300D01*
X83487260Y-166761160D02*
X82951320Y-165610540D01*
X66222880Y-174812960D02*
X65684400Y-173662340D01*
X52644040Y-172737780D02*
X53179980Y-173888400D01*
X58361580Y-160962340D02*
X58976260Y-159273240D01*
X67909440Y-175427640D02*
X66222880Y-174812960D01*
X36540440Y-138206480D02*
X37078920Y-139357100D01*
X52118260Y-129542540D02*
X53807360Y-130154680D01*
X42903140Y-154856180D02*
X44592240Y-155470860D01*
D30*
X165227000Y-53975000D02*
X178435000Y-53975000D01*
X160147000Y-54229000D02*
X160401000Y-53975000D01*
X160401000Y-53975000D02*
X165227000Y-53975000D01*
X178435000Y-53975000D02*
X182245000Y-50165000D01*
X174610000Y-46330000D02*
X175054216Y-46330000D01*
D31*
X182081250Y-50328750D02*
X182245000Y-50165000D01*
X174610000Y-46330000D02*
X174610000Y-46410000D01*
D32*
X132080000Y-133350000D02*
X133350000Y-134620000D01*
X190500000Y-139392660D02*
X190500000Y-140662660D01*
X170180000Y-138122660D02*
X171450000Y-139392660D01*
X189230000Y-138122660D02*
X190500000Y-139392660D01*
D11*
X167005000Y-134947660D02*
X170180000Y-138122660D01*
D32*
X114300000Y-136217660D02*
X114300000Y-137487660D01*
X133350000Y-134620000D02*
X133350000Y-135890000D01*
X113030000Y-134947660D02*
X114300000Y-136217660D01*
X151130000Y-134947660D02*
X152400000Y-136217660D01*
D11*
X151130000Y-134947660D02*
X167005000Y-134947660D01*
D32*
X77434440Y-138755120D02*
X79123540Y-139369800D01*
X152400000Y-136217660D02*
X152400000Y-137487660D01*
X60170060Y-146806920D02*
X61856620Y-147421600D01*
X171450000Y-139392660D02*
X171450000Y-140662660D01*
X79123540Y-139369800D02*
X79659480Y-140520420D01*
X61856620Y-147421600D02*
X62395100Y-148572220D01*
D31*
X178943000Y-75311000D02*
X178943000Y-115951000D01*
X179705000Y-58547000D02*
X178943000Y-59309000D01*
X178943000Y-59309000D02*
X178943000Y-75311000D01*
X178435000Y-116459000D02*
X178435000Y-116586000D01*
X178943000Y-115951000D02*
X178435000Y-116459000D01*
X178435000Y-116586000D02*
X178181000Y-116840000D01*
X178689000Y-116332000D02*
X178435000Y-116586000D01*
D30*
X179705000Y-50165000D02*
X179485000Y-50165000D01*
D33*
X179705000Y-50165000D02*
X179575000Y-50165000D01*
D30*
X172070000Y-46330000D02*
X172070000Y-46610000D01*
D32*
X93980000Y-117167660D02*
X95250000Y-118437660D01*
X193992500Y-119072660D02*
X195262500Y-120342660D01*
X114300000Y-117167660D02*
X114300000Y-118437660D01*
D11*
X151130000Y-115897660D02*
X167005000Y-115897660D01*
D32*
X95250000Y-118437660D02*
X95250000Y-119707660D01*
X132080000Y-114300000D02*
X133350000Y-115570000D01*
X170180000Y-119072660D02*
X171450000Y-120342660D01*
X171450000Y-120342660D02*
X171450000Y-121612660D01*
X151130000Y-115897660D02*
X152400000Y-117167660D01*
X113030000Y-115897660D02*
X114300000Y-117167660D01*
X67310000Y-114945160D02*
X68580000Y-113675160D01*
X133350000Y-115570000D02*
X133350000Y-116840000D01*
X68580000Y-113675160D02*
X69850000Y-113675160D01*
D11*
X167005000Y-115897660D02*
X170180000Y-119072660D01*
D32*
X152400000Y-117167660D02*
X152400000Y-118437660D01*
X195262500Y-120342660D02*
X195262500Y-121612660D01*
D31*
X177419000Y-62103000D02*
X177419000Y-97663000D01*
X177419000Y-97663000D02*
X177165000Y-97917000D01*
X177419000Y-58801000D02*
X177419000Y-62103000D01*
X177165000Y-58547000D02*
X177419000Y-58801000D01*
D30*
X169530000Y-46330000D02*
X169630000Y-46330000D01*
D33*
X169530000Y-46330000D02*
X169530000Y-46350000D01*
X177165000Y-50165000D02*
X177105000Y-50165000D01*
D32*
X171450000Y-101292660D02*
X171450000Y-102562660D01*
X132080000Y-95250000D02*
X133350000Y-96520000D01*
X114300000Y-98117660D02*
X114300000Y-99387660D01*
X195262500Y-101292660D02*
X195262500Y-102562660D01*
X170180000Y-100022660D02*
X171450000Y-101292660D01*
D11*
X151130000Y-96847660D02*
X167005000Y-96847660D01*
D32*
X93980000Y-98117660D02*
X95250000Y-99387660D01*
X152400000Y-98117660D02*
X152400000Y-99387660D01*
X151130000Y-96847660D02*
X152400000Y-98117660D01*
D11*
X167005000Y-96847660D02*
X170180000Y-100022660D01*
D32*
X193992500Y-100022660D02*
X195262500Y-101292660D01*
X113030000Y-96847660D02*
X114300000Y-98117660D01*
X95250000Y-99387660D02*
X95250000Y-100657660D01*
X133350000Y-96520000D02*
X133350000Y-97790000D01*
X195262500Y-82242660D02*
X195262500Y-83512660D01*
X193992500Y-80972660D02*
X195262500Y-82242660D01*
D31*
X176403000Y-59309000D02*
X176403000Y-78613000D01*
X175641000Y-58547000D02*
X176403000Y-59309000D01*
D11*
X151130000Y-77797660D02*
X159817660Y-77797660D01*
X167005000Y-77797660D02*
X162765000Y-77797660D01*
X167005000Y-77797660D02*
X170180000Y-80972660D01*
X162765000Y-77797660D02*
X159817660Y-77797660D01*
D32*
X114300000Y-79067660D02*
X114300000Y-80337660D01*
X93980000Y-79067660D02*
X95250000Y-80337660D01*
X170180000Y-80972660D02*
X171450000Y-82242660D01*
X171450000Y-82242660D02*
X171450000Y-83512660D01*
X67310000Y-86370160D02*
X68580000Y-85100160D01*
X151130000Y-77797660D02*
X152400000Y-79067660D01*
X152400000Y-79067660D02*
X152400000Y-80337660D01*
X95250000Y-80337660D02*
X95250000Y-81607660D01*
X68580000Y-85100160D02*
X69850000Y-85100160D01*
X133350000Y-77470000D02*
X133350000Y-78740000D01*
X132080000Y-76200000D02*
X133350000Y-77470000D01*
X113030000Y-77797660D02*
X114300000Y-79067660D01*
D33*
X164465000Y-46345000D02*
X164450000Y-46330000D01*
D31*
X170180000Y-61925200D02*
X167002460Y-58747660D01*
X167002460Y-58747660D02*
X151130000Y-58747660D01*
D32*
X133350000Y-58420000D02*
X133350000Y-59690000D01*
X76200000Y-61290200D02*
X76200000Y-62560200D01*
X93980000Y-60020200D02*
X95250000Y-61290200D01*
X151130000Y-58747660D02*
X152400000Y-60017660D01*
X152400000Y-60017660D02*
X152400000Y-61287660D01*
X171450000Y-63195200D02*
X171450000Y-64465200D01*
X170180000Y-61925200D02*
X171450000Y-63195200D01*
X95250000Y-61290200D02*
X95250000Y-62560200D01*
X114300000Y-60017660D02*
X114300000Y-61287660D01*
X74930000Y-60020200D02*
X76200000Y-61290200D01*
X113030000Y-58747660D02*
X114300000Y-60017660D01*
X195262500Y-63195200D02*
X195262500Y-64465200D01*
X193992500Y-61925200D02*
X195262500Y-63195200D01*
X132080000Y-57150000D02*
X133350000Y-58420000D01*
D30*
X103488602Y-39751000D02*
X103488602Y-39767398D01*
X111252000Y-39751000D02*
X103488602Y-39751000D01*
X99695000Y-43561000D02*
X89992200Y-43561000D01*
X103488602Y-39767398D02*
X99695000Y-43561000D01*
X89992200Y-43561000D02*
X87909400Y-41478200D01*
X111252000Y-39751000D02*
X116586000Y-45085000D01*
X143637000Y-42799000D02*
X143601000Y-42835000D01*
X143601000Y-42835000D02*
X143601000Y-42841000D01*
X140335000Y-45085000D02*
X141351000Y-45085000D01*
X116586000Y-45085000D02*
X140335000Y-45085000D01*
X141351000Y-45085000D02*
X142875000Y-43561000D01*
X143601000Y-42841000D02*
X142875000Y-43561000D01*
X153035000Y-33401000D02*
X169545000Y-33401000D01*
X153035000Y-33401000D02*
X152019000Y-34417000D01*
X84709000Y-41478200D02*
X87909400Y-41478200D01*
X101092000Y-38100000D02*
X109610000Y-38100000D01*
X93980000Y-40005000D02*
X95885000Y-38100000D01*
X101092000Y-38100000D02*
X95885000Y-38100000D01*
X109610000Y-38100000D02*
X111245000Y-36465000D01*
X111245000Y-36465000D02*
X111365000Y-36465000D01*
X111365000Y-36465000D02*
X118814602Y-43914602D01*
X118765000Y-43865000D02*
X118765000Y-43914602D01*
X118814602Y-43914602D02*
X118765000Y-43865000D01*
X139572458Y-43914602D02*
X140743398Y-43914602D01*
X145923000Y-41783000D02*
X142875000Y-41783000D01*
X150241000Y-37465000D02*
X147447000Y-40259000D01*
X162179000Y-36449000D02*
X170561000Y-36449000D01*
X150241000Y-37465000D02*
X151257000Y-36449000D01*
X162179000Y-36449000D02*
X151257000Y-36449000D01*
X147447000Y-40259000D02*
X145923000Y-41783000D01*
X140843000Y-43815000D02*
X142875000Y-41783000D01*
X140743940Y-43914060D02*
X140843000Y-43815000D01*
X140743398Y-43914602D02*
X140743940Y-43914060D01*
X185547000Y-36449000D02*
X194691000Y-36449000D01*
X195707000Y-43561000D02*
X192938000Y-46330000D01*
X194691000Y-36449000D02*
X195453000Y-37211000D01*
X170561000Y-36449000D02*
X185547000Y-36449000D01*
X170561000Y-36449000D02*
X172085000Y-34925000D01*
X118765000Y-43914602D02*
X139572458Y-43914602D01*
X139572458Y-43914602D02*
X139573000Y-43914060D01*
X192938000Y-46330000D02*
X192390000Y-46330000D01*
D34*
X192405000Y-46315000D02*
X192390000Y-46330000D01*
D11*
X134493000Y-42164000D02*
X140563600Y-42164000D01*
X130175000Y-42164000D02*
X134493000Y-42164000D01*
X140563600Y-42164000D02*
X142468600Y-40259000D01*
D31*
X198501000Y-37719000D02*
X200533000Y-37719000D01*
X200533000Y-37719000D02*
X201549000Y-38735000D01*
X196977000Y-38735000D02*
X197485000Y-38735000D01*
X194955000Y-38735000D02*
X196977000Y-38735000D01*
X197485000Y-38735000D02*
X198501000Y-37719000D01*
X201549000Y-36703000D02*
X201549000Y-38735000D01*
X200533000Y-35687000D02*
X201549000Y-36703000D01*
X201549000Y-38735000D02*
X201549000Y-42719000D01*
X201549000Y-42719000D02*
X199517000Y-44751000D01*
X197993000Y-33147000D02*
X200533000Y-35687000D01*
X196469000Y-33147000D02*
X197993000Y-33147000D01*
X169545000Y-34925000D02*
X171323000Y-33147000D01*
X173355000Y-33147000D02*
X171323000Y-33147000D01*
X190881000Y-33147000D02*
X173355000Y-33147000D01*
X196215000Y-33147000D02*
X190881000Y-33147000D01*
X196469000Y-33147000D02*
X196215000Y-33147000D01*
X199497000Y-48895000D02*
X199497000Y-44771000D01*
X199497000Y-44771000D02*
X199517000Y-44751000D01*
X199497000Y-48621000D02*
X199497000Y-48895000D01*
X199497000Y-48895000D02*
X199497000Y-51121000D01*
X199497000Y-51121000D02*
X194691000Y-55927000D01*
X192151000Y-56005000D02*
X194613000Y-56005000D01*
X194613000Y-56005000D02*
X194691000Y-55927000D01*
X182753000Y-56005000D02*
X165525000Y-56005000D01*
X165525000Y-56005000D02*
X165495000Y-55975000D01*
X192153000Y-56005000D02*
X192151000Y-56005000D01*
X192151000Y-56005000D02*
X182753000Y-56005000D01*
X182753000Y-56005000D02*
X182685000Y-56005000D01*
D33*
X165495000Y-55975000D02*
X165525000Y-56005000D01*
D31*
X199517000Y-48601000D02*
X199497000Y-48621000D01*
D35*
X139242800Y-37279580D02*
X140679580Y-37279580D01*
X140679580Y-37279580D02*
X142468600Y-39068600D01*
X142468600Y-39068600D02*
X142468600Y-40259000D01*
D31*
X187765000Y-44365000D02*
X189665000Y-42465000D01*
X187765000Y-44365000D02*
X186735000Y-44365000D01*
X186735000Y-44365000D02*
X184770000Y-46330000D01*
X194955000Y-38735000D02*
X194930000Y-38710000D01*
D35*
X192390000Y-38710000D02*
X194930000Y-38710000D01*
X189850000Y-38710000D02*
X192390000Y-38710000D01*
D11*
X184770000Y-46330000D02*
X185014000Y-46330000D01*
X96647000Y-42418000D02*
X98425000Y-42418000D01*
X89941400Y-38379400D02*
X93980000Y-42418000D01*
X93980000Y-42418000D02*
X96647000Y-42418000D01*
X98425000Y-42418000D02*
X101092000Y-39751000D01*
X89916000Y-38379400D02*
X89941400Y-38379400D01*
D35*
X153035000Y-46736000D02*
X158877000Y-52578000D01*
X167132000Y-52578000D02*
X169545000Y-50165000D01*
X158877000Y-52578000D02*
X167132000Y-52578000D01*
D11*
X88239600Y-36703000D02*
X89916000Y-38379400D01*
X84201000Y-36703000D02*
X88239600Y-36703000D01*
X82702400Y-38201600D02*
X84201000Y-36703000D01*
D30*
X82702400Y-38379400D02*
X82702400Y-38201600D01*
D31*
X196672198Y-40767000D02*
X198501000Y-40767000D01*
X187579000Y-40767000D02*
X196672198Y-40767000D01*
X198501000Y-40767000D02*
X199517000Y-39751000D01*
X179715000Y-43815000D02*
X182230000Y-46330000D01*
X153797000Y-43815000D02*
X163195000Y-43815000D01*
X163195000Y-43815000D02*
X179715000Y-43815000D01*
X154051000Y-43815000D02*
X153797000Y-43815000D01*
X150114000Y-43815000D02*
X154051000Y-43815000D01*
D35*
X136042400Y-37279580D02*
X134350420Y-37279580D01*
X132816600Y-38813400D02*
X132816600Y-40259000D01*
X134350420Y-37279580D02*
X132816600Y-38813400D01*
D11*
X136042400Y-37279580D02*
X135856980Y-37465000D01*
D31*
X182230000Y-46330000D02*
X182230000Y-46340000D01*
X187579000Y-38979000D02*
X187579000Y-40767000D01*
X185547000Y-42799000D02*
X185420000Y-42926000D01*
X185420000Y-42926000D02*
X182230000Y-46116000D01*
X187579000Y-40767000D02*
X185547000Y-42799000D01*
X187579000Y-38979000D02*
X187310000Y-38710000D01*
X182230000Y-46330000D02*
X182230000Y-46116000D01*
D11*
X187325000Y-38725000D02*
X187310000Y-38710000D01*
D32*
X54950360Y-150642320D02*
X55488840Y-151792940D01*
X55565040Y-148953220D02*
X54950360Y-150642320D01*
D11*
X55565040Y-148953220D02*
X53878480Y-148338540D01*
X53878480Y-148338540D02*
X53340000Y-147187920D01*
X71142860Y-140289280D02*
X70606920Y-139136120D01*
X72829420Y-140901420D02*
X71142860Y-140289280D01*
D32*
X72829420Y-140901420D02*
X72217280Y-142590520D01*
X72217280Y-142590520D02*
X72753220Y-143741140D01*
D35*
X137642600Y-37279580D02*
X137642600Y-40259000D01*
X138442700Y-36080700D02*
X138442700Y-35587300D01*
D11*
X92710000Y-37465000D02*
X93980000Y-37465000D01*
X90957400Y-33375600D02*
X90957400Y-35712400D01*
X90957400Y-35712400D02*
X92710000Y-37465000D01*
X81661000Y-33375600D02*
X81661000Y-35496500D01*
X79692500Y-37465000D02*
X78740000Y-37465000D01*
X81661000Y-35496500D02*
X79692500Y-37465000D01*
X66465000Y-43765000D02*
X67865000Y-43765000D01*
X73965000Y-49865000D02*
X73965000Y-52145000D01*
X67865000Y-43765000D02*
X73965000Y-49865000D01*
X68465000Y-54065000D02*
X75445000Y-54065000D01*
X66465000Y-50165000D02*
X66465000Y-52065000D01*
X66465000Y-52065000D02*
X67865000Y-53465000D01*
X68465000Y-54065000D02*
X67865000Y-53465000D01*
X75445000Y-54065000D02*
X77365000Y-52145000D01*
D32*
X29634180Y-141427200D02*
X30172660Y-142577820D01*
X30248860Y-139738100D02*
X29634180Y-141427200D01*
D11*
X33393380Y-149484080D02*
X34465260Y-151785320D01*
D32*
X47513240Y-131688840D02*
X46901100Y-133375400D01*
X46901100Y-133375400D02*
X47437040Y-134526020D01*
D11*
X50657760Y-141432280D02*
X51729640Y-143736060D01*
X41442640Y-166748460D02*
X42517060Y-169052240D01*
D32*
X37685980Y-158691580D02*
X38221920Y-159842200D01*
X38300660Y-157005020D02*
X37685980Y-158691580D01*
X79461360Y-158127700D02*
X80611980Y-157591760D01*
X90393520Y-163540440D02*
X89857580Y-162389820D01*
X89778840Y-165229540D02*
X90393520Y-163540440D01*
D11*
X87518240Y-154371040D02*
X89822020Y-153299160D01*
D32*
X77774800Y-157515560D02*
X79461360Y-158127700D01*
X72514460Y-173278800D02*
X73129140Y-171592240D01*
X73129140Y-171592240D02*
X72590660Y-170441620D01*
X60507880Y-165564820D02*
X62196980Y-166179500D01*
X62196980Y-166179500D02*
X63347600Y-165643560D01*
D11*
X70253860Y-162422840D02*
X72555100Y-161348420D01*
D32*
X45737780Y-175955960D02*
X46273720Y-177109120D01*
D11*
X49494440Y-184015380D02*
X50566320Y-186316620D01*
D32*
X46349920Y-174269400D02*
X45737780Y-175955960D01*
D11*
X106680000Y-145107660D02*
X106680000Y-147647660D01*
D32*
X106680000Y-136217660D02*
X106680000Y-137487660D01*
X107950000Y-134947660D02*
X106680000Y-136217660D01*
D11*
X125730000Y-143510000D02*
X125730000Y-146050000D01*
D32*
X125730000Y-134620000D02*
X125730000Y-135890000D01*
X127000000Y-133350000D02*
X125730000Y-134620000D01*
X146050000Y-134947660D02*
X144780000Y-136217660D01*
X144780000Y-136217660D02*
X144780000Y-137487660D01*
D11*
X144780000Y-145107660D02*
X144780000Y-147647660D01*
D32*
X163830000Y-139392660D02*
X163830000Y-140662660D01*
D11*
X163830000Y-148282660D02*
X163830000Y-150822660D01*
D32*
X165100000Y-138122660D02*
X163830000Y-139392660D01*
X184150000Y-138122660D02*
X182880000Y-139392660D01*
D11*
X182880000Y-148282660D02*
X182880000Y-150822660D01*
D32*
X182880000Y-139392660D02*
X182880000Y-140662660D01*
X68580000Y-121295160D02*
X69850000Y-121295160D01*
D11*
X77470000Y-121295160D02*
X80010000Y-121295160D01*
D32*
X67310000Y-120025160D02*
X68580000Y-121295160D01*
X88900000Y-117167660D02*
X87630000Y-118437660D01*
X87630000Y-118437660D02*
X87630000Y-119707660D01*
D11*
X87630000Y-127327660D02*
X87630000Y-129867660D01*
D32*
X106680000Y-117167660D02*
X106680000Y-118437660D01*
X107950000Y-115897660D02*
X106680000Y-117167660D01*
D11*
X106680000Y-126057660D02*
X106680000Y-128597660D01*
D32*
X125730000Y-115570000D02*
X125730000Y-116840000D01*
D11*
X125730000Y-124460000D02*
X125730000Y-127000000D01*
D32*
X127000000Y-114300000D02*
X125730000Y-115570000D01*
X144780000Y-117167660D02*
X144780000Y-118437660D01*
D11*
X144780000Y-126057660D02*
X144780000Y-128597660D01*
D32*
X146050000Y-115897660D02*
X144780000Y-117167660D01*
D11*
X163830000Y-129232660D02*
X163830000Y-131772660D01*
D32*
X163830000Y-120342660D02*
X163830000Y-121612660D01*
X165100000Y-119072660D02*
X163830000Y-120342660D01*
X181610000Y-126692660D02*
X182880000Y-127962660D01*
X187642500Y-120342660D02*
X187642500Y-121612660D01*
D11*
X187642500Y-129232660D02*
X187642500Y-131772660D01*
D32*
X188912500Y-119072660D02*
X187642500Y-120342660D01*
X182880000Y-127962660D02*
X184150000Y-127962660D01*
D11*
X87630000Y-108277660D02*
X87630000Y-110817660D01*
D32*
X87630000Y-99387660D02*
X87630000Y-100657660D01*
X88900000Y-98117660D02*
X87630000Y-99387660D01*
X107950000Y-96847660D02*
X106680000Y-98117660D01*
X106680000Y-98117660D02*
X106680000Y-99387660D01*
D11*
X106680000Y-107007660D02*
X106680000Y-109547660D01*
X125730000Y-105410000D02*
X125730000Y-107950000D01*
D32*
X127000000Y-95250000D02*
X125730000Y-96520000D01*
X125730000Y-96520000D02*
X125730000Y-97790000D01*
X146050000Y-96847660D02*
X144780000Y-98117660D01*
X144780000Y-98117660D02*
X144780000Y-99387660D01*
D11*
X144780000Y-107007660D02*
X144780000Y-109547660D01*
D32*
X165100000Y-100022660D02*
X163830000Y-101292660D01*
D11*
X163830000Y-110182660D02*
X163830000Y-112722660D01*
D32*
X163830000Y-101292660D02*
X163830000Y-102562660D01*
X182880000Y-108912660D02*
X184150000Y-108912660D01*
D11*
X187642500Y-110182660D02*
X187642500Y-112722660D01*
D32*
X188912500Y-100022660D02*
X187642500Y-101292660D01*
X181610000Y-107642660D02*
X182880000Y-108912660D01*
X187642500Y-101292660D02*
X187642500Y-102562660D01*
X68580000Y-92720160D02*
X69850000Y-92720160D01*
D11*
X77470000Y-92720160D02*
X80010000Y-92720160D01*
D32*
X67310000Y-91450160D02*
X68580000Y-92720160D01*
D11*
X87630000Y-89227660D02*
X87630000Y-91767660D01*
D32*
X87630000Y-80337660D02*
X87630000Y-81607660D01*
X88900000Y-79067660D02*
X87630000Y-80337660D01*
D11*
X106680000Y-87957660D02*
X106680000Y-90497660D01*
D32*
X107950000Y-77797660D02*
X106680000Y-79067660D01*
X106680000Y-79067660D02*
X106680000Y-80337660D01*
X125730000Y-77470000D02*
X125730000Y-78740000D01*
X127000000Y-76200000D02*
X125730000Y-77470000D01*
D11*
X125730000Y-86360000D02*
X125730000Y-88900000D01*
X144780000Y-87957660D02*
X144780000Y-90497660D01*
D32*
X144780000Y-79067660D02*
X144780000Y-80337660D01*
X146050000Y-77797660D02*
X144780000Y-79067660D01*
X163830000Y-82242660D02*
X163830000Y-83512660D01*
D11*
X163830000Y-91132660D02*
X163830000Y-93672660D01*
D32*
X165100000Y-80972660D02*
X163830000Y-82242660D01*
D11*
X187642500Y-91132660D02*
X187642500Y-93672660D01*
D32*
X188912500Y-80972660D02*
X187642500Y-82242660D01*
X187642500Y-82242660D02*
X187642500Y-83512660D01*
X182880000Y-89862660D02*
X184150000Y-89862660D01*
X181610000Y-88592660D02*
X182880000Y-89862660D01*
D11*
X68580000Y-70180200D02*
X68580000Y-72720200D01*
D32*
X69850000Y-60020200D02*
X68580000Y-61290200D01*
X68580000Y-61290200D02*
X68580000Y-62560200D01*
D11*
X87630000Y-70180200D02*
X87630000Y-72720200D01*
D32*
X87630000Y-61290200D02*
X87630000Y-62560200D01*
X88900000Y-60020200D02*
X87630000Y-61290200D01*
D11*
X106680000Y-68907660D02*
X106680000Y-71447660D01*
D32*
X107950000Y-58747660D02*
X106680000Y-60017660D01*
X106680000Y-60017660D02*
X106680000Y-61287660D01*
X127000000Y-57150000D02*
X125730000Y-58420000D01*
X125730000Y-58420000D02*
X125730000Y-59690000D01*
D11*
X125730000Y-67310000D02*
X125730000Y-69850000D01*
D32*
X146050000Y-58747660D02*
X144780000Y-60017660D01*
X144780000Y-60017660D02*
X144780000Y-61287660D01*
D11*
X144780000Y-68907660D02*
X144780000Y-71447660D01*
D32*
X165100000Y-61925200D02*
X163830000Y-63195200D01*
X163830000Y-63195200D02*
X163830000Y-64465200D01*
D11*
X163830000Y-72085200D02*
X163830000Y-74625200D01*
D32*
X181610000Y-69545200D02*
X182880000Y-70815200D01*
X188912500Y-61925200D02*
X187642500Y-63195200D01*
X187642500Y-63195200D02*
X187642500Y-64465200D01*
D11*
X187642500Y-72085200D02*
X187642500Y-74625200D01*
D32*
X182880000Y-70815200D02*
X184150000Y-70815200D01*
D31*
X184770000Y-38710000D02*
X185260000Y-38710000D01*
D30*
X179690000Y-46330000D02*
X179919204Y-46330000D01*
D31*
X179690000Y-46330000D02*
X179830000Y-46330000D01*
D33*
X162355000Y-46775000D02*
X161910000Y-46330000D01*
D31*
X182230000Y-38710000D02*
X182230000Y-38960000D01*
X161925000Y-50165000D02*
X162435000Y-50165000D01*
M02*
