G04 #@! TF.FileFunction,Legend,Bot*
%FSLAX46Y46*%
G04 Gerber Fmt 4.6, Leading zero omitted, Abs format (unit mm)*
G04 Created by KiCad (PCBNEW 4.0.2-stable) date 2016/09/05 11:36:04*
%MOMM*%
G01*
G04 APERTURE LIST*
%ADD10C,0.150000*%
%ADD11C,0.304800*%
%ADD12C,0.254000*%
%ADD13C,0.203200*%
%ADD14C,1.905000*%
%ADD15C,0.508000*%
%ADD16C,0.300000*%
%ADD17C,0.381000*%
%ADD18C,0.457200*%
G04 APERTURE END LIST*
D10*
D11*
X156210000Y-46355000D02*
X160655000Y-46355000D01*
X156210000Y-38735000D02*
X156210000Y-46355000D01*
X160655000Y-38735000D02*
X156210000Y-38735000D01*
X157637238Y-40621857D02*
X159282190Y-40621857D01*
X159475714Y-40694429D01*
X159572476Y-40767000D01*
X159669238Y-40912143D01*
X159669238Y-41202429D01*
X159572476Y-41347571D01*
X159475714Y-41420143D01*
X159282190Y-41492714D01*
X157637238Y-41492714D01*
X159572476Y-42145857D02*
X159669238Y-42363571D01*
X159669238Y-42726428D01*
X159572476Y-42871571D01*
X159475714Y-42944142D01*
X159282190Y-43016714D01*
X159088667Y-43016714D01*
X158895143Y-42944142D01*
X158798381Y-42871571D01*
X158701619Y-42726428D01*
X158604857Y-42436142D01*
X158508095Y-42291000D01*
X158411333Y-42218428D01*
X158217810Y-42145857D01*
X158024286Y-42145857D01*
X157830762Y-42218428D01*
X157734000Y-42291000D01*
X157637238Y-42436142D01*
X157637238Y-42799000D01*
X157734000Y-43016714D01*
X158604857Y-44177857D02*
X158701619Y-44395571D01*
X158798381Y-44468143D01*
X158991905Y-44540714D01*
X159282190Y-44540714D01*
X159475714Y-44468143D01*
X159572476Y-44395571D01*
X159669238Y-44250429D01*
X159669238Y-43669857D01*
X157637238Y-43669857D01*
X157637238Y-44177857D01*
X157734000Y-44323000D01*
X157830762Y-44395571D01*
X158024286Y-44468143D01*
X158217810Y-44468143D01*
X158411333Y-44395571D01*
X158508095Y-44323000D01*
X158604857Y-44177857D01*
X158604857Y-43669857D01*
X203287476Y-73667572D02*
X203384238Y-73885286D01*
X203384238Y-74248143D01*
X203287476Y-74393286D01*
X203190714Y-74465857D01*
X202997190Y-74538429D01*
X202803667Y-74538429D01*
X202610143Y-74465857D01*
X202513381Y-74393286D01*
X202416619Y-74248143D01*
X202319857Y-73957857D01*
X202223095Y-73812715D01*
X202126333Y-73740143D01*
X201932810Y-73667572D01*
X201739286Y-73667572D01*
X201545762Y-73740143D01*
X201449000Y-73812715D01*
X201352238Y-73957857D01*
X201352238Y-74320715D01*
X201449000Y-74538429D01*
X202029571Y-75191572D02*
X204061571Y-75191572D01*
X202126333Y-75191572D02*
X202029571Y-75336715D01*
X202029571Y-75627001D01*
X202126333Y-75772144D01*
X202223095Y-75844715D01*
X202416619Y-75917286D01*
X202997190Y-75917286D01*
X203190714Y-75844715D01*
X203287476Y-75772144D01*
X203384238Y-75627001D01*
X203384238Y-75336715D01*
X203287476Y-75191572D01*
X203287476Y-77151001D02*
X203384238Y-77005858D01*
X203384238Y-76715572D01*
X203287476Y-76570429D01*
X203093952Y-76497858D01*
X202319857Y-76497858D01*
X202126333Y-76570429D01*
X202029571Y-76715572D01*
X202029571Y-77005858D01*
X202126333Y-77151001D01*
X202319857Y-77223572D01*
X202513381Y-77223572D01*
X202706905Y-76497858D01*
X203287476Y-78529858D02*
X203384238Y-78384715D01*
X203384238Y-78094429D01*
X203287476Y-77949287D01*
X203190714Y-77876715D01*
X202997190Y-77804144D01*
X202416619Y-77804144D01*
X202223095Y-77876715D01*
X202126333Y-77949287D01*
X202029571Y-78094429D01*
X202029571Y-78384715D01*
X202126333Y-78529858D01*
X203384238Y-79183001D02*
X202029571Y-79183001D01*
X201352238Y-79183001D02*
X201449000Y-79110430D01*
X201545762Y-79183001D01*
X201449000Y-79255573D01*
X201352238Y-79183001D01*
X201545762Y-79183001D01*
X203384238Y-80561858D02*
X202319857Y-80561858D01*
X202126333Y-80489287D01*
X202029571Y-80344144D01*
X202029571Y-80053858D01*
X202126333Y-79908715D01*
X203287476Y-80561858D02*
X203384238Y-80416715D01*
X203384238Y-80053858D01*
X203287476Y-79908715D01*
X203093952Y-79836144D01*
X202900429Y-79836144D01*
X202706905Y-79908715D01*
X202610143Y-80053858D01*
X202610143Y-80416715D01*
X202513381Y-80561858D01*
X203384238Y-81505286D02*
X203287476Y-81360144D01*
X203093952Y-81287572D01*
X201352238Y-81287572D01*
X201352238Y-83029287D02*
X201352238Y-83900144D01*
X203384238Y-83464715D02*
X201352238Y-83464715D01*
X203384238Y-84408144D02*
X201352238Y-84408144D01*
X203384238Y-85061287D02*
X202319857Y-85061287D01*
X202126333Y-84988716D01*
X202029571Y-84843573D01*
X202029571Y-84625858D01*
X202126333Y-84480716D01*
X202223095Y-84408144D01*
X203384238Y-86440144D02*
X202319857Y-86440144D01*
X202126333Y-86367573D01*
X202029571Y-86222430D01*
X202029571Y-85932144D01*
X202126333Y-85787001D01*
X203287476Y-86440144D02*
X203384238Y-86295001D01*
X203384238Y-85932144D01*
X203287476Y-85787001D01*
X203093952Y-85714430D01*
X202900429Y-85714430D01*
X202706905Y-85787001D01*
X202610143Y-85932144D01*
X202610143Y-86295001D01*
X202513381Y-86440144D01*
X202029571Y-87165858D02*
X203384238Y-87165858D01*
X202223095Y-87165858D02*
X202126333Y-87238430D01*
X202029571Y-87383572D01*
X202029571Y-87601287D01*
X202126333Y-87746430D01*
X202319857Y-87819001D01*
X203384238Y-87819001D01*
X203384238Y-88544715D02*
X201352238Y-88544715D01*
X202610143Y-88689858D02*
X203384238Y-89125287D01*
X202029571Y-89125287D02*
X202803667Y-88544715D01*
X203287476Y-89705858D02*
X203384238Y-89851001D01*
X203384238Y-90141286D01*
X203287476Y-90286429D01*
X203093952Y-90359001D01*
X202997190Y-90359001D01*
X202803667Y-90286429D01*
X202706905Y-90141286D01*
X202706905Y-89923572D01*
X202610143Y-89778429D01*
X202416619Y-89705858D01*
X202319857Y-89705858D01*
X202126333Y-89778429D01*
X202029571Y-89923572D01*
X202029571Y-90141286D01*
X202126333Y-90286429D01*
X202029571Y-91955572D02*
X202029571Y-92536143D01*
X201352238Y-92173286D02*
X203093952Y-92173286D01*
X203287476Y-92245858D01*
X203384238Y-92391000D01*
X203384238Y-92536143D01*
X203384238Y-93261857D02*
X203287476Y-93116715D01*
X203190714Y-93044143D01*
X202997190Y-92971572D01*
X202416619Y-92971572D01*
X202223095Y-93044143D01*
X202126333Y-93116715D01*
X202029571Y-93261857D01*
X202029571Y-93479572D01*
X202126333Y-93624715D01*
X202223095Y-93697286D01*
X202416619Y-93769857D01*
X202997190Y-93769857D01*
X203190714Y-93697286D01*
X203287476Y-93624715D01*
X203384238Y-93479572D01*
X203384238Y-93261857D01*
X201352238Y-95874429D02*
X201352238Y-96164715D01*
X201449000Y-96309857D01*
X201642524Y-96455000D01*
X202029571Y-96527572D01*
X202706905Y-96527572D01*
X203093952Y-96455000D01*
X203287476Y-96309857D01*
X203384238Y-96164715D01*
X203384238Y-95874429D01*
X203287476Y-95729286D01*
X203093952Y-95584143D01*
X202706905Y-95511572D01*
X202029571Y-95511572D01*
X201642524Y-95584143D01*
X201449000Y-95729286D01*
X201352238Y-95874429D01*
X203384238Y-97180714D02*
X202029571Y-97180714D01*
X202416619Y-97180714D02*
X202223095Y-97253286D01*
X202126333Y-97325857D01*
X202029571Y-97471000D01*
X202029571Y-97616143D01*
X203384238Y-98124143D02*
X202029571Y-98124143D01*
X201352238Y-98124143D02*
X201449000Y-98051572D01*
X201545762Y-98124143D01*
X201449000Y-98196715D01*
X201352238Y-98124143D01*
X201545762Y-98124143D01*
X202029571Y-99503000D02*
X203674524Y-99503000D01*
X203868048Y-99430429D01*
X203964810Y-99357857D01*
X204061571Y-99212714D01*
X204061571Y-98995000D01*
X203964810Y-98849857D01*
X203287476Y-99503000D02*
X203384238Y-99357857D01*
X203384238Y-99067571D01*
X203287476Y-98922429D01*
X203190714Y-98849857D01*
X202997190Y-98777286D01*
X202416619Y-98777286D01*
X202223095Y-98849857D01*
X202126333Y-98922429D01*
X202029571Y-99067571D01*
X202029571Y-99357857D01*
X202126333Y-99503000D01*
X203384238Y-100228714D02*
X202029571Y-100228714D01*
X201352238Y-100228714D02*
X201449000Y-100156143D01*
X201545762Y-100228714D01*
X201449000Y-100301286D01*
X201352238Y-100228714D01*
X201545762Y-100228714D01*
X202029571Y-100954428D02*
X203384238Y-100954428D01*
X202223095Y-100954428D02*
X202126333Y-101027000D01*
X202029571Y-101172142D01*
X202029571Y-101389857D01*
X202126333Y-101535000D01*
X202319857Y-101607571D01*
X203384238Y-101607571D01*
X203384238Y-102986428D02*
X202319857Y-102986428D01*
X202126333Y-102913857D01*
X202029571Y-102768714D01*
X202029571Y-102478428D01*
X202126333Y-102333285D01*
X203287476Y-102986428D02*
X203384238Y-102841285D01*
X203384238Y-102478428D01*
X203287476Y-102333285D01*
X203093952Y-102260714D01*
X202900429Y-102260714D01*
X202706905Y-102333285D01*
X202610143Y-102478428D01*
X202610143Y-102841285D01*
X202513381Y-102986428D01*
X203384238Y-103929856D02*
X203287476Y-103784714D01*
X203093952Y-103712142D01*
X201352238Y-103712142D01*
X202319857Y-105671571D02*
X202319857Y-106179571D01*
X203384238Y-106397285D02*
X203384238Y-105671571D01*
X201352238Y-105671571D01*
X201352238Y-106397285D01*
X203384238Y-107050428D02*
X202029571Y-107050428D01*
X202416619Y-107050428D02*
X202223095Y-107123000D01*
X202126333Y-107195571D01*
X202029571Y-107340714D01*
X202029571Y-107485857D01*
X202029571Y-108647000D02*
X203674524Y-108647000D01*
X203868048Y-108574429D01*
X203964810Y-108501857D01*
X204061571Y-108356714D01*
X204061571Y-108139000D01*
X203964810Y-107993857D01*
X203287476Y-108647000D02*
X203384238Y-108501857D01*
X203384238Y-108211571D01*
X203287476Y-108066429D01*
X203190714Y-107993857D01*
X202997190Y-107921286D01*
X202416619Y-107921286D01*
X202223095Y-107993857D01*
X202126333Y-108066429D01*
X202029571Y-108211571D01*
X202029571Y-108501857D01*
X202126333Y-108647000D01*
X203384238Y-109590428D02*
X203287476Y-109445286D01*
X203190714Y-109372714D01*
X202997190Y-109300143D01*
X202416619Y-109300143D01*
X202223095Y-109372714D01*
X202126333Y-109445286D01*
X202029571Y-109590428D01*
X202029571Y-109808143D01*
X202126333Y-109953286D01*
X202223095Y-110025857D01*
X202416619Y-110098428D01*
X202997190Y-110098428D01*
X203190714Y-110025857D01*
X203287476Y-109953286D01*
X203384238Y-109808143D01*
X203384238Y-109590428D01*
X203384238Y-110751571D02*
X201352238Y-110751571D01*
X201352238Y-111114428D01*
X201449000Y-111332143D01*
X201642524Y-111477285D01*
X201836048Y-111549857D01*
X202223095Y-111622428D01*
X202513381Y-111622428D01*
X202900429Y-111549857D01*
X203093952Y-111477285D01*
X203287476Y-111332143D01*
X203384238Y-111114428D01*
X203384238Y-110751571D01*
X201352238Y-112565857D02*
X201352238Y-112856143D01*
X201449000Y-113001285D01*
X201642524Y-113146428D01*
X202029571Y-113219000D01*
X202706905Y-113219000D01*
X203093952Y-113146428D01*
X203287476Y-113001285D01*
X203384238Y-112856143D01*
X203384238Y-112565857D01*
X203287476Y-112420714D01*
X203093952Y-112275571D01*
X202706905Y-112203000D01*
X202029571Y-112203000D01*
X201642524Y-112275571D01*
X201449000Y-112420714D01*
X201352238Y-112565857D01*
X201352238Y-113726999D02*
X203384238Y-114742999D01*
X201352238Y-114742999D02*
X203384238Y-113726999D01*
X203384238Y-116484714D02*
X201352238Y-116484714D01*
X201352238Y-116847571D01*
X201449000Y-117065286D01*
X201642524Y-117210428D01*
X201836048Y-117283000D01*
X202223095Y-117355571D01*
X202513381Y-117355571D01*
X202900429Y-117283000D01*
X203093952Y-117210428D01*
X203287476Y-117065286D01*
X203384238Y-116847571D01*
X203384238Y-116484714D01*
X203287476Y-118589286D02*
X203384238Y-118444143D01*
X203384238Y-118153857D01*
X203287476Y-118008714D01*
X203093952Y-117936143D01*
X202319857Y-117936143D01*
X202126333Y-118008714D01*
X202029571Y-118153857D01*
X202029571Y-118444143D01*
X202126333Y-118589286D01*
X202319857Y-118661857D01*
X202513381Y-118661857D01*
X202706905Y-117936143D01*
X203287476Y-119242429D02*
X203384238Y-119387572D01*
X203384238Y-119677857D01*
X203287476Y-119823000D01*
X203093952Y-119895572D01*
X202997190Y-119895572D01*
X202803667Y-119823000D01*
X202706905Y-119677857D01*
X202706905Y-119460143D01*
X202610143Y-119315000D01*
X202416619Y-119242429D01*
X202319857Y-119242429D01*
X202126333Y-119315000D01*
X202029571Y-119460143D01*
X202029571Y-119677857D01*
X202126333Y-119823000D01*
X203384238Y-120548714D02*
X202029571Y-120548714D01*
X201352238Y-120548714D02*
X201449000Y-120476143D01*
X201545762Y-120548714D01*
X201449000Y-120621286D01*
X201352238Y-120548714D01*
X201545762Y-120548714D01*
X202029571Y-121927571D02*
X203674524Y-121927571D01*
X203868048Y-121855000D01*
X203964810Y-121782428D01*
X204061571Y-121637285D01*
X204061571Y-121419571D01*
X203964810Y-121274428D01*
X203287476Y-121927571D02*
X203384238Y-121782428D01*
X203384238Y-121492142D01*
X203287476Y-121347000D01*
X203190714Y-121274428D01*
X202997190Y-121201857D01*
X202416619Y-121201857D01*
X202223095Y-121274428D01*
X202126333Y-121347000D01*
X202029571Y-121492142D01*
X202029571Y-121782428D01*
X202126333Y-121927571D01*
X202029571Y-122653285D02*
X203384238Y-122653285D01*
X202223095Y-122653285D02*
X202126333Y-122725857D01*
X202029571Y-122870999D01*
X202029571Y-123088714D01*
X202126333Y-123233857D01*
X202319857Y-123306428D01*
X203384238Y-123306428D01*
X203287476Y-124612714D02*
X203384238Y-124467571D01*
X203384238Y-124177285D01*
X203287476Y-124032142D01*
X203093952Y-123959571D01*
X202319857Y-123959571D01*
X202126333Y-124032142D01*
X202029571Y-124177285D01*
X202029571Y-124467571D01*
X202126333Y-124612714D01*
X202319857Y-124685285D01*
X202513381Y-124685285D01*
X202706905Y-123959571D01*
X203384238Y-125338428D02*
X202029571Y-125338428D01*
X202416619Y-125338428D02*
X202223095Y-125411000D01*
X202126333Y-125483571D01*
X202029571Y-125628714D01*
X202029571Y-125773857D01*
X203287476Y-126209286D02*
X203384238Y-126354429D01*
X203384238Y-126644714D01*
X203287476Y-126789857D01*
X203093952Y-126862429D01*
X202997190Y-126862429D01*
X202803667Y-126789857D01*
X202706905Y-126644714D01*
X202706905Y-126427000D01*
X202610143Y-126281857D01*
X202416619Y-126209286D01*
X202319857Y-126209286D01*
X202126333Y-126281857D01*
X202029571Y-126427000D01*
X202029571Y-126644714D01*
X202126333Y-126789857D01*
D12*
X87176428Y-52644524D02*
X86753094Y-53914524D01*
X86329761Y-52644524D01*
X85422619Y-53854048D02*
X85543571Y-53914524D01*
X85785476Y-53914524D01*
X85906428Y-53854048D01*
X85966904Y-53733095D01*
X85966904Y-53249286D01*
X85906428Y-53128333D01*
X85785476Y-53067857D01*
X85543571Y-53067857D01*
X85422619Y-53128333D01*
X85362142Y-53249286D01*
X85362142Y-53370238D01*
X85966904Y-53491190D01*
X84817857Y-53914524D02*
X84817857Y-53067857D01*
X84817857Y-53309762D02*
X84757381Y-53188810D01*
X84696905Y-53128333D01*
X84575952Y-53067857D01*
X84455000Y-53067857D01*
X82398810Y-53914524D02*
X83124524Y-53914524D01*
X82761667Y-53914524D02*
X82761667Y-52644524D01*
X82882619Y-52825952D01*
X83003572Y-52946905D01*
X83124524Y-53007381D01*
X81854524Y-53793571D02*
X81794048Y-53854048D01*
X81854524Y-53914524D01*
X81915000Y-53854048D01*
X81854524Y-53793571D01*
X81854524Y-53914524D01*
X81310238Y-52765476D02*
X81249762Y-52705000D01*
X81128810Y-52644524D01*
X80826429Y-52644524D01*
X80705476Y-52705000D01*
X80645000Y-52765476D01*
X80584524Y-52886429D01*
X80584524Y-53007381D01*
X80645000Y-53188810D01*
X81370714Y-53914524D01*
X80584524Y-53914524D01*
D13*
X140700000Y-42624619D02*
X140700000Y-41608619D01*
X140095238Y-42624619D02*
X140095238Y-41608619D01*
X139792857Y-41608619D01*
X139611429Y-41657000D01*
X139490476Y-41753762D01*
X139430000Y-41850524D01*
X139369524Y-42044048D01*
X139369524Y-42189190D01*
X139430000Y-42382714D01*
X139490476Y-42479476D01*
X139611429Y-42576238D01*
X139792857Y-42624619D01*
X140095238Y-42624619D01*
X138583809Y-42624619D02*
X138583809Y-41608619D01*
X138281428Y-41608619D01*
X138100000Y-41657000D01*
X137979047Y-41753762D01*
X137918571Y-41850524D01*
X137858095Y-42044048D01*
X137858095Y-42189190D01*
X137918571Y-42382714D01*
X137979047Y-42479476D01*
X138100000Y-42576238D01*
X138281428Y-42624619D01*
X138583809Y-42624619D01*
X137313809Y-42237571D02*
X136346190Y-42237571D01*
X136830000Y-42624619D02*
X136830000Y-41850524D01*
X146532619Y-39957000D02*
X146653571Y-39908619D01*
X146835000Y-39908619D01*
X147016428Y-39957000D01*
X147137381Y-40053762D01*
X147197857Y-40150524D01*
X147258333Y-40344048D01*
X147258333Y-40489190D01*
X147197857Y-40682714D01*
X147137381Y-40779476D01*
X147016428Y-40876238D01*
X146835000Y-40924619D01*
X146714048Y-40924619D01*
X146532619Y-40876238D01*
X146472143Y-40827857D01*
X146472143Y-40489190D01*
X146714048Y-40489190D01*
X145927857Y-40924619D02*
X145927857Y-39908619D01*
X145202143Y-40924619D01*
X145202143Y-39908619D01*
X144597381Y-40924619D02*
X144597381Y-39908619D01*
X144295000Y-39908619D01*
X144113572Y-39957000D01*
X143992619Y-40053762D01*
X143932143Y-40150524D01*
X143871667Y-40344048D01*
X143871667Y-40489190D01*
X143932143Y-40682714D01*
X143992619Y-40779476D01*
X144113572Y-40876238D01*
X144295000Y-40924619D01*
X144597381Y-40924619D01*
X130706904Y-39808619D02*
X131311666Y-39808619D01*
X131372142Y-40292429D01*
X131311666Y-40244048D01*
X131190714Y-40195667D01*
X130888333Y-40195667D01*
X130767380Y-40244048D01*
X130706904Y-40292429D01*
X130646428Y-40389190D01*
X130646428Y-40631095D01*
X130706904Y-40727857D01*
X130767380Y-40776238D01*
X130888333Y-40824619D01*
X131190714Y-40824619D01*
X131311666Y-40776238D01*
X131372142Y-40727857D01*
X130283571Y-39808619D02*
X129860237Y-40824619D01*
X129436904Y-39808619D01*
X135883809Y-42624619D02*
X135883809Y-41608619D01*
X135581428Y-41608619D01*
X135400000Y-41657000D01*
X135279047Y-41753762D01*
X135218571Y-41850524D01*
X135158095Y-42044048D01*
X135158095Y-42189190D01*
X135218571Y-42382714D01*
X135279047Y-42479476D01*
X135400000Y-42576238D01*
X135581428Y-42624619D01*
X135883809Y-42624619D01*
X134613809Y-42237571D02*
X133646190Y-42237571D01*
D14*
X149901000Y-46520714D02*
X146345000Y-46520714D01*
X144821000Y-50512143D02*
X149901000Y-50512143D01*
X149901000Y-42892143D01*
X144821000Y-42892143D01*
X140249000Y-50512143D02*
X140249000Y-45432143D01*
X140249000Y-46883571D02*
X139741000Y-46157857D01*
X139233000Y-45795000D01*
X138217000Y-45432143D01*
X137201000Y-45432143D01*
X129073000Y-45432143D02*
X129073000Y-51600714D01*
X129581000Y-52326429D01*
X130089000Y-52689286D01*
X131105000Y-53052143D01*
X132629000Y-53052143D01*
X133645000Y-52689286D01*
X129073000Y-50149286D02*
X130089000Y-50512143D01*
X132121000Y-50512143D01*
X133137000Y-50149286D01*
X133645000Y-49786429D01*
X134153000Y-49060714D01*
X134153000Y-46883571D01*
X133645000Y-46157857D01*
X133137000Y-45795000D01*
X132121000Y-45432143D01*
X130089000Y-45432143D01*
X129073000Y-45795000D01*
X122469000Y-50512143D02*
X123485000Y-50149286D01*
X123993000Y-49786429D01*
X124501000Y-49060714D01*
X124501000Y-46883571D01*
X123993000Y-46157857D01*
X123485000Y-45795000D01*
X122469000Y-45432143D01*
X120945000Y-45432143D01*
X119929000Y-45795000D01*
X119421000Y-46157857D01*
X118913000Y-46883571D01*
X118913000Y-49060714D01*
X119421000Y-49786429D01*
X119929000Y-50149286D01*
X120945000Y-50512143D01*
X122469000Y-50512143D01*
X114341000Y-50512143D02*
X114341000Y-42892143D01*
X111801000Y-42892143D01*
X110277000Y-43255000D01*
X109261000Y-43980714D01*
X108753000Y-44706429D01*
X108245000Y-46157857D01*
X108245000Y-47246429D01*
X108753000Y-48697857D01*
X109261000Y-49423571D01*
X110277000Y-50149286D01*
X111801000Y-50512143D01*
X114341000Y-50512143D01*
X95545000Y-45432143D02*
X95545000Y-50512143D01*
X95545000Y-46157857D02*
X95037000Y-45795000D01*
X94021000Y-45432143D01*
X92497000Y-45432143D01*
X91481000Y-45795000D01*
X90973000Y-46520714D01*
X90973000Y-50512143D01*
X81829000Y-50149286D02*
X82845000Y-50512143D01*
X84877000Y-50512143D01*
X85893000Y-50149286D01*
X86401000Y-49423571D01*
X86401000Y-46520714D01*
X85893000Y-45795000D01*
X84877000Y-45432143D01*
X82845000Y-45432143D01*
X81829000Y-45795000D01*
X81321000Y-46520714D01*
X81321000Y-47246429D01*
X86401000Y-47972143D01*
D15*
X76290714Y-99956257D02*
X77500238Y-99956257D01*
X77500238Y-96908257D01*
X75444048Y-98359686D02*
X74597381Y-98359686D01*
X74234524Y-99956257D02*
X75444048Y-99956257D01*
X75444048Y-96908257D01*
X74234524Y-96908257D01*
X72299286Y-98359686D02*
X73145953Y-98359686D01*
X73145953Y-99956257D02*
X73145953Y-96908257D01*
X71936429Y-96908257D01*
X71331667Y-96908257D02*
X69880239Y-96908257D01*
X70605953Y-99956257D02*
X70605953Y-96908257D01*
X77500238Y-104731457D02*
X77500238Y-101683457D01*
X77500238Y-103134886D02*
X76048810Y-103134886D01*
X76048810Y-104731457D02*
X76048810Y-101683457D01*
X74960238Y-103860600D02*
X73750715Y-103860600D01*
X75202143Y-104731457D02*
X74355477Y-101683457D01*
X73508810Y-104731457D01*
X72662143Y-104731457D02*
X72662143Y-101683457D01*
X71210715Y-104731457D01*
X71210715Y-101683457D01*
X70001191Y-104731457D02*
X70001191Y-101683457D01*
X69396429Y-101683457D01*
X69033572Y-101828600D01*
X68791667Y-102118886D01*
X68670715Y-102409171D01*
X68549763Y-102989743D01*
X68549763Y-103425171D01*
X68670715Y-104005743D01*
X68791667Y-104296029D01*
X69033572Y-104586314D01*
X69396429Y-104731457D01*
X70001191Y-104731457D01*
D16*
X80010000Y-37465000D02*
X80010000Y-34925000D01*
X77470000Y-37465000D02*
X77470000Y-34925000D01*
X80010000Y-34925000D02*
G75*
G03X78740000Y-33655000I-1270000J0D01*
G01*
X78740000Y-33655000D02*
G75*
G03X77470000Y-34925000I0J-1270000D01*
G01*
X78740000Y-38735000D02*
G75*
G03X80010000Y-37465000I0J1270000D01*
G01*
X77470000Y-37465000D02*
G75*
G03X78740000Y-38735000I1270000J0D01*
G01*
X95250000Y-40005000D02*
X95250000Y-37465000D01*
X92710000Y-37465000D02*
G75*
G02X93980000Y-36195000I1270000J0D01*
G01*
X93980000Y-36195000D02*
G75*
G02X95250000Y-37465000I0J-1270000D01*
G01*
X93980000Y-41275000D02*
G75*
G02X92710000Y-40005000I0J1270000D01*
G01*
X95250000Y-40005000D02*
G75*
G02X93980000Y-41275000I-1270000J0D01*
G01*
X92710000Y-40005000D02*
X92710000Y-37465000D01*
D17*
X69395000Y-43890000D02*
X69395000Y-50240000D01*
X69395000Y-50240000D02*
X71935000Y-50240000D01*
X71935000Y-50240000D02*
X71935000Y-43890000D01*
X71935000Y-43890000D02*
X69395000Y-43890000D01*
X70665000Y-52145000D02*
X70665000Y-50240000D01*
X70665000Y-41985000D02*
X70665000Y-43890000D01*
X72695000Y-43890000D02*
X72695000Y-50240000D01*
X72695000Y-50240000D02*
X75235000Y-50240000D01*
X75235000Y-50240000D02*
X75235000Y-43890000D01*
X75235000Y-43890000D02*
X72695000Y-43890000D01*
X73965000Y-52145000D02*
X73965000Y-50240000D01*
X73965000Y-41985000D02*
X73965000Y-43890000D01*
X76095000Y-43890000D02*
X76095000Y-50240000D01*
X76095000Y-50240000D02*
X78635000Y-50240000D01*
X78635000Y-50240000D02*
X78635000Y-43890000D01*
X78635000Y-43890000D02*
X76095000Y-43890000D01*
X77365000Y-52145000D02*
X77365000Y-50240000D01*
X77365000Y-41985000D02*
X77365000Y-43890000D01*
X102990000Y-37735000D02*
X109340000Y-37735000D01*
X109340000Y-37735000D02*
X109340000Y-35195000D01*
X109340000Y-35195000D02*
X102990000Y-35195000D01*
X102990000Y-35195000D02*
X102990000Y-37735000D01*
X111245000Y-36465000D02*
X109340000Y-36465000D01*
X101085000Y-36465000D02*
X102990000Y-36465000D01*
X102997000Y-41021000D02*
X109347000Y-41021000D01*
X109347000Y-41021000D02*
X109347000Y-38481000D01*
X109347000Y-38481000D02*
X102997000Y-38481000D01*
X102997000Y-38481000D02*
X102997000Y-41021000D01*
X111252000Y-39751000D02*
X109347000Y-39751000D01*
X101092000Y-39751000D02*
X102997000Y-39751000D01*
X160655000Y-51435000D02*
X160655000Y-33655000D01*
X160655000Y-33655000D02*
X191135000Y-33655000D01*
X191135000Y-33655000D02*
X191135000Y-51435000D01*
X191135000Y-51435000D02*
X160655000Y-51435000D01*
X160655000Y-36195000D02*
X163195000Y-36195000D01*
X163195000Y-36195000D02*
X163195000Y-33655000D01*
X91109800Y-30480000D02*
X91109800Y-42545000D01*
X91109800Y-42545000D02*
X81508600Y-42545000D01*
X81508600Y-42545000D02*
X81508600Y-30480000D01*
X66040000Y-58750200D02*
X67818000Y-58750200D01*
X76962000Y-58750200D02*
X78740000Y-58750200D01*
X78740000Y-58750200D02*
X78740000Y-60528200D01*
X78740000Y-69672200D02*
X78740000Y-71450200D01*
X78740000Y-71450200D02*
X76962000Y-71450200D01*
X67818000Y-71450200D02*
X66040000Y-71450200D01*
X66040000Y-71450200D02*
X66040000Y-69672200D01*
X66040000Y-60528200D02*
X66040000Y-58750200D01*
X66040000Y-95260160D02*
X66040000Y-93482160D01*
X66040000Y-84338160D02*
X66040000Y-82560160D01*
X66040000Y-82560160D02*
X67818000Y-82560160D01*
X76962000Y-82560160D02*
X78740000Y-82560160D01*
X78740000Y-82560160D02*
X78740000Y-84338160D01*
X78740000Y-93482160D02*
X78740000Y-95260160D01*
X78740000Y-95260160D02*
X76962000Y-95260160D01*
X67818000Y-95260160D02*
X66040000Y-95260160D01*
X66040000Y-123835160D02*
X66040000Y-122057160D01*
X66040000Y-112913160D02*
X66040000Y-111135160D01*
X66040000Y-111135160D02*
X67818000Y-111135160D01*
X76962000Y-111135160D02*
X78740000Y-111135160D01*
X78740000Y-111135160D02*
X78740000Y-112913160D01*
X78740000Y-122057160D02*
X78740000Y-123835160D01*
X78740000Y-123835160D02*
X76962000Y-123835160D01*
X67818000Y-123835160D02*
X66040000Y-123835160D01*
X180340000Y-136852660D02*
X182118000Y-136852660D01*
X191262000Y-136852660D02*
X193040000Y-136852660D01*
X193040000Y-136852660D02*
X193040000Y-138630660D01*
X193040000Y-147774660D02*
X193040000Y-149552660D01*
X193040000Y-149552660D02*
X191262000Y-149552660D01*
X182118000Y-149552660D02*
X180340000Y-149552660D01*
X180340000Y-149552660D02*
X180340000Y-147774660D01*
X180340000Y-138630660D02*
X180340000Y-136852660D01*
X85090000Y-77797660D02*
X86868000Y-77797660D01*
X96012000Y-77797660D02*
X97790000Y-77797660D01*
X97790000Y-77797660D02*
X97790000Y-79575660D01*
X97790000Y-88719660D02*
X97790000Y-90497660D01*
X97790000Y-90497660D02*
X96012000Y-90497660D01*
X86868000Y-90497660D02*
X85090000Y-90497660D01*
X85090000Y-90497660D02*
X85090000Y-88719660D01*
X85090000Y-79575660D02*
X85090000Y-77797660D01*
X34309520Y-157461652D02*
X35920935Y-156710236D01*
X44208213Y-152845815D02*
X45819628Y-152094400D01*
X45819628Y-152094400D02*
X46571044Y-153705815D01*
X50435465Y-161993093D02*
X51186880Y-163604508D01*
X51186880Y-163604508D02*
X49575465Y-164355924D01*
X41288187Y-168220345D02*
X39676772Y-168971760D01*
X39676772Y-168971760D02*
X38925356Y-167360345D01*
X35060935Y-159073067D02*
X34309520Y-157461652D01*
X42361320Y-174728572D02*
X43972735Y-173977156D01*
X52260013Y-170112735D02*
X53871428Y-169361320D01*
X53871428Y-169361320D02*
X54622844Y-170972735D01*
X58487265Y-179260013D02*
X59238680Y-180871428D01*
X59238680Y-180871428D02*
X57627265Y-181622844D01*
X49339987Y-185487265D02*
X47728572Y-186238680D01*
X47728572Y-186238680D02*
X46977156Y-184627265D01*
X43112735Y-176339987D02*
X42361320Y-174728572D01*
X26260260Y-140197272D02*
X27871675Y-139445856D01*
X36158953Y-135581435D02*
X37770368Y-134830020D01*
X37770368Y-134830020D02*
X38521784Y-136441435D01*
X42386205Y-144728713D02*
X43137620Y-146340128D01*
X43137620Y-146340128D02*
X41526205Y-147091544D01*
X33238927Y-150955965D02*
X31627512Y-151707380D01*
X31627512Y-151707380D02*
X30876096Y-150095965D01*
X27011675Y-141808687D02*
X26260260Y-140197272D01*
X43524640Y-132148012D02*
X45136055Y-131396596D01*
X53423333Y-127532175D02*
X55034748Y-126780760D01*
X55034748Y-126780760D02*
X55786164Y-128392175D01*
X59650585Y-136679453D02*
X60402000Y-138290868D01*
X60402000Y-138290868D02*
X58790585Y-139042284D01*
X50503307Y-142906705D02*
X48891892Y-143658120D01*
X48891892Y-143658120D02*
X48140476Y-142046705D01*
X44276055Y-133759427D02*
X43524640Y-132148012D01*
X161290000Y-60655200D02*
X163068000Y-60655200D01*
X172212000Y-60655200D02*
X173990000Y-60655200D01*
X173990000Y-60655200D02*
X173990000Y-62433200D01*
X173990000Y-71577200D02*
X173990000Y-73355200D01*
X173990000Y-73355200D02*
X172212000Y-73355200D01*
X163068000Y-73355200D02*
X161290000Y-73355200D01*
X161290000Y-73355200D02*
X161290000Y-71577200D01*
X161290000Y-62433200D02*
X161290000Y-60655200D01*
X142240000Y-57477660D02*
X144018000Y-57477660D01*
X153162000Y-57477660D02*
X154940000Y-57477660D01*
X154940000Y-57477660D02*
X154940000Y-59255660D01*
X154940000Y-68399660D02*
X154940000Y-70177660D01*
X154940000Y-70177660D02*
X153162000Y-70177660D01*
X144018000Y-70177660D02*
X142240000Y-70177660D01*
X142240000Y-70177660D02*
X142240000Y-68399660D01*
X142240000Y-59255660D02*
X142240000Y-57477660D01*
X123190000Y-55880000D02*
X124968000Y-55880000D01*
X134112000Y-55880000D02*
X135890000Y-55880000D01*
X135890000Y-55880000D02*
X135890000Y-57658000D01*
X135890000Y-66802000D02*
X135890000Y-68580000D01*
X135890000Y-68580000D02*
X134112000Y-68580000D01*
X124968000Y-68580000D02*
X123190000Y-68580000D01*
X123190000Y-68580000D02*
X123190000Y-66802000D01*
X123190000Y-57658000D02*
X123190000Y-55880000D01*
X104140000Y-57477660D02*
X105918000Y-57477660D01*
X115062000Y-57477660D02*
X116840000Y-57477660D01*
X116840000Y-57477660D02*
X116840000Y-59255660D01*
X116840000Y-68399660D02*
X116840000Y-70177660D01*
X116840000Y-70177660D02*
X115062000Y-70177660D01*
X105918000Y-70177660D02*
X104140000Y-70177660D01*
X104140000Y-70177660D02*
X104140000Y-68399660D01*
X104140000Y-59255660D02*
X104140000Y-57477660D01*
X142240000Y-133677660D02*
X144018000Y-133677660D01*
X153162000Y-133677660D02*
X154940000Y-133677660D01*
X154940000Y-133677660D02*
X154940000Y-135455660D01*
X154940000Y-144599660D02*
X154940000Y-146377660D01*
X154940000Y-146377660D02*
X153162000Y-146377660D01*
X144018000Y-146377660D02*
X142240000Y-146377660D01*
X142240000Y-146377660D02*
X142240000Y-144599660D01*
X142240000Y-135455660D02*
X142240000Y-133677660D01*
X161290000Y-79702660D02*
X163068000Y-79702660D01*
X172212000Y-79702660D02*
X173990000Y-79702660D01*
X173990000Y-79702660D02*
X173990000Y-81480660D01*
X173990000Y-90624660D02*
X173990000Y-92402660D01*
X173990000Y-92402660D02*
X172212000Y-92402660D01*
X163068000Y-92402660D02*
X161290000Y-92402660D01*
X161290000Y-92402660D02*
X161290000Y-90624660D01*
X161290000Y-81480660D02*
X161290000Y-79702660D01*
X123190000Y-74930000D02*
X124968000Y-74930000D01*
X134112000Y-74930000D02*
X135890000Y-74930000D01*
X135890000Y-74930000D02*
X135890000Y-76708000D01*
X135890000Y-85852000D02*
X135890000Y-87630000D01*
X135890000Y-87630000D02*
X134112000Y-87630000D01*
X124968000Y-87630000D02*
X123190000Y-87630000D01*
X123190000Y-87630000D02*
X123190000Y-85852000D01*
X123190000Y-76708000D02*
X123190000Y-74930000D01*
X104140000Y-76527660D02*
X105918000Y-76527660D01*
X115062000Y-76527660D02*
X116840000Y-76527660D01*
X116840000Y-76527660D02*
X116840000Y-78305660D01*
X116840000Y-87449660D02*
X116840000Y-89227660D01*
X116840000Y-89227660D02*
X115062000Y-89227660D01*
X105918000Y-89227660D02*
X104140000Y-89227660D01*
X104140000Y-89227660D02*
X104140000Y-87449660D01*
X104140000Y-78305660D02*
X104140000Y-76527660D01*
X161290000Y-98752660D02*
X163068000Y-98752660D01*
X172212000Y-98752660D02*
X173990000Y-98752660D01*
X173990000Y-98752660D02*
X173990000Y-100530660D01*
X173990000Y-109674660D02*
X173990000Y-111452660D01*
X173990000Y-111452660D02*
X172212000Y-111452660D01*
X163068000Y-111452660D02*
X161290000Y-111452660D01*
X161290000Y-111452660D02*
X161290000Y-109674660D01*
X161290000Y-100530660D02*
X161290000Y-98752660D01*
X142240000Y-95577660D02*
X144018000Y-95577660D01*
X153162000Y-95577660D02*
X154940000Y-95577660D01*
X154940000Y-95577660D02*
X154940000Y-97355660D01*
X154940000Y-106499660D02*
X154940000Y-108277660D01*
X154940000Y-108277660D02*
X153162000Y-108277660D01*
X144018000Y-108277660D02*
X142240000Y-108277660D01*
X142240000Y-108277660D02*
X142240000Y-106499660D01*
X142240000Y-97355660D02*
X142240000Y-95577660D01*
X123190000Y-93980000D02*
X124968000Y-93980000D01*
X134112000Y-93980000D02*
X135890000Y-93980000D01*
X135890000Y-93980000D02*
X135890000Y-95758000D01*
X135890000Y-104902000D02*
X135890000Y-106680000D01*
X135890000Y-106680000D02*
X134112000Y-106680000D01*
X124968000Y-106680000D02*
X123190000Y-106680000D01*
X123190000Y-106680000D02*
X123190000Y-104902000D01*
X123190000Y-95758000D02*
X123190000Y-93980000D01*
X104140000Y-95577660D02*
X105918000Y-95577660D01*
X115062000Y-95577660D02*
X116840000Y-95577660D01*
X116840000Y-95577660D02*
X116840000Y-97355660D01*
X116840000Y-106499660D02*
X116840000Y-108277660D01*
X116840000Y-108277660D02*
X115062000Y-108277660D01*
X105918000Y-108277660D02*
X104140000Y-108277660D01*
X104140000Y-108277660D02*
X104140000Y-106499660D01*
X104140000Y-97355660D02*
X104140000Y-95577660D01*
X85090000Y-96847660D02*
X86868000Y-96847660D01*
X96012000Y-96847660D02*
X97790000Y-96847660D01*
X97790000Y-96847660D02*
X97790000Y-98625660D01*
X97790000Y-107769660D02*
X97790000Y-109547660D01*
X97790000Y-109547660D02*
X96012000Y-109547660D01*
X86868000Y-109547660D02*
X85090000Y-109547660D01*
X85090000Y-109547660D02*
X85090000Y-107769660D01*
X85090000Y-98625660D02*
X85090000Y-96847660D01*
X161290000Y-117802660D02*
X163068000Y-117802660D01*
X172212000Y-117802660D02*
X173990000Y-117802660D01*
X173990000Y-117802660D02*
X173990000Y-119580660D01*
X173990000Y-128724660D02*
X173990000Y-130502660D01*
X173990000Y-130502660D02*
X172212000Y-130502660D01*
X163068000Y-130502660D02*
X161290000Y-130502660D01*
X161290000Y-130502660D02*
X161290000Y-128724660D01*
X161290000Y-119580660D02*
X161290000Y-117802660D01*
X142240000Y-114627660D02*
X144018000Y-114627660D01*
X153162000Y-114627660D02*
X154940000Y-114627660D01*
X154940000Y-114627660D02*
X154940000Y-116405660D01*
X154940000Y-125549660D02*
X154940000Y-127327660D01*
X154940000Y-127327660D02*
X153162000Y-127327660D01*
X144018000Y-127327660D02*
X142240000Y-127327660D01*
X142240000Y-127327660D02*
X142240000Y-125549660D01*
X142240000Y-116405660D02*
X142240000Y-114627660D01*
X123190000Y-113030000D02*
X124968000Y-113030000D01*
X134112000Y-113030000D02*
X135890000Y-113030000D01*
X135890000Y-113030000D02*
X135890000Y-114808000D01*
X135890000Y-123952000D02*
X135890000Y-125730000D01*
X135890000Y-125730000D02*
X134112000Y-125730000D01*
X124968000Y-125730000D02*
X123190000Y-125730000D01*
X123190000Y-125730000D02*
X123190000Y-123952000D01*
X123190000Y-114808000D02*
X123190000Y-113030000D01*
X104140000Y-114627660D02*
X105918000Y-114627660D01*
X115062000Y-114627660D02*
X116840000Y-114627660D01*
X116840000Y-114627660D02*
X116840000Y-116405660D01*
X116840000Y-125549660D02*
X116840000Y-127327660D01*
X116840000Y-127327660D02*
X115062000Y-127327660D01*
X105918000Y-127327660D02*
X104140000Y-127327660D01*
X104140000Y-127327660D02*
X104140000Y-125549660D01*
X104140000Y-116405660D02*
X104140000Y-114627660D01*
X85090000Y-115897660D02*
X86868000Y-115897660D01*
X96012000Y-115897660D02*
X97790000Y-115897660D01*
X97790000Y-115897660D02*
X97790000Y-117675660D01*
X97790000Y-126819660D02*
X97790000Y-128597660D01*
X97790000Y-128597660D02*
X96012000Y-128597660D01*
X86868000Y-128597660D02*
X85090000Y-128597660D01*
X85090000Y-128597660D02*
X85090000Y-126819660D01*
X85090000Y-117675660D02*
X85090000Y-115897660D01*
X161290000Y-136852660D02*
X163068000Y-136852660D01*
X172212000Y-136852660D02*
X173990000Y-136852660D01*
X173990000Y-136852660D02*
X173990000Y-138630660D01*
X173990000Y-147774660D02*
X173990000Y-149552660D01*
X173990000Y-149552660D02*
X172212000Y-149552660D01*
X163068000Y-149552660D02*
X161290000Y-149552660D01*
X161290000Y-149552660D02*
X161290000Y-147774660D01*
X161290000Y-138630660D02*
X161290000Y-136852660D01*
X123190000Y-132080000D02*
X124968000Y-132080000D01*
X134112000Y-132080000D02*
X135890000Y-132080000D01*
X135890000Y-132080000D02*
X135890000Y-133858000D01*
X135890000Y-143002000D02*
X135890000Y-144780000D01*
X135890000Y-144780000D02*
X134112000Y-144780000D01*
X124968000Y-144780000D02*
X123190000Y-144780000D01*
X123190000Y-144780000D02*
X123190000Y-143002000D01*
X123190000Y-133858000D02*
X123190000Y-132080000D01*
X104140000Y-133677660D02*
X105918000Y-133677660D01*
X115062000Y-133677660D02*
X116840000Y-133677660D01*
X116840000Y-133677660D02*
X116840000Y-135455660D01*
X116840000Y-144599660D02*
X116840000Y-146377660D01*
X116840000Y-146377660D02*
X115062000Y-146377660D01*
X105918000Y-146377660D02*
X104140000Y-146377660D01*
X104140000Y-146377660D02*
X104140000Y-144599660D01*
X104140000Y-135455660D02*
X104140000Y-133677660D01*
X78231432Y-161504160D02*
X77480016Y-159892745D01*
X73615595Y-151605467D02*
X72864180Y-149994052D01*
X72864180Y-149994052D02*
X74475595Y-149242636D01*
X82762873Y-145378215D02*
X84374288Y-144626800D01*
X84374288Y-144626800D02*
X85125704Y-146238215D01*
X88990125Y-154525493D02*
X89741540Y-156136908D01*
X89741540Y-156136908D02*
X88130125Y-156888324D01*
X79842847Y-160752745D02*
X78231432Y-161504160D01*
X60967052Y-169555960D02*
X60215636Y-167944545D01*
X56351215Y-159657267D02*
X55599800Y-158045852D01*
X55599800Y-158045852D02*
X57211215Y-157294436D01*
X65498493Y-153430015D02*
X67109908Y-152678600D01*
X67109908Y-152678600D02*
X67861324Y-154290015D01*
X71725745Y-162577293D02*
X72477160Y-164188708D01*
X72477160Y-164188708D02*
X70865745Y-164940124D01*
X62578467Y-168804545D02*
X60967052Y-169555960D01*
X142240000Y-76527660D02*
X144018000Y-76527660D01*
X153162000Y-76527660D02*
X154940000Y-76527660D01*
X154940000Y-76527660D02*
X154940000Y-78305660D01*
X154940000Y-87449660D02*
X154940000Y-89227660D01*
X154940000Y-89227660D02*
X153162000Y-89227660D01*
X144018000Y-89227660D02*
X142240000Y-89227660D01*
X142240000Y-89227660D02*
X142240000Y-87449660D01*
X142240000Y-78305660D02*
X142240000Y-76527660D01*
X85090000Y-58750200D02*
X86868000Y-58750200D01*
X96012000Y-58750200D02*
X97790000Y-58750200D01*
X97790000Y-58750200D02*
X97790000Y-60528200D01*
X97790000Y-69672200D02*
X97790000Y-71450200D01*
X97790000Y-71450200D02*
X96012000Y-71450200D01*
X86868000Y-71450200D02*
X85090000Y-71450200D01*
X85090000Y-71450200D02*
X85090000Y-69672200D01*
X85090000Y-60528200D02*
X85090000Y-58750200D01*
D10*
X65151000Y-37664000D02*
X65351000Y-37664000D01*
X67745000Y-37664000D02*
X67565000Y-37664000D01*
X67434643Y-34436256D02*
G75*
G02X67751000Y-37664000I-1003643J-1727744D01*
G01*
X67564068Y-35111994D02*
G75*
G02X67565000Y-37215000I-1133068J-1052006D01*
G01*
X65124274Y-37651220D02*
G75*
G02X65471000Y-34414000I1306726J1497220D01*
G01*
X65351747Y-37177889D02*
G75*
G02X65371000Y-35130000I1079253J1013889D01*
G01*
X65151000Y-43964000D02*
X65351000Y-43964000D01*
X67745000Y-43964000D02*
X67565000Y-43964000D01*
X67434643Y-40736256D02*
G75*
G02X67751000Y-43964000I-1003643J-1727744D01*
G01*
X67564068Y-41411994D02*
G75*
G02X67565000Y-43515000I-1133068J-1052006D01*
G01*
X65124274Y-43951220D02*
G75*
G02X65471000Y-40714000I1306726J1497220D01*
G01*
X65351747Y-43477889D02*
G75*
G02X65371000Y-41430000I1079253J1013889D01*
G01*
X65151000Y-50364000D02*
X65351000Y-50364000D01*
X67745000Y-50364000D02*
X67565000Y-50364000D01*
X67434643Y-47136256D02*
G75*
G02X67751000Y-50364000I-1003643J-1727744D01*
G01*
X67564068Y-47811994D02*
G75*
G02X67565000Y-49915000I-1133068J-1052006D01*
G01*
X65124274Y-50351220D02*
G75*
G02X65471000Y-47114000I1306726J1497220D01*
G01*
X65351747Y-49877889D02*
G75*
G02X65371000Y-47830000I1079253J1013889D01*
G01*
D17*
X133791960Y-28481020D02*
X133791960Y-37480240D01*
X133791960Y-37480240D02*
X141493240Y-37480240D01*
X141493240Y-37480240D02*
X141493240Y-28481020D01*
X141493240Y-28481020D02*
X133791960Y-28481020D01*
X185102500Y-117802660D02*
X186880500Y-117802660D01*
X196024500Y-117802660D02*
X197802500Y-117802660D01*
X197802500Y-117802660D02*
X197802500Y-119580660D01*
X197802500Y-128724660D02*
X197802500Y-130502660D01*
X197802500Y-130502660D02*
X196024500Y-130502660D01*
X186880500Y-130502660D02*
X185102500Y-130502660D01*
X185102500Y-130502660D02*
X185102500Y-128724660D01*
X185102500Y-119580660D02*
X185102500Y-117802660D01*
X185102500Y-98752660D02*
X186880500Y-98752660D01*
X196024500Y-98752660D02*
X197802500Y-98752660D01*
X197802500Y-98752660D02*
X197802500Y-100530660D01*
X197802500Y-109674660D02*
X197802500Y-111452660D01*
X197802500Y-111452660D02*
X196024500Y-111452660D01*
X186880500Y-111452660D02*
X185102500Y-111452660D01*
X185102500Y-111452660D02*
X185102500Y-109674660D01*
X185102500Y-100530660D02*
X185102500Y-98752660D01*
X185102500Y-79702660D02*
X186880500Y-79702660D01*
X196024500Y-79702660D02*
X197802500Y-79702660D01*
X197802500Y-79702660D02*
X197802500Y-81480660D01*
X197802500Y-90624660D02*
X197802500Y-92402660D01*
X197802500Y-92402660D02*
X196024500Y-92402660D01*
X186880500Y-92402660D02*
X185102500Y-92402660D01*
X185102500Y-92402660D02*
X185102500Y-90624660D01*
X185102500Y-81480660D02*
X185102500Y-79702660D01*
X185102500Y-60655200D02*
X186880500Y-60655200D01*
X196024500Y-60655200D02*
X197802500Y-60655200D01*
X197802500Y-60655200D02*
X197802500Y-62433200D01*
X197802500Y-71577200D02*
X197802500Y-73355200D01*
X197802500Y-73355200D02*
X196024500Y-73355200D01*
X186880500Y-73355200D02*
X185102500Y-73355200D01*
X185102500Y-73355200D02*
X185102500Y-71577200D01*
X185102500Y-62433200D02*
X185102500Y-60655200D01*
D12*
X82081776Y-146516662D02*
X81882244Y-146689780D01*
X81498574Y-146868688D01*
X81314436Y-146874479D01*
X81207032Y-146844489D01*
X81068958Y-146748726D01*
X81007618Y-146617182D01*
X81023012Y-146449856D01*
X81069076Y-146348303D01*
X81191874Y-146210967D01*
X81468141Y-146002068D01*
X81590938Y-145864732D01*
X81637003Y-145763179D01*
X81652396Y-145595853D01*
X81591056Y-145464309D01*
X81452982Y-145368546D01*
X81345578Y-145338556D01*
X81161441Y-145344348D01*
X80777770Y-145523257D01*
X80578237Y-145696373D01*
X80010430Y-145881073D02*
X79580223Y-147763230D01*
X78936153Y-146382017D02*
X80654500Y-147262286D01*
X78122276Y-148443082D02*
X79043085Y-148013701D01*
X78582680Y-148228392D02*
X77938610Y-146847178D01*
X78184089Y-146972931D01*
X78398897Y-147032912D01*
X78583034Y-147027120D01*
X77370330Y-148633572D02*
X77324266Y-148735126D01*
X77431670Y-148765116D01*
X77477734Y-148663562D01*
X77370330Y-148633572D01*
X77431670Y-148765116D01*
X77032960Y-147910079D02*
X76986896Y-148011633D01*
X77094300Y-148041624D01*
X77140363Y-147940070D01*
X77032960Y-147910079D01*
X77094300Y-148041624D01*
X75252918Y-148099537D02*
X76020259Y-147741720D01*
X76403693Y-148363659D01*
X76296289Y-148333668D01*
X76112150Y-148339460D01*
X75728480Y-148518368D01*
X75605682Y-148655703D01*
X75559618Y-148757257D01*
X75544224Y-148924583D01*
X75697574Y-149253444D01*
X75835649Y-149349206D01*
X75943053Y-149379196D01*
X76127191Y-149373405D01*
X76510861Y-149194497D01*
X76633659Y-149057161D01*
X76679723Y-148955608D01*
X64817396Y-154568462D02*
X64617864Y-154741580D01*
X64234194Y-154920488D01*
X64050056Y-154926279D01*
X63942652Y-154896289D01*
X63804578Y-154800526D01*
X63743238Y-154668982D01*
X63758632Y-154501656D01*
X63804696Y-154400103D01*
X63927494Y-154262767D01*
X64203761Y-154053868D01*
X64326558Y-153916532D01*
X64372623Y-153814979D01*
X64388016Y-153647653D01*
X64326676Y-153516109D01*
X64188602Y-153420346D01*
X64081198Y-153390356D01*
X63897061Y-153396148D01*
X63513390Y-153575057D01*
X63313857Y-153748173D01*
X62746050Y-153932873D02*
X62315843Y-155815030D01*
X61671773Y-154433817D02*
X63390120Y-155314086D01*
X60857896Y-156494882D02*
X61778705Y-156065501D01*
X61318300Y-156280192D02*
X60674230Y-154898978D01*
X60919709Y-155024731D01*
X61134517Y-155084712D01*
X61318654Y-155078920D01*
X60105950Y-156685372D02*
X60059886Y-156786926D01*
X60167290Y-156816916D01*
X60213354Y-156715362D01*
X60105950Y-156685372D01*
X60167290Y-156816916D01*
X59768580Y-155961879D02*
X59722516Y-156063433D01*
X59829920Y-156093424D01*
X59875983Y-155991870D01*
X59768580Y-155961879D01*
X59829920Y-156093424D01*
X58065273Y-156115555D02*
X58372208Y-155972429D01*
X58556347Y-155966637D01*
X58663750Y-155996627D01*
X58909229Y-156122380D01*
X59108642Y-156349686D01*
X59354003Y-156875863D01*
X59338609Y-157043189D01*
X59292545Y-157144743D01*
X59169747Y-157282078D01*
X58862811Y-157425205D01*
X58678673Y-157430996D01*
X58571269Y-157401006D01*
X58433194Y-157305244D01*
X58279844Y-156976383D01*
X58295238Y-156809057D01*
X58341302Y-156707503D01*
X58464100Y-156570168D01*
X58771037Y-156427041D01*
X58955175Y-156421250D01*
X59062579Y-156451240D01*
X59200653Y-156547003D01*
X87342604Y-157798326D02*
X87143072Y-157971444D01*
X86759402Y-158150352D01*
X86575264Y-158156143D01*
X86467860Y-158126153D01*
X86329786Y-158030390D01*
X86268446Y-157898846D01*
X86283840Y-157731520D01*
X86329904Y-157629967D01*
X86452702Y-157492631D01*
X86728969Y-157283732D01*
X86851766Y-157146396D01*
X86897831Y-157044843D01*
X86913224Y-156877517D01*
X86851884Y-156745973D01*
X86713810Y-156650210D01*
X86606406Y-156620220D01*
X86422269Y-156626012D01*
X86038598Y-156804921D01*
X85839065Y-156978037D01*
X85271258Y-157162737D02*
X84841051Y-159044894D01*
X84196981Y-157663681D02*
X85915328Y-158543950D01*
X83276173Y-158093061D02*
X83122705Y-158164624D01*
X82999906Y-158301959D01*
X82953842Y-158403512D01*
X82938448Y-158570838D01*
X82984394Y-158869709D01*
X83137744Y-159198569D01*
X83337158Y-159425875D01*
X83475233Y-159521638D01*
X83582636Y-159551628D01*
X83766775Y-159545837D01*
X83920243Y-159474274D01*
X84043040Y-159336938D01*
X84089105Y-159235384D01*
X84104499Y-159068058D01*
X84058552Y-158769189D01*
X83905202Y-158440328D01*
X83705789Y-158213021D01*
X83567714Y-158117259D01*
X83460310Y-158087269D01*
X83276173Y-158093061D01*
X82631158Y-159915236D02*
X82585094Y-160016790D01*
X82692498Y-160046780D01*
X82738562Y-159945226D01*
X82631158Y-159915236D01*
X82692498Y-160046780D01*
X82293788Y-159191743D02*
X82247724Y-159293297D01*
X82355128Y-159323288D01*
X82401191Y-159221734D01*
X82293788Y-159191743D01*
X82355128Y-159323288D01*
X81434555Y-158951821D02*
X80437012Y-159416983D01*
X81219511Y-159692687D01*
X80989308Y-159800032D01*
X80866510Y-159937367D01*
X80820446Y-160038921D01*
X80805052Y-160206247D01*
X80958402Y-160535108D01*
X81096477Y-160630870D01*
X81203881Y-160660860D01*
X81388019Y-160655069D01*
X81848423Y-160440379D01*
X81971221Y-160303043D01*
X82017285Y-160201490D01*
X70075684Y-165847586D02*
X69876152Y-166020704D01*
X69492482Y-166199612D01*
X69308344Y-166205403D01*
X69200940Y-166175413D01*
X69062866Y-166079650D01*
X69001526Y-165948106D01*
X69016920Y-165780780D01*
X69062984Y-165679227D01*
X69185782Y-165541891D01*
X69462049Y-165332992D01*
X69584846Y-165195656D01*
X69630911Y-165094103D01*
X69646304Y-164926777D01*
X69584964Y-164795233D01*
X69446890Y-164699470D01*
X69339486Y-164669480D01*
X69155349Y-164675272D01*
X68771678Y-164854181D01*
X68572145Y-165027297D01*
X68004338Y-165211997D02*
X67574131Y-167094154D01*
X66930061Y-165712941D02*
X68648408Y-166593210D01*
X66009253Y-166142321D02*
X65855785Y-166213884D01*
X65732986Y-166351219D01*
X65686922Y-166452772D01*
X65671528Y-166620098D01*
X65717474Y-166918969D01*
X65870824Y-167247829D01*
X66070238Y-167475135D01*
X66208313Y-167570898D01*
X66315716Y-167600888D01*
X66499855Y-167595097D01*
X66653323Y-167523534D01*
X66776120Y-167386198D01*
X66822185Y-167284644D01*
X66837579Y-167117318D01*
X66791632Y-166818449D01*
X66638282Y-166489588D01*
X66438869Y-166262281D01*
X66300794Y-166166519D01*
X66193390Y-166136529D01*
X66009253Y-166142321D01*
X65364238Y-167964496D02*
X65318174Y-168066050D01*
X65425578Y-168096040D01*
X65471642Y-167994486D01*
X65364238Y-167964496D01*
X65425578Y-168096040D01*
X65026868Y-167241003D02*
X64980804Y-167342557D01*
X65088208Y-167372548D01*
X65134271Y-167270994D01*
X65026868Y-167241003D01*
X65088208Y-167372548D01*
X64152240Y-167168406D02*
X64044837Y-167138416D01*
X63860699Y-167144208D01*
X63477029Y-167323116D01*
X63354231Y-167460451D01*
X63308166Y-167562004D01*
X63292772Y-167729331D01*
X63354112Y-167860875D01*
X63522856Y-168022409D01*
X64811705Y-168382294D01*
X63814162Y-168847456D01*
D13*
X71239524Y-45952238D02*
X71239524Y-45468429D01*
X69969524Y-45468429D01*
X70574286Y-46290905D02*
X70574286Y-46629571D01*
X71239524Y-46774714D02*
X71239524Y-46290905D01*
X69969524Y-46290905D01*
X69969524Y-46774714D01*
X71239524Y-47210143D02*
X69969524Y-47210143D01*
X69969524Y-47452048D01*
X70030000Y-47597190D01*
X70150952Y-47693952D01*
X70271905Y-47742333D01*
X70513810Y-47790714D01*
X70695238Y-47790714D01*
X70937143Y-47742333D01*
X71058095Y-47693952D01*
X71179048Y-47597190D01*
X71239524Y-47452048D01*
X71239524Y-47210143D01*
X71239524Y-48661571D02*
X70574286Y-48661571D01*
X70453333Y-48613190D01*
X70392857Y-48516428D01*
X70392857Y-48322905D01*
X70453333Y-48226143D01*
X71179048Y-48661571D02*
X71239524Y-48564809D01*
X71239524Y-48322905D01*
X71179048Y-48226143D01*
X71058095Y-48177762D01*
X70937143Y-48177762D01*
X70816190Y-48226143D01*
X70755714Y-48322905D01*
X70755714Y-48564809D01*
X70695238Y-48661571D01*
X74539524Y-45952238D02*
X74539524Y-45468429D01*
X73269524Y-45468429D01*
X73874286Y-46290905D02*
X73874286Y-46629571D01*
X74539524Y-46774714D02*
X74539524Y-46290905D01*
X73269524Y-46290905D01*
X73269524Y-46774714D01*
X74539524Y-47210143D02*
X73269524Y-47210143D01*
X73269524Y-47452048D01*
X73330000Y-47597190D01*
X73450952Y-47693952D01*
X73571905Y-47742333D01*
X73813810Y-47790714D01*
X73995238Y-47790714D01*
X74237143Y-47742333D01*
X74358095Y-47693952D01*
X74479048Y-47597190D01*
X74539524Y-47452048D01*
X74539524Y-47210143D01*
X74539524Y-48226143D02*
X73269524Y-48226143D01*
X73753333Y-48226143D02*
X73692857Y-48322905D01*
X73692857Y-48516428D01*
X73753333Y-48613190D01*
X73813810Y-48661571D01*
X73934762Y-48709952D01*
X74297619Y-48709952D01*
X74418571Y-48661571D01*
X74479048Y-48613190D01*
X74539524Y-48516428D01*
X74539524Y-48322905D01*
X74479048Y-48226143D01*
X77939524Y-45976429D02*
X77939524Y-45492620D01*
X76669524Y-45492620D01*
X77274286Y-46315096D02*
X77274286Y-46653762D01*
X77939524Y-46798905D02*
X77939524Y-46315096D01*
X76669524Y-46315096D01*
X76669524Y-46798905D01*
X77939524Y-47234334D02*
X76669524Y-47234334D01*
X76669524Y-47476239D01*
X76730000Y-47621381D01*
X76850952Y-47718143D01*
X76971905Y-47766524D01*
X77213810Y-47814905D01*
X77395238Y-47814905D01*
X77637143Y-47766524D01*
X77758095Y-47718143D01*
X77879048Y-47621381D01*
X77939524Y-47476239D01*
X77939524Y-47234334D01*
X77879048Y-48685762D02*
X77939524Y-48589000D01*
X77939524Y-48395477D01*
X77879048Y-48298715D01*
X77818571Y-48250334D01*
X77697619Y-48201953D01*
X77334762Y-48201953D01*
X77213810Y-48250334D01*
X77153333Y-48298715D01*
X77092857Y-48395477D01*
X77092857Y-48589000D01*
X77153333Y-48685762D01*
X108172809Y-35890476D02*
X108124428Y-35830000D01*
X108027666Y-35769524D01*
X107785762Y-35769524D01*
X107689000Y-35830000D01*
X107640619Y-35890476D01*
X107592238Y-36011429D01*
X107592238Y-36132381D01*
X107640619Y-36313810D01*
X108221190Y-37039524D01*
X107592238Y-37039524D01*
X107156809Y-36918571D02*
X107108428Y-36979048D01*
X107156809Y-37039524D01*
X107205190Y-36979048D01*
X107156809Y-36918571D01*
X107156809Y-37039524D01*
X106721380Y-35890476D02*
X106672999Y-35830000D01*
X106576237Y-35769524D01*
X106334333Y-35769524D01*
X106237571Y-35830000D01*
X106189190Y-35890476D01*
X106140809Y-36011429D01*
X106140809Y-36132381D01*
X106189190Y-36313810D01*
X106769761Y-37039524D01*
X106140809Y-37039524D01*
X105705380Y-37039524D02*
X105705380Y-35769524D01*
X105608618Y-36555714D02*
X105318333Y-37039524D01*
X105318333Y-36192857D02*
X105705380Y-36676667D01*
X104931285Y-37039524D02*
X104689380Y-37039524D01*
X104689380Y-36797619D01*
X104786142Y-36737143D01*
X104882904Y-36616190D01*
X104931285Y-36434762D01*
X104931285Y-36132381D01*
X104882904Y-35950952D01*
X104786142Y-35830000D01*
X104640999Y-35769524D01*
X104447476Y-35769524D01*
X104302333Y-35830000D01*
X104205571Y-35950952D01*
X104157190Y-36132381D01*
X104157190Y-36434762D01*
X104205571Y-36616190D01*
X104302333Y-36737143D01*
X104399095Y-36797619D01*
X104399095Y-37039524D01*
X104157190Y-37039524D01*
X108179809Y-39176476D02*
X108131428Y-39116000D01*
X108034666Y-39055524D01*
X107792762Y-39055524D01*
X107696000Y-39116000D01*
X107647619Y-39176476D01*
X107599238Y-39297429D01*
X107599238Y-39418381D01*
X107647619Y-39599810D01*
X108228190Y-40325524D01*
X107599238Y-40325524D01*
X107163809Y-40204571D02*
X107115428Y-40265048D01*
X107163809Y-40325524D01*
X107212190Y-40265048D01*
X107163809Y-40204571D01*
X107163809Y-40325524D01*
X106728380Y-39176476D02*
X106679999Y-39116000D01*
X106583237Y-39055524D01*
X106341333Y-39055524D01*
X106244571Y-39116000D01*
X106196190Y-39176476D01*
X106147809Y-39297429D01*
X106147809Y-39418381D01*
X106196190Y-39599810D01*
X106776761Y-40325524D01*
X106147809Y-40325524D01*
X105712380Y-40325524D02*
X105712380Y-39055524D01*
X105615618Y-39841714D02*
X105325333Y-40325524D01*
X105325333Y-39478857D02*
X105712380Y-39962667D01*
X104938285Y-40325524D02*
X104696380Y-40325524D01*
X104696380Y-40083619D01*
X104793142Y-40023143D01*
X104889904Y-39902190D01*
X104938285Y-39720762D01*
X104938285Y-39418381D01*
X104889904Y-39236952D01*
X104793142Y-39116000D01*
X104647999Y-39055524D01*
X104454476Y-39055524D01*
X104309333Y-39116000D01*
X104212571Y-39236952D01*
X104164190Y-39418381D01*
X104164190Y-39720762D01*
X104212571Y-39902190D01*
X104309333Y-40023143D01*
X104406095Y-40083619D01*
X104406095Y-40325524D01*
X104164190Y-40325524D01*
D18*
X183575476Y-43923857D02*
X183575476Y-40875857D01*
X182607857Y-40875857D01*
X182365952Y-41021000D01*
X182245000Y-41166143D01*
X182124048Y-41456429D01*
X182124048Y-41891857D01*
X182245000Y-42182143D01*
X182365952Y-42327286D01*
X182607857Y-42472429D01*
X183575476Y-42472429D01*
X181035476Y-43923857D02*
X181035476Y-41891857D01*
X181035476Y-42472429D02*
X180914524Y-42182143D01*
X180793571Y-42037000D01*
X180551667Y-41891857D01*
X180309762Y-41891857D01*
X179100238Y-43923857D02*
X179342143Y-43778714D01*
X179463095Y-43633571D01*
X179584047Y-43343286D01*
X179584047Y-42472429D01*
X179463095Y-42182143D01*
X179342143Y-42037000D01*
X179100238Y-41891857D01*
X178737381Y-41891857D01*
X178495476Y-42037000D01*
X178374524Y-42182143D01*
X178253571Y-42472429D01*
X178253571Y-43343286D01*
X178374524Y-43633571D01*
X178495476Y-43778714D01*
X178737381Y-43923857D01*
X179100238Y-43923857D01*
X177165000Y-43923857D02*
X177165000Y-40875857D01*
X176318333Y-43053000D01*
X175471667Y-40875857D01*
X175471667Y-43923857D01*
X174262143Y-43923857D02*
X174262143Y-41891857D01*
X174262143Y-40875857D02*
X174383095Y-41021000D01*
X174262143Y-41166143D01*
X174141191Y-41021000D01*
X174262143Y-40875857D01*
X174262143Y-41166143D01*
X171964048Y-43778714D02*
X172205952Y-43923857D01*
X172689762Y-43923857D01*
X172931667Y-43778714D01*
X173052619Y-43633571D01*
X173173571Y-43343286D01*
X173173571Y-42472429D01*
X173052619Y-42182143D01*
X172931667Y-42037000D01*
X172689762Y-41891857D01*
X172205952Y-41891857D01*
X171964048Y-42037000D01*
X170875476Y-43923857D02*
X170875476Y-41891857D01*
X170875476Y-42472429D02*
X170754524Y-42182143D01*
X170633571Y-42037000D01*
X170391667Y-41891857D01*
X170149762Y-41891857D01*
X168940238Y-43923857D02*
X169182143Y-43778714D01*
X169303095Y-43633571D01*
X169424047Y-43343286D01*
X169424047Y-42472429D01*
X169303095Y-42182143D01*
X169182143Y-42037000D01*
X168940238Y-41891857D01*
X168577381Y-41891857D01*
X168335476Y-42037000D01*
X168214524Y-42182143D01*
X168093571Y-42472429D01*
X168093571Y-43343286D01*
X168214524Y-43633571D01*
X168335476Y-43778714D01*
X168577381Y-43923857D01*
X168940238Y-43923857D01*
D11*
X90542533Y-35360429D02*
X89441866Y-35360429D01*
X90034533Y-35941000D01*
X89780533Y-35941000D01*
X89611200Y-36013571D01*
X89526533Y-36086143D01*
X89441866Y-36231286D01*
X89441866Y-36594143D01*
X89526533Y-36739286D01*
X89611200Y-36811857D01*
X89780533Y-36884429D01*
X90288533Y-36884429D01*
X90457866Y-36811857D01*
X90542533Y-36739286D01*
X88679867Y-36739286D02*
X88595200Y-36811857D01*
X88679867Y-36884429D01*
X88764533Y-36811857D01*
X88679867Y-36739286D01*
X88679867Y-36884429D01*
X86986533Y-35360429D02*
X87833200Y-35360429D01*
X87917866Y-36086143D01*
X87833200Y-36013571D01*
X87663866Y-35941000D01*
X87240533Y-35941000D01*
X87071200Y-36013571D01*
X86986533Y-36086143D01*
X86901866Y-36231286D01*
X86901866Y-36594143D01*
X86986533Y-36739286D01*
X87071200Y-36811857D01*
X87240533Y-36884429D01*
X87663866Y-36884429D01*
X87833200Y-36811857D01*
X87917866Y-36739286D01*
X86139867Y-36884429D02*
X86139867Y-35868429D01*
X86139867Y-36013571D02*
X86055200Y-35941000D01*
X85885867Y-35868429D01*
X85631867Y-35868429D01*
X85462533Y-35941000D01*
X85377867Y-36086143D01*
X85377867Y-36884429D01*
X85377867Y-36086143D02*
X85293200Y-35941000D01*
X85123867Y-35868429D01*
X84869867Y-35868429D01*
X84700533Y-35941000D01*
X84615867Y-36086143D01*
X84615867Y-36884429D01*
X83769200Y-36884429D02*
X83769200Y-35868429D01*
X83769200Y-36013571D02*
X83684533Y-35941000D01*
X83515200Y-35868429D01*
X83261200Y-35868429D01*
X83091866Y-35941000D01*
X83007200Y-36086143D01*
X83007200Y-36884429D01*
X83007200Y-36086143D02*
X82922533Y-35941000D01*
X82753200Y-35868429D01*
X82499200Y-35868429D01*
X82329866Y-35941000D01*
X82245200Y-36086143D01*
X82245200Y-36884429D01*
D12*
X76030666Y-69019057D02*
X75776666Y-69091629D01*
X75353333Y-69091629D01*
X75184000Y-69019057D01*
X75099333Y-68946486D01*
X75014666Y-68801343D01*
X75014666Y-68656200D01*
X75099333Y-68511057D01*
X75184000Y-68438486D01*
X75353333Y-68365914D01*
X75692000Y-68293343D01*
X75861333Y-68220771D01*
X75946000Y-68148200D01*
X76030666Y-68003057D01*
X76030666Y-67857914D01*
X75946000Y-67712771D01*
X75861333Y-67640200D01*
X75692000Y-67567629D01*
X75268666Y-67567629D01*
X75014666Y-67640200D01*
X74422000Y-67567629D02*
X73998667Y-69091629D01*
X73660000Y-68003057D01*
X73321333Y-69091629D01*
X72898000Y-67567629D01*
X71374000Y-67567629D02*
X72220667Y-67567629D01*
X72305333Y-68293343D01*
X72220667Y-68220771D01*
X72051333Y-68148200D01*
X71628000Y-68148200D01*
X71458667Y-68220771D01*
X71374000Y-68293343D01*
X71289333Y-68438486D01*
X71289333Y-68801343D01*
X71374000Y-68946486D01*
X71458667Y-69019057D01*
X71628000Y-69091629D01*
X72051333Y-69091629D01*
X72220667Y-69019057D01*
X72305333Y-68946486D01*
X70527334Y-68946486D02*
X70442667Y-69019057D01*
X70527334Y-69091629D01*
X70612000Y-69019057D01*
X70527334Y-68946486D01*
X70527334Y-69091629D01*
X70527334Y-68148200D02*
X70442667Y-68220771D01*
X70527334Y-68293343D01*
X70612000Y-68220771D01*
X70527334Y-68148200D01*
X70527334Y-68293343D01*
X68918667Y-67567629D02*
X69257333Y-67567629D01*
X69426667Y-67640200D01*
X69511333Y-67712771D01*
X69680667Y-67930486D01*
X69765333Y-68220771D01*
X69765333Y-68801343D01*
X69680667Y-68946486D01*
X69596000Y-69019057D01*
X69426667Y-69091629D01*
X69088000Y-69091629D01*
X68918667Y-69019057D01*
X68834000Y-68946486D01*
X68749333Y-68801343D01*
X68749333Y-68438486D01*
X68834000Y-68293343D01*
X68918667Y-68220771D01*
X69088000Y-68148200D01*
X69426667Y-68148200D01*
X69596000Y-68220771D01*
X69680667Y-68293343D01*
X69765333Y-68438486D01*
X76308857Y-85269494D02*
X76381429Y-85523494D01*
X76381429Y-85946827D01*
X76308857Y-86116160D01*
X76236286Y-86200827D01*
X76091143Y-86285494D01*
X75946000Y-86285494D01*
X75800857Y-86200827D01*
X75728286Y-86116160D01*
X75655714Y-85946827D01*
X75583143Y-85608160D01*
X75510571Y-85438827D01*
X75438000Y-85354160D01*
X75292857Y-85269494D01*
X75147714Y-85269494D01*
X75002571Y-85354160D01*
X74930000Y-85438827D01*
X74857429Y-85608160D01*
X74857429Y-86031494D01*
X74930000Y-86285494D01*
X74857429Y-86878160D02*
X76381429Y-87301493D01*
X75292857Y-87640160D01*
X76381429Y-87978827D01*
X74857429Y-88402160D01*
X75365429Y-89841493D02*
X76381429Y-89841493D01*
X74784857Y-89418160D02*
X75873429Y-88994827D01*
X75873429Y-90095493D01*
X76236286Y-90772826D02*
X76308857Y-90857493D01*
X76381429Y-90772826D01*
X76308857Y-90688160D01*
X76236286Y-90772826D01*
X76381429Y-90772826D01*
X75438000Y-90772826D02*
X75510571Y-90857493D01*
X75583143Y-90772826D01*
X75510571Y-90688160D01*
X75438000Y-90772826D01*
X75583143Y-90772826D01*
X74857429Y-92381493D02*
X74857429Y-92042827D01*
X74930000Y-91873493D01*
X75002571Y-91788827D01*
X75220286Y-91619493D01*
X75510571Y-91534827D01*
X76091143Y-91534827D01*
X76236286Y-91619493D01*
X76308857Y-91704160D01*
X76381429Y-91873493D01*
X76381429Y-92212160D01*
X76308857Y-92381493D01*
X76236286Y-92466160D01*
X76091143Y-92550827D01*
X75728286Y-92550827D01*
X75583143Y-92466160D01*
X75510571Y-92381493D01*
X75438000Y-92212160D01*
X75438000Y-91873493D01*
X75510571Y-91704160D01*
X75583143Y-91619493D01*
X75728286Y-91534827D01*
X76308857Y-113844494D02*
X76381429Y-114098494D01*
X76381429Y-114521827D01*
X76308857Y-114691160D01*
X76236286Y-114775827D01*
X76091143Y-114860494D01*
X75946000Y-114860494D01*
X75800857Y-114775827D01*
X75728286Y-114691160D01*
X75655714Y-114521827D01*
X75583143Y-114183160D01*
X75510571Y-114013827D01*
X75438000Y-113929160D01*
X75292857Y-113844494D01*
X75147714Y-113844494D01*
X75002571Y-113929160D01*
X74930000Y-114013827D01*
X74857429Y-114183160D01*
X74857429Y-114606494D01*
X74930000Y-114860494D01*
X74857429Y-115453160D02*
X76381429Y-115876493D01*
X75292857Y-116215160D01*
X76381429Y-116553827D01*
X74857429Y-116977160D01*
X75002571Y-117569827D02*
X74930000Y-117654493D01*
X74857429Y-117823827D01*
X74857429Y-118247160D01*
X74930000Y-118416493D01*
X75002571Y-118501160D01*
X75147714Y-118585827D01*
X75292857Y-118585827D01*
X75510571Y-118501160D01*
X76381429Y-117485160D01*
X76381429Y-118585827D01*
X76236286Y-119347826D02*
X76308857Y-119432493D01*
X76381429Y-119347826D01*
X76308857Y-119263160D01*
X76236286Y-119347826D01*
X76381429Y-119347826D01*
X75438000Y-119347826D02*
X75510571Y-119432493D01*
X75583143Y-119347826D01*
X75510571Y-119263160D01*
X75438000Y-119347826D01*
X75583143Y-119347826D01*
X74857429Y-120956493D02*
X74857429Y-120617827D01*
X74930000Y-120448493D01*
X75002571Y-120363827D01*
X75220286Y-120194493D01*
X75510571Y-120109827D01*
X76091143Y-120109827D01*
X76236286Y-120194493D01*
X76308857Y-120279160D01*
X76381429Y-120448493D01*
X76381429Y-120787160D01*
X76308857Y-120956493D01*
X76236286Y-121041160D01*
X76091143Y-121125827D01*
X75728286Y-121125827D01*
X75583143Y-121041160D01*
X75510571Y-120956493D01*
X75438000Y-120787160D01*
X75438000Y-120448493D01*
X75510571Y-120279160D01*
X75583143Y-120194493D01*
X75728286Y-120109827D01*
X190330666Y-147121517D02*
X190076666Y-147194089D01*
X189653333Y-147194089D01*
X189484000Y-147121517D01*
X189399333Y-147048946D01*
X189314666Y-146903803D01*
X189314666Y-146758660D01*
X189399333Y-146613517D01*
X189484000Y-146540946D01*
X189653333Y-146468374D01*
X189992000Y-146395803D01*
X190161333Y-146323231D01*
X190246000Y-146250660D01*
X190330666Y-146105517D01*
X190330666Y-145960374D01*
X190246000Y-145815231D01*
X190161333Y-145742660D01*
X189992000Y-145670089D01*
X189568666Y-145670089D01*
X189314666Y-145742660D01*
X188722000Y-145670089D02*
X188298667Y-147194089D01*
X187960000Y-146105517D01*
X187621333Y-147194089D01*
X187198000Y-145670089D01*
X185589333Y-147194089D02*
X186605333Y-147194089D01*
X186097333Y-147194089D02*
X186097333Y-145670089D01*
X186266667Y-145887803D01*
X186436000Y-146032946D01*
X186605333Y-146105517D01*
X184827334Y-147048946D02*
X184742667Y-147121517D01*
X184827334Y-147194089D01*
X184912000Y-147121517D01*
X184827334Y-147048946D01*
X184827334Y-147194089D01*
X184827334Y-146250660D02*
X184742667Y-146323231D01*
X184827334Y-146395803D01*
X184912000Y-146323231D01*
X184827334Y-146250660D01*
X184827334Y-146395803D01*
X183642000Y-145670089D02*
X183472667Y-145670089D01*
X183303333Y-145742660D01*
X183218667Y-145815231D01*
X183134000Y-145960374D01*
X183049333Y-146250660D01*
X183049333Y-146613517D01*
X183134000Y-146903803D01*
X183218667Y-147048946D01*
X183303333Y-147121517D01*
X183472667Y-147194089D01*
X183642000Y-147194089D01*
X183811333Y-147121517D01*
X183896000Y-147048946D01*
X183980667Y-146903803D01*
X184065333Y-146613517D01*
X184065333Y-146250660D01*
X183980667Y-145960374D01*
X183896000Y-145815231D01*
X183811333Y-145742660D01*
X183642000Y-145670089D01*
X95080666Y-88066517D02*
X94826666Y-88139089D01*
X94403333Y-88139089D01*
X94234000Y-88066517D01*
X94149333Y-87993946D01*
X94064666Y-87848803D01*
X94064666Y-87703660D01*
X94149333Y-87558517D01*
X94234000Y-87485946D01*
X94403333Y-87413374D01*
X94742000Y-87340803D01*
X94911333Y-87268231D01*
X94996000Y-87195660D01*
X95080666Y-87050517D01*
X95080666Y-86905374D01*
X94996000Y-86760231D01*
X94911333Y-86687660D01*
X94742000Y-86615089D01*
X94318666Y-86615089D01*
X94064666Y-86687660D01*
X93472000Y-86615089D02*
X93048667Y-88139089D01*
X92710000Y-87050517D01*
X92371333Y-88139089D01*
X91948000Y-86615089D01*
X90508667Y-87123089D02*
X90508667Y-88139089D01*
X90932000Y-86542517D02*
X91355333Y-87631089D01*
X90254667Y-87631089D01*
X89577334Y-87993946D02*
X89492667Y-88066517D01*
X89577334Y-88139089D01*
X89662000Y-88066517D01*
X89577334Y-87993946D01*
X89577334Y-88139089D01*
X89577334Y-87195660D02*
X89492667Y-87268231D01*
X89577334Y-87340803D01*
X89662000Y-87268231D01*
X89577334Y-87195660D01*
X89577334Y-87340803D01*
X87884000Y-86615089D02*
X88730667Y-86615089D01*
X88815333Y-87340803D01*
X88730667Y-87268231D01*
X88561333Y-87195660D01*
X88138000Y-87195660D01*
X87968667Y-87268231D01*
X87884000Y-87340803D01*
X87799333Y-87485946D01*
X87799333Y-87848803D01*
X87884000Y-87993946D01*
X87968667Y-88066517D01*
X88138000Y-88139089D01*
X88561333Y-88139089D01*
X88730667Y-88066517D01*
X88815333Y-87993946D01*
X47703945Y-162546158D02*
X47504413Y-162719276D01*
X47120743Y-162898184D01*
X46936605Y-162903975D01*
X46829201Y-162873985D01*
X46691126Y-162778223D01*
X46629786Y-162646678D01*
X46645181Y-162479352D01*
X46691245Y-162377799D01*
X46814043Y-162240463D01*
X47090309Y-162031565D01*
X47213107Y-161894229D01*
X47259171Y-161792675D01*
X47274565Y-161625350D01*
X47213225Y-161493805D01*
X47075151Y-161398043D01*
X46967747Y-161368053D01*
X46783609Y-161373844D01*
X46399938Y-161552753D01*
X46200406Y-161725870D01*
X45632598Y-161910569D02*
X45892999Y-163470691D01*
X45126012Y-162627236D01*
X45279126Y-163756945D01*
X44251385Y-162554640D01*
X43330577Y-162984020D02*
X43177109Y-163055583D01*
X43054310Y-163192918D01*
X43008246Y-163294471D01*
X42992852Y-163461798D01*
X43038798Y-163760668D01*
X43192148Y-164089528D01*
X43391562Y-164316835D01*
X43529637Y-164412597D01*
X43637040Y-164442587D01*
X43821179Y-164436796D01*
X43974647Y-164365233D01*
X44097444Y-164227897D01*
X44143509Y-164126344D01*
X44158903Y-163959018D01*
X44112957Y-163660148D01*
X43959607Y-163331288D01*
X43760193Y-163103981D01*
X43622119Y-163008218D01*
X43514714Y-162978228D01*
X43330577Y-162984020D01*
X42685563Y-164806195D02*
X42639498Y-164907749D01*
X42746903Y-164937740D01*
X42792966Y-164836186D01*
X42685563Y-164806195D01*
X42746903Y-164937740D01*
X42348192Y-164082702D02*
X42302128Y-164184256D01*
X42409532Y-164214247D01*
X42455596Y-164112693D01*
X42348192Y-164082702D01*
X42409532Y-164214247D01*
X40859575Y-164696783D02*
X41288955Y-165617592D01*
X40997885Y-163991698D02*
X41841605Y-164799371D01*
X40844063Y-165264532D01*
X55755745Y-179813078D02*
X55556213Y-179986196D01*
X55172543Y-180165104D01*
X54988405Y-180170895D01*
X54881001Y-180140905D01*
X54742926Y-180045143D01*
X54681586Y-179913598D01*
X54696981Y-179746272D01*
X54743045Y-179644719D01*
X54865843Y-179507383D01*
X55142109Y-179298485D01*
X55264907Y-179161149D01*
X55310971Y-179059595D01*
X55326365Y-178892270D01*
X55265025Y-178760725D01*
X55126951Y-178664963D01*
X55019547Y-178634973D01*
X54835409Y-178640764D01*
X54451738Y-178819673D01*
X54252206Y-178992790D01*
X53684398Y-179177489D02*
X53944799Y-180737611D01*
X53177812Y-179894156D01*
X53330926Y-181023865D01*
X52303185Y-179821560D01*
X51382377Y-180250940D02*
X51228909Y-180322503D01*
X51106110Y-180459838D01*
X51060046Y-180561391D01*
X51044652Y-180728718D01*
X51090598Y-181027588D01*
X51243948Y-181356448D01*
X51443362Y-181583755D01*
X51581437Y-181679517D01*
X51688840Y-181709507D01*
X51872979Y-181703716D01*
X52026447Y-181632153D01*
X52149244Y-181494817D01*
X52195309Y-181393264D01*
X52210703Y-181225938D01*
X52164757Y-180927068D01*
X52011407Y-180598208D01*
X51811993Y-180370901D01*
X51673919Y-180275138D01*
X51566514Y-180245148D01*
X51382377Y-180250940D01*
X50737363Y-182073115D02*
X50691298Y-182174669D01*
X50798703Y-182204660D01*
X50844766Y-182103106D01*
X50737363Y-182073115D01*
X50798703Y-182204660D01*
X50399992Y-181349622D02*
X50353928Y-181451176D01*
X50461332Y-181481167D01*
X50507396Y-181379613D01*
X50399992Y-181349622D01*
X50461332Y-181481167D01*
X49187286Y-182956075D02*
X50108095Y-182526695D01*
X49647691Y-182741385D02*
X49003621Y-181360172D01*
X49249099Y-181485924D01*
X49463907Y-181545905D01*
X49648045Y-181540114D01*
X39654685Y-145281778D02*
X39455153Y-145454896D01*
X39071483Y-145633804D01*
X38887345Y-145639595D01*
X38779941Y-145609605D01*
X38641866Y-145513843D01*
X38580526Y-145382298D01*
X38595921Y-145214972D01*
X38641985Y-145113419D01*
X38764783Y-144976083D01*
X39041049Y-144767185D01*
X39163847Y-144629849D01*
X39209911Y-144528295D01*
X39225305Y-144360970D01*
X39163965Y-144229425D01*
X39025891Y-144133663D01*
X38918487Y-144103673D01*
X38734349Y-144109464D01*
X38350678Y-144288373D01*
X38151146Y-144461490D01*
X37583338Y-144646189D02*
X37843739Y-146206311D01*
X37076752Y-145362856D01*
X37229866Y-146492565D01*
X36202125Y-145290260D01*
X35281317Y-145719640D02*
X35127849Y-145791203D01*
X35005050Y-145928538D01*
X34958986Y-146030091D01*
X34943592Y-146197418D01*
X34989538Y-146496288D01*
X35142888Y-146825148D01*
X35342302Y-147052455D01*
X35480377Y-147148217D01*
X35587780Y-147178207D01*
X35771919Y-147172416D01*
X35925387Y-147100853D01*
X36048184Y-146963517D01*
X36094249Y-146861964D01*
X36109643Y-146694638D01*
X36063697Y-146395768D01*
X35910347Y-146066908D01*
X35710933Y-145839601D01*
X35572859Y-145743838D01*
X35465454Y-145713848D01*
X35281317Y-145719640D01*
X34636303Y-147541815D02*
X34590238Y-147643369D01*
X34697643Y-147673360D01*
X34743706Y-147571806D01*
X34636303Y-147541815D01*
X34697643Y-147673360D01*
X34298932Y-146818322D02*
X34252868Y-146919876D01*
X34360272Y-146949867D01*
X34406336Y-146848313D01*
X34298932Y-146818322D01*
X34360272Y-146949867D01*
X32595625Y-146971999D02*
X32902561Y-146828872D01*
X33086699Y-146823080D01*
X33194102Y-146853070D01*
X33439581Y-146978824D01*
X33638995Y-147206130D01*
X33884355Y-147732307D01*
X33868962Y-147899632D01*
X33822897Y-148001186D01*
X33700100Y-148138522D01*
X33393163Y-148281648D01*
X33209025Y-148287439D01*
X33101621Y-148257449D01*
X32963546Y-148161687D01*
X32810196Y-147832827D01*
X32825591Y-147665501D01*
X32871655Y-147563946D01*
X32994453Y-147426611D01*
X33301389Y-147283484D01*
X33485527Y-147277693D01*
X33592931Y-147307684D01*
X33731005Y-147403446D01*
X56919065Y-137232518D02*
X56719533Y-137405636D01*
X56335863Y-137584544D01*
X56151725Y-137590335D01*
X56044321Y-137560345D01*
X55906246Y-137464583D01*
X55844906Y-137333038D01*
X55860301Y-137165712D01*
X55906365Y-137064159D01*
X56029163Y-136926823D01*
X56305429Y-136717925D01*
X56428227Y-136580589D01*
X56474291Y-136479035D01*
X56489685Y-136311710D01*
X56428345Y-136180165D01*
X56290271Y-136084403D01*
X56182867Y-136054413D01*
X55998729Y-136060204D01*
X55615058Y-136239113D01*
X55415526Y-136412230D01*
X54847718Y-136596929D02*
X55108119Y-138157051D01*
X54341132Y-137313596D01*
X54494246Y-138443305D01*
X53466505Y-137241000D01*
X52545697Y-137670380D02*
X52392229Y-137741943D01*
X52269430Y-137879278D01*
X52223366Y-137980831D01*
X52207972Y-138148158D01*
X52253918Y-138447028D01*
X52407268Y-138775888D01*
X52606682Y-139003195D01*
X52744757Y-139098957D01*
X52852160Y-139128947D01*
X53036299Y-139123156D01*
X53189767Y-139051593D01*
X53312564Y-138914257D01*
X53358629Y-138812704D01*
X53374023Y-138645378D01*
X53328077Y-138346508D01*
X53174727Y-138017648D01*
X52975313Y-137790341D01*
X52837239Y-137694578D01*
X52729834Y-137664588D01*
X52545697Y-137670380D01*
X51900683Y-139492555D02*
X51854618Y-139594109D01*
X51962023Y-139624100D01*
X52008086Y-139522546D01*
X51900683Y-139492555D01*
X51962023Y-139624100D01*
X51563312Y-138769062D02*
X51517248Y-138870616D01*
X51624652Y-138900607D01*
X51670716Y-138799053D01*
X51563312Y-138769062D01*
X51624652Y-138900607D01*
X49783271Y-138958520D02*
X50550611Y-138600703D01*
X50934045Y-139222642D01*
X50826641Y-139192651D01*
X50642503Y-139198443D01*
X50258833Y-139377351D01*
X50136035Y-139514686D01*
X50089971Y-139616241D01*
X50074576Y-139783567D01*
X50227926Y-140112427D01*
X50366001Y-140208189D01*
X50473405Y-140238179D01*
X50657543Y-140232388D01*
X51041213Y-140053480D01*
X51164011Y-139916144D01*
X51210075Y-139814591D01*
X171280666Y-70924057D02*
X171026666Y-70996629D01*
X170603333Y-70996629D01*
X170434000Y-70924057D01*
X170349333Y-70851486D01*
X170264666Y-70706343D01*
X170264666Y-70561200D01*
X170349333Y-70416057D01*
X170434000Y-70343486D01*
X170603333Y-70270914D01*
X170942000Y-70198343D01*
X171111333Y-70125771D01*
X171196000Y-70053200D01*
X171280666Y-69908057D01*
X171280666Y-69762914D01*
X171196000Y-69617771D01*
X171111333Y-69545200D01*
X170942000Y-69472629D01*
X170518666Y-69472629D01*
X170264666Y-69545200D01*
X169672000Y-69472629D02*
X169248667Y-70996629D01*
X168910000Y-69908057D01*
X168571333Y-70996629D01*
X168148000Y-69472629D01*
X166624000Y-69472629D02*
X167470667Y-69472629D01*
X167555333Y-70198343D01*
X167470667Y-70125771D01*
X167301333Y-70053200D01*
X166878000Y-70053200D01*
X166708667Y-70125771D01*
X166624000Y-70198343D01*
X166539333Y-70343486D01*
X166539333Y-70706343D01*
X166624000Y-70851486D01*
X166708667Y-70924057D01*
X166878000Y-70996629D01*
X167301333Y-70996629D01*
X167470667Y-70924057D01*
X167555333Y-70851486D01*
X165777334Y-70851486D02*
X165692667Y-70924057D01*
X165777334Y-70996629D01*
X165862000Y-70924057D01*
X165777334Y-70851486D01*
X165777334Y-70996629D01*
X165777334Y-70053200D02*
X165692667Y-70125771D01*
X165777334Y-70198343D01*
X165862000Y-70125771D01*
X165777334Y-70053200D01*
X165777334Y-70198343D01*
X163999333Y-70996629D02*
X165015333Y-70996629D01*
X164507333Y-70996629D02*
X164507333Y-69472629D01*
X164676667Y-69690343D01*
X164846000Y-69835486D01*
X165015333Y-69908057D01*
X152230666Y-67746517D02*
X151976666Y-67819089D01*
X151553333Y-67819089D01*
X151384000Y-67746517D01*
X151299333Y-67673946D01*
X151214666Y-67528803D01*
X151214666Y-67383660D01*
X151299333Y-67238517D01*
X151384000Y-67165946D01*
X151553333Y-67093374D01*
X151892000Y-67020803D01*
X152061333Y-66948231D01*
X152146000Y-66875660D01*
X152230666Y-66730517D01*
X152230666Y-66585374D01*
X152146000Y-66440231D01*
X152061333Y-66367660D01*
X151892000Y-66295089D01*
X151468666Y-66295089D01*
X151214666Y-66367660D01*
X150622000Y-66295089D02*
X150198667Y-67819089D01*
X149860000Y-66730517D01*
X149521333Y-67819089D01*
X149098000Y-66295089D01*
X147574000Y-66295089D02*
X148420667Y-66295089D01*
X148505333Y-67020803D01*
X148420667Y-66948231D01*
X148251333Y-66875660D01*
X147828000Y-66875660D01*
X147658667Y-66948231D01*
X147574000Y-67020803D01*
X147489333Y-67165946D01*
X147489333Y-67528803D01*
X147574000Y-67673946D01*
X147658667Y-67746517D01*
X147828000Y-67819089D01*
X148251333Y-67819089D01*
X148420667Y-67746517D01*
X148505333Y-67673946D01*
X146727334Y-67673946D02*
X146642667Y-67746517D01*
X146727334Y-67819089D01*
X146812000Y-67746517D01*
X146727334Y-67673946D01*
X146727334Y-67819089D01*
X146727334Y-66875660D02*
X146642667Y-66948231D01*
X146727334Y-67020803D01*
X146812000Y-66948231D01*
X146727334Y-66875660D01*
X146727334Y-67020803D01*
X145965333Y-66440231D02*
X145880667Y-66367660D01*
X145711333Y-66295089D01*
X145288000Y-66295089D01*
X145118667Y-66367660D01*
X145034000Y-66440231D01*
X144949333Y-66585374D01*
X144949333Y-66730517D01*
X145034000Y-66948231D01*
X146050000Y-67819089D01*
X144949333Y-67819089D01*
X133180666Y-66148857D02*
X132926666Y-66221429D01*
X132503333Y-66221429D01*
X132334000Y-66148857D01*
X132249333Y-66076286D01*
X132164666Y-65931143D01*
X132164666Y-65786000D01*
X132249333Y-65640857D01*
X132334000Y-65568286D01*
X132503333Y-65495714D01*
X132842000Y-65423143D01*
X133011333Y-65350571D01*
X133096000Y-65278000D01*
X133180666Y-65132857D01*
X133180666Y-64987714D01*
X133096000Y-64842571D01*
X133011333Y-64770000D01*
X132842000Y-64697429D01*
X132418666Y-64697429D01*
X132164666Y-64770000D01*
X131572000Y-64697429D02*
X131148667Y-66221429D01*
X130810000Y-65132857D01*
X130471333Y-66221429D01*
X130048000Y-64697429D01*
X128524000Y-64697429D02*
X129370667Y-64697429D01*
X129455333Y-65423143D01*
X129370667Y-65350571D01*
X129201333Y-65278000D01*
X128778000Y-65278000D01*
X128608667Y-65350571D01*
X128524000Y-65423143D01*
X128439333Y-65568286D01*
X128439333Y-65931143D01*
X128524000Y-66076286D01*
X128608667Y-66148857D01*
X128778000Y-66221429D01*
X129201333Y-66221429D01*
X129370667Y-66148857D01*
X129455333Y-66076286D01*
X127677334Y-66076286D02*
X127592667Y-66148857D01*
X127677334Y-66221429D01*
X127762000Y-66148857D01*
X127677334Y-66076286D01*
X127677334Y-66221429D01*
X127677334Y-65278000D02*
X127592667Y-65350571D01*
X127677334Y-65423143D01*
X127762000Y-65350571D01*
X127677334Y-65278000D01*
X127677334Y-65423143D01*
X127000000Y-64697429D02*
X125899333Y-64697429D01*
X126492000Y-65278000D01*
X126238000Y-65278000D01*
X126068667Y-65350571D01*
X125984000Y-65423143D01*
X125899333Y-65568286D01*
X125899333Y-65931143D01*
X125984000Y-66076286D01*
X126068667Y-66148857D01*
X126238000Y-66221429D01*
X126746000Y-66221429D01*
X126915333Y-66148857D01*
X127000000Y-66076286D01*
X114130666Y-67746517D02*
X113876666Y-67819089D01*
X113453333Y-67819089D01*
X113284000Y-67746517D01*
X113199333Y-67673946D01*
X113114666Y-67528803D01*
X113114666Y-67383660D01*
X113199333Y-67238517D01*
X113284000Y-67165946D01*
X113453333Y-67093374D01*
X113792000Y-67020803D01*
X113961333Y-66948231D01*
X114046000Y-66875660D01*
X114130666Y-66730517D01*
X114130666Y-66585374D01*
X114046000Y-66440231D01*
X113961333Y-66367660D01*
X113792000Y-66295089D01*
X113368666Y-66295089D01*
X113114666Y-66367660D01*
X112522000Y-66295089D02*
X112098667Y-67819089D01*
X111760000Y-66730517D01*
X111421333Y-67819089D01*
X110998000Y-66295089D01*
X109474000Y-66295089D02*
X110320667Y-66295089D01*
X110405333Y-67020803D01*
X110320667Y-66948231D01*
X110151333Y-66875660D01*
X109728000Y-66875660D01*
X109558667Y-66948231D01*
X109474000Y-67020803D01*
X109389333Y-67165946D01*
X109389333Y-67528803D01*
X109474000Y-67673946D01*
X109558667Y-67746517D01*
X109728000Y-67819089D01*
X110151333Y-67819089D01*
X110320667Y-67746517D01*
X110405333Y-67673946D01*
X108627334Y-67673946D02*
X108542667Y-67746517D01*
X108627334Y-67819089D01*
X108712000Y-67746517D01*
X108627334Y-67673946D01*
X108627334Y-67819089D01*
X108627334Y-66875660D02*
X108542667Y-66948231D01*
X108627334Y-67020803D01*
X108712000Y-66948231D01*
X108627334Y-66875660D01*
X108627334Y-67020803D01*
X107018667Y-66803089D02*
X107018667Y-67819089D01*
X107442000Y-66222517D02*
X107865333Y-67311089D01*
X106764667Y-67311089D01*
X152230666Y-143946517D02*
X151976666Y-144019089D01*
X151553333Y-144019089D01*
X151384000Y-143946517D01*
X151299333Y-143873946D01*
X151214666Y-143728803D01*
X151214666Y-143583660D01*
X151299333Y-143438517D01*
X151384000Y-143365946D01*
X151553333Y-143293374D01*
X151892000Y-143220803D01*
X152061333Y-143148231D01*
X152146000Y-143075660D01*
X152230666Y-142930517D01*
X152230666Y-142785374D01*
X152146000Y-142640231D01*
X152061333Y-142567660D01*
X151892000Y-142495089D01*
X151468666Y-142495089D01*
X151214666Y-142567660D01*
X150622000Y-142495089D02*
X150198667Y-144019089D01*
X149860000Y-142930517D01*
X149521333Y-144019089D01*
X149098000Y-142495089D01*
X147489333Y-144019089D02*
X148505333Y-144019089D01*
X147997333Y-144019089D02*
X147997333Y-142495089D01*
X148166667Y-142712803D01*
X148336000Y-142857946D01*
X148505333Y-142930517D01*
X146727334Y-143873946D02*
X146642667Y-143946517D01*
X146727334Y-144019089D01*
X146812000Y-143946517D01*
X146727334Y-143873946D01*
X146727334Y-144019089D01*
X146727334Y-143075660D02*
X146642667Y-143148231D01*
X146727334Y-143220803D01*
X146812000Y-143148231D01*
X146727334Y-143075660D01*
X146727334Y-143220803D01*
X145965333Y-142640231D02*
X145880667Y-142567660D01*
X145711333Y-142495089D01*
X145288000Y-142495089D01*
X145118667Y-142567660D01*
X145034000Y-142640231D01*
X144949333Y-142785374D01*
X144949333Y-142930517D01*
X145034000Y-143148231D01*
X146050000Y-144019089D01*
X144949333Y-144019089D01*
X171280666Y-89971517D02*
X171026666Y-90044089D01*
X170603333Y-90044089D01*
X170434000Y-89971517D01*
X170349333Y-89898946D01*
X170264666Y-89753803D01*
X170264666Y-89608660D01*
X170349333Y-89463517D01*
X170434000Y-89390946D01*
X170603333Y-89318374D01*
X170942000Y-89245803D01*
X171111333Y-89173231D01*
X171196000Y-89100660D01*
X171280666Y-88955517D01*
X171280666Y-88810374D01*
X171196000Y-88665231D01*
X171111333Y-88592660D01*
X170942000Y-88520089D01*
X170518666Y-88520089D01*
X170264666Y-88592660D01*
X169672000Y-88520089D02*
X169248667Y-90044089D01*
X168910000Y-88955517D01*
X168571333Y-90044089D01*
X168148000Y-88520089D01*
X166708667Y-89028089D02*
X166708667Y-90044089D01*
X167132000Y-88447517D02*
X167555333Y-89536089D01*
X166454667Y-89536089D01*
X165777334Y-89898946D02*
X165692667Y-89971517D01*
X165777334Y-90044089D01*
X165862000Y-89971517D01*
X165777334Y-89898946D01*
X165777334Y-90044089D01*
X165777334Y-89100660D02*
X165692667Y-89173231D01*
X165777334Y-89245803D01*
X165862000Y-89173231D01*
X165777334Y-89100660D01*
X165777334Y-89245803D01*
X163999333Y-90044089D02*
X165015333Y-90044089D01*
X164507333Y-90044089D02*
X164507333Y-88520089D01*
X164676667Y-88737803D01*
X164846000Y-88882946D01*
X165015333Y-88955517D01*
X133180666Y-85198857D02*
X132926666Y-85271429D01*
X132503333Y-85271429D01*
X132334000Y-85198857D01*
X132249333Y-85126286D01*
X132164666Y-84981143D01*
X132164666Y-84836000D01*
X132249333Y-84690857D01*
X132334000Y-84618286D01*
X132503333Y-84545714D01*
X132842000Y-84473143D01*
X133011333Y-84400571D01*
X133096000Y-84328000D01*
X133180666Y-84182857D01*
X133180666Y-84037714D01*
X133096000Y-83892571D01*
X133011333Y-83820000D01*
X132842000Y-83747429D01*
X132418666Y-83747429D01*
X132164666Y-83820000D01*
X131572000Y-83747429D02*
X131148667Y-85271429D01*
X130810000Y-84182857D01*
X130471333Y-85271429D01*
X130048000Y-83747429D01*
X128608667Y-84255429D02*
X128608667Y-85271429D01*
X129032000Y-83674857D02*
X129455333Y-84763429D01*
X128354667Y-84763429D01*
X127677334Y-85126286D02*
X127592667Y-85198857D01*
X127677334Y-85271429D01*
X127762000Y-85198857D01*
X127677334Y-85126286D01*
X127677334Y-85271429D01*
X127677334Y-84328000D02*
X127592667Y-84400571D01*
X127677334Y-84473143D01*
X127762000Y-84400571D01*
X127677334Y-84328000D01*
X127677334Y-84473143D01*
X127000000Y-83747429D02*
X125899333Y-83747429D01*
X126492000Y-84328000D01*
X126238000Y-84328000D01*
X126068667Y-84400571D01*
X125984000Y-84473143D01*
X125899333Y-84618286D01*
X125899333Y-84981143D01*
X125984000Y-85126286D01*
X126068667Y-85198857D01*
X126238000Y-85271429D01*
X126746000Y-85271429D01*
X126915333Y-85198857D01*
X127000000Y-85126286D01*
X114130666Y-86796517D02*
X113876666Y-86869089D01*
X113453333Y-86869089D01*
X113284000Y-86796517D01*
X113199333Y-86723946D01*
X113114666Y-86578803D01*
X113114666Y-86433660D01*
X113199333Y-86288517D01*
X113284000Y-86215946D01*
X113453333Y-86143374D01*
X113792000Y-86070803D01*
X113961333Y-85998231D01*
X114046000Y-85925660D01*
X114130666Y-85780517D01*
X114130666Y-85635374D01*
X114046000Y-85490231D01*
X113961333Y-85417660D01*
X113792000Y-85345089D01*
X113368666Y-85345089D01*
X113114666Y-85417660D01*
X112522000Y-85345089D02*
X112098667Y-86869089D01*
X111760000Y-85780517D01*
X111421333Y-86869089D01*
X110998000Y-85345089D01*
X109558667Y-85853089D02*
X109558667Y-86869089D01*
X109982000Y-85272517D02*
X110405333Y-86361089D01*
X109304667Y-86361089D01*
X108627334Y-86723946D02*
X108542667Y-86796517D01*
X108627334Y-86869089D01*
X108712000Y-86796517D01*
X108627334Y-86723946D01*
X108627334Y-86869089D01*
X108627334Y-85925660D02*
X108542667Y-85998231D01*
X108627334Y-86070803D01*
X108712000Y-85998231D01*
X108627334Y-85925660D01*
X108627334Y-86070803D01*
X107018667Y-85853089D02*
X107018667Y-86869089D01*
X107442000Y-85272517D02*
X107865333Y-86361089D01*
X106764667Y-86361089D01*
X171280666Y-109021517D02*
X171026666Y-109094089D01*
X170603333Y-109094089D01*
X170434000Y-109021517D01*
X170349333Y-108948946D01*
X170264666Y-108803803D01*
X170264666Y-108658660D01*
X170349333Y-108513517D01*
X170434000Y-108440946D01*
X170603333Y-108368374D01*
X170942000Y-108295803D01*
X171111333Y-108223231D01*
X171196000Y-108150660D01*
X171280666Y-108005517D01*
X171280666Y-107860374D01*
X171196000Y-107715231D01*
X171111333Y-107642660D01*
X170942000Y-107570089D01*
X170518666Y-107570089D01*
X170264666Y-107642660D01*
X169672000Y-107570089D02*
X169248667Y-109094089D01*
X168910000Y-108005517D01*
X168571333Y-109094089D01*
X168148000Y-107570089D01*
X167640000Y-107570089D02*
X166539333Y-107570089D01*
X167132000Y-108150660D01*
X166878000Y-108150660D01*
X166708667Y-108223231D01*
X166624000Y-108295803D01*
X166539333Y-108440946D01*
X166539333Y-108803803D01*
X166624000Y-108948946D01*
X166708667Y-109021517D01*
X166878000Y-109094089D01*
X167386000Y-109094089D01*
X167555333Y-109021517D01*
X167640000Y-108948946D01*
X165777334Y-108948946D02*
X165692667Y-109021517D01*
X165777334Y-109094089D01*
X165862000Y-109021517D01*
X165777334Y-108948946D01*
X165777334Y-109094089D01*
X165777334Y-108150660D02*
X165692667Y-108223231D01*
X165777334Y-108295803D01*
X165862000Y-108223231D01*
X165777334Y-108150660D01*
X165777334Y-108295803D01*
X163999333Y-109094089D02*
X165015333Y-109094089D01*
X164507333Y-109094089D02*
X164507333Y-107570089D01*
X164676667Y-107787803D01*
X164846000Y-107932946D01*
X165015333Y-108005517D01*
X152230666Y-105846517D02*
X151976666Y-105919089D01*
X151553333Y-105919089D01*
X151384000Y-105846517D01*
X151299333Y-105773946D01*
X151214666Y-105628803D01*
X151214666Y-105483660D01*
X151299333Y-105338517D01*
X151384000Y-105265946D01*
X151553333Y-105193374D01*
X151892000Y-105120803D01*
X152061333Y-105048231D01*
X152146000Y-104975660D01*
X152230666Y-104830517D01*
X152230666Y-104685374D01*
X152146000Y-104540231D01*
X152061333Y-104467660D01*
X151892000Y-104395089D01*
X151468666Y-104395089D01*
X151214666Y-104467660D01*
X150622000Y-104395089D02*
X150198667Y-105919089D01*
X149860000Y-104830517D01*
X149521333Y-105919089D01*
X149098000Y-104395089D01*
X148590000Y-104395089D02*
X147489333Y-104395089D01*
X148082000Y-104975660D01*
X147828000Y-104975660D01*
X147658667Y-105048231D01*
X147574000Y-105120803D01*
X147489333Y-105265946D01*
X147489333Y-105628803D01*
X147574000Y-105773946D01*
X147658667Y-105846517D01*
X147828000Y-105919089D01*
X148336000Y-105919089D01*
X148505333Y-105846517D01*
X148590000Y-105773946D01*
X146727334Y-105773946D02*
X146642667Y-105846517D01*
X146727334Y-105919089D01*
X146812000Y-105846517D01*
X146727334Y-105773946D01*
X146727334Y-105919089D01*
X146727334Y-104975660D02*
X146642667Y-105048231D01*
X146727334Y-105120803D01*
X146812000Y-105048231D01*
X146727334Y-104975660D01*
X146727334Y-105120803D01*
X145965333Y-104540231D02*
X145880667Y-104467660D01*
X145711333Y-104395089D01*
X145288000Y-104395089D01*
X145118667Y-104467660D01*
X145034000Y-104540231D01*
X144949333Y-104685374D01*
X144949333Y-104830517D01*
X145034000Y-105048231D01*
X146050000Y-105919089D01*
X144949333Y-105919089D01*
X133180666Y-104248857D02*
X132926666Y-104321429D01*
X132503333Y-104321429D01*
X132334000Y-104248857D01*
X132249333Y-104176286D01*
X132164666Y-104031143D01*
X132164666Y-103886000D01*
X132249333Y-103740857D01*
X132334000Y-103668286D01*
X132503333Y-103595714D01*
X132842000Y-103523143D01*
X133011333Y-103450571D01*
X133096000Y-103378000D01*
X133180666Y-103232857D01*
X133180666Y-103087714D01*
X133096000Y-102942571D01*
X133011333Y-102870000D01*
X132842000Y-102797429D01*
X132418666Y-102797429D01*
X132164666Y-102870000D01*
X131572000Y-102797429D02*
X131148667Y-104321429D01*
X130810000Y-103232857D01*
X130471333Y-104321429D01*
X130048000Y-102797429D01*
X129540000Y-102797429D02*
X128439333Y-102797429D01*
X129032000Y-103378000D01*
X128778000Y-103378000D01*
X128608667Y-103450571D01*
X128524000Y-103523143D01*
X128439333Y-103668286D01*
X128439333Y-104031143D01*
X128524000Y-104176286D01*
X128608667Y-104248857D01*
X128778000Y-104321429D01*
X129286000Y-104321429D01*
X129455333Y-104248857D01*
X129540000Y-104176286D01*
X127677334Y-104176286D02*
X127592667Y-104248857D01*
X127677334Y-104321429D01*
X127762000Y-104248857D01*
X127677334Y-104176286D01*
X127677334Y-104321429D01*
X127677334Y-103378000D02*
X127592667Y-103450571D01*
X127677334Y-103523143D01*
X127762000Y-103450571D01*
X127677334Y-103378000D01*
X127677334Y-103523143D01*
X127000000Y-102797429D02*
X125899333Y-102797429D01*
X126492000Y-103378000D01*
X126238000Y-103378000D01*
X126068667Y-103450571D01*
X125984000Y-103523143D01*
X125899333Y-103668286D01*
X125899333Y-104031143D01*
X125984000Y-104176286D01*
X126068667Y-104248857D01*
X126238000Y-104321429D01*
X126746000Y-104321429D01*
X126915333Y-104248857D01*
X127000000Y-104176286D01*
X114130666Y-105846517D02*
X113876666Y-105919089D01*
X113453333Y-105919089D01*
X113284000Y-105846517D01*
X113199333Y-105773946D01*
X113114666Y-105628803D01*
X113114666Y-105483660D01*
X113199333Y-105338517D01*
X113284000Y-105265946D01*
X113453333Y-105193374D01*
X113792000Y-105120803D01*
X113961333Y-105048231D01*
X114046000Y-104975660D01*
X114130666Y-104830517D01*
X114130666Y-104685374D01*
X114046000Y-104540231D01*
X113961333Y-104467660D01*
X113792000Y-104395089D01*
X113368666Y-104395089D01*
X113114666Y-104467660D01*
X112522000Y-104395089D02*
X112098667Y-105919089D01*
X111760000Y-104830517D01*
X111421333Y-105919089D01*
X110998000Y-104395089D01*
X110490000Y-104395089D02*
X109389333Y-104395089D01*
X109982000Y-104975660D01*
X109728000Y-104975660D01*
X109558667Y-105048231D01*
X109474000Y-105120803D01*
X109389333Y-105265946D01*
X109389333Y-105628803D01*
X109474000Y-105773946D01*
X109558667Y-105846517D01*
X109728000Y-105919089D01*
X110236000Y-105919089D01*
X110405333Y-105846517D01*
X110490000Y-105773946D01*
X108627334Y-105773946D02*
X108542667Y-105846517D01*
X108627334Y-105919089D01*
X108712000Y-105846517D01*
X108627334Y-105773946D01*
X108627334Y-105919089D01*
X108627334Y-104975660D02*
X108542667Y-105048231D01*
X108627334Y-105120803D01*
X108712000Y-105048231D01*
X108627334Y-104975660D01*
X108627334Y-105120803D01*
X107018667Y-104903089D02*
X107018667Y-105919089D01*
X107442000Y-104322517D02*
X107865333Y-105411089D01*
X106764667Y-105411089D01*
X95080666Y-107116517D02*
X94826666Y-107189089D01*
X94403333Y-107189089D01*
X94234000Y-107116517D01*
X94149333Y-107043946D01*
X94064666Y-106898803D01*
X94064666Y-106753660D01*
X94149333Y-106608517D01*
X94234000Y-106535946D01*
X94403333Y-106463374D01*
X94742000Y-106390803D01*
X94911333Y-106318231D01*
X94996000Y-106245660D01*
X95080666Y-106100517D01*
X95080666Y-105955374D01*
X94996000Y-105810231D01*
X94911333Y-105737660D01*
X94742000Y-105665089D01*
X94318666Y-105665089D01*
X94064666Y-105737660D01*
X93472000Y-105665089D02*
X93048667Y-107189089D01*
X92710000Y-106100517D01*
X92371333Y-107189089D01*
X91948000Y-105665089D01*
X91440000Y-105665089D02*
X90339333Y-105665089D01*
X90932000Y-106245660D01*
X90678000Y-106245660D01*
X90508667Y-106318231D01*
X90424000Y-106390803D01*
X90339333Y-106535946D01*
X90339333Y-106898803D01*
X90424000Y-107043946D01*
X90508667Y-107116517D01*
X90678000Y-107189089D01*
X91186000Y-107189089D01*
X91355333Y-107116517D01*
X91440000Y-107043946D01*
X89577334Y-107043946D02*
X89492667Y-107116517D01*
X89577334Y-107189089D01*
X89662000Y-107116517D01*
X89577334Y-107043946D01*
X89577334Y-107189089D01*
X89577334Y-106245660D02*
X89492667Y-106318231D01*
X89577334Y-106390803D01*
X89662000Y-106318231D01*
X89577334Y-106245660D01*
X89577334Y-106390803D01*
X87884000Y-105665089D02*
X88730667Y-105665089D01*
X88815333Y-106390803D01*
X88730667Y-106318231D01*
X88561333Y-106245660D01*
X88138000Y-106245660D01*
X87968667Y-106318231D01*
X87884000Y-106390803D01*
X87799333Y-106535946D01*
X87799333Y-106898803D01*
X87884000Y-107043946D01*
X87968667Y-107116517D01*
X88138000Y-107189089D01*
X88561333Y-107189089D01*
X88730667Y-107116517D01*
X88815333Y-107043946D01*
X171280666Y-128071517D02*
X171026666Y-128144089D01*
X170603333Y-128144089D01*
X170434000Y-128071517D01*
X170349333Y-127998946D01*
X170264666Y-127853803D01*
X170264666Y-127708660D01*
X170349333Y-127563517D01*
X170434000Y-127490946D01*
X170603333Y-127418374D01*
X170942000Y-127345803D01*
X171111333Y-127273231D01*
X171196000Y-127200660D01*
X171280666Y-127055517D01*
X171280666Y-126910374D01*
X171196000Y-126765231D01*
X171111333Y-126692660D01*
X170942000Y-126620089D01*
X170518666Y-126620089D01*
X170264666Y-126692660D01*
X169672000Y-126620089D02*
X169248667Y-128144089D01*
X168910000Y-127055517D01*
X168571333Y-128144089D01*
X168148000Y-126620089D01*
X167555333Y-126765231D02*
X167470667Y-126692660D01*
X167301333Y-126620089D01*
X166878000Y-126620089D01*
X166708667Y-126692660D01*
X166624000Y-126765231D01*
X166539333Y-126910374D01*
X166539333Y-127055517D01*
X166624000Y-127273231D01*
X167640000Y-128144089D01*
X166539333Y-128144089D01*
X165777334Y-127998946D02*
X165692667Y-128071517D01*
X165777334Y-128144089D01*
X165862000Y-128071517D01*
X165777334Y-127998946D01*
X165777334Y-128144089D01*
X165777334Y-127200660D02*
X165692667Y-127273231D01*
X165777334Y-127345803D01*
X165862000Y-127273231D01*
X165777334Y-127200660D01*
X165777334Y-127345803D01*
X163999333Y-128144089D02*
X165015333Y-128144089D01*
X164507333Y-128144089D02*
X164507333Y-126620089D01*
X164676667Y-126837803D01*
X164846000Y-126982946D01*
X165015333Y-127055517D01*
X152230666Y-124896517D02*
X151976666Y-124969089D01*
X151553333Y-124969089D01*
X151384000Y-124896517D01*
X151299333Y-124823946D01*
X151214666Y-124678803D01*
X151214666Y-124533660D01*
X151299333Y-124388517D01*
X151384000Y-124315946D01*
X151553333Y-124243374D01*
X151892000Y-124170803D01*
X152061333Y-124098231D01*
X152146000Y-124025660D01*
X152230666Y-123880517D01*
X152230666Y-123735374D01*
X152146000Y-123590231D01*
X152061333Y-123517660D01*
X151892000Y-123445089D01*
X151468666Y-123445089D01*
X151214666Y-123517660D01*
X150622000Y-123445089D02*
X150198667Y-124969089D01*
X149860000Y-123880517D01*
X149521333Y-124969089D01*
X149098000Y-123445089D01*
X148505333Y-123590231D02*
X148420667Y-123517660D01*
X148251333Y-123445089D01*
X147828000Y-123445089D01*
X147658667Y-123517660D01*
X147574000Y-123590231D01*
X147489333Y-123735374D01*
X147489333Y-123880517D01*
X147574000Y-124098231D01*
X148590000Y-124969089D01*
X147489333Y-124969089D01*
X146727334Y-124823946D02*
X146642667Y-124896517D01*
X146727334Y-124969089D01*
X146812000Y-124896517D01*
X146727334Y-124823946D01*
X146727334Y-124969089D01*
X146727334Y-124025660D02*
X146642667Y-124098231D01*
X146727334Y-124170803D01*
X146812000Y-124098231D01*
X146727334Y-124025660D01*
X146727334Y-124170803D01*
X145965333Y-123590231D02*
X145880667Y-123517660D01*
X145711333Y-123445089D01*
X145288000Y-123445089D01*
X145118667Y-123517660D01*
X145034000Y-123590231D01*
X144949333Y-123735374D01*
X144949333Y-123880517D01*
X145034000Y-124098231D01*
X146050000Y-124969089D01*
X144949333Y-124969089D01*
X133180666Y-123298857D02*
X132926666Y-123371429D01*
X132503333Y-123371429D01*
X132334000Y-123298857D01*
X132249333Y-123226286D01*
X132164666Y-123081143D01*
X132164666Y-122936000D01*
X132249333Y-122790857D01*
X132334000Y-122718286D01*
X132503333Y-122645714D01*
X132842000Y-122573143D01*
X133011333Y-122500571D01*
X133096000Y-122428000D01*
X133180666Y-122282857D01*
X133180666Y-122137714D01*
X133096000Y-121992571D01*
X133011333Y-121920000D01*
X132842000Y-121847429D01*
X132418666Y-121847429D01*
X132164666Y-121920000D01*
X131572000Y-121847429D02*
X131148667Y-123371429D01*
X130810000Y-122282857D01*
X130471333Y-123371429D01*
X130048000Y-121847429D01*
X129455333Y-121992571D02*
X129370667Y-121920000D01*
X129201333Y-121847429D01*
X128778000Y-121847429D01*
X128608667Y-121920000D01*
X128524000Y-121992571D01*
X128439333Y-122137714D01*
X128439333Y-122282857D01*
X128524000Y-122500571D01*
X129540000Y-123371429D01*
X128439333Y-123371429D01*
X127677334Y-123226286D02*
X127592667Y-123298857D01*
X127677334Y-123371429D01*
X127762000Y-123298857D01*
X127677334Y-123226286D01*
X127677334Y-123371429D01*
X127677334Y-122428000D02*
X127592667Y-122500571D01*
X127677334Y-122573143D01*
X127762000Y-122500571D01*
X127677334Y-122428000D01*
X127677334Y-122573143D01*
X127000000Y-121847429D02*
X125899333Y-121847429D01*
X126492000Y-122428000D01*
X126238000Y-122428000D01*
X126068667Y-122500571D01*
X125984000Y-122573143D01*
X125899333Y-122718286D01*
X125899333Y-123081143D01*
X125984000Y-123226286D01*
X126068667Y-123298857D01*
X126238000Y-123371429D01*
X126746000Y-123371429D01*
X126915333Y-123298857D01*
X127000000Y-123226286D01*
X114130666Y-124896517D02*
X113876666Y-124969089D01*
X113453333Y-124969089D01*
X113284000Y-124896517D01*
X113199333Y-124823946D01*
X113114666Y-124678803D01*
X113114666Y-124533660D01*
X113199333Y-124388517D01*
X113284000Y-124315946D01*
X113453333Y-124243374D01*
X113792000Y-124170803D01*
X113961333Y-124098231D01*
X114046000Y-124025660D01*
X114130666Y-123880517D01*
X114130666Y-123735374D01*
X114046000Y-123590231D01*
X113961333Y-123517660D01*
X113792000Y-123445089D01*
X113368666Y-123445089D01*
X113114666Y-123517660D01*
X112522000Y-123445089D02*
X112098667Y-124969089D01*
X111760000Y-123880517D01*
X111421333Y-124969089D01*
X110998000Y-123445089D01*
X110405333Y-123590231D02*
X110320667Y-123517660D01*
X110151333Y-123445089D01*
X109728000Y-123445089D01*
X109558667Y-123517660D01*
X109474000Y-123590231D01*
X109389333Y-123735374D01*
X109389333Y-123880517D01*
X109474000Y-124098231D01*
X110490000Y-124969089D01*
X109389333Y-124969089D01*
X108627334Y-124823946D02*
X108542667Y-124896517D01*
X108627334Y-124969089D01*
X108712000Y-124896517D01*
X108627334Y-124823946D01*
X108627334Y-124969089D01*
X108627334Y-124025660D02*
X108542667Y-124098231D01*
X108627334Y-124170803D01*
X108712000Y-124098231D01*
X108627334Y-124025660D01*
X108627334Y-124170803D01*
X107018667Y-123953089D02*
X107018667Y-124969089D01*
X107442000Y-123372517D02*
X107865333Y-124461089D01*
X106764667Y-124461089D01*
X95080666Y-126166517D02*
X94826666Y-126239089D01*
X94403333Y-126239089D01*
X94234000Y-126166517D01*
X94149333Y-126093946D01*
X94064666Y-125948803D01*
X94064666Y-125803660D01*
X94149333Y-125658517D01*
X94234000Y-125585946D01*
X94403333Y-125513374D01*
X94742000Y-125440803D01*
X94911333Y-125368231D01*
X94996000Y-125295660D01*
X95080666Y-125150517D01*
X95080666Y-125005374D01*
X94996000Y-124860231D01*
X94911333Y-124787660D01*
X94742000Y-124715089D01*
X94318666Y-124715089D01*
X94064666Y-124787660D01*
X93472000Y-124715089D02*
X93048667Y-126239089D01*
X92710000Y-125150517D01*
X92371333Y-126239089D01*
X91948000Y-124715089D01*
X91355333Y-124860231D02*
X91270667Y-124787660D01*
X91101333Y-124715089D01*
X90678000Y-124715089D01*
X90508667Y-124787660D01*
X90424000Y-124860231D01*
X90339333Y-125005374D01*
X90339333Y-125150517D01*
X90424000Y-125368231D01*
X91440000Y-126239089D01*
X90339333Y-126239089D01*
X89577334Y-126093946D02*
X89492667Y-126166517D01*
X89577334Y-126239089D01*
X89662000Y-126166517D01*
X89577334Y-126093946D01*
X89577334Y-126239089D01*
X89577334Y-125295660D02*
X89492667Y-125368231D01*
X89577334Y-125440803D01*
X89662000Y-125368231D01*
X89577334Y-125295660D01*
X89577334Y-125440803D01*
X87884000Y-124715089D02*
X88730667Y-124715089D01*
X88815333Y-125440803D01*
X88730667Y-125368231D01*
X88561333Y-125295660D01*
X88138000Y-125295660D01*
X87968667Y-125368231D01*
X87884000Y-125440803D01*
X87799333Y-125585946D01*
X87799333Y-125948803D01*
X87884000Y-126093946D01*
X87968667Y-126166517D01*
X88138000Y-126239089D01*
X88561333Y-126239089D01*
X88730667Y-126166517D01*
X88815333Y-126093946D01*
X171280666Y-147121517D02*
X171026666Y-147194089D01*
X170603333Y-147194089D01*
X170434000Y-147121517D01*
X170349333Y-147048946D01*
X170264666Y-146903803D01*
X170264666Y-146758660D01*
X170349333Y-146613517D01*
X170434000Y-146540946D01*
X170603333Y-146468374D01*
X170942000Y-146395803D01*
X171111333Y-146323231D01*
X171196000Y-146250660D01*
X171280666Y-146105517D01*
X171280666Y-145960374D01*
X171196000Y-145815231D01*
X171111333Y-145742660D01*
X170942000Y-145670089D01*
X170518666Y-145670089D01*
X170264666Y-145742660D01*
X169672000Y-145670089D02*
X169248667Y-147194089D01*
X168910000Y-146105517D01*
X168571333Y-147194089D01*
X168148000Y-145670089D01*
X166539333Y-147194089D02*
X167555333Y-147194089D01*
X167047333Y-147194089D02*
X167047333Y-145670089D01*
X167216667Y-145887803D01*
X167386000Y-146032946D01*
X167555333Y-146105517D01*
X165777334Y-147048946D02*
X165692667Y-147121517D01*
X165777334Y-147194089D01*
X165862000Y-147121517D01*
X165777334Y-147048946D01*
X165777334Y-147194089D01*
X165777334Y-146250660D02*
X165692667Y-146323231D01*
X165777334Y-146395803D01*
X165862000Y-146323231D01*
X165777334Y-146250660D01*
X165777334Y-146395803D01*
X163999333Y-147194089D02*
X165015333Y-147194089D01*
X164507333Y-147194089D02*
X164507333Y-145670089D01*
X164676667Y-145887803D01*
X164846000Y-146032946D01*
X165015333Y-146105517D01*
X133180666Y-142348857D02*
X132926666Y-142421429D01*
X132503333Y-142421429D01*
X132334000Y-142348857D01*
X132249333Y-142276286D01*
X132164666Y-142131143D01*
X132164666Y-141986000D01*
X132249333Y-141840857D01*
X132334000Y-141768286D01*
X132503333Y-141695714D01*
X132842000Y-141623143D01*
X133011333Y-141550571D01*
X133096000Y-141478000D01*
X133180666Y-141332857D01*
X133180666Y-141187714D01*
X133096000Y-141042571D01*
X133011333Y-140970000D01*
X132842000Y-140897429D01*
X132418666Y-140897429D01*
X132164666Y-140970000D01*
X131572000Y-140897429D02*
X131148667Y-142421429D01*
X130810000Y-141332857D01*
X130471333Y-142421429D01*
X130048000Y-140897429D01*
X128439333Y-142421429D02*
X129455333Y-142421429D01*
X128947333Y-142421429D02*
X128947333Y-140897429D01*
X129116667Y-141115143D01*
X129286000Y-141260286D01*
X129455333Y-141332857D01*
X127677334Y-142276286D02*
X127592667Y-142348857D01*
X127677334Y-142421429D01*
X127762000Y-142348857D01*
X127677334Y-142276286D01*
X127677334Y-142421429D01*
X127677334Y-141478000D02*
X127592667Y-141550571D01*
X127677334Y-141623143D01*
X127762000Y-141550571D01*
X127677334Y-141478000D01*
X127677334Y-141623143D01*
X127000000Y-140897429D02*
X125899333Y-140897429D01*
X126492000Y-141478000D01*
X126238000Y-141478000D01*
X126068667Y-141550571D01*
X125984000Y-141623143D01*
X125899333Y-141768286D01*
X125899333Y-142131143D01*
X125984000Y-142276286D01*
X126068667Y-142348857D01*
X126238000Y-142421429D01*
X126746000Y-142421429D01*
X126915333Y-142348857D01*
X127000000Y-142276286D01*
X114130666Y-143946517D02*
X113876666Y-144019089D01*
X113453333Y-144019089D01*
X113284000Y-143946517D01*
X113199333Y-143873946D01*
X113114666Y-143728803D01*
X113114666Y-143583660D01*
X113199333Y-143438517D01*
X113284000Y-143365946D01*
X113453333Y-143293374D01*
X113792000Y-143220803D01*
X113961333Y-143148231D01*
X114046000Y-143075660D01*
X114130666Y-142930517D01*
X114130666Y-142785374D01*
X114046000Y-142640231D01*
X113961333Y-142567660D01*
X113792000Y-142495089D01*
X113368666Y-142495089D01*
X113114666Y-142567660D01*
X112522000Y-142495089D02*
X112098667Y-144019089D01*
X111760000Y-142930517D01*
X111421333Y-144019089D01*
X110998000Y-142495089D01*
X109389333Y-144019089D02*
X110405333Y-144019089D01*
X109897333Y-144019089D02*
X109897333Y-142495089D01*
X110066667Y-142712803D01*
X110236000Y-142857946D01*
X110405333Y-142930517D01*
X108627334Y-143873946D02*
X108542667Y-143946517D01*
X108627334Y-144019089D01*
X108712000Y-143946517D01*
X108627334Y-143873946D01*
X108627334Y-144019089D01*
X108627334Y-143075660D02*
X108542667Y-143148231D01*
X108627334Y-143220803D01*
X108712000Y-143148231D01*
X108627334Y-143075660D01*
X108627334Y-143220803D01*
X107018667Y-143003089D02*
X107018667Y-144019089D01*
X107442000Y-142422517D02*
X107865333Y-143511089D01*
X106764667Y-143511089D01*
X85275038Y-155230253D02*
X85101920Y-155030721D01*
X84923012Y-154647051D01*
X84917221Y-154462913D01*
X84947211Y-154355509D01*
X85042973Y-154217434D01*
X85174518Y-154156094D01*
X85341844Y-154171489D01*
X85443397Y-154217553D01*
X85580733Y-154340351D01*
X85789631Y-154616617D01*
X85926967Y-154739415D01*
X86028521Y-154785479D01*
X86195846Y-154800873D01*
X86327391Y-154739533D01*
X86423153Y-154601459D01*
X86453143Y-154494055D01*
X86447352Y-154309917D01*
X86268443Y-153926246D01*
X86095326Y-153726714D01*
X85910627Y-153158906D02*
X84350505Y-153419307D01*
X85193960Y-152652320D01*
X84064251Y-152805434D01*
X85266556Y-151777693D01*
X84837176Y-150856885D02*
X84765613Y-150703417D01*
X84628278Y-150580618D01*
X84526725Y-150534554D01*
X84359398Y-150519160D01*
X84060528Y-150565106D01*
X83731668Y-150718456D01*
X83504361Y-150917870D01*
X83408599Y-151055945D01*
X83378609Y-151163348D01*
X83384400Y-151347487D01*
X83455963Y-151500955D01*
X83593299Y-151623752D01*
X83694852Y-151669817D01*
X83862178Y-151685211D01*
X84161048Y-151639265D01*
X84489908Y-151485915D01*
X84717215Y-151286501D01*
X84812978Y-151148427D01*
X84842968Y-151041022D01*
X84837176Y-150856885D01*
X83015001Y-150211871D02*
X82913447Y-150165806D01*
X82883456Y-150273211D01*
X82985010Y-150319274D01*
X83015001Y-150211871D01*
X82883456Y-150273211D01*
X83738494Y-149874500D02*
X83636940Y-149828436D01*
X83606949Y-149935840D01*
X83708503Y-149981904D01*
X83738494Y-149874500D01*
X83606949Y-149935840D01*
X83978416Y-149015267D02*
X83513254Y-148017724D01*
X83237550Y-148800223D01*
X83130205Y-148570021D01*
X82992870Y-148447223D01*
X82891315Y-148401159D01*
X82723989Y-148385764D01*
X82395129Y-148539114D01*
X82299367Y-148677189D01*
X82269377Y-148784593D01*
X82275168Y-148968731D01*
X82489858Y-149429135D01*
X82627193Y-149551933D01*
X82728747Y-149597997D01*
X68010658Y-163282053D02*
X67837540Y-163082521D01*
X67658632Y-162698851D01*
X67652841Y-162514713D01*
X67682831Y-162407309D01*
X67778593Y-162269234D01*
X67910138Y-162207894D01*
X68077464Y-162223289D01*
X68179017Y-162269353D01*
X68316353Y-162392151D01*
X68525251Y-162668417D01*
X68662587Y-162791215D01*
X68764141Y-162837279D01*
X68931466Y-162852673D01*
X69063011Y-162791333D01*
X69158773Y-162653259D01*
X69188763Y-162545855D01*
X69182972Y-162361717D01*
X69004063Y-161978046D01*
X68830946Y-161778514D01*
X68646247Y-161210706D02*
X67086125Y-161471107D01*
X67929580Y-160704120D01*
X66799871Y-160857234D01*
X68002176Y-159829493D01*
X67572796Y-158908685D02*
X67501233Y-158755217D01*
X67363898Y-158632418D01*
X67262345Y-158586354D01*
X67095018Y-158570960D01*
X66796148Y-158616906D01*
X66467288Y-158770256D01*
X66239981Y-158969670D01*
X66144219Y-159107745D01*
X66114229Y-159215148D01*
X66120020Y-159399287D01*
X66191583Y-159552755D01*
X66328919Y-159675552D01*
X66430472Y-159721617D01*
X66597798Y-159737011D01*
X66896668Y-159691065D01*
X67225528Y-159537715D01*
X67452835Y-159338301D01*
X67548598Y-159200227D01*
X67578588Y-159092822D01*
X67572796Y-158908685D01*
X65750621Y-158263671D02*
X65649067Y-158217606D01*
X65619076Y-158325011D01*
X65720630Y-158371074D01*
X65750621Y-158263671D01*
X65619076Y-158325011D01*
X66474114Y-157926300D02*
X66372560Y-157880236D01*
X66342569Y-157987640D01*
X66444123Y-158033704D01*
X66474114Y-157926300D01*
X66342569Y-157987640D01*
X66546711Y-157051673D02*
X66576701Y-156944269D01*
X66570909Y-156760131D01*
X66392001Y-156376461D01*
X66254666Y-156253663D01*
X66153112Y-156207598D01*
X65985786Y-156192204D01*
X65854242Y-156253544D01*
X65692708Y-156422288D01*
X65332823Y-157711138D01*
X64867661Y-156713594D01*
X152230666Y-86796517D02*
X151976666Y-86869089D01*
X151553333Y-86869089D01*
X151384000Y-86796517D01*
X151299333Y-86723946D01*
X151214666Y-86578803D01*
X151214666Y-86433660D01*
X151299333Y-86288517D01*
X151384000Y-86215946D01*
X151553333Y-86143374D01*
X151892000Y-86070803D01*
X152061333Y-85998231D01*
X152146000Y-85925660D01*
X152230666Y-85780517D01*
X152230666Y-85635374D01*
X152146000Y-85490231D01*
X152061333Y-85417660D01*
X151892000Y-85345089D01*
X151468666Y-85345089D01*
X151214666Y-85417660D01*
X150622000Y-85345089D02*
X150198667Y-86869089D01*
X149860000Y-85780517D01*
X149521333Y-86869089D01*
X149098000Y-85345089D01*
X147658667Y-85853089D02*
X147658667Y-86869089D01*
X148082000Y-85272517D02*
X148505333Y-86361089D01*
X147404667Y-86361089D01*
X146727334Y-86723946D02*
X146642667Y-86796517D01*
X146727334Y-86869089D01*
X146812000Y-86796517D01*
X146727334Y-86723946D01*
X146727334Y-86869089D01*
X146727334Y-85925660D02*
X146642667Y-85998231D01*
X146727334Y-86070803D01*
X146812000Y-85998231D01*
X146727334Y-85925660D01*
X146727334Y-86070803D01*
X145965333Y-85490231D02*
X145880667Y-85417660D01*
X145711333Y-85345089D01*
X145288000Y-85345089D01*
X145118667Y-85417660D01*
X145034000Y-85490231D01*
X144949333Y-85635374D01*
X144949333Y-85780517D01*
X145034000Y-85998231D01*
X146050000Y-86869089D01*
X144949333Y-86869089D01*
X95080666Y-69019057D02*
X94826666Y-69091629D01*
X94403333Y-69091629D01*
X94234000Y-69019057D01*
X94149333Y-68946486D01*
X94064666Y-68801343D01*
X94064666Y-68656200D01*
X94149333Y-68511057D01*
X94234000Y-68438486D01*
X94403333Y-68365914D01*
X94742000Y-68293343D01*
X94911333Y-68220771D01*
X94996000Y-68148200D01*
X95080666Y-68003057D01*
X95080666Y-67857914D01*
X94996000Y-67712771D01*
X94911333Y-67640200D01*
X94742000Y-67567629D01*
X94318666Y-67567629D01*
X94064666Y-67640200D01*
X93472000Y-67567629D02*
X93048667Y-69091629D01*
X92710000Y-68003057D01*
X92371333Y-69091629D01*
X91948000Y-67567629D01*
X90424000Y-67567629D02*
X91270667Y-67567629D01*
X91355333Y-68293343D01*
X91270667Y-68220771D01*
X91101333Y-68148200D01*
X90678000Y-68148200D01*
X90508667Y-68220771D01*
X90424000Y-68293343D01*
X90339333Y-68438486D01*
X90339333Y-68801343D01*
X90424000Y-68946486D01*
X90508667Y-69019057D01*
X90678000Y-69091629D01*
X91101333Y-69091629D01*
X91270667Y-69019057D01*
X91355333Y-68946486D01*
X89577334Y-68946486D02*
X89492667Y-69019057D01*
X89577334Y-69091629D01*
X89662000Y-69019057D01*
X89577334Y-68946486D01*
X89577334Y-69091629D01*
X89577334Y-68148200D02*
X89492667Y-68220771D01*
X89577334Y-68293343D01*
X89662000Y-68220771D01*
X89577334Y-68148200D01*
X89577334Y-68293343D01*
X87884000Y-67567629D02*
X88730667Y-67567629D01*
X88815333Y-68293343D01*
X88730667Y-68220771D01*
X88561333Y-68148200D01*
X88138000Y-68148200D01*
X87968667Y-68220771D01*
X87884000Y-68293343D01*
X87799333Y-68438486D01*
X87799333Y-68801343D01*
X87884000Y-68946486D01*
X87968667Y-69019057D01*
X88138000Y-69091629D01*
X88561333Y-69091629D01*
X88730667Y-69019057D01*
X88815333Y-68946486D01*
D10*
X64017381Y-35869762D02*
X64017381Y-35393571D01*
X63017381Y-35393571D01*
X63493571Y-36203095D02*
X63493571Y-36536429D01*
X64017381Y-36679286D02*
X64017381Y-36203095D01*
X63017381Y-36203095D01*
X63017381Y-36679286D01*
X64017381Y-37107857D02*
X63017381Y-37107857D01*
X63017381Y-37345952D01*
X63065000Y-37488810D01*
X63160238Y-37584048D01*
X63255476Y-37631667D01*
X63445952Y-37679286D01*
X63588810Y-37679286D01*
X63779286Y-37631667D01*
X63874524Y-37584048D01*
X63969762Y-37488810D01*
X64017381Y-37345952D01*
X64017381Y-37107857D01*
X64017381Y-38536429D02*
X63493571Y-38536429D01*
X63398333Y-38488810D01*
X63350714Y-38393572D01*
X63350714Y-38203095D01*
X63398333Y-38107857D01*
X63969762Y-38536429D02*
X64017381Y-38441191D01*
X64017381Y-38203095D01*
X63969762Y-38107857D01*
X63874524Y-38060238D01*
X63779286Y-38060238D01*
X63684048Y-38107857D01*
X63636429Y-38203095D01*
X63636429Y-38441191D01*
X63588810Y-38536429D01*
X64117381Y-42469762D02*
X64117381Y-41993571D01*
X63117381Y-41993571D01*
X63593571Y-42803095D02*
X63593571Y-43136429D01*
X64117381Y-43279286D02*
X64117381Y-42803095D01*
X63117381Y-42803095D01*
X63117381Y-43279286D01*
X64117381Y-43707857D02*
X63117381Y-43707857D01*
X63117381Y-43945952D01*
X63165000Y-44088810D01*
X63260238Y-44184048D01*
X63355476Y-44231667D01*
X63545952Y-44279286D01*
X63688810Y-44279286D01*
X63879286Y-44231667D01*
X63974524Y-44184048D01*
X64069762Y-44088810D01*
X64117381Y-43945952D01*
X64117381Y-43707857D01*
X64117381Y-44707857D02*
X63117381Y-44707857D01*
X63498333Y-44707857D02*
X63450714Y-44803095D01*
X63450714Y-44993572D01*
X63498333Y-45088810D01*
X63545952Y-45136429D01*
X63641190Y-45184048D01*
X63926905Y-45184048D01*
X64022143Y-45136429D01*
X64069762Y-45088810D01*
X64117381Y-44993572D01*
X64117381Y-44803095D01*
X64069762Y-44707857D01*
X64217381Y-48793572D02*
X64217381Y-48317381D01*
X63217381Y-48317381D01*
X63693571Y-49126905D02*
X63693571Y-49460239D01*
X64217381Y-49603096D02*
X64217381Y-49126905D01*
X63217381Y-49126905D01*
X63217381Y-49603096D01*
X64217381Y-50031667D02*
X63217381Y-50031667D01*
X63217381Y-50269762D01*
X63265000Y-50412620D01*
X63360238Y-50507858D01*
X63455476Y-50555477D01*
X63645952Y-50603096D01*
X63788810Y-50603096D01*
X63979286Y-50555477D01*
X64074524Y-50507858D01*
X64169762Y-50412620D01*
X64217381Y-50269762D01*
X64217381Y-50031667D01*
X64169762Y-51460239D02*
X64217381Y-51365001D01*
X64217381Y-51174524D01*
X64169762Y-51079286D01*
X64122143Y-51031667D01*
X64026905Y-50984048D01*
X63741190Y-50984048D01*
X63645952Y-51031667D01*
X63598333Y-51079286D01*
X63550714Y-51174524D01*
X63550714Y-51365001D01*
X63598333Y-51460239D01*
D11*
X139886267Y-32046333D02*
X139886267Y-33485667D01*
X139801600Y-33655000D01*
X139716933Y-33739667D01*
X139547600Y-33824333D01*
X139208933Y-33824333D01*
X139039600Y-33739667D01*
X138954933Y-33655000D01*
X138870267Y-33485667D01*
X138870267Y-32046333D01*
X138108266Y-33739667D02*
X137854266Y-33824333D01*
X137430933Y-33824333D01*
X137261600Y-33739667D01*
X137176933Y-33655000D01*
X137092266Y-33485667D01*
X137092266Y-33316333D01*
X137176933Y-33147000D01*
X137261600Y-33062333D01*
X137430933Y-32977667D01*
X137769600Y-32893000D01*
X137938933Y-32808333D01*
X138023600Y-32723667D01*
X138108266Y-32554333D01*
X138108266Y-32385000D01*
X138023600Y-32215667D01*
X137938933Y-32131000D01*
X137769600Y-32046333D01*
X137346266Y-32046333D01*
X137092266Y-32131000D01*
X135737600Y-32893000D02*
X135483600Y-32977667D01*
X135398933Y-33062333D01*
X135314267Y-33231667D01*
X135314267Y-33485667D01*
X135398933Y-33655000D01*
X135483600Y-33739667D01*
X135652933Y-33824333D01*
X136330267Y-33824333D01*
X136330267Y-32046333D01*
X135737600Y-32046333D01*
X135568267Y-32131000D01*
X135483600Y-32215667D01*
X135398933Y-32385000D01*
X135398933Y-32554333D01*
X135483600Y-32723667D01*
X135568267Y-32808333D01*
X135737600Y-32893000D01*
X136330267Y-32893000D01*
D12*
X195093166Y-128071517D02*
X194839166Y-128144089D01*
X194415833Y-128144089D01*
X194246500Y-128071517D01*
X194161833Y-127998946D01*
X194077166Y-127853803D01*
X194077166Y-127708660D01*
X194161833Y-127563517D01*
X194246500Y-127490946D01*
X194415833Y-127418374D01*
X194754500Y-127345803D01*
X194923833Y-127273231D01*
X195008500Y-127200660D01*
X195093166Y-127055517D01*
X195093166Y-126910374D01*
X195008500Y-126765231D01*
X194923833Y-126692660D01*
X194754500Y-126620089D01*
X194331166Y-126620089D01*
X194077166Y-126692660D01*
X193484500Y-126620089D02*
X193061167Y-128144089D01*
X192722500Y-127055517D01*
X192383833Y-128144089D01*
X191960500Y-126620089D01*
X191367833Y-126765231D02*
X191283167Y-126692660D01*
X191113833Y-126620089D01*
X190690500Y-126620089D01*
X190521167Y-126692660D01*
X190436500Y-126765231D01*
X190351833Y-126910374D01*
X190351833Y-127055517D01*
X190436500Y-127273231D01*
X191452500Y-128144089D01*
X190351833Y-128144089D01*
X189589834Y-127998946D02*
X189505167Y-128071517D01*
X189589834Y-128144089D01*
X189674500Y-128071517D01*
X189589834Y-127998946D01*
X189589834Y-128144089D01*
X189589834Y-127200660D02*
X189505167Y-127273231D01*
X189589834Y-127345803D01*
X189674500Y-127273231D01*
X189589834Y-127200660D01*
X189589834Y-127345803D01*
X188404500Y-126620089D02*
X188235167Y-126620089D01*
X188065833Y-126692660D01*
X187981167Y-126765231D01*
X187896500Y-126910374D01*
X187811833Y-127200660D01*
X187811833Y-127563517D01*
X187896500Y-127853803D01*
X187981167Y-127998946D01*
X188065833Y-128071517D01*
X188235167Y-128144089D01*
X188404500Y-128144089D01*
X188573833Y-128071517D01*
X188658500Y-127998946D01*
X188743167Y-127853803D01*
X188827833Y-127563517D01*
X188827833Y-127200660D01*
X188743167Y-126910374D01*
X188658500Y-126765231D01*
X188573833Y-126692660D01*
X188404500Y-126620089D01*
X195093166Y-109021517D02*
X194839166Y-109094089D01*
X194415833Y-109094089D01*
X194246500Y-109021517D01*
X194161833Y-108948946D01*
X194077166Y-108803803D01*
X194077166Y-108658660D01*
X194161833Y-108513517D01*
X194246500Y-108440946D01*
X194415833Y-108368374D01*
X194754500Y-108295803D01*
X194923833Y-108223231D01*
X195008500Y-108150660D01*
X195093166Y-108005517D01*
X195093166Y-107860374D01*
X195008500Y-107715231D01*
X194923833Y-107642660D01*
X194754500Y-107570089D01*
X194331166Y-107570089D01*
X194077166Y-107642660D01*
X193484500Y-107570089D02*
X193061167Y-109094089D01*
X192722500Y-108005517D01*
X192383833Y-109094089D01*
X191960500Y-107570089D01*
X191452500Y-107570089D02*
X190351833Y-107570089D01*
X190944500Y-108150660D01*
X190690500Y-108150660D01*
X190521167Y-108223231D01*
X190436500Y-108295803D01*
X190351833Y-108440946D01*
X190351833Y-108803803D01*
X190436500Y-108948946D01*
X190521167Y-109021517D01*
X190690500Y-109094089D01*
X191198500Y-109094089D01*
X191367833Y-109021517D01*
X191452500Y-108948946D01*
X189589834Y-108948946D02*
X189505167Y-109021517D01*
X189589834Y-109094089D01*
X189674500Y-109021517D01*
X189589834Y-108948946D01*
X189589834Y-109094089D01*
X189589834Y-108150660D02*
X189505167Y-108223231D01*
X189589834Y-108295803D01*
X189674500Y-108223231D01*
X189589834Y-108150660D01*
X189589834Y-108295803D01*
X188404500Y-107570089D02*
X188235167Y-107570089D01*
X188065833Y-107642660D01*
X187981167Y-107715231D01*
X187896500Y-107860374D01*
X187811833Y-108150660D01*
X187811833Y-108513517D01*
X187896500Y-108803803D01*
X187981167Y-108948946D01*
X188065833Y-109021517D01*
X188235167Y-109094089D01*
X188404500Y-109094089D01*
X188573833Y-109021517D01*
X188658500Y-108948946D01*
X188743167Y-108803803D01*
X188827833Y-108513517D01*
X188827833Y-108150660D01*
X188743167Y-107860374D01*
X188658500Y-107715231D01*
X188573833Y-107642660D01*
X188404500Y-107570089D01*
X195093166Y-89971517D02*
X194839166Y-90044089D01*
X194415833Y-90044089D01*
X194246500Y-89971517D01*
X194161833Y-89898946D01*
X194077166Y-89753803D01*
X194077166Y-89608660D01*
X194161833Y-89463517D01*
X194246500Y-89390946D01*
X194415833Y-89318374D01*
X194754500Y-89245803D01*
X194923833Y-89173231D01*
X195008500Y-89100660D01*
X195093166Y-88955517D01*
X195093166Y-88810374D01*
X195008500Y-88665231D01*
X194923833Y-88592660D01*
X194754500Y-88520089D01*
X194331166Y-88520089D01*
X194077166Y-88592660D01*
X193484500Y-88520089D02*
X193061167Y-90044089D01*
X192722500Y-88955517D01*
X192383833Y-90044089D01*
X191960500Y-88520089D01*
X190521167Y-89028089D02*
X190521167Y-90044089D01*
X190944500Y-88447517D02*
X191367833Y-89536089D01*
X190267167Y-89536089D01*
X189589834Y-89898946D02*
X189505167Y-89971517D01*
X189589834Y-90044089D01*
X189674500Y-89971517D01*
X189589834Y-89898946D01*
X189589834Y-90044089D01*
X189589834Y-89100660D02*
X189505167Y-89173231D01*
X189589834Y-89245803D01*
X189674500Y-89173231D01*
X189589834Y-89100660D01*
X189589834Y-89245803D01*
X188404500Y-88520089D02*
X188235167Y-88520089D01*
X188065833Y-88592660D01*
X187981167Y-88665231D01*
X187896500Y-88810374D01*
X187811833Y-89100660D01*
X187811833Y-89463517D01*
X187896500Y-89753803D01*
X187981167Y-89898946D01*
X188065833Y-89971517D01*
X188235167Y-90044089D01*
X188404500Y-90044089D01*
X188573833Y-89971517D01*
X188658500Y-89898946D01*
X188743167Y-89753803D01*
X188827833Y-89463517D01*
X188827833Y-89100660D01*
X188743167Y-88810374D01*
X188658500Y-88665231D01*
X188573833Y-88592660D01*
X188404500Y-88520089D01*
X195093166Y-70924057D02*
X194839166Y-70996629D01*
X194415833Y-70996629D01*
X194246500Y-70924057D01*
X194161833Y-70851486D01*
X194077166Y-70706343D01*
X194077166Y-70561200D01*
X194161833Y-70416057D01*
X194246500Y-70343486D01*
X194415833Y-70270914D01*
X194754500Y-70198343D01*
X194923833Y-70125771D01*
X195008500Y-70053200D01*
X195093166Y-69908057D01*
X195093166Y-69762914D01*
X195008500Y-69617771D01*
X194923833Y-69545200D01*
X194754500Y-69472629D01*
X194331166Y-69472629D01*
X194077166Y-69545200D01*
X193484500Y-69472629D02*
X193061167Y-70996629D01*
X192722500Y-69908057D01*
X192383833Y-70996629D01*
X191960500Y-69472629D01*
X190436500Y-69472629D02*
X191283167Y-69472629D01*
X191367833Y-70198343D01*
X191283167Y-70125771D01*
X191113833Y-70053200D01*
X190690500Y-70053200D01*
X190521167Y-70125771D01*
X190436500Y-70198343D01*
X190351833Y-70343486D01*
X190351833Y-70706343D01*
X190436500Y-70851486D01*
X190521167Y-70924057D01*
X190690500Y-70996629D01*
X191113833Y-70996629D01*
X191283167Y-70924057D01*
X191367833Y-70851486D01*
X189589834Y-70851486D02*
X189505167Y-70924057D01*
X189589834Y-70996629D01*
X189674500Y-70924057D01*
X189589834Y-70851486D01*
X189589834Y-70996629D01*
X189589834Y-70053200D02*
X189505167Y-70125771D01*
X189589834Y-70198343D01*
X189674500Y-70125771D01*
X189589834Y-70053200D01*
X189589834Y-70198343D01*
X188404500Y-69472629D02*
X188235167Y-69472629D01*
X188065833Y-69545200D01*
X187981167Y-69617771D01*
X187896500Y-69762914D01*
X187811833Y-70053200D01*
X187811833Y-70416057D01*
X187896500Y-70706343D01*
X187981167Y-70851486D01*
X188065833Y-70924057D01*
X188235167Y-70996629D01*
X188404500Y-70996629D01*
X188573833Y-70924057D01*
X188658500Y-70851486D01*
X188743167Y-70706343D01*
X188827833Y-70416057D01*
X188827833Y-70053200D01*
X188743167Y-69762914D01*
X188658500Y-69617771D01*
X188573833Y-69545200D01*
X188404500Y-69472629D01*
M02*
