M48
;DRILL file {KiCad 4.0.1-stable} date 6/15/2016 4:31:58 PM
;FORMAT={-:-/ absolute / inch / decimal}
FMAT,2
INCH,TZ
T1C0.020
T2C0.030
T3C0.039
T4C0.043
T5C0.043
T6C0.059
T7C0.067
%
G90
G05
M72
T1
X5.7375Y-1.7
X5.9435Y-1.7467
X5.9829Y-1.8333
X6.1285Y-1.4474
X6.3451Y-1.9002
X6.8175Y-2.0813
X7.0459Y-1.601
X7.29Y-1.6719
X7.4671Y-1.6719
X7.6443Y-1.7348
X7.9396Y-1.8018
T2
X5.356Y-1.4677
X5.3875Y-1.4205
X5.419Y-1.4677
X5.4505Y-1.4205
X5.482Y-1.4677
T3
X1.3147Y-5.8852
X1.3569Y-5.9758
X1.5866Y-5.7584
X1.6288Y-5.849
X1.6316Y-6.5649
X1.6738Y-6.6555
X1.9035Y-6.4381
X1.9457Y-6.5287
X1.9486Y-7.2447
X1.9908Y-7.3353
X1.9944Y-5.5683
X2.0366Y-5.6589
X2.1001Y-5.7948
X2.2205Y-7.1179
X2.2627Y-7.2085
X2.2663Y-5.4415
X2.3085Y-5.5321
X2.3719Y-5.668
X2.6391Y-6.1227
X2.7Y-2.763
X2.7Y-2.863
X2.7297Y-6.0805
X2.7659Y-6.3946
X2.7798Y-5.4778
X2.8Y-2.763
X2.8565Y-6.3524
X2.9Y-2.763
X3.Y-2.763
X3.Y-2.863
X3.05Y-3.3504
X3.05Y-3.4504
X3.05Y-3.5504
X3.05Y-3.6504
X3.05Y-4.4754
X3.05Y-4.5754
X3.05Y-4.6754
X3.05Y-4.7754
X3.0516Y-5.351
X3.1Y-1.375
X3.1Y-1.475
X3.1Y-1.575
X3.15Y-3.3504
X3.15Y-3.6504
X3.15Y-4.4754
X3.15Y-4.7754
X3.3188Y-5.8057
X3.35Y-2.1875
X3.4094Y-5.7635
X3.4456Y-6.0776
X3.45Y-2.763
X3.45Y-2.863
X3.45Y-3.5129
X3.45Y-3.6129
X3.45Y-4.2629
X3.45Y-4.3629
X3.45Y-5.0129
X3.45Y-5.1129
X3.5362Y-6.0354
X3.7Y-1.375
X3.7Y-1.475
X3.7Y-1.575
X3.75Y-2.763
X3.75Y-2.863
X3.75Y-3.5129
X3.75Y-3.6129
X3.75Y-4.2629
X3.75Y-4.3629
X3.75Y-5.0129
X3.75Y-5.1129
X3.8836Y-1.4961
X4.0086Y-1.4461
X4.1664Y-1.7789
X4.2Y-2.7129
X4.2Y-2.8129
X4.2Y-3.4629
X4.2Y-3.5629
X4.2Y-4.2129
X4.2Y-4.3129
X4.2Y-4.9629
X4.2Y-5.0629
X4.2Y-5.7129
X4.2Y-5.8129
X4.2914Y-1.7289
X4.5Y-2.7129
X4.5Y-2.8129
X4.5Y-3.4629
X4.5Y-3.5629
X4.5Y-4.2129
X4.5Y-4.3129
X4.5Y-4.9629
X4.5Y-5.0629
X4.5Y-5.7129
X4.5Y-5.8129
X4.5875Y-2.0625
X4.7375Y-1.85
X4.95Y-2.65
X4.95Y-2.75
X4.95Y-3.4
X4.95Y-3.5
X4.95Y-4.15
X4.95Y-4.25
X4.95Y-4.9
X4.95Y-5.
X4.95Y-5.65
X4.95Y-5.75
X5.1375Y-1.85
X5.194Y-1.355
X5.25Y-2.65
X5.25Y-2.75
X5.25Y-3.4
X5.25Y-3.5
X5.25Y-4.15
X5.25Y-4.25
X5.25Y-4.9
X5.25Y-5.
X5.25Y-5.65
X5.25Y-5.75
X5.324Y-1.585
X5.419Y-1.585
X5.514Y-1.585
X5.644Y-1.355
X5.6461Y-1.8539
X5.7Y-2.7129
X5.7Y-2.8129
X5.7Y-3.4629
X5.7Y-3.5629
X5.7Y-4.2129
X5.7Y-4.3129
X5.7Y-4.9629
X5.7Y-5.0629
X5.7Y-5.7129
X5.7Y-5.8129
X5.7211Y-1.9289
X5.9289Y-1.5711
X6.Y-2.7129
X6.Y-2.8129
X6.Y-3.4629
X6.Y-3.5629
X6.Y-4.2129
X6.Y-4.3129
X6.Y-4.9629
X6.Y-5.0629
X6.Y-5.7129
X6.Y-5.8129
X6.0039Y-1.6461
X6.325Y-5.9375
X6.45Y-2.838
X6.45Y-2.938
X6.45Y-3.5879
X6.45Y-3.6879
X6.45Y-4.3379
X6.45Y-4.4379
X6.45Y-5.0879
X6.45Y-5.1879
X6.45Y-5.8379
X6.45Y-5.9379
X6.6Y-5.8375
X6.75Y-2.838
X6.75Y-2.938
X6.75Y-3.5879
X6.75Y-3.6879
X6.75Y-4.3379
X6.75Y-4.4379
X6.75Y-5.0879
X6.75Y-5.1879
X6.75Y-5.8379
X6.75Y-5.9379
X7.2Y-5.8379
X7.2Y-5.9379
X7.3875Y-2.838
X7.3875Y-2.938
X7.3875Y-3.5879
X7.3875Y-3.6879
X7.3875Y-4.3379
X7.3875Y-4.4379
X7.3875Y-5.0879
X7.3875Y-5.1879
X7.5Y-5.8379
X7.5Y-5.9379
X7.6875Y-2.838
X7.6875Y-2.938
X7.6875Y-3.5879
X7.6875Y-3.6879
X7.6875Y-4.3379
X7.6875Y-4.4379
X7.6875Y-5.0879
X7.6875Y-5.1879
T4
X7.475Y-1.375
T5
X3.256Y-1.511
X3.335Y-1.633
X3.461Y-1.633
X3.54Y-1.511
X6.3744Y-1.524
X6.3744Y-1.824
X6.375Y-1.375
X6.375Y-1.975
X6.4744Y-1.524
X6.4744Y-1.824
X6.475Y-1.375
X6.475Y-1.975
X6.5744Y-1.524
X6.5744Y-1.824
X6.575Y-1.375
X6.575Y-1.975
X6.6744Y-1.524
X6.6744Y-1.824
X6.675Y-1.375
X6.675Y-1.975
X6.7744Y-1.524
X6.7744Y-1.824
X6.775Y-1.375
X6.775Y-1.975
X6.8744Y-1.524
X6.8744Y-1.824
X6.875Y-1.375
X6.875Y-1.975
X6.9744Y-1.524
X6.9744Y-1.824
X6.975Y-1.375
X6.975Y-1.975
X7.0744Y-1.524
X7.0744Y-1.824
X7.075Y-1.375
X7.075Y-1.975
X7.1744Y-1.524
X7.1744Y-1.824
X7.175Y-1.375
X7.175Y-1.975
X7.2744Y-1.524
X7.275Y-1.375
X7.275Y-1.975
X7.3744Y-1.524
X7.375Y-1.375
X7.375Y-1.975
X7.4744Y-1.524
X7.475Y-1.975
X7.5744Y-1.524
X7.5744Y-1.824
X7.6744Y-1.524
X7.6744Y-1.824
T6
X1.1879Y-5.6133
X1.1909Y-5.5015
X1.3722Y-5.417
X1.4598Y-5.4865
X1.5048Y-6.293
X1.5078Y-6.1812
X1.6891Y-6.0967
X1.7767Y-6.1662
X1.8218Y-6.9728
X1.8248Y-6.861
X1.8676Y-5.2964
X1.8706Y-5.1846
X2.0061Y-6.7765
X2.0519Y-5.1001
X2.0937Y-6.846
X2.1395Y-5.1696
X2.1846Y-5.9761
X2.1876Y-5.8643
X2.2977Y-6.3371
X2.3672Y-6.2495
X2.3689Y-5.7798
X2.3822Y-6.5184
X2.4565Y-5.8493
X2.494Y-6.5214
X2.586Y-6.837
X2.65Y-3.4004
X2.65Y-3.6004
X2.65Y-4.5254
X2.65Y-4.7254
X2.6736Y-6.9065
X2.7Y-2.463
X2.75Y-2.363
X2.75Y-3.3504
X2.75Y-3.6504
X2.75Y-4.4754
X2.75Y-4.7754
X2.8549Y-6.822
X2.8579Y-6.7102
X2.8643Y-5.6591
X2.8673Y-5.5473
X2.95Y-2.363
X2.9774Y-6.0201
X3.Y-2.463
X3.0469Y-5.9325
X3.0486Y-5.4628
X3.0619Y-6.2014
X3.1362Y-5.5323
X3.1737Y-6.2044
X3.2658Y-6.5201
X3.3534Y-6.5896
X3.45Y-2.463
X3.45Y-3.2129
X3.45Y-3.9629
X3.45Y-4.7129
X3.5Y-2.363
X3.5Y-3.1129
X3.5Y-3.8629
X3.5Y-4.6129
X3.5347Y-6.5051
X3.5377Y-6.3933
X3.7Y-2.363
X3.7Y-3.1129
X3.7Y-3.8629
X3.7Y-4.6129
X3.75Y-2.463
X3.75Y-3.2129
X3.75Y-3.9629
X3.75Y-4.7129
X4.2Y-2.4129
X4.2Y-3.1629
X4.2Y-3.9129
X4.2Y-4.6629
X4.2Y-5.4129
X4.25Y-2.3129
X4.25Y-3.0629
X4.25Y-3.8129
X4.25Y-4.5629
X4.25Y-5.3129
X4.45Y-2.3129
X4.45Y-3.0629
X4.45Y-3.8129
X4.45Y-4.5629
X4.45Y-5.3129
X4.5Y-2.4129
X4.5Y-3.1629
X4.5Y-3.9129
X4.5Y-4.6629
X4.5Y-5.4129
X4.95Y-2.35
X4.95Y-3.1
X4.95Y-3.85
X4.95Y-4.6
X4.95Y-5.35
X5.Y-2.25
X5.Y-3.
X5.Y-3.75
X5.Y-4.5
X5.Y-5.25
X5.2Y-2.25
X5.2Y-3.
X5.2Y-3.75
X5.2Y-4.5
X5.2Y-5.25
X5.25Y-2.35
X5.25Y-3.1
X5.25Y-3.85
X5.25Y-4.6
X5.25Y-5.35
X5.7Y-2.4129
X5.7Y-3.1629
X5.7Y-3.9129
X5.7Y-4.6629
X5.7Y-5.4129
X5.75Y-2.3129
X5.75Y-3.0629
X5.75Y-3.8129
X5.75Y-4.5629
X5.75Y-5.3129
X5.95Y-2.3129
X5.95Y-3.0629
X5.95Y-3.8129
X5.95Y-4.5629
X5.95Y-5.3129
X6.Y-2.4129
X6.Y-3.1629
X6.Y-3.9129
X6.Y-4.6629
X6.Y-5.4129
X6.45Y-2.538
X6.45Y-3.2879
X6.45Y-4.0379
X6.45Y-4.7879
X6.45Y-5.5379
X6.5Y-2.438
X6.5Y-3.1879
X6.5Y-3.9379
X6.5Y-4.6879
X6.5Y-5.4379
X6.7Y-2.438
X6.7Y-3.1879
X6.7Y-3.9379
X6.7Y-4.6879
X6.7Y-5.4379
X6.75Y-2.538
X6.75Y-3.2879
X6.75Y-4.0379
X6.75Y-4.7879
X6.75Y-5.5379
X7.15Y-2.488
X7.15Y-2.738
X7.15Y-3.2379
X7.15Y-3.4879
X7.15Y-3.9879
X7.15Y-4.2379
X7.15Y-4.7379
X7.15Y-4.9879
X7.2Y-5.5379
X7.25Y-2.438
X7.25Y-2.788
X7.25Y-3.1879
X7.25Y-3.5379
X7.25Y-3.9379
X7.25Y-4.2879
X7.25Y-4.6879
X7.25Y-5.0379
X7.25Y-5.4379
X7.3875Y-2.538
X7.3875Y-3.2879
X7.3875Y-4.0379
X7.3875Y-4.7879
X7.4375Y-2.438
X7.4375Y-3.1879
X7.4375Y-3.9379
X7.4375Y-4.6879
X7.45Y-5.4379
X7.5Y-5.5379
X7.6375Y-2.438
X7.6375Y-3.1879
X7.6375Y-3.9379
X7.6375Y-4.6879
X7.6875Y-2.538
X7.6875Y-3.2879
X7.6875Y-4.0379
X7.6875Y-4.7879
T7
X1.1848Y-5.725
X1.5017Y-6.4047
X1.5474Y-5.556
X1.8187Y-7.0845
X1.8643Y-6.2357
X1.8645Y-5.4081
X2.1813Y-6.9155
X2.1815Y-6.0878
X2.2271Y-5.2391
X2.4367Y-6.1619
X2.4984Y-6.7675
X2.5441Y-5.9188
X2.6057Y-6.5245
X2.65Y-2.563
X2.85Y-3.3004
X2.85Y-3.7004
X2.85Y-4.4254
X2.85Y-4.8254
X2.861Y-6.5985
X2.8612Y-5.7708
X3.05Y-2.563
X3.1164Y-5.8449
X3.1782Y-6.4506
X3.2238Y-5.6018
X3.2854Y-6.2075
X3.4Y-2.563
X3.4Y-3.3129
X3.4Y-4.0629
X3.4Y-4.8129
X3.5408Y-6.2816
X3.8Y-2.563
X3.8Y-3.3129
X3.8Y-4.0629
X3.8Y-4.8129
X4.15Y-2.5129
X4.15Y-3.2629
X4.15Y-4.0129
X4.15Y-4.7629
X4.15Y-5.5129
X4.55Y-2.5129
X4.55Y-3.2629
X4.55Y-4.0129
X4.55Y-4.7629
X4.55Y-5.5129
X4.9Y-2.45
X4.9Y-3.2
X4.9Y-3.95
X4.9Y-4.7
X4.9Y-5.45
X5.3Y-2.45
X5.3Y-3.2
X5.3Y-3.95
X5.3Y-4.7
X5.3Y-5.45
X5.65Y-2.5129
X5.65Y-3.2629
X5.65Y-4.0129
X5.65Y-4.7629
X5.65Y-5.5129
X6.05Y-2.5129
X6.05Y-3.2629
X6.05Y-4.0129
X6.05Y-4.7629
X6.05Y-5.5129
X6.4Y-2.638
X6.4Y-3.3879
X6.4Y-4.1379
X6.4Y-4.8879
X6.4Y-5.6379
X6.8Y-2.638
X6.8Y-3.3879
X6.8Y-4.1379
X6.8Y-4.8879
X6.8Y-5.6379
X7.15Y-5.6379
X7.55Y-5.6379
X7.7375Y-2.638
X7.7375Y-3.3879
X7.7375Y-4.1379
X7.7375Y-4.8879
T2
X5.2754Y-1.2464G85X5.2754Y-1.2914
G05
X5.5626Y-1.2464G85X5.5626Y-1.2914
G05
T5
X3.221Y-1.314G85X3.209Y-1.314
G05
X3.587Y-1.314G85X3.575Y-1.314
G05
T0
M30
