G04 #@! TF.FileFunction,Copper,L2,Bot,Signal*
%FSLAX46Y46*%
G04 Gerber Fmt 4.6, Leading zero omitted, Abs format (unit mm)*
G04 Created by KiCad (PCBNEW 4.0.2-stable) date 2016/08/25 14:06:43*
%MOMM*%
G01*
G04 APERTURE LIST*
%ADD10C,0.150000*%
%ADD11C,0.609600*%
%ADD12C,0.010000*%
%ADD13C,1.651000*%
%ADD14C,2.286000*%
%ADD15C,1.701800*%
%ADD16R,1.752600X1.752600*%
%ADD17C,1.752600*%
%ADD18O,2.057400X1.752600*%
%ADD19R,1.651000X1.651000*%
%ADD20R,0.838200X0.838200*%
%ADD21R,2.000000X2.000000*%
%ADD22C,2.000000*%
%ADD23O,1.143000X1.651000*%
%ADD24O,1.701800X2.794000*%
%ADD25R,1.400000X1.400000*%
%ADD26C,1.400000*%
%ADD27C,2.283460*%
%ADD28C,2.280920*%
%ADD29C,0.609600*%
%ADD30C,0.033020*%
%ADD31C,0.508000*%
%ADD32C,0.304800*%
%ADD33C,0.203200*%
%ADD34C,0.254000*%
%ADD35C,1.016000*%
%ADD36C,0.711200*%
%ADD37C,0.406400*%
G04 APERTURE END LIST*
D10*
D11*
X53341367Y-147187736D02*
X55286576Y-146280670D01*
X58302224Y-144874450D02*
X60247433Y-143967384D01*
X70605747Y-139135936D02*
X72550956Y-138228870D01*
X75566604Y-136822650D02*
X77511813Y-135915584D01*
X68580000Y-72720200D02*
X70726300Y-72720200D01*
X74053700Y-72720200D02*
X76200000Y-72720200D01*
X80010000Y-92720160D02*
X80010000Y-90573860D01*
X80010000Y-87246460D02*
X80010000Y-85100160D01*
X80010000Y-121295160D02*
X80010000Y-119148860D01*
X80010000Y-115821460D02*
X80010000Y-113675160D01*
X182880000Y-150822660D02*
X185026300Y-150822660D01*
X188353700Y-150822660D02*
X190500000Y-150822660D01*
X87630000Y-91767660D02*
X89776300Y-91767660D01*
X93103700Y-91767660D02*
X95250000Y-91767660D01*
X42515518Y-169049321D02*
X44460727Y-168142255D01*
X47476375Y-166736035D02*
X49421584Y-165828970D01*
X50567318Y-186316241D02*
X52512527Y-185409175D01*
X55528175Y-184002955D02*
X57473384Y-183095890D01*
X34466258Y-151784941D02*
X36411467Y-150877875D01*
X39427115Y-149471655D02*
X41372324Y-148564590D01*
X51730638Y-143735681D02*
X53675847Y-142828615D01*
X56691495Y-141422395D02*
X58636704Y-140515330D01*
X163830000Y-74625200D02*
X165976300Y-74625200D01*
X169303700Y-74625200D02*
X171450000Y-74625200D01*
X144780000Y-71447660D02*
X146926300Y-71447660D01*
X150253700Y-71447660D02*
X152400000Y-71447660D01*
X125730000Y-69850000D02*
X127876300Y-69850000D01*
X131203700Y-69850000D02*
X133350000Y-69850000D01*
X106680000Y-71447660D02*
X108826300Y-71447660D01*
X112153700Y-71447660D02*
X114300000Y-71447660D01*
X144780000Y-147647660D02*
X146926300Y-147647660D01*
X150253700Y-147647660D02*
X152400000Y-147647660D01*
X163830000Y-93672660D02*
X165976300Y-93672660D01*
X169303700Y-93672660D02*
X171450000Y-93672660D01*
X125730000Y-88900000D02*
X127876300Y-88900000D01*
X131203700Y-88900000D02*
X133350000Y-88900000D01*
X106680000Y-90497660D02*
X108826300Y-90497660D01*
X112153700Y-90497660D02*
X114300000Y-90497660D01*
X163830000Y-112722660D02*
X165976300Y-112722660D01*
X169303700Y-112722660D02*
X171450000Y-112722660D01*
X144780000Y-109547660D02*
X146926300Y-109547660D01*
X150253700Y-109547660D02*
X152400000Y-109547660D01*
X125730000Y-107950000D02*
X127876300Y-107950000D01*
X131203700Y-107950000D02*
X133350000Y-107950000D01*
X106680000Y-109547660D02*
X108826300Y-109547660D01*
X112153700Y-109547660D02*
X114300000Y-109547660D01*
X87630000Y-110817660D02*
X89776300Y-110817660D01*
X93103700Y-110817660D02*
X95250000Y-110817660D01*
X163830000Y-131772660D02*
X165976300Y-131772660D01*
X169303700Y-131772660D02*
X171450000Y-131772660D01*
X144780000Y-128597660D02*
X146926300Y-128597660D01*
X150253700Y-128597660D02*
X152400000Y-128597660D01*
X125730000Y-127000000D02*
X127876300Y-127000000D01*
X131203700Y-127000000D02*
X133350000Y-127000000D01*
X106680000Y-128597660D02*
X108826300Y-128597660D01*
X112153700Y-128597660D02*
X114300000Y-128597660D01*
X87630000Y-129867660D02*
X89776300Y-129867660D01*
X93103700Y-129867660D02*
X95250000Y-129867660D01*
X163830000Y-150822660D02*
X165976300Y-150822660D01*
X169303700Y-150822660D02*
X171450000Y-150822660D01*
X125730000Y-146050000D02*
X127876300Y-146050000D01*
X131203700Y-146050000D02*
X133350000Y-146050000D01*
X106680000Y-147647660D02*
X108826300Y-147647660D01*
X112153700Y-147647660D02*
X114300000Y-147647660D01*
X89819101Y-153298162D02*
X88912035Y-151352953D01*
X87505815Y-148337305D02*
X86598750Y-146392096D01*
X72554721Y-161349962D02*
X71647655Y-159404753D01*
X70241435Y-156389105D02*
X69334370Y-154443896D01*
X144780000Y-90497660D02*
X146926300Y-90497660D01*
X150253700Y-90497660D02*
X152400000Y-90497660D01*
X87630000Y-72720200D02*
X89776300Y-72720200D01*
X93103700Y-72720200D02*
X95250000Y-72720200D01*
D12*
G36*
X99183192Y-47320749D02*
X99355496Y-47471896D01*
X99585028Y-47690626D01*
X99709662Y-47814662D01*
X100255099Y-48364991D01*
X100725892Y-47899110D01*
X101196686Y-47433229D01*
X102117314Y-48365437D01*
X102606824Y-47881036D01*
X103096333Y-47396634D01*
X103585617Y-47880812D01*
X104074901Y-48364991D01*
X104622168Y-47812815D01*
X104879655Y-47555134D01*
X105043757Y-47403991D01*
X105140200Y-47345563D01*
X105194705Y-47366027D01*
X105232997Y-47451559D01*
X105242395Y-47479518D01*
X105268149Y-47676765D01*
X105264912Y-47994978D01*
X105233458Y-48388429D01*
X105225922Y-48454768D01*
X105075863Y-49243278D01*
X104824193Y-49903450D01*
X104464865Y-50446739D01*
X103991828Y-50884600D01*
X103913474Y-50939995D01*
X103303500Y-51258689D01*
X102627834Y-51440699D01*
X101929874Y-51478653D01*
X101312351Y-51381896D01*
X100661233Y-51122623D01*
X100102315Y-50727823D01*
X99648299Y-50211484D01*
X99311888Y-49587589D01*
X99126107Y-48974666D01*
X99083130Y-48697577D01*
X99053160Y-48364729D01*
X99036857Y-48016682D01*
X99034881Y-47693996D01*
X99047892Y-47437230D01*
X99076549Y-47286944D01*
X99098279Y-47264333D01*
X99183192Y-47320749D01*
X99183192Y-47320749D01*
G37*
X99183192Y-47320749D02*
X99355496Y-47471896D01*
X99585028Y-47690626D01*
X99709662Y-47814662D01*
X100255099Y-48364991D01*
X100725892Y-47899110D01*
X101196686Y-47433229D01*
X102117314Y-48365437D01*
X102606824Y-47881036D01*
X103096333Y-47396634D01*
X103585617Y-47880812D01*
X104074901Y-48364991D01*
X104622168Y-47812815D01*
X104879655Y-47555134D01*
X105043757Y-47403991D01*
X105140200Y-47345563D01*
X105194705Y-47366027D01*
X105232997Y-47451559D01*
X105242395Y-47479518D01*
X105268149Y-47676765D01*
X105264912Y-47994978D01*
X105233458Y-48388429D01*
X105225922Y-48454768D01*
X105075863Y-49243278D01*
X104824193Y-49903450D01*
X104464865Y-50446739D01*
X103991828Y-50884600D01*
X103913474Y-50939995D01*
X103303500Y-51258689D01*
X102627834Y-51440699D01*
X101929874Y-51478653D01*
X101312351Y-51381896D01*
X100661233Y-51122623D01*
X100102315Y-50727823D01*
X99648299Y-50211484D01*
X99311888Y-49587589D01*
X99126107Y-48974666D01*
X99083130Y-48697577D01*
X99053160Y-48364729D01*
X99036857Y-48016682D01*
X99034881Y-47693996D01*
X99047892Y-47437230D01*
X99076549Y-47286944D01*
X99098279Y-47264333D01*
X99183192Y-47320749D01*
G36*
X102450398Y-43280467D02*
X102983045Y-43454025D01*
X103488349Y-43771545D01*
X103946173Y-44225659D01*
X104062180Y-44375014D01*
X104332838Y-44788000D01*
X104598212Y-45269623D01*
X104830397Y-45762805D01*
X105001494Y-46210464D01*
X105058826Y-46413886D01*
X105158995Y-46847840D01*
X104616948Y-47394749D01*
X104074901Y-47941657D01*
X103096333Y-46973301D01*
X102606824Y-47457702D01*
X102117314Y-47942104D01*
X101196686Y-47009896D01*
X100255276Y-47941482D01*
X99673073Y-47354784D01*
X99090870Y-46768085D01*
X99322551Y-46106043D01*
X99618791Y-45395940D01*
X99981319Y-44749940D01*
X100391339Y-44192766D01*
X100830060Y-43749140D01*
X101278687Y-43443785D01*
X101383625Y-43394719D01*
X101910545Y-43258242D01*
X102450398Y-43280467D01*
X102450398Y-43280467D01*
G37*
X102450398Y-43280467D02*
X102983045Y-43454025D01*
X103488349Y-43771545D01*
X103946173Y-44225659D01*
X104062180Y-44375014D01*
X104332838Y-44788000D01*
X104598212Y-45269623D01*
X104830397Y-45762805D01*
X105001494Y-46210464D01*
X105058826Y-46413886D01*
X105158995Y-46847840D01*
X104616948Y-47394749D01*
X104074901Y-47941657D01*
X103096333Y-46973301D01*
X102606824Y-47457702D01*
X102117314Y-47942104D01*
X101196686Y-47009896D01*
X100255276Y-47941482D01*
X99673073Y-47354784D01*
X99090870Y-46768085D01*
X99322551Y-46106043D01*
X99618791Y-45395940D01*
X99981319Y-44749940D01*
X100391339Y-44192766D01*
X100830060Y-43749140D01*
X101278687Y-43443785D01*
X101383625Y-43394719D01*
X101910545Y-43258242D01*
X102450398Y-43280467D01*
D11*
X187642500Y-131772660D02*
X189788800Y-131772660D01*
X193116200Y-131772660D02*
X195262500Y-131772660D01*
X187642500Y-112722660D02*
X189788800Y-112722660D01*
X193116200Y-112722660D02*
X195262500Y-112722660D01*
X187642500Y-93672660D02*
X189788800Y-93672660D01*
X193116200Y-93672660D02*
X195262500Y-93672660D01*
X187642500Y-74625200D02*
X189788800Y-74625200D01*
X193116200Y-74625200D02*
X195262500Y-74625200D01*
D13*
X78740000Y-40005000D03*
X78740000Y-37465000D03*
X78740000Y-34925000D03*
X93980000Y-40005000D03*
X93980000Y-37465000D03*
X93980000Y-34925000D03*
X53341367Y-147187736D03*
D10*
G36*
X55083862Y-146837623D02*
X54729623Y-146077956D01*
X55489290Y-145723717D01*
X55843529Y-146483384D01*
X55083862Y-146837623D01*
X55083862Y-146837623D01*
G37*
G36*
X59848147Y-145064412D02*
X59150405Y-143568098D01*
X60646719Y-142870356D01*
X61344461Y-144366670D01*
X59848147Y-145064412D01*
X59848147Y-145064412D01*
G37*
G36*
X58099510Y-145431403D02*
X57745271Y-144671736D01*
X58504938Y-144317497D01*
X58859177Y-145077164D01*
X58099510Y-145431403D01*
X58099510Y-145431403D01*
G37*
D13*
X70605747Y-139135936D03*
D10*
G36*
X72348242Y-138785823D02*
X71994003Y-138026156D01*
X72753670Y-137671917D01*
X73107909Y-138431584D01*
X72348242Y-138785823D01*
X72348242Y-138785823D01*
G37*
G36*
X77112527Y-137012612D02*
X76414785Y-135516298D01*
X77911099Y-134818556D01*
X78608841Y-136314870D01*
X77112527Y-137012612D01*
X77112527Y-137012612D01*
G37*
G36*
X75363890Y-137379603D02*
X75009651Y-136619936D01*
X75769318Y-136265697D01*
X76123557Y-137025364D01*
X75363890Y-137379603D01*
X75363890Y-137379603D01*
G37*
D14*
X77434621Y-138754526D03*
X72753017Y-143740174D03*
D15*
X72675456Y-146578921D03*
X81883544Y-142285119D03*
D14*
X79659082Y-140519823D03*
X72830577Y-140901427D03*
X60170241Y-146806326D03*
X55488637Y-151791974D03*
D15*
X55411076Y-154630721D03*
X64619164Y-150336919D03*
D14*
X62394702Y-148571623D03*
X55566197Y-148953227D03*
X85176179Y-167376434D03*
X89857783Y-162390786D03*
D15*
X89935344Y-159552039D03*
X80727256Y-163845841D03*
D14*
X82951718Y-165611137D03*
X89780223Y-165229533D03*
X67909259Y-175425694D03*
X72590863Y-170440046D03*
D15*
X72668424Y-167601299D03*
X63460336Y-171895101D03*
D14*
X65684798Y-173660397D03*
X72513303Y-173278793D03*
D13*
X70665000Y-41985000D03*
X70665000Y-52145000D03*
X73965000Y-41985000D03*
X73965000Y-52145000D03*
X77365000Y-41985000D03*
X77365000Y-52145000D03*
X101085000Y-36465000D03*
X111245000Y-36465000D03*
X101092000Y-39751000D03*
X111252000Y-39751000D03*
D16*
X161925000Y-34925000D03*
D17*
X164465000Y-34925000D03*
X167005000Y-34925000D03*
X169545000Y-34925000D03*
X172085000Y-34925000D03*
X174625000Y-34925000D03*
X177165000Y-34925000D03*
X179705000Y-34925000D03*
X182245000Y-34925000D03*
X184785000Y-34925000D03*
X187325000Y-34925000D03*
X189865000Y-34925000D03*
X189865000Y-50165000D03*
X187325000Y-50165000D03*
X184785000Y-50165000D03*
X182245000Y-50165000D03*
X179705000Y-50165000D03*
X177165000Y-50165000D03*
X174625000Y-50165000D03*
X167005000Y-50165000D03*
X164465000Y-50165000D03*
X161925000Y-50165000D03*
X172085000Y-50165000D03*
X169545000Y-50165000D03*
D18*
X90957400Y-33375600D03*
D17*
X82702400Y-38379400D03*
X87909400Y-41478200D03*
D18*
X81661000Y-33375600D03*
D17*
X84709000Y-41478200D03*
X89916000Y-38379400D03*
D14*
X74930000Y-60020200D03*
X68580000Y-62560200D03*
D15*
X67310000Y-65100200D03*
X77470000Y-65100200D03*
D14*
X76200000Y-62560200D03*
X69850000Y-60020200D03*
D13*
X68580000Y-70180200D03*
D19*
X76200000Y-70180200D03*
D13*
X68580000Y-72720200D03*
D19*
X76200000Y-72720200D03*
D20*
X70726300Y-72720200D03*
X74053700Y-72720200D03*
D14*
X67310000Y-86370160D03*
X69850000Y-92720160D03*
D15*
X72390000Y-93990160D03*
X72390000Y-83830160D03*
D14*
X69850000Y-85100160D03*
X67310000Y-91450160D03*
D13*
X77470000Y-92720160D03*
D19*
X77470000Y-85100160D03*
D13*
X80010000Y-92720160D03*
D19*
X80010000Y-85100160D03*
D20*
X80010000Y-90573860D03*
X80010000Y-87246460D03*
D14*
X67310000Y-114945160D03*
X69850000Y-121295160D03*
D15*
X72390000Y-122565160D03*
X72390000Y-112405160D03*
D14*
X69850000Y-113675160D03*
X67310000Y-120025160D03*
D13*
X77470000Y-121295160D03*
D19*
X77470000Y-113675160D03*
D13*
X80010000Y-121295160D03*
D19*
X80010000Y-113675160D03*
D20*
X80010000Y-119148860D03*
X80010000Y-115821460D03*
D14*
X189230000Y-138122660D03*
X182880000Y-140662660D03*
D15*
X181610000Y-143202660D03*
X191770000Y-143202660D03*
D14*
X190500000Y-140662660D03*
X184150000Y-138122660D03*
D13*
X182880000Y-148282660D03*
D19*
X190500000Y-148282660D03*
D13*
X182880000Y-150822660D03*
D19*
X190500000Y-150822660D03*
D20*
X185026300Y-150822660D03*
X188353700Y-150822660D03*
D14*
X93980000Y-79067660D03*
X87630000Y-81607660D03*
D15*
X86360000Y-84147660D03*
X96520000Y-84147660D03*
D14*
X95250000Y-81607660D03*
X88900000Y-79067660D03*
D13*
X87630000Y-89227660D03*
D19*
X95250000Y-89227660D03*
D13*
X87630000Y-91767660D03*
D19*
X95250000Y-91767660D03*
D20*
X89776300Y-91767660D03*
X93103700Y-91767660D03*
D14*
X42903321Y-154855586D03*
X38221717Y-159841234D03*
D15*
X38144156Y-162679981D03*
X47352244Y-158386179D03*
D14*
X45127782Y-156620883D03*
X38299277Y-157002487D03*
D13*
X41442068Y-166747299D03*
D10*
G36*
X47948847Y-164623976D02*
X47251105Y-163127662D01*
X48747419Y-162429920D01*
X49445161Y-163926234D01*
X47948847Y-164623976D01*
X47948847Y-164623976D01*
G37*
D13*
X42515518Y-169049321D03*
D10*
G36*
X49022298Y-166925998D02*
X48324556Y-165429684D01*
X49820870Y-164731942D01*
X50518612Y-166228256D01*
X49022298Y-166925998D01*
X49022298Y-166925998D01*
G37*
G36*
X44258013Y-168699208D02*
X43903774Y-167939541D01*
X44663441Y-167585302D01*
X45017680Y-168344969D01*
X44258013Y-168699208D01*
X44258013Y-168699208D01*
G37*
G36*
X47273661Y-167292988D02*
X46919422Y-166533321D01*
X47679089Y-166179082D01*
X48033328Y-166938749D01*
X47273661Y-167292988D01*
X47273661Y-167292988D01*
G37*
D14*
X50955121Y-172122506D03*
X46273517Y-177108154D03*
D15*
X46195956Y-179946901D03*
X55404044Y-175653099D03*
D14*
X53179582Y-173887803D03*
X46351077Y-174269407D03*
D13*
X49493868Y-184014219D03*
D10*
G36*
X56000647Y-181890896D02*
X55302905Y-180394582D01*
X56799219Y-179696840D01*
X57496961Y-181193154D01*
X56000647Y-181890896D01*
X56000647Y-181890896D01*
G37*
D13*
X50567318Y-186316241D03*
D10*
G36*
X57074098Y-184192918D02*
X56376356Y-182696604D01*
X57872670Y-181998862D01*
X58570412Y-183495176D01*
X57074098Y-184192918D01*
X57074098Y-184192918D01*
G37*
G36*
X52309813Y-185966128D02*
X51955574Y-185206461D01*
X52715241Y-184852222D01*
X53069480Y-185611889D01*
X52309813Y-185966128D01*
X52309813Y-185966128D01*
G37*
G36*
X55325461Y-184559908D02*
X54971222Y-183800241D01*
X55730889Y-183446002D01*
X56085128Y-184205669D01*
X55325461Y-184559908D01*
X55325461Y-184559908D01*
G37*
D14*
X34854061Y-137591206D03*
X30172457Y-142576854D03*
D15*
X30094896Y-145415601D03*
X39302984Y-141121799D03*
D14*
X37078522Y-139356503D03*
X30250017Y-139738107D03*
D13*
X33392808Y-149482919D03*
D10*
G36*
X39899587Y-147359596D02*
X39201845Y-145863282D01*
X40698159Y-145165540D01*
X41395901Y-146661854D01*
X39899587Y-147359596D01*
X39899587Y-147359596D01*
G37*
D13*
X34466258Y-151784941D03*
D10*
G36*
X40973038Y-149661618D02*
X40275296Y-148165304D01*
X41771610Y-147467562D01*
X42469352Y-148963876D01*
X40973038Y-149661618D01*
X40973038Y-149661618D01*
G37*
G36*
X36208753Y-151434828D02*
X35854514Y-150675161D01*
X36614181Y-150320922D01*
X36968420Y-151080589D01*
X36208753Y-151434828D01*
X36208753Y-151434828D01*
G37*
G36*
X39224401Y-150028608D02*
X38870162Y-149268941D01*
X39629829Y-148914702D01*
X39984068Y-149674369D01*
X39224401Y-150028608D01*
X39224401Y-150028608D01*
G37*
D14*
X52118441Y-129541946D03*
X47436837Y-134527594D03*
D15*
X47359276Y-137366341D03*
X56567364Y-133072539D03*
D14*
X54342902Y-131307243D03*
X47514397Y-131688847D03*
D13*
X50657188Y-141433659D03*
D10*
G36*
X57163967Y-139310336D02*
X56466225Y-137814022D01*
X57962539Y-137116280D01*
X58660281Y-138612594D01*
X57163967Y-139310336D01*
X57163967Y-139310336D01*
G37*
D13*
X51730638Y-143735681D03*
D10*
G36*
X58237418Y-141612358D02*
X57539676Y-140116044D01*
X59035990Y-139418302D01*
X59733732Y-140914616D01*
X58237418Y-141612358D01*
X58237418Y-141612358D01*
G37*
G36*
X53473133Y-143385568D02*
X53118894Y-142625901D01*
X53878561Y-142271662D01*
X54232800Y-143031329D01*
X53473133Y-143385568D01*
X53473133Y-143385568D01*
G37*
G36*
X56488781Y-141979348D02*
X56134542Y-141219681D01*
X56894209Y-140865442D01*
X57248448Y-141625109D01*
X56488781Y-141979348D01*
X56488781Y-141979348D01*
G37*
D14*
X170180000Y-61925200D03*
X163830000Y-64465200D03*
D15*
X162560000Y-67005200D03*
X172720000Y-67005200D03*
D14*
X171450000Y-64465200D03*
X165100000Y-61925200D03*
D13*
X163830000Y-72085200D03*
D19*
X171450000Y-72085200D03*
D13*
X163830000Y-74625200D03*
D19*
X171450000Y-74625200D03*
D20*
X165976300Y-74625200D03*
X169303700Y-74625200D03*
D14*
X151130000Y-58747660D03*
X144780000Y-61287660D03*
D15*
X143510000Y-63827660D03*
X153670000Y-63827660D03*
D14*
X152400000Y-61287660D03*
X146050000Y-58747660D03*
D13*
X144780000Y-68907660D03*
D19*
X152400000Y-68907660D03*
D13*
X144780000Y-71447660D03*
D19*
X152400000Y-71447660D03*
D20*
X146926300Y-71447660D03*
X150253700Y-71447660D03*
D14*
X132080000Y-57150000D03*
X125730000Y-59690000D03*
D15*
X124460000Y-62230000D03*
X134620000Y-62230000D03*
D14*
X133350000Y-59690000D03*
X127000000Y-57150000D03*
D13*
X125730000Y-67310000D03*
D19*
X133350000Y-67310000D03*
D13*
X125730000Y-69850000D03*
D19*
X133350000Y-69850000D03*
D20*
X127876300Y-69850000D03*
X131203700Y-69850000D03*
D14*
X113030000Y-58747660D03*
X106680000Y-61287660D03*
D15*
X105410000Y-63827660D03*
X115570000Y-63827660D03*
D14*
X114300000Y-61287660D03*
X107950000Y-58747660D03*
D13*
X106680000Y-68907660D03*
D19*
X114300000Y-68907660D03*
D13*
X106680000Y-71447660D03*
D19*
X114300000Y-71447660D03*
D20*
X108826300Y-71447660D03*
X112153700Y-71447660D03*
D14*
X151130000Y-134947660D03*
X144780000Y-137487660D03*
D15*
X143510000Y-140027660D03*
X153670000Y-140027660D03*
D14*
X152400000Y-137487660D03*
X146050000Y-134947660D03*
D13*
X144780000Y-145107660D03*
D19*
X152400000Y-145107660D03*
D13*
X144780000Y-147647660D03*
D19*
X152400000Y-147647660D03*
D20*
X146926300Y-147647660D03*
X150253700Y-147647660D03*
D14*
X170180000Y-80972660D03*
X163830000Y-83512660D03*
D15*
X162560000Y-86052660D03*
X172720000Y-86052660D03*
D14*
X171450000Y-83512660D03*
X165100000Y-80972660D03*
D13*
X163830000Y-91132660D03*
D19*
X171450000Y-91132660D03*
D13*
X163830000Y-93672660D03*
D19*
X171450000Y-93672660D03*
D20*
X165976300Y-93672660D03*
X169303700Y-93672660D03*
D14*
X132080000Y-76200000D03*
X125730000Y-78740000D03*
D15*
X124460000Y-81280000D03*
X134620000Y-81280000D03*
D14*
X133350000Y-78740000D03*
X127000000Y-76200000D03*
D13*
X125730000Y-86360000D03*
D19*
X133350000Y-86360000D03*
D13*
X125730000Y-88900000D03*
D19*
X133350000Y-88900000D03*
D20*
X127876300Y-88900000D03*
X131203700Y-88900000D03*
D14*
X113030000Y-77797660D03*
X106680000Y-80337660D03*
D15*
X105410000Y-82877660D03*
X115570000Y-82877660D03*
D14*
X114300000Y-80337660D03*
X107950000Y-77797660D03*
D13*
X106680000Y-87957660D03*
D19*
X114300000Y-87957660D03*
D13*
X106680000Y-90497660D03*
D19*
X114300000Y-90497660D03*
D20*
X108826300Y-90497660D03*
X112153700Y-90497660D03*
D14*
X170180000Y-100022660D03*
X163830000Y-102562660D03*
D15*
X162560000Y-105102660D03*
X172720000Y-105102660D03*
D14*
X171450000Y-102562660D03*
X165100000Y-100022660D03*
D13*
X163830000Y-110182660D03*
D19*
X171450000Y-110182660D03*
D13*
X163830000Y-112722660D03*
D19*
X171450000Y-112722660D03*
D20*
X165976300Y-112722660D03*
X169303700Y-112722660D03*
D14*
X151130000Y-96847660D03*
X144780000Y-99387660D03*
D15*
X143510000Y-101927660D03*
X153670000Y-101927660D03*
D14*
X152400000Y-99387660D03*
X146050000Y-96847660D03*
D13*
X144780000Y-107007660D03*
D19*
X152400000Y-107007660D03*
D13*
X144780000Y-109547660D03*
D19*
X152400000Y-109547660D03*
D20*
X146926300Y-109547660D03*
X150253700Y-109547660D03*
D14*
X132080000Y-95250000D03*
X125730000Y-97790000D03*
D15*
X124460000Y-100330000D03*
X134620000Y-100330000D03*
D14*
X133350000Y-97790000D03*
X127000000Y-95250000D03*
D13*
X125730000Y-105410000D03*
D19*
X133350000Y-105410000D03*
D13*
X125730000Y-107950000D03*
D19*
X133350000Y-107950000D03*
D20*
X127876300Y-107950000D03*
X131203700Y-107950000D03*
D14*
X113030000Y-96847660D03*
X106680000Y-99387660D03*
D15*
X105410000Y-101927660D03*
X115570000Y-101927660D03*
D14*
X114300000Y-99387660D03*
X107950000Y-96847660D03*
D13*
X106680000Y-107007660D03*
D19*
X114300000Y-107007660D03*
D13*
X106680000Y-109547660D03*
D19*
X114300000Y-109547660D03*
D20*
X108826300Y-109547660D03*
X112153700Y-109547660D03*
D14*
X93980000Y-98117660D03*
X87630000Y-100657660D03*
D15*
X86360000Y-103197660D03*
X96520000Y-103197660D03*
D14*
X95250000Y-100657660D03*
X88900000Y-98117660D03*
D13*
X87630000Y-108277660D03*
D19*
X95250000Y-108277660D03*
D13*
X87630000Y-110817660D03*
D19*
X95250000Y-110817660D03*
D20*
X89776300Y-110817660D03*
X93103700Y-110817660D03*
D14*
X170180000Y-119072660D03*
X163830000Y-121612660D03*
D15*
X162560000Y-124152660D03*
X172720000Y-124152660D03*
D14*
X171450000Y-121612660D03*
X165100000Y-119072660D03*
D13*
X163830000Y-129232660D03*
D19*
X171450000Y-129232660D03*
D13*
X163830000Y-131772660D03*
D19*
X171450000Y-131772660D03*
D20*
X165976300Y-131772660D03*
X169303700Y-131772660D03*
D14*
X151130000Y-115897660D03*
X144780000Y-118437660D03*
D15*
X143510000Y-120977660D03*
X153670000Y-120977660D03*
D14*
X152400000Y-118437660D03*
X146050000Y-115897660D03*
D13*
X144780000Y-126057660D03*
D19*
X152400000Y-126057660D03*
D13*
X144780000Y-128597660D03*
D19*
X152400000Y-128597660D03*
D20*
X146926300Y-128597660D03*
X150253700Y-128597660D03*
D14*
X132080000Y-114300000D03*
X125730000Y-116840000D03*
D15*
X124460000Y-119380000D03*
X134620000Y-119380000D03*
D14*
X133350000Y-116840000D03*
X127000000Y-114300000D03*
D13*
X125730000Y-124460000D03*
D19*
X133350000Y-124460000D03*
D13*
X125730000Y-127000000D03*
D19*
X133350000Y-127000000D03*
D20*
X127876300Y-127000000D03*
X131203700Y-127000000D03*
D14*
X113030000Y-115897660D03*
X106680000Y-118437660D03*
D15*
X105410000Y-120977660D03*
X115570000Y-120977660D03*
D14*
X114300000Y-118437660D03*
X107950000Y-115897660D03*
D13*
X106680000Y-126057660D03*
D19*
X114300000Y-126057660D03*
D13*
X106680000Y-128597660D03*
D19*
X114300000Y-128597660D03*
D20*
X108826300Y-128597660D03*
X112153700Y-128597660D03*
D14*
X93980000Y-117167660D03*
X87630000Y-119707660D03*
D15*
X86360000Y-122247660D03*
X96520000Y-122247660D03*
D14*
X95250000Y-119707660D03*
X88900000Y-117167660D03*
D13*
X87630000Y-127327660D03*
D19*
X95250000Y-127327660D03*
D13*
X87630000Y-129867660D03*
D19*
X95250000Y-129867660D03*
D20*
X89776300Y-129867660D03*
X93103700Y-129867660D03*
D14*
X170180000Y-138122660D03*
X163830000Y-140662660D03*
D15*
X162560000Y-143202660D03*
X172720000Y-143202660D03*
D14*
X171450000Y-140662660D03*
X165100000Y-138122660D03*
D13*
X163830000Y-148282660D03*
D19*
X171450000Y-148282660D03*
D13*
X163830000Y-150822660D03*
D19*
X171450000Y-150822660D03*
D20*
X165976300Y-150822660D03*
X169303700Y-150822660D03*
D14*
X132080000Y-133350000D03*
X125730000Y-135890000D03*
D15*
X124460000Y-138430000D03*
X134620000Y-138430000D03*
D14*
X133350000Y-135890000D03*
X127000000Y-133350000D03*
D13*
X125730000Y-143510000D03*
D19*
X133350000Y-143510000D03*
D13*
X125730000Y-146050000D03*
D19*
X133350000Y-146050000D03*
D20*
X127876300Y-146050000D03*
X131203700Y-146050000D03*
D14*
X113030000Y-134947660D03*
X106680000Y-137487660D03*
D15*
X105410000Y-140027660D03*
X115570000Y-140027660D03*
D14*
X114300000Y-137487660D03*
X107950000Y-134947660D03*
D13*
X106680000Y-145107660D03*
D19*
X114300000Y-145107660D03*
D13*
X106680000Y-147647660D03*
D19*
X114300000Y-147647660D03*
D20*
X108826300Y-147647660D03*
X112153700Y-147647660D03*
D14*
X75625366Y-152910359D03*
X80611014Y-157591963D03*
D15*
X83449761Y-157669524D03*
X79155959Y-148461436D03*
D14*
X77390663Y-150685898D03*
X77772267Y-157514403D03*
D13*
X87517079Y-154371612D03*
D10*
G36*
X85393756Y-147864833D02*
X83897442Y-148562575D01*
X83199700Y-147066261D01*
X84696014Y-146368519D01*
X85393756Y-147864833D01*
X85393756Y-147864833D01*
G37*
D13*
X89819101Y-153298162D03*
D10*
G36*
X87695778Y-146791382D02*
X86199464Y-147489124D01*
X85501722Y-145992810D01*
X86998036Y-145295068D01*
X87695778Y-146791382D01*
X87695778Y-146791382D01*
G37*
G36*
X89468988Y-151555667D02*
X88709321Y-151909906D01*
X88355082Y-151150239D01*
X89114749Y-150796000D01*
X89468988Y-151555667D01*
X89468988Y-151555667D01*
G37*
G36*
X88062768Y-148540019D02*
X87303101Y-148894258D01*
X86948862Y-148134591D01*
X87708529Y-147780352D01*
X88062768Y-148540019D01*
X88062768Y-148540019D01*
G37*
D14*
X58360986Y-160962159D03*
X63346634Y-165643763D03*
D15*
X66185381Y-165721324D03*
X61891579Y-156513236D03*
D14*
X60126283Y-158737698D03*
X60507887Y-165566203D03*
D13*
X70252699Y-162423412D03*
D10*
G36*
X68129376Y-155916633D02*
X66633062Y-156614375D01*
X65935320Y-155118061D01*
X67431634Y-154420319D01*
X68129376Y-155916633D01*
X68129376Y-155916633D01*
G37*
D13*
X72554721Y-161349962D03*
D10*
G36*
X70431398Y-154843182D02*
X68935084Y-155540924D01*
X68237342Y-154044610D01*
X69733656Y-153346868D01*
X70431398Y-154843182D01*
X70431398Y-154843182D01*
G37*
G36*
X72204608Y-159607467D02*
X71444941Y-159961706D01*
X71090702Y-159202039D01*
X71850369Y-158847800D01*
X72204608Y-159607467D01*
X72204608Y-159607467D01*
G37*
G36*
X70798388Y-156591819D02*
X70038721Y-156946058D01*
X69684482Y-156186391D01*
X70444149Y-155832152D01*
X70798388Y-156591819D01*
X70798388Y-156591819D01*
G37*
D14*
X151130000Y-77797660D03*
X144780000Y-80337660D03*
D15*
X143510000Y-82877660D03*
X153670000Y-82877660D03*
D14*
X152400000Y-80337660D03*
X146050000Y-77797660D03*
D13*
X144780000Y-87957660D03*
D19*
X152400000Y-87957660D03*
D13*
X144780000Y-90497660D03*
D19*
X152400000Y-90497660D03*
D20*
X146926300Y-90497660D03*
X150253700Y-90497660D03*
D14*
X93980000Y-60020200D03*
X87630000Y-62560200D03*
D15*
X86360000Y-65100200D03*
X96520000Y-65100200D03*
D14*
X95250000Y-62560200D03*
X88900000Y-60020200D03*
D13*
X87630000Y-70180200D03*
D19*
X95250000Y-70180200D03*
D13*
X87630000Y-72720200D03*
D19*
X95250000Y-72720200D03*
D20*
X89776300Y-72720200D03*
X93103700Y-72720200D03*
D17*
X164450000Y-46330000D03*
X166990000Y-46330000D03*
X169530000Y-46330000D03*
X172070000Y-46330000D03*
X174610000Y-46330000D03*
X177150000Y-46330000D03*
X179690000Y-46330000D03*
X182230000Y-46330000D03*
X184770000Y-46330000D03*
X189850000Y-46330000D03*
X192390000Y-46330000D03*
D16*
X161910000Y-46330000D03*
D17*
X194930000Y-38710000D03*
X192390000Y-38710000D03*
X189850000Y-38710000D03*
X187310000Y-38710000D03*
X184770000Y-38710000D03*
X182230000Y-38710000D03*
X179690000Y-38710000D03*
X177150000Y-38710000D03*
X174610000Y-38710000D03*
X172070000Y-38710000D03*
X169530000Y-38710000D03*
X166990000Y-38710000D03*
X164450000Y-38710000D03*
X161910000Y-38710000D03*
D21*
X66465000Y-37465000D03*
D22*
X66465000Y-34925000D03*
D21*
X66465000Y-43765000D03*
D22*
X66465000Y-41225000D03*
D21*
X66465000Y-50165000D03*
D22*
X66465000Y-47625000D03*
D23*
X136042400Y-37553900D03*
X136842500Y-35806380D03*
X137642600Y-37553900D03*
X138442700Y-35806380D03*
X139242800Y-37553900D03*
D24*
X141290040Y-32230060D03*
X133995160Y-32230060D03*
D13*
X135229600Y-40259000D03*
X132816600Y-40259000D03*
X137642600Y-40259000D03*
X142468600Y-40259000D03*
X140055600Y-40259000D03*
D25*
X199517000Y-39751000D03*
D26*
X199517000Y-44751000D03*
D14*
X193992500Y-119072660D03*
X187642500Y-121612660D03*
D15*
X196532500Y-124152660D03*
D27*
X195262500Y-121612660D03*
D14*
X188912500Y-119072660D03*
D13*
X187642500Y-129232660D03*
D19*
X195262500Y-129232660D03*
D13*
X187642500Y-131772660D03*
D19*
X195262500Y-131772660D03*
D20*
X189788800Y-131772660D03*
X193116200Y-131772660D03*
D28*
X181610000Y-121612660D03*
X184150000Y-120342660D03*
X184150000Y-127962660D03*
X181610000Y-126692660D03*
D14*
X193992500Y-100022660D03*
X187642500Y-102562660D03*
D15*
X196532500Y-105102660D03*
D27*
X195262500Y-102562660D03*
D14*
X188912500Y-100022660D03*
D13*
X187642500Y-110182660D03*
D19*
X195262500Y-110182660D03*
D13*
X187642500Y-112722660D03*
D19*
X195262500Y-112722660D03*
D20*
X189788800Y-112722660D03*
X193116200Y-112722660D03*
D28*
X181610000Y-102562660D03*
X184150000Y-101292660D03*
X184150000Y-108912660D03*
X181610000Y-107642660D03*
D14*
X193992500Y-80972660D03*
X187642500Y-83512660D03*
D15*
X196532500Y-86052660D03*
D27*
X195262500Y-83512660D03*
D14*
X188912500Y-80972660D03*
D13*
X187642500Y-91132660D03*
D19*
X195262500Y-91132660D03*
D13*
X187642500Y-93672660D03*
D19*
X195262500Y-93672660D03*
D20*
X189788800Y-93672660D03*
X193116200Y-93672660D03*
D28*
X181610000Y-83512660D03*
X184150000Y-82242660D03*
X184150000Y-89862660D03*
X181610000Y-88592660D03*
D14*
X193992500Y-61925200D03*
X187642500Y-64465200D03*
D15*
X196532500Y-67005200D03*
D27*
X195262500Y-64465200D03*
D14*
X188912500Y-61925200D03*
D13*
X187642500Y-72085200D03*
D19*
X195262500Y-72085200D03*
D13*
X187642500Y-74625200D03*
D19*
X195262500Y-74625200D03*
D20*
X189788800Y-74625200D03*
X193116200Y-74625200D03*
D28*
X181610000Y-64465200D03*
X184150000Y-63195200D03*
X184150000Y-70815200D03*
X181610000Y-69545200D03*
D29*
X158369000Y-56261000D03*
X157099000Y-57277000D03*
X154051000Y-55562500D03*
X154559000Y-56832500D03*
X154051000Y-54292500D03*
X153797000Y-52800000D03*
X153543000Y-51689000D03*
X188595000Y-37465000D03*
X80165000Y-49165000D03*
X196565000Y-46865000D03*
X195665000Y-42165000D03*
X181737000Y-41021000D03*
X78465000Y-44865000D03*
X161417000Y-54991000D03*
X160147000Y-54229000D03*
X179705000Y-58547000D03*
X178181000Y-116840000D03*
X177165000Y-97917000D03*
X177165000Y-58547000D03*
X176403000Y-78613000D03*
X175641000Y-58547000D03*
X143637000Y-42799000D03*
X152019000Y-34417000D03*
X169545000Y-33401000D03*
X195707000Y-43561000D03*
X195453000Y-37211000D03*
X130175000Y-42164000D03*
X165495000Y-55975000D03*
X189665000Y-42465000D03*
X153035000Y-46736000D03*
X150114000Y-43815000D03*
D30*
X162560000Y-143202660D02*
X161925000Y-143837660D01*
D31*
X187310000Y-46330000D02*
X187310000Y-46270000D01*
X194865000Y-46395000D02*
X194930000Y-46330000D01*
D11*
X195262500Y-91132660D02*
X195262500Y-93672660D01*
D32*
X158369000Y-56261000D02*
X158369000Y-54991000D01*
X159131000Y-54229000D02*
X158369000Y-54991000D01*
X159131000Y-54229000D02*
X159131000Y-53975000D01*
X160147000Y-44323000D02*
X174077000Y-44323000D01*
X174077000Y-44323000D02*
X179690000Y-38710000D01*
X159131000Y-52197000D02*
X159131000Y-45339000D01*
X159131000Y-53975000D02*
X159131000Y-52197000D01*
X159131000Y-45339000D02*
X160147000Y-44323000D01*
D33*
X182725000Y-37355000D02*
X182885000Y-37355000D01*
X182885000Y-37355000D02*
X182945000Y-37295000D01*
X182945000Y-37295000D02*
X183261000Y-36979000D01*
X179925000Y-38475000D02*
X180535000Y-38475000D01*
X181655000Y-37355000D02*
X180535000Y-38475000D01*
X185293000Y-36957000D02*
X187325000Y-34925000D01*
X185293000Y-36957000D02*
X183261000Y-36957000D01*
X183261000Y-36957000D02*
X183261000Y-36979000D01*
X182725000Y-37355000D02*
X181655000Y-37355000D01*
X179925000Y-38475000D02*
X179690000Y-38710000D01*
D11*
X195262500Y-72085200D02*
X195262500Y-74625200D01*
X195262500Y-129232660D02*
X195262500Y-131772660D01*
X195262500Y-110182660D02*
X195262500Y-112722660D01*
X190500000Y-148282660D02*
X190500000Y-150822660D01*
D32*
X179690000Y-38710000D02*
X179820000Y-38710000D01*
X179690000Y-38710000D02*
X179690000Y-38600000D01*
X156972000Y-55372000D02*
X156972000Y-57150000D01*
X156972000Y-57150000D02*
X157099000Y-57277000D01*
X172339000Y-43561000D02*
X159385000Y-43561000D01*
X159385000Y-43561000D02*
X158877000Y-44069000D01*
X158369000Y-44577000D02*
X158877000Y-44069000D01*
X158369000Y-53975000D02*
X158369000Y-46101000D01*
X156972000Y-55372000D02*
X157099000Y-55245000D01*
X158369000Y-53975000D02*
X157099000Y-55245000D01*
X158369000Y-46101000D02*
X158369000Y-44577000D01*
X172920000Y-42940000D02*
X172920000Y-42980000D01*
X172940000Y-42920000D02*
X177150000Y-38710000D01*
X172920000Y-42940000D02*
X172940000Y-42920000D01*
X172920000Y-42980000D02*
X172593000Y-43307000D01*
X172339000Y-43561000D02*
X172593000Y-43307000D01*
D33*
X180975000Y-36957000D02*
X178903000Y-36957000D01*
X178903000Y-36957000D02*
X177150000Y-38710000D01*
X182753000Y-36703000D02*
X181229000Y-36703000D01*
X184531000Y-34925000D02*
X182753000Y-36703000D01*
X181229000Y-36703000D02*
X180975000Y-36957000D01*
X184785000Y-34925000D02*
X184531000Y-34925000D01*
D11*
X171450000Y-72085200D02*
X171450000Y-74625200D01*
X171450000Y-148282660D02*
X171450000Y-150822660D01*
X171450000Y-91132660D02*
X171450000Y-93672660D01*
X171450000Y-129232660D02*
X171450000Y-131772660D01*
X171450000Y-110182660D02*
X171450000Y-112722660D01*
X57472580Y-183095900D02*
X56400700Y-180794660D01*
D33*
X177150000Y-38710000D02*
X177150000Y-38700000D01*
D32*
X177150000Y-38710000D02*
X177250000Y-38710000D01*
D33*
X178035000Y-36135000D02*
X177865000Y-36305000D01*
X178145000Y-36135000D02*
X178035000Y-36135000D01*
X178145000Y-36135000D02*
X179355000Y-34925000D01*
D32*
X158369000Y-41529000D02*
X169251000Y-41529000D01*
X156845000Y-42799000D02*
X158115000Y-41529000D01*
X158115000Y-41529000D02*
X158369000Y-41529000D01*
X156845000Y-51435000D02*
X156845000Y-52768500D01*
X154051000Y-55562500D02*
X156845000Y-52768500D01*
X156845000Y-51435000D02*
X156845000Y-42799000D01*
X169251000Y-41529000D02*
X169325000Y-41455000D01*
D11*
X133350000Y-105410000D02*
X133350000Y-107950000D01*
X133350000Y-67310000D02*
X133350000Y-69850000D01*
X133350000Y-143510000D02*
X133350000Y-146050000D01*
X133350000Y-86360000D02*
X133350000Y-88900000D01*
X133350000Y-124460000D02*
X133350000Y-127000000D01*
X84297520Y-147464780D02*
X86601300Y-146392900D01*
D32*
X169325000Y-41455000D02*
X172070000Y-38710000D01*
D33*
X177865000Y-36305000D02*
X176503424Y-36305000D01*
X172695000Y-37305000D02*
X173835000Y-37305000D01*
X172070000Y-37930000D02*
X172695000Y-37305000D01*
X173835000Y-37305000D02*
X174255000Y-36885000D01*
X175923424Y-36885000D02*
X174255000Y-36885000D01*
X176503424Y-36305000D02*
X175923424Y-36885000D01*
X179705000Y-34925000D02*
X179355000Y-34925000D01*
X172070000Y-38710000D02*
X172070000Y-37930000D01*
D32*
X172070000Y-38710000D02*
X172270000Y-38710000D01*
X170307000Y-42799000D02*
X170521000Y-42799000D01*
X157607000Y-50165000D02*
X157607000Y-43815000D01*
X157607000Y-53784500D02*
X154559000Y-56832500D01*
X157607000Y-50165000D02*
X157607000Y-53784500D01*
X157607000Y-43815000D02*
X158369000Y-43053000D01*
X158369000Y-43053000D02*
X158623000Y-42799000D01*
X171100000Y-42220000D02*
X174610000Y-38710000D01*
X158623000Y-42799000D02*
X158877000Y-42799000D01*
X158877000Y-42799000D02*
X170307000Y-42799000D01*
X170521000Y-42799000D02*
X171100000Y-42220000D01*
D11*
X152400000Y-87957660D02*
X152400000Y-90497660D01*
X152400000Y-68907660D02*
X152400000Y-71447660D01*
X152400000Y-145107660D02*
X152400000Y-147647660D01*
X152400000Y-126057660D02*
X152400000Y-128597660D01*
X152400000Y-107007660D02*
X152400000Y-109547660D01*
X67033140Y-155516580D02*
X69334380Y-154442160D01*
D33*
X178729212Y-36269212D02*
X180900788Y-36269212D01*
X178185422Y-36813002D02*
X178729212Y-36269212D01*
X176423424Y-37103424D02*
X176484578Y-37103424D01*
X176133846Y-37393002D02*
X176423424Y-37103424D01*
X175733002Y-37495000D02*
X175835000Y-37393002D01*
X174610000Y-38560000D02*
X175675000Y-37495000D01*
X175675000Y-37495000D02*
X175733002Y-37495000D01*
X175835000Y-37393002D02*
X176133846Y-37393002D01*
X176484578Y-37103424D02*
X176775000Y-36813002D01*
X176775000Y-36813002D02*
X178185422Y-36813002D01*
X180900788Y-36269212D02*
X182245000Y-34925000D01*
X174610000Y-38710000D02*
X174610000Y-38560000D01*
D32*
X174610000Y-38710000D02*
X174970000Y-38710000D01*
D34*
X157568901Y-40728901D02*
X167511099Y-40728901D01*
X167511099Y-40728901D02*
X169530000Y-38710000D01*
X156083000Y-47625000D02*
X156083000Y-42214802D01*
X154051000Y-54292500D02*
X156083000Y-52260500D01*
X156083000Y-47625000D02*
X156083000Y-52260500D01*
X156083000Y-42214802D02*
X157568901Y-40728901D01*
X157568901Y-40728901D02*
X157607000Y-40690802D01*
D11*
X114300000Y-87957660D02*
X114300000Y-90497660D01*
X114300000Y-126057660D02*
X114300000Y-128597660D01*
X114300000Y-107007660D02*
X114300000Y-109547660D01*
X49423320Y-165831520D02*
X48348900Y-163527740D01*
X114300000Y-145107660D02*
X114300000Y-147647660D01*
X114300000Y-68907660D02*
X114300000Y-71447660D01*
D33*
X173984212Y-36284212D02*
X175805788Y-36284212D01*
X173541210Y-36727214D02*
X173984212Y-36284212D01*
X171198424Y-37248424D02*
X171203790Y-37248424D01*
X171203790Y-37248424D02*
X171725000Y-36727214D01*
X171725000Y-36727214D02*
X173541210Y-36727214D01*
X175805788Y-36284212D02*
X177165000Y-34925000D01*
X169530000Y-38710000D02*
X169736848Y-38710000D01*
X169736848Y-38710000D02*
X171198424Y-37248424D01*
X171198424Y-37248424D02*
X171228424Y-37218424D01*
X169530000Y-38710000D02*
X169740000Y-38710000D01*
D32*
X169530000Y-38710000D02*
X169530000Y-38700000D01*
X169530000Y-38710000D02*
X169539204Y-38710000D01*
X169530000Y-38710000D02*
X169550000Y-38710000D01*
X164450000Y-38710000D02*
X164450000Y-38750000D01*
X164450000Y-38750000D02*
X163195000Y-40005000D01*
X155321000Y-41783000D02*
X155321000Y-41021000D01*
X155321000Y-49403000D02*
X155321000Y-51276000D01*
X153797000Y-52800000D02*
X155321000Y-51276000D01*
X155321000Y-41783000D02*
X155321000Y-49403000D01*
X155321000Y-41021000D02*
X156083000Y-40259000D01*
X156337000Y-40005000D02*
X156083000Y-40259000D01*
X163195000Y-40005000D02*
X156337000Y-40005000D01*
X164450000Y-38710000D02*
X164450000Y-34940000D01*
X164450000Y-34940000D02*
X164465000Y-34925000D01*
D11*
X57564020Y-138211560D02*
X58635900Y-140515340D01*
X95250000Y-89227660D02*
X95250000Y-91767660D01*
X95250000Y-108277660D02*
X95250000Y-110817660D01*
X95250000Y-70180200D02*
X95250000Y-72720200D01*
D32*
X164450000Y-38710000D02*
X164450000Y-38380000D01*
D31*
X164465000Y-34925000D02*
X164465000Y-34465000D01*
X164465000Y-34925000D02*
X164465000Y-34865000D01*
D32*
X155829000Y-38735000D02*
X154559000Y-40005000D01*
X153543000Y-51689000D02*
X154559000Y-50673000D01*
X154559000Y-40005000D02*
X154559000Y-50673000D01*
X159131000Y-38735000D02*
X155829000Y-38735000D01*
X159131000Y-38735000D02*
X161885000Y-38735000D01*
X161885000Y-38735000D02*
X161910000Y-38710000D01*
X161925000Y-34925000D02*
X161925000Y-38695000D01*
X161925000Y-38695000D02*
X161910000Y-38710000D01*
D11*
X40297100Y-146263360D02*
X41371520Y-148564600D01*
X76200000Y-70180200D02*
X76200000Y-72720200D01*
X77470000Y-85100160D02*
X80010000Y-85100160D01*
X77470000Y-113675160D02*
X80010000Y-113675160D01*
D32*
X188595000Y-37465000D02*
X189865000Y-36195000D01*
X189865000Y-36195000D02*
X189865000Y-34925000D01*
D11*
X77865000Y-49165000D02*
X80165000Y-49165000D01*
X73965000Y-41985000D02*
X73965000Y-45265000D01*
X73965000Y-45265000D02*
X77065000Y-48365000D01*
X77865000Y-49165000D02*
X77065000Y-48365000D01*
D32*
X195165000Y-47965000D02*
X192065000Y-47965000D01*
X196565000Y-46865000D02*
X195465000Y-47965000D01*
X195465000Y-47965000D02*
X195165000Y-47965000D01*
X192065000Y-47965000D02*
X189865000Y-50165000D01*
X187893000Y-44637000D02*
X189593000Y-44637000D01*
X195565000Y-42065000D02*
X195665000Y-42165000D01*
X192165000Y-42065000D02*
X195565000Y-42065000D01*
X189593000Y-44637000D02*
X192165000Y-42065000D01*
X187833000Y-44577000D02*
X187893000Y-44637000D01*
X183769000Y-44577000D02*
X187833000Y-44577000D01*
X182245000Y-43815000D02*
X183007000Y-44577000D01*
X182245000Y-41529000D02*
X182245000Y-43815000D01*
X183007000Y-44577000D02*
X183769000Y-44577000D01*
X181737000Y-41021000D02*
X182245000Y-41529000D01*
D11*
X77365000Y-43765000D02*
X78465000Y-44865000D01*
X77365000Y-41985000D02*
X77365000Y-43765000D01*
D32*
X160655000Y-58039000D02*
X160655000Y-55753000D01*
D11*
X88549480Y-168605200D02*
X98333560Y-164043360D01*
X160655000Y-147637500D02*
X157797500Y-150495000D01*
X157797500Y-150495000D02*
X120332500Y-150495000D01*
X120332500Y-150495000D02*
X117475000Y-153352500D01*
X104729280Y-153352500D02*
X117475000Y-153352500D01*
X98333560Y-164043360D02*
X101711760Y-154759660D01*
X101711760Y-154759660D02*
X104729280Y-153352500D01*
D32*
X160655000Y-147637500D02*
X160655000Y-58039000D01*
X160655000Y-55753000D02*
X161417000Y-54991000D01*
D33*
X179705000Y-48133000D02*
X185293000Y-48133000D01*
X185293000Y-48133000D02*
X187325000Y-50165000D01*
X178435000Y-47624998D02*
X179196998Y-47624998D01*
X177150000Y-46339998D02*
X178435000Y-47624998D01*
X179196998Y-47624998D02*
X179705000Y-48133000D01*
X177150000Y-46330000D02*
X177150000Y-46339998D01*
D11*
X73477120Y-158818580D02*
X78844140Y-170327320D01*
X53179980Y-173888400D02*
X54617620Y-173217840D01*
X78844140Y-170327320D02*
X82219800Y-171556680D01*
D35*
X34853880Y-137591800D02*
X36540440Y-138206480D01*
X42903140Y-154856180D02*
X44592240Y-155470860D01*
D11*
X55140860Y-159311340D02*
X49232820Y-157159960D01*
X49164240Y-128465580D02*
X44561760Y-130614420D01*
D35*
X52644040Y-172737780D02*
X53179980Y-173888400D01*
D11*
X75628500Y-152910540D02*
X73477120Y-158818580D01*
D35*
X76240640Y-151223980D02*
X77393800Y-150685500D01*
X75628500Y-152910540D02*
X76240640Y-151223980D01*
X58976260Y-159273240D02*
X60126880Y-158737300D01*
D11*
X82219800Y-171556680D02*
X88549480Y-168605200D01*
X71285100Y-176654460D02*
X82219800Y-171556680D01*
D35*
X50954940Y-172123100D02*
X52644040Y-172737780D01*
D11*
X67909440Y-175427640D02*
X71285100Y-176654460D01*
X38229540Y-138821160D02*
X41183560Y-139895580D01*
X37078920Y-139357100D02*
X38229540Y-138821160D01*
X46278800Y-156085540D02*
X49232820Y-157159960D01*
X45128180Y-156621480D02*
X46278800Y-156085540D01*
X59565540Y-179318920D02*
X57150000Y-174137320D01*
X62941200Y-180545740D02*
X59565540Y-179318920D01*
X71285100Y-176654460D02*
X62941200Y-180545740D01*
X54617620Y-173217840D02*
X57150000Y-174137320D01*
X52118260Y-129542540D02*
X49164240Y-128465580D01*
X41183560Y-139895580D02*
X49232820Y-157159960D01*
D35*
X58361580Y-160962340D02*
X58976260Y-159273240D01*
D11*
X59298840Y-168231820D02*
X57287160Y-163913820D01*
X57287160Y-163913820D02*
X55140860Y-159311340D01*
D35*
X44592240Y-155470860D02*
X45128180Y-156621480D01*
D11*
X58361580Y-160962340D02*
X57287160Y-163913820D01*
X85176360Y-167375840D02*
X88549480Y-168605200D01*
D35*
X67909440Y-175427640D02*
X66222880Y-174812960D01*
X53807360Y-130154680D02*
X54343300Y-131307840D01*
X52118260Y-129542540D02*
X53807360Y-130154680D01*
D11*
X57150000Y-174137320D02*
X59298840Y-168231820D01*
D35*
X85176360Y-167375840D02*
X83487260Y-166761160D01*
X66222880Y-174812960D02*
X65684400Y-173662340D01*
X83487260Y-166761160D02*
X82951320Y-165610540D01*
D11*
X44561760Y-130614420D02*
X41183560Y-139895580D01*
D35*
X36540440Y-138206480D02*
X37078920Y-139357100D01*
D32*
X159893000Y-54483000D02*
X160147000Y-54229000D01*
X159893000Y-54737000D02*
X159893000Y-56769000D01*
X159315000Y-127535000D02*
X159315000Y-57277000D01*
X159385000Y-57277000D02*
X159893000Y-56769000D01*
X159315000Y-57277000D02*
X159385000Y-57277000D01*
X159893000Y-54737000D02*
X159893000Y-54483000D01*
D33*
X180975000Y-49149000D02*
X181229000Y-49149000D01*
X181229000Y-49149000D02*
X182245000Y-50165000D01*
X180467000Y-48662788D02*
X180488788Y-48662788D01*
X180488788Y-48662788D02*
X180975000Y-49149000D01*
X178921212Y-48662788D02*
X180467000Y-48662788D01*
X178435000Y-48176576D02*
X178921212Y-48662788D01*
X178435000Y-48133000D02*
X178435000Y-48176576D01*
X176657000Y-48133000D02*
X178435000Y-48133000D01*
X174854000Y-46330000D02*
X176657000Y-48133000D01*
X174610000Y-46330000D02*
X174854000Y-46330000D01*
D32*
X151130000Y-134947660D02*
X151902340Y-134947660D01*
X151902340Y-134947660D02*
X159315000Y-127535000D01*
X159315000Y-127535000D02*
X159365000Y-127485000D01*
D35*
X114300000Y-136217660D02*
X114300000Y-137487660D01*
X190500000Y-139392660D02*
X190500000Y-140662660D01*
D11*
X172402500Y-135890000D02*
X186997340Y-135890000D01*
D35*
X152400000Y-136217660D02*
X152400000Y-137487660D01*
D11*
X186997340Y-135890000D02*
X189230000Y-138122660D01*
X115892580Y-132085080D02*
X113030000Y-134947660D01*
X116067840Y-131909820D02*
X115892580Y-132085080D01*
D35*
X132080000Y-133350000D02*
X133350000Y-134620000D01*
D11*
X81600040Y-131909820D02*
X116067840Y-131909820D01*
D35*
X77434440Y-138755120D02*
X79123540Y-139369800D01*
D11*
X60170060Y-146806920D02*
X62758320Y-145597880D01*
X170180000Y-138122660D02*
X170180000Y-138112500D01*
D35*
X60170060Y-146806920D02*
X61856620Y-147421600D01*
X79123540Y-139369800D02*
X79659480Y-140520420D01*
D11*
X170180000Y-138112500D02*
X172402500Y-135890000D01*
X134302500Y-131127500D02*
X147309840Y-131127500D01*
X77434440Y-138755120D02*
X79448660Y-137815320D01*
X147309840Y-131127500D02*
X151130000Y-134947660D01*
X64909700Y-139692380D02*
X81600040Y-131909820D01*
D35*
X61856620Y-147421600D02*
X62395100Y-148572220D01*
D11*
X134302500Y-131127500D02*
X116850160Y-131127500D01*
X116850160Y-131127500D02*
X116067840Y-131909820D01*
X79448660Y-137815320D02*
X81600040Y-131909820D01*
D35*
X189230000Y-138122660D02*
X190500000Y-139392660D01*
X133350000Y-134620000D02*
X133350000Y-135890000D01*
X170180000Y-138122660D02*
X171450000Y-139392660D01*
X151130000Y-134947660D02*
X152400000Y-136217660D01*
X113030000Y-134947660D02*
X114300000Y-136217660D01*
D11*
X132080000Y-133350000D02*
X134302500Y-131127500D01*
D35*
X171450000Y-139392660D02*
X171450000Y-140662660D01*
D11*
X62758320Y-145597880D02*
X64909700Y-139692380D01*
X181610000Y-121612660D02*
X182880000Y-121612660D01*
X182880000Y-121612660D02*
X184150000Y-120342660D01*
X182245000Y-116840000D02*
X182372000Y-116840000D01*
X184150000Y-118618000D02*
X184150000Y-120342660D01*
X182372000Y-116840000D02*
X184150000Y-118618000D01*
D31*
X179705000Y-50165000D02*
X179705000Y-58547000D01*
D33*
X176381212Y-48662788D02*
X178202788Y-48662788D01*
X178202788Y-48662788D02*
X179705000Y-50165000D01*
X173863000Y-47878998D02*
X175597422Y-47878998D01*
X175597422Y-47878998D02*
X176381212Y-48662788D01*
X172070000Y-46330000D02*
X172314002Y-46330000D01*
X172314002Y-46330000D02*
X173863000Y-47878998D01*
X173863000Y-47878998D02*
X173863000Y-47878998D01*
D32*
X151130000Y-115897660D02*
X151962340Y-115897660D01*
D11*
X85407500Y-114935000D02*
X96212660Y-114935000D01*
D35*
X152400000Y-117167660D02*
X152400000Y-118437660D01*
D11*
X116850160Y-112077500D02*
X134302500Y-112077500D01*
D35*
X193992500Y-119072660D02*
X195262500Y-120342660D01*
D11*
X172402500Y-116840000D02*
X178181000Y-116840000D01*
X170180000Y-119062500D02*
X172402500Y-116840000D01*
X178181000Y-116840000D02*
X181229000Y-116840000D01*
X181229000Y-116840000D02*
X181917340Y-116840000D01*
D35*
X170180000Y-119072660D02*
X171450000Y-120342660D01*
X113030000Y-115897660D02*
X114300000Y-117167660D01*
D11*
X191759840Y-116840000D02*
X193992500Y-119072660D01*
X71437500Y-110172500D02*
X80645000Y-110172500D01*
X181917340Y-116840000D02*
X182245000Y-116840000D01*
X182245000Y-116840000D02*
X191759840Y-116840000D01*
X147309840Y-112077500D02*
X151130000Y-115897660D01*
D35*
X171450000Y-120342660D02*
X171450000Y-121612660D01*
D11*
X69850000Y-113675160D02*
X69850000Y-111760000D01*
D35*
X93980000Y-117167660D02*
X95250000Y-118437660D01*
D11*
X134302500Y-112077500D02*
X147309840Y-112077500D01*
X99070160Y-112077500D02*
X116850160Y-112077500D01*
D35*
X95250000Y-118437660D02*
X95250000Y-119707660D01*
D11*
X93980000Y-117167660D02*
X96212660Y-114935000D01*
X80645000Y-110172500D02*
X85407500Y-114935000D01*
D35*
X114300000Y-117167660D02*
X114300000Y-118437660D01*
D11*
X96212660Y-114935000D02*
X99070160Y-112077500D01*
X170180000Y-119072660D02*
X170180000Y-119062500D01*
X132080000Y-114300000D02*
X134302500Y-112077500D01*
D35*
X195262500Y-120342660D02*
X195262500Y-121612660D01*
X151130000Y-115897660D02*
X152400000Y-117167660D01*
D11*
X69850000Y-111760000D02*
X71437500Y-110172500D01*
D35*
X132080000Y-114300000D02*
X133350000Y-115570000D01*
X68580000Y-113675160D02*
X69850000Y-113675160D01*
D11*
X113030000Y-115897660D02*
X116850160Y-112077500D01*
D35*
X67310000Y-114945160D02*
X68580000Y-113675160D01*
X133350000Y-115570000D02*
X133350000Y-116840000D01*
D11*
X181610000Y-102562660D02*
X182880000Y-102562660D01*
X182880000Y-102562660D02*
X184150000Y-101292660D01*
X181917340Y-97790000D02*
X182372000Y-97790000D01*
X184150000Y-99568000D02*
X184150000Y-101292660D01*
X182372000Y-97790000D02*
X184150000Y-99568000D01*
D31*
X177165000Y-50165000D02*
X177165000Y-58547000D01*
X177165000Y-97917000D02*
X177165000Y-97790000D01*
X177165000Y-97790000D02*
X177165000Y-97917000D01*
X177165000Y-97917000D02*
X177165000Y-97790000D01*
X177165000Y-50165000D02*
X177165000Y-50927000D01*
D33*
X171069000Y-47879000D02*
X173101000Y-47879000D01*
X173101000Y-47879000D02*
X173609000Y-48387000D01*
X173609000Y-48387000D02*
X175387000Y-48387000D01*
X169530000Y-46340000D02*
X171069000Y-47879000D01*
X175387000Y-48387000D02*
X177165000Y-50165000D01*
X169530000Y-46330000D02*
X169530000Y-46340000D01*
D11*
X113030000Y-96847660D02*
X116850160Y-93027500D01*
D35*
X113030000Y-96847660D02*
X114300000Y-98117660D01*
X170180000Y-100022660D02*
X171450000Y-101292660D01*
X151130000Y-96847660D02*
X152400000Y-98117660D01*
X95250000Y-99387660D02*
X95250000Y-100657660D01*
X132080000Y-95250000D02*
X133350000Y-96520000D01*
X152400000Y-98117660D02*
X152400000Y-99387660D01*
D11*
X170180000Y-100022660D02*
X170180000Y-100012500D01*
X134302500Y-93027500D02*
X137160000Y-95885000D01*
X132080000Y-95250000D02*
X134302500Y-93027500D01*
X151130000Y-96837500D02*
X148907500Y-94615000D01*
X99070160Y-93027500D02*
X116850160Y-93027500D01*
D35*
X93980000Y-98117660D02*
X95250000Y-99387660D01*
D11*
X170180000Y-100012500D02*
X172402500Y-97790000D01*
X172402500Y-97790000D02*
X177165000Y-97790000D01*
X177165000Y-97790000D02*
X181917340Y-97790000D01*
D35*
X171450000Y-101292660D02*
X171450000Y-102562660D01*
X133350000Y-96520000D02*
X133350000Y-97790000D01*
D11*
X137160000Y-95885000D02*
X140970000Y-95885000D01*
D35*
X114300000Y-98117660D02*
X114300000Y-99387660D01*
D11*
X181917340Y-97790000D02*
X191759840Y-97790000D01*
X142240000Y-94615000D02*
X148907500Y-94615000D01*
X93980000Y-98117660D02*
X99070160Y-93027500D01*
X191759840Y-97790000D02*
X193992500Y-100022660D01*
X116850160Y-93027500D02*
X134302500Y-93027500D01*
X140970000Y-95885000D02*
X142240000Y-94615000D01*
D35*
X193992500Y-100022660D02*
X195262500Y-101292660D01*
X195262500Y-101292660D02*
X195262500Y-102562660D01*
D11*
X151130000Y-96847660D02*
X151130000Y-96837500D01*
X181610000Y-83512660D02*
X182880000Y-83512660D01*
X182880000Y-83512660D02*
X184150000Y-82242660D01*
X184150000Y-82242660D02*
X184150000Y-80972660D01*
X184150000Y-80972660D02*
X181917340Y-78740000D01*
D31*
X174625000Y-50165000D02*
X174625000Y-57531000D01*
X174625000Y-57531000D02*
X175641000Y-58547000D01*
X176403000Y-78613000D02*
X176403000Y-78740000D01*
X176403000Y-78740000D02*
X176403000Y-78613000D01*
X176403000Y-78613000D02*
X176403000Y-78740000D01*
D33*
X170053000Y-48133000D02*
X170561000Y-48133000D01*
X170561000Y-48133000D02*
X171069000Y-48641000D01*
X168275000Y-47879000D02*
X169799000Y-47879000D01*
X169799000Y-47879000D02*
X170053000Y-48133000D01*
X171069000Y-48641000D02*
X173101000Y-48641000D01*
X173101000Y-48641000D02*
X174625000Y-50165000D01*
X166990000Y-46594000D02*
X168275000Y-47879000D01*
X166990000Y-46330000D02*
X166990000Y-46594000D01*
D11*
X151130000Y-77797660D02*
X151130000Y-77760000D01*
D32*
X151130000Y-77797660D02*
X151162340Y-77797660D01*
D11*
X191759840Y-78740000D02*
X193992500Y-80972660D01*
X170180000Y-80972660D02*
X170180000Y-80962500D01*
D35*
X114300000Y-79067660D02*
X114300000Y-80337660D01*
X195262500Y-82242660D02*
X195262500Y-83512660D01*
X67310000Y-86370160D02*
X68580000Y-85100160D01*
X132080000Y-76200000D02*
X133350000Y-77470000D01*
X193992500Y-80972660D02*
X195262500Y-82242660D01*
X151130000Y-77797660D02*
X152400000Y-79067660D01*
D11*
X147309840Y-73977500D02*
X151130000Y-77797660D01*
X69850000Y-85100160D02*
X69850000Y-83185000D01*
X132080000Y-76200000D02*
X134302500Y-73977500D01*
X134302500Y-73977500D02*
X147309840Y-73977500D01*
D35*
X133350000Y-77470000D02*
X133350000Y-78740000D01*
X113030000Y-77797660D02*
X114300000Y-79067660D01*
D11*
X76200000Y-76835000D02*
X96212660Y-76835000D01*
X181917340Y-78740000D02*
X191759840Y-78740000D01*
D35*
X171450000Y-82242660D02*
X171450000Y-83512660D01*
X170180000Y-80972660D02*
X171450000Y-82242660D01*
D11*
X113030000Y-77797660D02*
X116850160Y-73977500D01*
X99070160Y-73977500D02*
X116850160Y-73977500D01*
X69850000Y-83185000D02*
X76200000Y-76835000D01*
X93980000Y-79067660D02*
X99070160Y-73977500D01*
D35*
X152400000Y-79067660D02*
X152400000Y-80337660D01*
X95250000Y-80337660D02*
X95250000Y-81607660D01*
X93980000Y-79067660D02*
X95250000Y-80337660D01*
D11*
X170180000Y-80962500D02*
X172402500Y-78740000D01*
X93980000Y-79067660D02*
X96212660Y-76835000D01*
D35*
X68580000Y-85100160D02*
X69850000Y-85100160D01*
D11*
X172402500Y-78740000D02*
X176403000Y-78740000D01*
X176403000Y-78740000D02*
X181917340Y-78740000D01*
X116850160Y-73977500D02*
X134302500Y-73977500D01*
D31*
X174625000Y-50165000D02*
X174625000Y-50005000D01*
D11*
X181610000Y-64465200D02*
X182880000Y-64465200D01*
X182880000Y-64465200D02*
X184150000Y-63195200D01*
X182499000Y-59690000D02*
X182880000Y-59690000D01*
X184150000Y-60960000D02*
X184150000Y-63195200D01*
X182880000Y-59690000D02*
X184150000Y-60960000D01*
X76200000Y-62560200D02*
X76369800Y-62560200D01*
X76369800Y-62560200D02*
X81265000Y-57665000D01*
X91624800Y-57665000D02*
X93980000Y-60020200D01*
X81265000Y-57665000D02*
X91624800Y-57665000D01*
D31*
X170180000Y-61925200D02*
X170180000Y-52070000D01*
X170180000Y-52070000D02*
X172085000Y-50165000D01*
D33*
X170025000Y-48845000D02*
X170425000Y-48845000D01*
X169694000Y-48514000D02*
X170025000Y-48845000D01*
X167132000Y-48514000D02*
X169418000Y-48514000D01*
X164948000Y-46330000D02*
X167132000Y-48514000D01*
X169418000Y-48514000D02*
X169694000Y-48514000D01*
X170425000Y-48845000D02*
X171745000Y-50165000D01*
X171745000Y-50165000D02*
X172085000Y-50165000D01*
X164450000Y-46330000D02*
X164948000Y-46330000D01*
D11*
X193992500Y-61925200D02*
X193825200Y-61925200D01*
X193825200Y-61925200D02*
X191590000Y-59690000D01*
X191590000Y-59690000D02*
X182499000Y-59690000D01*
X182499000Y-59690000D02*
X181914800Y-59690000D01*
D32*
X151130000Y-58747660D02*
X151130000Y-58310000D01*
D11*
X172415200Y-59690000D02*
X181914800Y-59690000D01*
X170180000Y-61925200D02*
X172415200Y-59690000D01*
D35*
X152400000Y-60017660D02*
X152400000Y-61287660D01*
X151130000Y-58747660D02*
X152400000Y-60017660D01*
X193992500Y-61925200D02*
X195262500Y-63195200D01*
X132080000Y-57150000D02*
X133350000Y-58420000D01*
X195262500Y-63195200D02*
X195262500Y-64465200D01*
D11*
X116840000Y-54927500D02*
X134302500Y-54927500D01*
X147309840Y-54927500D02*
X151130000Y-58747660D01*
X134302500Y-54927500D02*
X147309840Y-54927500D01*
X132080000Y-57150000D02*
X134302500Y-54927500D01*
X96202500Y-57785000D02*
X99060000Y-54927500D01*
X93980000Y-60007500D02*
X96202500Y-57785000D01*
X99060000Y-54927500D02*
X116840000Y-54927500D01*
D35*
X113030000Y-58747660D02*
X114300000Y-60017660D01*
X170180000Y-61925200D02*
X171450000Y-63195200D01*
D11*
X113030000Y-58737500D02*
X116840000Y-54927500D01*
D35*
X93980000Y-60020200D02*
X95250000Y-61290200D01*
X95250000Y-61290200D02*
X95250000Y-62560200D01*
D11*
X93980000Y-60020200D02*
X93980000Y-60007500D01*
D35*
X133350000Y-58420000D02*
X133350000Y-59690000D01*
X171450000Y-63195200D02*
X171450000Y-64465200D01*
D11*
X113030000Y-58747660D02*
X113030000Y-58737500D01*
D35*
X114300000Y-60017660D02*
X114300000Y-61287660D01*
X76200000Y-61290200D02*
X76200000Y-62560200D01*
X74930000Y-60020200D02*
X76200000Y-61290200D01*
D32*
X169545000Y-33401000D02*
X173101000Y-33401000D01*
X151003000Y-35433000D02*
X152019000Y-34417000D01*
X145796000Y-40640000D02*
X147447000Y-38989000D01*
X143637000Y-42799000D02*
X145796000Y-40640000D01*
X147447000Y-38989000D02*
X151003000Y-35433000D01*
X173101000Y-33401000D02*
X174625000Y-34925000D01*
X143722000Y-42714000D02*
X143637000Y-42799000D01*
X189850000Y-46330000D02*
X191603000Y-44577000D01*
X197231000Y-43561000D02*
X197231000Y-43307000D01*
X196215000Y-44577000D02*
X191603000Y-44577000D01*
X197231000Y-35941000D02*
X197231000Y-38989000D01*
X195961000Y-33147000D02*
X196469000Y-33147000D01*
X175895000Y-33147000D02*
X189357000Y-33147000D01*
X175895000Y-33147000D02*
X174625000Y-34417000D01*
X189357000Y-33147000D02*
X195961000Y-33147000D01*
X196469000Y-33147000D02*
X197231000Y-33909000D01*
X197231000Y-35941000D02*
X197231000Y-33909000D01*
X197231000Y-43307000D02*
X197231000Y-38989000D01*
X196215000Y-44577000D02*
X197231000Y-43561000D01*
X174625000Y-34925000D02*
X174625000Y-34417000D01*
X196469000Y-38227000D02*
X196469000Y-40005000D01*
X195453000Y-37211000D02*
X196215000Y-37973000D01*
X196215000Y-37973000D02*
X196469000Y-38227000D01*
X196469000Y-42799000D02*
X195707000Y-43561000D01*
X196469000Y-40005000D02*
X196469000Y-42799000D01*
D11*
X82550000Y-43815000D02*
X90170000Y-43815000D01*
X82550000Y-43815000D02*
X78740000Y-40005000D01*
X93980000Y-40005000D02*
X90170000Y-43815000D01*
X95123000Y-33782000D02*
X121793000Y-33782000D01*
X121793000Y-33782000D02*
X130175000Y-42164000D01*
X93980000Y-34925000D02*
X95123000Y-33782000D01*
X78740000Y-34925000D02*
X79375000Y-35560000D01*
X93345000Y-35560000D02*
X93980000Y-34925000D01*
X79375000Y-35560000D02*
X93345000Y-35560000D01*
D31*
X142468600Y-40259000D02*
X144321000Y-40259000D01*
X165227000Y-33147000D02*
X167005000Y-34925000D01*
X151433000Y-33147000D02*
X144321000Y-40259000D01*
X165227000Y-33147000D02*
X151433000Y-33147000D01*
X164465000Y-52197000D02*
X164465000Y-54945000D01*
X164465000Y-50165000D02*
X164465000Y-52197000D01*
X164465000Y-54945000D02*
X165495000Y-55975000D01*
D11*
X69115000Y-38315000D02*
X69115000Y-44975000D01*
X69115000Y-44975000D02*
X66465000Y-47625000D01*
X72465000Y-34925000D02*
X72465000Y-34965000D01*
X72465000Y-34965000D02*
X69115000Y-38315000D01*
X69115000Y-38315000D02*
X66465000Y-40965000D01*
X66465000Y-40965000D02*
X66465000Y-41225000D01*
X78740000Y-34925000D02*
X75125000Y-34925000D01*
X75125000Y-34925000D02*
X72465000Y-34925000D01*
X72465000Y-34925000D02*
X71165000Y-34925000D01*
X71165000Y-34925000D02*
X70965000Y-34925000D01*
X70965000Y-34925000D02*
X70465000Y-34925000D01*
X70465000Y-34925000D02*
X66465000Y-34925000D01*
X93980000Y-34925000D02*
X93980000Y-35080000D01*
X93980000Y-34925000D02*
X94025000Y-34925000D01*
D31*
X189665000Y-42465000D02*
X189850000Y-42280000D01*
X189850000Y-38710000D02*
X189850000Y-42280000D01*
X167005000Y-34925000D02*
X169545000Y-34925000D01*
X189850000Y-38710000D02*
X190110000Y-38710000D01*
X189865000Y-38725000D02*
X189850000Y-38710000D01*
D11*
X101092000Y-39751000D02*
X101092000Y-36472000D01*
X101092000Y-36472000D02*
X101085000Y-36465000D01*
X101092000Y-39751000D02*
X103886000Y-42545000D01*
X103886000Y-42545000D02*
X128397000Y-42545000D01*
X128397000Y-42545000D02*
X129667000Y-43815000D01*
X129667000Y-43815000D02*
X134239000Y-43815000D01*
X132816600Y-40259000D02*
X132816600Y-42392600D01*
X134239000Y-43815000D02*
X150114000Y-43815000D01*
X132816600Y-42392600D02*
X134239000Y-43815000D01*
D36*
X153035000Y-46736000D02*
X150114000Y-43815000D01*
D35*
X55565040Y-148953220D02*
X54950360Y-150642320D01*
D11*
X53878480Y-148338540D02*
X55565040Y-148953220D01*
X53340000Y-147187920D02*
X53878480Y-148338540D01*
D35*
X54950360Y-150642320D02*
X55488840Y-151792940D01*
D11*
X70606920Y-139136120D02*
X71142860Y-140289280D01*
X71142860Y-140289280D02*
X72829420Y-140901420D01*
D35*
X72217280Y-142590520D02*
X72753220Y-143741140D01*
X72829420Y-140901420D02*
X72217280Y-142590520D01*
D36*
X134315000Y-35215000D02*
X135976800Y-35215000D01*
X135976800Y-35215000D02*
X136842500Y-36080700D01*
X134315000Y-35215000D02*
X134165000Y-35365000D01*
X133815000Y-35715000D02*
X134165000Y-35365000D01*
X135229600Y-40259000D02*
X134165000Y-39194400D01*
X133765000Y-38794400D02*
X134165000Y-39194400D01*
X133165000Y-38194400D02*
X133765000Y-38794400D01*
X133815000Y-35715000D02*
X133165000Y-36365000D01*
X133165000Y-36365000D02*
X133165000Y-38194400D01*
X136842500Y-36080700D02*
X136842500Y-35542500D01*
X141965000Y-36265000D02*
X141965000Y-38349600D01*
X140665000Y-35265000D02*
X140965000Y-35265000D01*
X139065000Y-35265000D02*
X140665000Y-35265000D01*
X138442700Y-35887300D02*
X139065000Y-35265000D01*
X140965000Y-35265000D02*
X141965000Y-36265000D01*
X141965000Y-38349600D02*
X140055600Y-40259000D01*
X140055600Y-40259000D02*
X140055600Y-39874400D01*
X138442700Y-36080700D02*
X138442700Y-35887300D01*
X138442700Y-36080700D02*
X138449300Y-36080700D01*
X140055600Y-40259000D02*
X140271000Y-40259000D01*
X138442700Y-36080700D02*
X138442700Y-35787300D01*
X140055600Y-40259000D02*
X140055600Y-40174400D01*
D11*
X63765000Y-40065000D02*
X63765000Y-50665000D01*
X66365000Y-37465000D02*
X63765000Y-40065000D01*
X65245000Y-52145000D02*
X70665000Y-52145000D01*
X63765000Y-50665000D02*
X65245000Y-52145000D01*
X66465000Y-37465000D02*
X66365000Y-37465000D01*
X31015940Y-142885160D02*
X33698180Y-148640800D01*
X33393380Y-149484080D02*
X34465260Y-151785320D01*
D35*
X30248860Y-139738100D02*
X29634180Y-141427200D01*
D11*
X33698180Y-148640800D02*
X33393380Y-149484080D01*
X30172660Y-142577820D02*
X31015940Y-142885160D01*
D35*
X29634180Y-141427200D02*
X30172660Y-142577820D01*
X46901100Y-133375400D02*
X47437040Y-134526020D01*
X47513240Y-131688840D02*
X46901100Y-133375400D01*
D11*
X50965100Y-140589000D02*
X50657760Y-141432280D01*
X47437040Y-134526020D02*
X48280320Y-134833360D01*
X48280320Y-134833360D02*
X50965100Y-140589000D01*
X50657760Y-141432280D02*
X51729640Y-143736060D01*
X38221920Y-159842200D02*
X39067740Y-160149540D01*
X39067740Y-160149540D02*
X41749980Y-165905180D01*
D35*
X37685980Y-158691580D02*
X38221920Y-159842200D01*
X38300660Y-157005020D02*
X37685980Y-158691580D01*
D11*
X41442640Y-166748460D02*
X42517060Y-169052240D01*
X41749980Y-165905180D02*
X41442640Y-166748460D01*
D35*
X77774800Y-157515560D02*
X79461360Y-158127700D01*
D11*
X80919320Y-156748480D02*
X86674960Y-154063700D01*
D35*
X89778840Y-165229540D02*
X90393520Y-163540440D01*
D11*
X89011760Y-162082480D02*
X89857580Y-162389820D01*
X87518240Y-154371040D02*
X86598760Y-156903420D01*
D35*
X90393520Y-163540440D02*
X89857580Y-162389820D01*
D11*
X86674960Y-154063700D02*
X87518240Y-154371040D01*
X86598760Y-156903420D02*
X89011760Y-162082480D01*
D35*
X79461360Y-158127700D02*
X80611980Y-157591760D01*
D11*
X80611980Y-157591760D02*
X80919320Y-156748480D01*
X87518240Y-154371040D02*
X89822020Y-153299160D01*
X63654940Y-164800280D02*
X69410580Y-162115500D01*
X69410580Y-162115500D02*
X70253860Y-162422840D01*
X70253860Y-162422840D02*
X72555100Y-161348420D01*
D35*
X62196980Y-166179500D02*
X63347600Y-165643560D01*
X72514460Y-173278800D02*
X73129140Y-171592240D01*
X73129140Y-171592240D02*
X72590660Y-170441620D01*
X60507880Y-165564820D02*
X62196980Y-166179500D01*
D11*
X63347600Y-165643560D02*
X63654940Y-164800280D01*
X70253860Y-162422840D02*
X69331840Y-164955220D01*
X71747380Y-170134280D02*
X72590660Y-170441620D01*
X69331840Y-164955220D02*
X71747380Y-170134280D01*
X46273720Y-177109120D02*
X47117000Y-177416460D01*
X47117000Y-177416460D02*
X49801780Y-183169560D01*
X49801780Y-183169560D02*
X49494440Y-184015380D01*
X49494440Y-184015380D02*
X50566320Y-186316620D01*
D35*
X46349920Y-174269400D02*
X45737780Y-175955960D01*
X45737780Y-175955960D02*
X46273720Y-177109120D01*
D11*
X107315000Y-138122660D02*
X107315000Y-144472660D01*
D35*
X106680000Y-136217660D02*
X106680000Y-137487660D01*
X107950000Y-134947660D02*
X106680000Y-136217660D01*
D11*
X106680000Y-145107660D02*
X106680000Y-147647660D01*
X106680000Y-137487660D02*
X107315000Y-138122660D01*
X107315000Y-144472660D02*
X106680000Y-145107660D01*
D35*
X125730000Y-134620000D02*
X125730000Y-135890000D01*
X127000000Y-133350000D02*
X125730000Y-134620000D01*
D11*
X126365000Y-136525000D02*
X126365000Y-142875000D01*
X126365000Y-142875000D02*
X125730000Y-143510000D01*
X125730000Y-135890000D02*
X126365000Y-136525000D01*
X125730000Y-143510000D02*
X125730000Y-146050000D01*
D35*
X146050000Y-134947660D02*
X144780000Y-136217660D01*
D11*
X144780000Y-145107660D02*
X144780000Y-147647660D01*
X145415000Y-138122660D02*
X145415000Y-144472660D01*
X145415000Y-144472660D02*
X144780000Y-145107660D01*
X144780000Y-137487660D02*
X145415000Y-138122660D01*
D35*
X144780000Y-136217660D02*
X144780000Y-137487660D01*
X165100000Y-138122660D02*
X163830000Y-139392660D01*
D11*
X164465000Y-147647660D02*
X163830000Y-148282660D01*
D35*
X163830000Y-139392660D02*
X163830000Y-140662660D01*
D11*
X164465000Y-141297660D02*
X164465000Y-147647660D01*
X163830000Y-140662660D02*
X164465000Y-141297660D01*
X163830000Y-148282660D02*
X163830000Y-150822660D01*
D35*
X182880000Y-139392660D02*
X182880000Y-140662660D01*
D11*
X183515000Y-141297660D02*
X183515000Y-147647660D01*
D35*
X184150000Y-138122660D02*
X182880000Y-139392660D01*
D11*
X183515000Y-147647660D02*
X182880000Y-148282660D01*
X182880000Y-140662660D02*
X183515000Y-141297660D01*
X182880000Y-148282660D02*
X182880000Y-150822660D01*
X77470000Y-121295160D02*
X80010000Y-121295160D01*
D35*
X68580000Y-121295160D02*
X69850000Y-121295160D01*
D11*
X69850000Y-121295160D02*
X70495160Y-120650000D01*
D35*
X67310000Y-120025160D02*
X68580000Y-121295160D01*
D11*
X76824840Y-120650000D02*
X77470000Y-121295160D01*
X70495160Y-120650000D02*
X76824840Y-120650000D01*
D35*
X87630000Y-118437660D02*
X87630000Y-119707660D01*
D11*
X88265000Y-120342660D02*
X88265000Y-126692660D01*
X87630000Y-119707660D02*
X88265000Y-120342660D01*
X87630000Y-127327660D02*
X88265000Y-126692660D01*
D35*
X88900000Y-117167660D02*
X87630000Y-118437660D01*
D11*
X87630000Y-127327660D02*
X87630000Y-129867660D01*
D35*
X106680000Y-117167660D02*
X106680000Y-118437660D01*
D11*
X106680000Y-118437660D02*
X107315000Y-119072660D01*
X107315000Y-119072660D02*
X107315000Y-125422660D01*
X107315000Y-125422660D02*
X106680000Y-126057660D01*
D35*
X107950000Y-115897660D02*
X106680000Y-117167660D01*
D11*
X106680000Y-126057660D02*
X106680000Y-128597660D01*
D35*
X125730000Y-115570000D02*
X125730000Y-116840000D01*
D11*
X126365000Y-117475000D02*
X126365000Y-123825000D01*
X126365000Y-123825000D02*
X125730000Y-124460000D01*
D35*
X127000000Y-114300000D02*
X125730000Y-115570000D01*
D11*
X125730000Y-124460000D02*
X125730000Y-127000000D01*
X125730000Y-116840000D02*
X126365000Y-117475000D01*
X144780000Y-126057660D02*
X144780000Y-128597660D01*
X145415000Y-119072660D02*
X145415000Y-125422660D01*
X145415000Y-125422660D02*
X144780000Y-126057660D01*
D35*
X146050000Y-115897660D02*
X144780000Y-117167660D01*
D11*
X144780000Y-118437660D02*
X145415000Y-119072660D01*
D35*
X144780000Y-117167660D02*
X144780000Y-118437660D01*
X163830000Y-120342660D02*
X163830000Y-121612660D01*
D11*
X164465000Y-128597660D02*
X163830000Y-129232660D01*
X164465000Y-122247660D02*
X164465000Y-128597660D01*
X163830000Y-129232660D02*
X163830000Y-131772660D01*
X163830000Y-121612660D02*
X164465000Y-122247660D01*
D35*
X165100000Y-119072660D02*
X163830000Y-120342660D01*
D11*
X187314840Y-121285000D02*
X187642500Y-121612660D01*
D35*
X182880000Y-127962660D02*
X184150000Y-127962660D01*
D11*
X187642500Y-129232660D02*
X187642500Y-131772660D01*
X184150000Y-127962660D02*
X185420000Y-129232660D01*
D35*
X188912500Y-119072660D02*
X187642500Y-120342660D01*
X181610000Y-126692660D02*
X182880000Y-127962660D01*
D11*
X183832500Y-122872500D02*
X185420000Y-121285000D01*
X183832500Y-127645160D02*
X183832500Y-122872500D01*
X185420000Y-129232660D02*
X187642500Y-129232660D01*
X184150000Y-127962660D02*
X183832500Y-127645160D01*
D35*
X187642500Y-120342660D02*
X187642500Y-121612660D01*
D11*
X185420000Y-121285000D02*
X187314840Y-121285000D01*
D35*
X88900000Y-98117660D02*
X87630000Y-99387660D01*
D11*
X87630000Y-108277660D02*
X87630000Y-110817660D01*
X87630000Y-100657660D02*
X88265000Y-101292660D01*
D35*
X87630000Y-99387660D02*
X87630000Y-100657660D01*
D11*
X88265000Y-101292660D02*
X88265000Y-107642660D01*
X88265000Y-107642660D02*
X87630000Y-108277660D01*
X107315000Y-106372660D02*
X106680000Y-107007660D01*
X106680000Y-99387660D02*
X107315000Y-100022660D01*
D35*
X106680000Y-98117660D02*
X106680000Y-99387660D01*
X107950000Y-96847660D02*
X106680000Y-98117660D01*
D11*
X107315000Y-100022660D02*
X107315000Y-106372660D01*
X106680000Y-107007660D02*
X106680000Y-109547660D01*
D35*
X127000000Y-95250000D02*
X125730000Y-96520000D01*
D11*
X125730000Y-105410000D02*
X125730000Y-107950000D01*
X126365000Y-104775000D02*
X125730000Y-105410000D01*
X125730000Y-97790000D02*
X126365000Y-98425000D01*
X126365000Y-98425000D02*
X126365000Y-104775000D01*
D35*
X125730000Y-96520000D02*
X125730000Y-97790000D01*
D11*
X145415000Y-100022660D02*
X145415000Y-106372660D01*
X145415000Y-106372660D02*
X144780000Y-107007660D01*
D35*
X144780000Y-98117660D02*
X144780000Y-99387660D01*
X146050000Y-96847660D02*
X144780000Y-98117660D01*
D11*
X144780000Y-107007660D02*
X144780000Y-109547660D01*
X144780000Y-99387660D02*
X145415000Y-100022660D01*
D35*
X163830000Y-101292660D02*
X163830000Y-102562660D01*
D11*
X163830000Y-102562660D02*
X164465000Y-103197660D01*
X163830000Y-110182660D02*
X163830000Y-112722660D01*
X164465000Y-109547660D02*
X163830000Y-110182660D01*
D35*
X165100000Y-100022660D02*
X163830000Y-101292660D01*
D11*
X164465000Y-103197660D02*
X164465000Y-109547660D01*
D35*
X181610000Y-107642660D02*
X182880000Y-108912660D01*
D11*
X185420000Y-102235000D02*
X187314840Y-102235000D01*
X187314840Y-102235000D02*
X187642500Y-102562660D01*
D35*
X182880000Y-108912660D02*
X184150000Y-108912660D01*
D11*
X184150000Y-108912660D02*
X183832500Y-108595160D01*
D35*
X188912500Y-100022660D02*
X187642500Y-101292660D01*
D11*
X187642500Y-110182660D02*
X187642500Y-112722660D01*
D35*
X187642500Y-101292660D02*
X187642500Y-102562660D01*
D11*
X184150000Y-108912660D02*
X185420000Y-110182660D01*
X183832500Y-108595160D02*
X183832500Y-103822500D01*
X183832500Y-103822500D02*
X185420000Y-102235000D01*
X185420000Y-110182660D02*
X187642500Y-110182660D01*
X76824840Y-92075000D02*
X77470000Y-92720160D01*
X70495160Y-92075000D02*
X76824840Y-92075000D01*
D35*
X67310000Y-91450160D02*
X68580000Y-92720160D01*
X68580000Y-92720160D02*
X69850000Y-92720160D01*
D11*
X69850000Y-92720160D02*
X70495160Y-92075000D01*
X77470000Y-92720160D02*
X80010000Y-92720160D01*
D35*
X88900000Y-79067660D02*
X87630000Y-80337660D01*
D11*
X88265000Y-82242660D02*
X88265000Y-88592660D01*
X87630000Y-81607660D02*
X88265000Y-82242660D01*
X87630000Y-89227660D02*
X87630000Y-91767660D01*
D35*
X87630000Y-80337660D02*
X87630000Y-81607660D01*
D11*
X88265000Y-88592660D02*
X87630000Y-89227660D01*
D35*
X107950000Y-77797660D02*
X106680000Y-79067660D01*
X106680000Y-79067660D02*
X106680000Y-80337660D01*
D11*
X106680000Y-87957660D02*
X106680000Y-90497660D01*
X106680000Y-80337660D02*
X107315000Y-80972660D01*
X107315000Y-80972660D02*
X107315000Y-87322660D01*
X107315000Y-87322660D02*
X106680000Y-87957660D01*
D35*
X127000000Y-76200000D02*
X125730000Y-77470000D01*
D11*
X125730000Y-78740000D02*
X126365000Y-79375000D01*
X126365000Y-85725000D02*
X125730000Y-86360000D01*
X125730000Y-86360000D02*
X125730000Y-88900000D01*
X126365000Y-79375000D02*
X126365000Y-85725000D01*
D35*
X125730000Y-77470000D02*
X125730000Y-78740000D01*
D11*
X144780000Y-80337660D02*
X145415000Y-80972660D01*
D35*
X144780000Y-79067660D02*
X144780000Y-80337660D01*
D11*
X145415000Y-87322660D02*
X144780000Y-87957660D01*
D35*
X146050000Y-77797660D02*
X144780000Y-79067660D01*
D11*
X145415000Y-80972660D02*
X145415000Y-87322660D01*
X144780000Y-87957660D02*
X144780000Y-90497660D01*
D35*
X163830000Y-82242660D02*
X163830000Y-83512660D01*
X165100000Y-80972660D02*
X163830000Y-82242660D01*
D11*
X164465000Y-90497660D02*
X163830000Y-91132660D01*
X163830000Y-83512660D02*
X164465000Y-84147660D01*
X163830000Y-91132660D02*
X163830000Y-93672660D01*
X164465000Y-84147660D02*
X164465000Y-90497660D01*
D35*
X181610000Y-88592660D02*
X182880000Y-89862660D01*
D11*
X184150000Y-89862660D02*
X183832500Y-89545160D01*
D35*
X182880000Y-89862660D02*
X184150000Y-89862660D01*
D11*
X184150000Y-89862660D02*
X185420000Y-91132660D01*
X187642500Y-91132660D02*
X187642500Y-93672660D01*
X185420000Y-91132660D02*
X187642500Y-91132660D01*
X183832500Y-84772500D02*
X185420000Y-83185000D01*
X185420000Y-83185000D02*
X187314840Y-83185000D01*
D35*
X188912500Y-80972660D02*
X187642500Y-82242660D01*
X187642500Y-82242660D02*
X187642500Y-83512660D01*
D11*
X183832500Y-89545160D02*
X183832500Y-84772500D01*
X187314840Y-83185000D02*
X187642500Y-83512660D01*
X69215000Y-69545200D02*
X68580000Y-70180200D01*
D35*
X69850000Y-60020200D02*
X68580000Y-61290200D01*
D11*
X68580000Y-70180200D02*
X68580000Y-72720200D01*
X68580000Y-62560200D02*
X69215000Y-63195200D01*
X69215000Y-63195200D02*
X69215000Y-69545200D01*
D35*
X68580000Y-61290200D02*
X68580000Y-62560200D01*
X88900000Y-60020200D02*
X87630000Y-61290200D01*
D11*
X88265000Y-63195200D02*
X88265000Y-69545200D01*
X87630000Y-62560200D02*
X88265000Y-63195200D01*
D35*
X87630000Y-61290200D02*
X87630000Y-62560200D01*
D11*
X88265000Y-69545200D02*
X87630000Y-70180200D01*
X87630000Y-70180200D02*
X87630000Y-72720200D01*
X106680000Y-68907660D02*
X106680000Y-71447660D01*
X106680000Y-61287660D02*
X107315000Y-61922660D01*
X107315000Y-61922660D02*
X107315000Y-68272660D01*
D35*
X106680000Y-60017660D02*
X106680000Y-61287660D01*
D11*
X107315000Y-68272660D02*
X106680000Y-68907660D01*
D35*
X107950000Y-58747660D02*
X106680000Y-60017660D01*
X127000000Y-57150000D02*
X125730000Y-58420000D01*
D11*
X125730000Y-67310000D02*
X125730000Y-69850000D01*
X126365000Y-60325000D02*
X126365000Y-66675000D01*
X126365000Y-66675000D02*
X125730000Y-67310000D01*
X125730000Y-59690000D02*
X126365000Y-60325000D01*
D35*
X125730000Y-58420000D02*
X125730000Y-59690000D01*
D11*
X145415000Y-68272660D02*
X144780000Y-68907660D01*
X144780000Y-68907660D02*
X144780000Y-71447660D01*
D35*
X146050000Y-58747660D02*
X144780000Y-60017660D01*
X144780000Y-60017660D02*
X144780000Y-61287660D01*
D11*
X144780000Y-61287660D02*
X145415000Y-61922660D01*
X145415000Y-61922660D02*
X145415000Y-68272660D01*
X163830000Y-72085200D02*
X163830000Y-74625200D01*
D35*
X163830000Y-63195200D02*
X163830000Y-64465200D01*
D11*
X163830000Y-64465200D02*
X164465000Y-65100200D01*
D35*
X165100000Y-61925200D02*
X163830000Y-63195200D01*
D11*
X164465000Y-65100200D02*
X164465000Y-71450200D01*
X164465000Y-71450200D02*
X163830000Y-72085200D01*
D35*
X188912500Y-61925200D02*
X187642500Y-63195200D01*
D11*
X185420000Y-72085200D02*
X187642500Y-72085200D01*
X184150000Y-70815200D02*
X183832500Y-70497700D01*
D35*
X182880000Y-70815200D02*
X184150000Y-70815200D01*
D11*
X184150000Y-70815200D02*
X185420000Y-72085200D01*
D35*
X187642500Y-63195200D02*
X187642500Y-64465200D01*
D11*
X187312300Y-64135000D02*
X187642500Y-64465200D01*
X185420000Y-64135000D02*
X187312300Y-64135000D01*
X187642500Y-72085200D02*
X187642500Y-74625200D01*
D35*
X181610000Y-69545200D02*
X182880000Y-70815200D01*
D11*
X183832500Y-65722500D02*
X185420000Y-64135000D01*
X183832500Y-70497700D02*
X183832500Y-65722500D01*
D31*
X184770000Y-38710000D02*
X184930000Y-38710000D01*
D32*
X166990000Y-38710000D02*
X166990000Y-38520000D01*
X167020000Y-38740000D02*
X166990000Y-38710000D01*
D37*
X133995160Y-32230060D02*
X141290040Y-32230060D01*
M02*
