G04 #@! TF.FileFunction,Legend,Top*
%FSLAX46Y46*%
G04 Gerber Fmt 4.6, Leading zero omitted, Abs format (unit mm)*
G04 Created by KiCad (PCBNEW 4.0.1-stable) date 6/16/2016 2:14:51 PM*
%MOMM*%
G01*
G04 APERTURE LIST*
%ADD10C,0.150000*%
%ADD11C,1.270000*%
%ADD12C,0.203200*%
%ADD13C,0.508000*%
%ADD14C,0.381000*%
%ADD15C,2.540000*%
%ADD16C,0.304800*%
%ADD17C,0.254000*%
%ADD18C,0.457200*%
G04 APERTURE END LIST*
D10*
D11*
X70015095Y-54463095D02*
X70015095Y-49383095D01*
X72143857Y-49383095D01*
X72676048Y-49625000D01*
X72942143Y-49866905D01*
X73208238Y-50350714D01*
X73208238Y-51076429D01*
X72942143Y-51560238D01*
X72676048Y-51802143D01*
X72143857Y-52044048D01*
X70015095Y-52044048D01*
X75603095Y-54463095D02*
X75603095Y-51076429D01*
X75603095Y-52044048D02*
X75869190Y-51560238D01*
X76135286Y-51318333D01*
X76667476Y-51076429D01*
X77199667Y-51076429D01*
X81191095Y-54221190D02*
X80658905Y-54463095D01*
X79594524Y-54463095D01*
X79062333Y-54221190D01*
X78796238Y-53737381D01*
X78796238Y-51802143D01*
X79062333Y-51318333D01*
X79594524Y-51076429D01*
X80658905Y-51076429D01*
X81191095Y-51318333D01*
X81457190Y-51802143D01*
X81457190Y-52285952D01*
X78796238Y-52769762D01*
X83585952Y-54221190D02*
X84118142Y-54463095D01*
X85182523Y-54463095D01*
X85714714Y-54221190D01*
X85980809Y-53737381D01*
X85980809Y-53495476D01*
X85714714Y-53011667D01*
X85182523Y-52769762D01*
X84384238Y-52769762D01*
X83852047Y-52527857D01*
X83585952Y-52044048D01*
X83585952Y-51802143D01*
X83852047Y-51318333D01*
X84384238Y-51076429D01*
X85182523Y-51076429D01*
X85714714Y-51318333D01*
X90504428Y-54221190D02*
X89972238Y-54463095D01*
X88907857Y-54463095D01*
X88375666Y-54221190D01*
X88109571Y-53737381D01*
X88109571Y-51802143D01*
X88375666Y-51318333D01*
X88907857Y-51076429D01*
X89972238Y-51076429D01*
X90504428Y-51318333D01*
X90770523Y-51802143D01*
X90770523Y-52285952D01*
X88109571Y-52769762D01*
X93165380Y-51076429D02*
X93165380Y-54463095D01*
X93165380Y-51560238D02*
X93431475Y-51318333D01*
X93963666Y-51076429D01*
X94761952Y-51076429D01*
X95294142Y-51318333D01*
X95560237Y-51802143D01*
X95560237Y-54463095D01*
X97422904Y-51076429D02*
X99551666Y-51076429D01*
X98221190Y-49383095D02*
X98221190Y-53737381D01*
X98487285Y-54221190D01*
X99019476Y-54463095D01*
X99551666Y-54463095D01*
X105671857Y-54463095D02*
X105671857Y-49383095D01*
X105671857Y-51318333D02*
X106204048Y-51076429D01*
X107268429Y-51076429D01*
X107800619Y-51318333D01*
X108066714Y-51560238D01*
X108332810Y-52044048D01*
X108332810Y-53495476D01*
X108066714Y-53979286D01*
X107800619Y-54221190D01*
X107268429Y-54463095D01*
X106204048Y-54463095D01*
X105671857Y-54221190D01*
X110195477Y-51076429D02*
X111525953Y-54463095D01*
X112856429Y-51076429D02*
X111525953Y-54463095D01*
X110993762Y-55672619D01*
X110727667Y-55914524D01*
X110195477Y-56156429D01*
X119242715Y-54463095D02*
X119242715Y-49383095D01*
X122435858Y-54463095D02*
X120041001Y-51560238D01*
X122435858Y-49383095D02*
X119242715Y-52285952D01*
X124830715Y-53979286D02*
X125096810Y-54221190D01*
X124830715Y-54463095D01*
X124564620Y-54221190D01*
X124830715Y-53979286D01*
X124830715Y-54463095D01*
X126693381Y-49383095D02*
X129886524Y-49383095D01*
X128289953Y-54463095D02*
X128289953Y-49383095D01*
X131749191Y-53979286D02*
X132015286Y-54221190D01*
X131749191Y-54463095D01*
X131483096Y-54221190D01*
X131749191Y-53979286D01*
X131749191Y-54463095D01*
X134410143Y-51802143D02*
X136272810Y-51802143D01*
X137071096Y-54463095D02*
X134410143Y-54463095D01*
X134410143Y-49383095D01*
X137071096Y-49383095D01*
X139465953Y-53979286D02*
X139732048Y-54221190D01*
X139465953Y-54463095D01*
X139199858Y-54221190D01*
X139465953Y-53979286D01*
X139465953Y-54463095D01*
X145320048Y-53979286D02*
X145053953Y-54221190D01*
X144255667Y-54463095D01*
X143723477Y-54463095D01*
X142925191Y-54221190D01*
X142393000Y-53737381D01*
X142126905Y-53253571D01*
X141860810Y-52285952D01*
X141860810Y-51560238D01*
X142126905Y-50592619D01*
X142393000Y-50108810D01*
X142925191Y-49625000D01*
X143723477Y-49383095D01*
X144255667Y-49383095D01*
X145053953Y-49625000D01*
X145320048Y-49866905D01*
X147714905Y-53979286D02*
X147981000Y-54221190D01*
X147714905Y-54463095D01*
X147448810Y-54221190D01*
X147714905Y-53979286D01*
X147714905Y-54463095D01*
D12*
X129159000Y-35003619D02*
X129159000Y-33987619D01*
X129763762Y-35003619D02*
X129763762Y-33987619D01*
X130066143Y-33987619D01*
X130247571Y-34036000D01*
X130368524Y-34132762D01*
X130429000Y-34229524D01*
X130489476Y-34423048D01*
X130489476Y-34568190D01*
X130429000Y-34761714D01*
X130368524Y-34858476D01*
X130247571Y-34955238D01*
X130066143Y-35003619D01*
X129763762Y-35003619D01*
X136549191Y-42623619D02*
X136549191Y-41607619D01*
X136851572Y-41607619D01*
X137033000Y-41656000D01*
X137153953Y-41752762D01*
X137214429Y-41849524D01*
X137274905Y-42043048D01*
X137274905Y-42188190D01*
X137214429Y-42381714D01*
X137153953Y-42478476D01*
X137033000Y-42575238D01*
X136851572Y-42623619D01*
X136549191Y-42623619D01*
X137819191Y-42236571D02*
X138786810Y-42236571D01*
X138303000Y-42623619D02*
X138303000Y-41849524D01*
X131239381Y-39878000D02*
X131118429Y-39829619D01*
X130937000Y-39829619D01*
X130755572Y-39878000D01*
X130634619Y-39974762D01*
X130574143Y-40071524D01*
X130513667Y-40265048D01*
X130513667Y-40410190D01*
X130574143Y-40603714D01*
X130634619Y-40700476D01*
X130755572Y-40797238D01*
X130937000Y-40845619D01*
X131057952Y-40845619D01*
X131239381Y-40797238D01*
X131299857Y-40748857D01*
X131299857Y-40410190D01*
X131057952Y-40410190D01*
X131844143Y-40845619D02*
X131844143Y-39829619D01*
X132569857Y-40845619D01*
X132569857Y-39829619D01*
X133174619Y-40845619D02*
X133174619Y-39829619D01*
X133477000Y-39829619D01*
X133658428Y-39878000D01*
X133779381Y-39974762D01*
X133839857Y-40071524D01*
X133900333Y-40265048D01*
X133900333Y-40410190D01*
X133839857Y-40603714D01*
X133779381Y-40700476D01*
X133658428Y-40797238D01*
X133477000Y-40845619D01*
X133174619Y-40845619D01*
X142252096Y-39829619D02*
X141647334Y-39829619D01*
X141586858Y-40313429D01*
X141647334Y-40265048D01*
X141768286Y-40216667D01*
X142070667Y-40216667D01*
X142191620Y-40265048D01*
X142252096Y-40313429D01*
X142312572Y-40410190D01*
X142312572Y-40652095D01*
X142252096Y-40748857D01*
X142191620Y-40797238D01*
X142070667Y-40845619D01*
X141768286Y-40845619D01*
X141647334Y-40797238D01*
X141586858Y-40748857D01*
X142675429Y-39829619D02*
X143098763Y-40845619D01*
X143522096Y-39829619D01*
X145182651Y-35003619D02*
X145182651Y-33987619D01*
X145485032Y-33987619D01*
X145666460Y-34036000D01*
X145787413Y-34132762D01*
X145847889Y-34229524D01*
X145908365Y-34423048D01*
X145908365Y-34568190D01*
X145847889Y-34761714D01*
X145787413Y-34858476D01*
X145666460Y-34955238D01*
X145485032Y-35003619D01*
X145182651Y-35003619D01*
X146452651Y-34616571D02*
X147420270Y-34616571D01*
D13*
X69366190Y-99956257D02*
X68519524Y-98504829D01*
X67914762Y-99956257D02*
X67914762Y-96908257D01*
X68882381Y-96908257D01*
X69124286Y-97053400D01*
X69245238Y-97198543D01*
X69366190Y-97488829D01*
X69366190Y-97924257D01*
X69245238Y-98214543D01*
X69124286Y-98359686D01*
X68882381Y-98504829D01*
X67914762Y-98504829D01*
X70454762Y-99956257D02*
X70454762Y-96908257D01*
X72994762Y-97053400D02*
X72752857Y-96908257D01*
X72390000Y-96908257D01*
X72027143Y-97053400D01*
X71785238Y-97343686D01*
X71664286Y-97633971D01*
X71543334Y-98214543D01*
X71543334Y-98649971D01*
X71664286Y-99230543D01*
X71785238Y-99520829D01*
X72027143Y-99811114D01*
X72390000Y-99956257D01*
X72631905Y-99956257D01*
X72994762Y-99811114D01*
X73115714Y-99665971D01*
X73115714Y-98649971D01*
X72631905Y-98649971D01*
X74204286Y-99956257D02*
X74204286Y-96908257D01*
X74204286Y-98359686D02*
X75655714Y-98359686D01*
X75655714Y-99956257D02*
X75655714Y-96908257D01*
X76502381Y-96908257D02*
X77953809Y-96908257D01*
X77228095Y-99956257D02*
X77228095Y-96908257D01*
X67914762Y-104731457D02*
X67914762Y-101683457D01*
X67914762Y-103134886D02*
X69366190Y-103134886D01*
X69366190Y-104731457D02*
X69366190Y-101683457D01*
X70454762Y-103860600D02*
X71664285Y-103860600D01*
X70212857Y-104731457D02*
X71059523Y-101683457D01*
X71906190Y-104731457D01*
X72752857Y-104731457D02*
X72752857Y-101683457D01*
X74204285Y-104731457D01*
X74204285Y-101683457D01*
X75413809Y-104731457D02*
X75413809Y-101683457D01*
X76018571Y-101683457D01*
X76381428Y-101828600D01*
X76623333Y-102118886D01*
X76744285Y-102409171D01*
X76865237Y-102989743D01*
X76865237Y-103425171D01*
X76744285Y-104005743D01*
X76623333Y-104296029D01*
X76381428Y-104586314D01*
X76018571Y-104731457D01*
X75413809Y-104731457D01*
D14*
X141493240Y-28481020D02*
X141493240Y-37480240D01*
X141493240Y-37480240D02*
X133791960Y-37480240D01*
X133791960Y-37480240D02*
X133791960Y-28481020D01*
X133791960Y-28481020D02*
X141493240Y-28481020D01*
X152050590Y-44055462D02*
X147560462Y-48545590D01*
X147560462Y-48545590D02*
X145764410Y-46749538D01*
X145764410Y-46749538D02*
X150254538Y-42259410D01*
X150254538Y-42259410D02*
X152050590Y-44055462D01*
X145315398Y-48994602D02*
X146662436Y-47647564D01*
X152499602Y-41810398D02*
X151152564Y-43157436D01*
X150145590Y-42150462D02*
X145655462Y-46640590D01*
X145655462Y-46640590D02*
X143859410Y-44844538D01*
X143859410Y-44844538D02*
X148349538Y-40354410D01*
X148349538Y-40354410D02*
X150145590Y-42150462D01*
X143410398Y-47089602D02*
X144757436Y-45742564D01*
X150594602Y-39905398D02*
X149247564Y-41252436D01*
X128587500Y-48260000D02*
X122237500Y-48260000D01*
X122237500Y-48260000D02*
X122237500Y-45720000D01*
X122237500Y-45720000D02*
X128587500Y-45720000D01*
X128587500Y-45720000D02*
X128587500Y-48260000D01*
X120332500Y-46990000D02*
X122237500Y-46990000D01*
X130492500Y-46990000D02*
X128587500Y-46990000D01*
X104062962Y-37179410D02*
X108553090Y-41669538D01*
X108553090Y-41669538D02*
X106757038Y-43465590D01*
X106757038Y-43465590D02*
X102266910Y-38975462D01*
X102266910Y-38975462D02*
X104062962Y-37179410D01*
X109002102Y-43914602D02*
X107655064Y-42567564D01*
X101817898Y-36730398D02*
X103164936Y-38077436D01*
X100887962Y-38449410D02*
X105378090Y-42939538D01*
X105378090Y-42939538D02*
X103582038Y-44735590D01*
X103582038Y-44735590D02*
X99091910Y-40245462D01*
X99091910Y-40245462D02*
X100887962Y-38449410D01*
X105827102Y-45184602D02*
X104480064Y-43837564D01*
X98642898Y-38000398D02*
X99989936Y-39347436D01*
D15*
X78740000Y-40005000D02*
X78740000Y-37465000D01*
X93980000Y-37465000D02*
X93980000Y-34925000D01*
D14*
X160655000Y-33655000D02*
X160655000Y-51435000D01*
X160655000Y-51435000D02*
X191135000Y-51435000D01*
X191135000Y-51435000D02*
X191135000Y-33655000D01*
X191135000Y-33655000D02*
X160655000Y-33655000D01*
X160655000Y-48895000D02*
X163195000Y-48895000D01*
X163195000Y-48895000D02*
X163195000Y-51435000D01*
X91109800Y-30480000D02*
X91109800Y-42545000D01*
X91109800Y-42545000D02*
X81508600Y-42545000D01*
X81508600Y-42545000D02*
X81508600Y-30480000D01*
X66040000Y-58750200D02*
X67818000Y-58750200D01*
X76962000Y-58750200D02*
X78740000Y-58750200D01*
X78740000Y-58750200D02*
X78740000Y-60528200D01*
X78740000Y-69672200D02*
X78740000Y-71450200D01*
X78740000Y-71450200D02*
X76962000Y-71450200D01*
X67818000Y-71450200D02*
X66040000Y-71450200D01*
X66040000Y-71450200D02*
X66040000Y-69672200D01*
X66040000Y-60528200D02*
X66040000Y-58750200D01*
X66040000Y-95260160D02*
X66040000Y-93482160D01*
X66040000Y-84338160D02*
X66040000Y-82560160D01*
X66040000Y-82560160D02*
X67818000Y-82560160D01*
X76962000Y-82560160D02*
X78740000Y-82560160D01*
X78740000Y-82560160D02*
X78740000Y-84338160D01*
X78740000Y-93482160D02*
X78740000Y-95260160D01*
X78740000Y-95260160D02*
X76962000Y-95260160D01*
X67818000Y-95260160D02*
X66040000Y-95260160D01*
X66040000Y-123835160D02*
X66040000Y-122057160D01*
X66040000Y-112913160D02*
X66040000Y-111135160D01*
X66040000Y-111135160D02*
X67818000Y-111135160D01*
X76962000Y-111135160D02*
X78740000Y-111135160D01*
X78740000Y-111135160D02*
X78740000Y-112913160D01*
X78740000Y-122057160D02*
X78740000Y-123835160D01*
X78740000Y-123835160D02*
X76962000Y-123835160D01*
X67818000Y-123835160D02*
X66040000Y-123835160D01*
X180340000Y-136852660D02*
X182118000Y-136852660D01*
X191262000Y-136852660D02*
X193040000Y-136852660D01*
X193040000Y-136852660D02*
X193040000Y-138630660D01*
X193040000Y-147774660D02*
X193040000Y-149552660D01*
X193040000Y-149552660D02*
X191262000Y-149552660D01*
X182118000Y-149552660D02*
X180340000Y-149552660D01*
X180340000Y-149552660D02*
X180340000Y-147774660D01*
X180340000Y-138630660D02*
X180340000Y-136852660D01*
X85090000Y-77797660D02*
X86868000Y-77797660D01*
X96012000Y-77797660D02*
X97790000Y-77797660D01*
X97790000Y-77797660D02*
X97790000Y-79575660D01*
X97790000Y-88719660D02*
X97790000Y-90497660D01*
X97790000Y-90497660D02*
X96012000Y-90497660D01*
X86868000Y-90497660D02*
X85090000Y-90497660D01*
X85090000Y-90497660D02*
X85090000Y-88719660D01*
X85090000Y-79575660D02*
X85090000Y-77797660D01*
X34309520Y-157461652D02*
X35920935Y-156710236D01*
X44208213Y-152845815D02*
X45819628Y-152094400D01*
X45819628Y-152094400D02*
X46571044Y-153705815D01*
X50435465Y-161993093D02*
X51186880Y-163604508D01*
X51186880Y-163604508D02*
X49575465Y-164355924D01*
X41288187Y-168220345D02*
X39676772Y-168971760D01*
X39676772Y-168971760D02*
X38925356Y-167360345D01*
X35060935Y-159073067D02*
X34309520Y-157461652D01*
X42361320Y-174728572D02*
X43972735Y-173977156D01*
X52260013Y-170112735D02*
X53871428Y-169361320D01*
X53871428Y-169361320D02*
X54622844Y-170972735D01*
X58487265Y-179260013D02*
X59238680Y-180871428D01*
X59238680Y-180871428D02*
X57627265Y-181622844D01*
X49339987Y-185487265D02*
X47728572Y-186238680D01*
X47728572Y-186238680D02*
X46977156Y-184627265D01*
X43112735Y-176339987D02*
X42361320Y-174728572D01*
X26260260Y-140197272D02*
X27871675Y-139445856D01*
X36158953Y-135581435D02*
X37770368Y-134830020D01*
X37770368Y-134830020D02*
X38521784Y-136441435D01*
X42386205Y-144728713D02*
X43137620Y-146340128D01*
X43137620Y-146340128D02*
X41526205Y-147091544D01*
X33238927Y-150955965D02*
X31627512Y-151707380D01*
X31627512Y-151707380D02*
X30876096Y-150095965D01*
X27011675Y-141808687D02*
X26260260Y-140197272D01*
X43524640Y-132148012D02*
X45136055Y-131396596D01*
X53423333Y-127532175D02*
X55034748Y-126780760D01*
X55034748Y-126780760D02*
X55786164Y-128392175D01*
X59650585Y-136679453D02*
X60402000Y-138290868D01*
X60402000Y-138290868D02*
X58790585Y-139042284D01*
X50503307Y-142906705D02*
X48891892Y-143658120D01*
X48891892Y-143658120D02*
X48140476Y-142046705D01*
X44276055Y-133759427D02*
X43524640Y-132148012D01*
X161290000Y-60655200D02*
X163068000Y-60655200D01*
X172212000Y-60655200D02*
X173990000Y-60655200D01*
X173990000Y-60655200D02*
X173990000Y-62433200D01*
X173990000Y-71577200D02*
X173990000Y-73355200D01*
X173990000Y-73355200D02*
X172212000Y-73355200D01*
X163068000Y-73355200D02*
X161290000Y-73355200D01*
X161290000Y-73355200D02*
X161290000Y-71577200D01*
X161290000Y-62433200D02*
X161290000Y-60655200D01*
X142240000Y-57477660D02*
X144018000Y-57477660D01*
X153162000Y-57477660D02*
X154940000Y-57477660D01*
X154940000Y-57477660D02*
X154940000Y-59255660D01*
X154940000Y-68399660D02*
X154940000Y-70177660D01*
X154940000Y-70177660D02*
X153162000Y-70177660D01*
X144018000Y-70177660D02*
X142240000Y-70177660D01*
X142240000Y-70177660D02*
X142240000Y-68399660D01*
X142240000Y-59255660D02*
X142240000Y-57477660D01*
X123190000Y-55880000D02*
X124968000Y-55880000D01*
X134112000Y-55880000D02*
X135890000Y-55880000D01*
X135890000Y-55880000D02*
X135890000Y-57658000D01*
X135890000Y-66802000D02*
X135890000Y-68580000D01*
X135890000Y-68580000D02*
X134112000Y-68580000D01*
X124968000Y-68580000D02*
X123190000Y-68580000D01*
X123190000Y-68580000D02*
X123190000Y-66802000D01*
X123190000Y-57658000D02*
X123190000Y-55880000D01*
X104140000Y-57477660D02*
X105918000Y-57477660D01*
X115062000Y-57477660D02*
X116840000Y-57477660D01*
X116840000Y-57477660D02*
X116840000Y-59255660D01*
X116840000Y-68399660D02*
X116840000Y-70177660D01*
X116840000Y-70177660D02*
X115062000Y-70177660D01*
X105918000Y-70177660D02*
X104140000Y-70177660D01*
X104140000Y-70177660D02*
X104140000Y-68399660D01*
X104140000Y-59255660D02*
X104140000Y-57477660D01*
X142240000Y-133677660D02*
X144018000Y-133677660D01*
X153162000Y-133677660D02*
X154940000Y-133677660D01*
X154940000Y-133677660D02*
X154940000Y-135455660D01*
X154940000Y-144599660D02*
X154940000Y-146377660D01*
X154940000Y-146377660D02*
X153162000Y-146377660D01*
X144018000Y-146377660D02*
X142240000Y-146377660D01*
X142240000Y-146377660D02*
X142240000Y-144599660D01*
X142240000Y-135455660D02*
X142240000Y-133677660D01*
X161290000Y-79702660D02*
X163068000Y-79702660D01*
X172212000Y-79702660D02*
X173990000Y-79702660D01*
X173990000Y-79702660D02*
X173990000Y-81480660D01*
X173990000Y-90624660D02*
X173990000Y-92402660D01*
X173990000Y-92402660D02*
X172212000Y-92402660D01*
X163068000Y-92402660D02*
X161290000Y-92402660D01*
X161290000Y-92402660D02*
X161290000Y-90624660D01*
X161290000Y-81480660D02*
X161290000Y-79702660D01*
X123190000Y-74930000D02*
X124968000Y-74930000D01*
X134112000Y-74930000D02*
X135890000Y-74930000D01*
X135890000Y-74930000D02*
X135890000Y-76708000D01*
X135890000Y-85852000D02*
X135890000Y-87630000D01*
X135890000Y-87630000D02*
X134112000Y-87630000D01*
X124968000Y-87630000D02*
X123190000Y-87630000D01*
X123190000Y-87630000D02*
X123190000Y-85852000D01*
X123190000Y-76708000D02*
X123190000Y-74930000D01*
X104140000Y-76527660D02*
X105918000Y-76527660D01*
X115062000Y-76527660D02*
X116840000Y-76527660D01*
X116840000Y-76527660D02*
X116840000Y-78305660D01*
X116840000Y-87449660D02*
X116840000Y-89227660D01*
X116840000Y-89227660D02*
X115062000Y-89227660D01*
X105918000Y-89227660D02*
X104140000Y-89227660D01*
X104140000Y-89227660D02*
X104140000Y-87449660D01*
X104140000Y-78305660D02*
X104140000Y-76527660D01*
X161290000Y-98752660D02*
X163068000Y-98752660D01*
X172212000Y-98752660D02*
X173990000Y-98752660D01*
X173990000Y-98752660D02*
X173990000Y-100530660D01*
X173990000Y-109674660D02*
X173990000Y-111452660D01*
X173990000Y-111452660D02*
X172212000Y-111452660D01*
X163068000Y-111452660D02*
X161290000Y-111452660D01*
X161290000Y-111452660D02*
X161290000Y-109674660D01*
X161290000Y-100530660D02*
X161290000Y-98752660D01*
X142240000Y-95577660D02*
X144018000Y-95577660D01*
X153162000Y-95577660D02*
X154940000Y-95577660D01*
X154940000Y-95577660D02*
X154940000Y-97355660D01*
X154940000Y-106499660D02*
X154940000Y-108277660D01*
X154940000Y-108277660D02*
X153162000Y-108277660D01*
X144018000Y-108277660D02*
X142240000Y-108277660D01*
X142240000Y-108277660D02*
X142240000Y-106499660D01*
X142240000Y-97355660D02*
X142240000Y-95577660D01*
X123190000Y-93980000D02*
X124968000Y-93980000D01*
X134112000Y-93980000D02*
X135890000Y-93980000D01*
X135890000Y-93980000D02*
X135890000Y-95758000D01*
X135890000Y-104902000D02*
X135890000Y-106680000D01*
X135890000Y-106680000D02*
X134112000Y-106680000D01*
X124968000Y-106680000D02*
X123190000Y-106680000D01*
X123190000Y-106680000D02*
X123190000Y-104902000D01*
X123190000Y-95758000D02*
X123190000Y-93980000D01*
X104140000Y-95577660D02*
X105918000Y-95577660D01*
X115062000Y-95577660D02*
X116840000Y-95577660D01*
X116840000Y-95577660D02*
X116840000Y-97355660D01*
X116840000Y-106499660D02*
X116840000Y-108277660D01*
X116840000Y-108277660D02*
X115062000Y-108277660D01*
X105918000Y-108277660D02*
X104140000Y-108277660D01*
X104140000Y-108277660D02*
X104140000Y-106499660D01*
X104140000Y-97355660D02*
X104140000Y-95577660D01*
X85090000Y-96847660D02*
X86868000Y-96847660D01*
X96012000Y-96847660D02*
X97790000Y-96847660D01*
X97790000Y-96847660D02*
X97790000Y-98625660D01*
X97790000Y-107769660D02*
X97790000Y-109547660D01*
X97790000Y-109547660D02*
X96012000Y-109547660D01*
X86868000Y-109547660D02*
X85090000Y-109547660D01*
X85090000Y-109547660D02*
X85090000Y-107769660D01*
X85090000Y-98625660D02*
X85090000Y-96847660D01*
X161290000Y-117802660D02*
X163068000Y-117802660D01*
X172212000Y-117802660D02*
X173990000Y-117802660D01*
X173990000Y-117802660D02*
X173990000Y-119580660D01*
X173990000Y-128724660D02*
X173990000Y-130502660D01*
X173990000Y-130502660D02*
X172212000Y-130502660D01*
X163068000Y-130502660D02*
X161290000Y-130502660D01*
X161290000Y-130502660D02*
X161290000Y-128724660D01*
X161290000Y-119580660D02*
X161290000Y-117802660D01*
X142240000Y-114627660D02*
X144018000Y-114627660D01*
X153162000Y-114627660D02*
X154940000Y-114627660D01*
X154940000Y-114627660D02*
X154940000Y-116405660D01*
X154940000Y-125549660D02*
X154940000Y-127327660D01*
X154940000Y-127327660D02*
X153162000Y-127327660D01*
X144018000Y-127327660D02*
X142240000Y-127327660D01*
X142240000Y-127327660D02*
X142240000Y-125549660D01*
X142240000Y-116405660D02*
X142240000Y-114627660D01*
X123190000Y-113030000D02*
X124968000Y-113030000D01*
X134112000Y-113030000D02*
X135890000Y-113030000D01*
X135890000Y-113030000D02*
X135890000Y-114808000D01*
X135890000Y-123952000D02*
X135890000Y-125730000D01*
X135890000Y-125730000D02*
X134112000Y-125730000D01*
X124968000Y-125730000D02*
X123190000Y-125730000D01*
X123190000Y-125730000D02*
X123190000Y-123952000D01*
X123190000Y-114808000D02*
X123190000Y-113030000D01*
X104140000Y-114627660D02*
X105918000Y-114627660D01*
X115062000Y-114627660D02*
X116840000Y-114627660D01*
X116840000Y-114627660D02*
X116840000Y-116405660D01*
X116840000Y-125549660D02*
X116840000Y-127327660D01*
X116840000Y-127327660D02*
X115062000Y-127327660D01*
X105918000Y-127327660D02*
X104140000Y-127327660D01*
X104140000Y-127327660D02*
X104140000Y-125549660D01*
X104140000Y-116405660D02*
X104140000Y-114627660D01*
X85090000Y-115897660D02*
X86868000Y-115897660D01*
X96012000Y-115897660D02*
X97790000Y-115897660D01*
X97790000Y-115897660D02*
X97790000Y-117675660D01*
X97790000Y-126819660D02*
X97790000Y-128597660D01*
X97790000Y-128597660D02*
X96012000Y-128597660D01*
X86868000Y-128597660D02*
X85090000Y-128597660D01*
X85090000Y-128597660D02*
X85090000Y-126819660D01*
X85090000Y-117675660D02*
X85090000Y-115897660D01*
X161290000Y-136852660D02*
X163068000Y-136852660D01*
X172212000Y-136852660D02*
X173990000Y-136852660D01*
X173990000Y-136852660D02*
X173990000Y-138630660D01*
X173990000Y-147774660D02*
X173990000Y-149552660D01*
X173990000Y-149552660D02*
X172212000Y-149552660D01*
X163068000Y-149552660D02*
X161290000Y-149552660D01*
X161290000Y-149552660D02*
X161290000Y-147774660D01*
X161290000Y-138630660D02*
X161290000Y-136852660D01*
X123190000Y-132080000D02*
X124968000Y-132080000D01*
X134112000Y-132080000D02*
X135890000Y-132080000D01*
X135890000Y-132080000D02*
X135890000Y-133858000D01*
X135890000Y-143002000D02*
X135890000Y-144780000D01*
X135890000Y-144780000D02*
X134112000Y-144780000D01*
X124968000Y-144780000D02*
X123190000Y-144780000D01*
X123190000Y-144780000D02*
X123190000Y-143002000D01*
X123190000Y-133858000D02*
X123190000Y-132080000D01*
X104140000Y-133677660D02*
X105918000Y-133677660D01*
X115062000Y-133677660D02*
X116840000Y-133677660D01*
X116840000Y-133677660D02*
X116840000Y-135455660D01*
X116840000Y-144599660D02*
X116840000Y-146377660D01*
X116840000Y-146377660D02*
X115062000Y-146377660D01*
X105918000Y-146377660D02*
X104140000Y-146377660D01*
X104140000Y-146377660D02*
X104140000Y-144599660D01*
X104140000Y-135455660D02*
X104140000Y-133677660D01*
X78231432Y-161504160D02*
X77480016Y-159892745D01*
X73615595Y-151605467D02*
X72864180Y-149994052D01*
X72864180Y-149994052D02*
X74475595Y-149242636D01*
X82762873Y-145378215D02*
X84374288Y-144626800D01*
X84374288Y-144626800D02*
X85125704Y-146238215D01*
X88990125Y-154525493D02*
X89741540Y-156136908D01*
X89741540Y-156136908D02*
X88130125Y-156888324D01*
X79842847Y-160752745D02*
X78231432Y-161504160D01*
X60967052Y-169555960D02*
X60215636Y-167944545D01*
X56351215Y-159657267D02*
X55599800Y-158045852D01*
X55599800Y-158045852D02*
X57211215Y-157294436D01*
X65498493Y-153430015D02*
X67109908Y-152678600D01*
X67109908Y-152678600D02*
X67861324Y-154290015D01*
X71725745Y-162577293D02*
X72477160Y-164188708D01*
X72477160Y-164188708D02*
X70865745Y-164940124D01*
X62578467Y-168804545D02*
X60967052Y-169555960D01*
X142240000Y-76527660D02*
X144018000Y-76527660D01*
X153162000Y-76527660D02*
X154940000Y-76527660D01*
X154940000Y-76527660D02*
X154940000Y-78305660D01*
X154940000Y-87449660D02*
X154940000Y-89227660D01*
X154940000Y-89227660D02*
X153162000Y-89227660D01*
X144018000Y-89227660D02*
X142240000Y-89227660D01*
X142240000Y-89227660D02*
X142240000Y-87449660D01*
X142240000Y-78305660D02*
X142240000Y-76527660D01*
X85090000Y-58750200D02*
X86868000Y-58750200D01*
X96012000Y-58750200D02*
X97790000Y-58750200D01*
X97790000Y-58750200D02*
X97790000Y-60528200D01*
X97790000Y-69672200D02*
X97790000Y-71450200D01*
X97790000Y-71450200D02*
X96012000Y-71450200D01*
X86868000Y-71450200D02*
X85090000Y-71450200D01*
X85090000Y-71450200D02*
X85090000Y-69672200D01*
X85090000Y-60528200D02*
X85090000Y-58750200D01*
X185102500Y-60655200D02*
X186880500Y-60655200D01*
X196024500Y-60655200D02*
X197802500Y-60655200D01*
X197802500Y-60655200D02*
X197802500Y-62433200D01*
X197802500Y-71577200D02*
X197802500Y-73355200D01*
X197802500Y-73355200D02*
X196024500Y-73355200D01*
X186880500Y-73355200D02*
X185102500Y-73355200D01*
X185102500Y-73355200D02*
X185102500Y-71577200D01*
X185102500Y-62433200D02*
X185102500Y-60655200D01*
X185102500Y-79702660D02*
X186880500Y-79702660D01*
X196024500Y-79702660D02*
X197802500Y-79702660D01*
X197802500Y-79702660D02*
X197802500Y-81480660D01*
X197802500Y-90624660D02*
X197802500Y-92402660D01*
X197802500Y-92402660D02*
X196024500Y-92402660D01*
X186880500Y-92402660D02*
X185102500Y-92402660D01*
X185102500Y-92402660D02*
X185102500Y-90624660D01*
X185102500Y-81480660D02*
X185102500Y-79702660D01*
X185102500Y-98752660D02*
X186880500Y-98752660D01*
X196024500Y-98752660D02*
X197802500Y-98752660D01*
X197802500Y-98752660D02*
X197802500Y-100530660D01*
X197802500Y-109674660D02*
X197802500Y-111452660D01*
X197802500Y-111452660D02*
X196024500Y-111452660D01*
X186880500Y-111452660D02*
X185102500Y-111452660D01*
X185102500Y-111452660D02*
X185102500Y-109674660D01*
X185102500Y-100530660D02*
X185102500Y-98752660D01*
X185102500Y-117802660D02*
X186880500Y-117802660D01*
X196024500Y-117802660D02*
X197802500Y-117802660D01*
X197802500Y-117802660D02*
X197802500Y-119580660D01*
X197802500Y-128724660D02*
X197802500Y-130502660D01*
X197802500Y-130502660D02*
X196024500Y-130502660D01*
X186880500Y-130502660D02*
X185102500Y-130502660D01*
X185102500Y-130502660D02*
X185102500Y-128724660D01*
X185102500Y-119580660D02*
X185102500Y-117802660D01*
D16*
X135398933Y-32046333D02*
X135398933Y-33485667D01*
X135483600Y-33655000D01*
X135568267Y-33739667D01*
X135737600Y-33824333D01*
X136076267Y-33824333D01*
X136245600Y-33739667D01*
X136330267Y-33655000D01*
X136414933Y-33485667D01*
X136414933Y-32046333D01*
X137176934Y-33739667D02*
X137430934Y-33824333D01*
X137854267Y-33824333D01*
X138023600Y-33739667D01*
X138108267Y-33655000D01*
X138192934Y-33485667D01*
X138192934Y-33316333D01*
X138108267Y-33147000D01*
X138023600Y-33062333D01*
X137854267Y-32977667D01*
X137515600Y-32893000D01*
X137346267Y-32808333D01*
X137261600Y-32723667D01*
X137176934Y-32554333D01*
X137176934Y-32385000D01*
X137261600Y-32215667D01*
X137346267Y-32131000D01*
X137515600Y-32046333D01*
X137938934Y-32046333D01*
X138192934Y-32131000D01*
X139547600Y-32893000D02*
X139801600Y-32977667D01*
X139886267Y-33062333D01*
X139970933Y-33231667D01*
X139970933Y-33485667D01*
X139886267Y-33655000D01*
X139801600Y-33739667D01*
X139632267Y-33824333D01*
X138954933Y-33824333D01*
X138954933Y-32046333D01*
X139547600Y-32046333D01*
X139716933Y-32131000D01*
X139801600Y-32215667D01*
X139886267Y-32385000D01*
X139886267Y-32554333D01*
X139801600Y-32723667D01*
X139716933Y-32808333D01*
X139547600Y-32893000D01*
X138954933Y-32893000D01*
D17*
X83296881Y-119118017D02*
X83296881Y-119843731D01*
X81645881Y-119843731D01*
X82432071Y-118610017D02*
X82432071Y-118102017D01*
X83296881Y-117884303D02*
X83296881Y-118610017D01*
X81645881Y-118610017D01*
X81645881Y-117884303D01*
X83296881Y-117231160D02*
X81645881Y-117231160D01*
X81645881Y-116868303D01*
X81724500Y-116650588D01*
X81881738Y-116505446D01*
X82038976Y-116432874D01*
X82353452Y-116360303D01*
X82589310Y-116360303D01*
X82903786Y-116432874D01*
X83061024Y-116505446D01*
X83218262Y-116650588D01*
X83296881Y-116868303D01*
X83296881Y-117231160D01*
X83218262Y-115054017D02*
X83296881Y-115199160D01*
X83296881Y-115489446D01*
X83218262Y-115634588D01*
X83139643Y-115707160D01*
X82982405Y-115779731D01*
X82510690Y-115779731D01*
X82353452Y-115707160D01*
X82274833Y-115634588D01*
X82196214Y-115489446D01*
X82196214Y-115199160D01*
X82274833Y-115054017D01*
X83296881Y-90579303D02*
X83296881Y-91305017D01*
X81645881Y-91305017D01*
X82432071Y-90071303D02*
X82432071Y-89563303D01*
X83296881Y-89345589D02*
X83296881Y-90071303D01*
X81645881Y-90071303D01*
X81645881Y-89345589D01*
X83296881Y-88692446D02*
X81645881Y-88692446D01*
X81645881Y-88329589D01*
X81724500Y-88111874D01*
X81881738Y-87966732D01*
X82038976Y-87894160D01*
X82353452Y-87821589D01*
X82589310Y-87821589D01*
X82903786Y-87894160D01*
X83061024Y-87966732D01*
X83218262Y-88111874D01*
X83296881Y-88329589D01*
X83296881Y-88692446D01*
X83296881Y-87168446D02*
X81645881Y-87168446D01*
X82274833Y-87168446D02*
X82196214Y-87023303D01*
X82196214Y-86733017D01*
X82274833Y-86587874D01*
X82353452Y-86515303D01*
X82510690Y-86442732D01*
X82982405Y-86442732D01*
X83139643Y-86515303D01*
X83218262Y-86587874D01*
X83296881Y-86733017D01*
X83296881Y-87023303D01*
X83218262Y-87168446D01*
X70720857Y-76007081D02*
X69995143Y-76007081D01*
X69995143Y-74356081D01*
X71228857Y-75142271D02*
X71736857Y-75142271D01*
X71954571Y-76007081D02*
X71228857Y-76007081D01*
X71228857Y-74356081D01*
X71954571Y-74356081D01*
X72607714Y-76007081D02*
X72607714Y-74356081D01*
X72970571Y-74356081D01*
X73188286Y-74434700D01*
X73333428Y-74591938D01*
X73406000Y-74749176D01*
X73478571Y-75063652D01*
X73478571Y-75299510D01*
X73406000Y-75613986D01*
X73333428Y-75771224D01*
X73188286Y-75928462D01*
X72970571Y-76007081D01*
X72607714Y-76007081D01*
X74784857Y-76007081D02*
X74784857Y-75142271D01*
X74712286Y-74985033D01*
X74567143Y-74906414D01*
X74276857Y-74906414D01*
X74131714Y-74985033D01*
X74784857Y-75928462D02*
X74639714Y-76007081D01*
X74276857Y-76007081D01*
X74131714Y-75928462D01*
X74059143Y-75771224D01*
X74059143Y-75613986D01*
X74131714Y-75456748D01*
X74276857Y-75378129D01*
X74639714Y-75378129D01*
X74784857Y-75299510D01*
X75789586Y-149450759D02*
X76050458Y-149409186D01*
X76434128Y-149230278D01*
X76556926Y-149092942D01*
X76602990Y-148991389D01*
X76618385Y-148824063D01*
X76557045Y-148692518D01*
X76418970Y-148596756D01*
X76311566Y-148566766D01*
X76127428Y-148572557D01*
X75789821Y-148649912D01*
X75605683Y-148655703D01*
X75498279Y-148625713D01*
X75360206Y-148529950D01*
X75298866Y-148398406D01*
X75314259Y-148231080D01*
X75360323Y-148129527D01*
X75483121Y-147992192D01*
X75866792Y-147813283D01*
X76127664Y-147771710D01*
X76634132Y-147455466D02*
X78352479Y-148335736D01*
X77708409Y-146954523D02*
X77278203Y-148836680D01*
X79810427Y-147655884D02*
X78889618Y-148085264D01*
X79350022Y-147870574D02*
X78705952Y-146489361D01*
X78644493Y-146758241D01*
X78552365Y-146961348D01*
X78429567Y-147098683D01*
X80439692Y-147202305D02*
X80547096Y-147232295D01*
X80501032Y-147333849D01*
X80393628Y-147303858D01*
X80439692Y-147202305D01*
X80501032Y-147333849D01*
X80102322Y-146478812D02*
X80209726Y-146508802D01*
X80163662Y-146610357D01*
X80056258Y-146580365D01*
X80102322Y-146478812D01*
X80163662Y-146610357D01*
X81130535Y-146079422D02*
X80946397Y-146085214D01*
X80838993Y-146055224D01*
X80700919Y-145959461D01*
X80670249Y-145893688D01*
X80685642Y-145726363D01*
X80731707Y-145624809D01*
X80854505Y-145487474D01*
X81161442Y-145344348D01*
X81345579Y-145338556D01*
X81452983Y-145368546D01*
X81591058Y-145464308D01*
X81621728Y-145530081D01*
X81606334Y-145697407D01*
X81560269Y-145798960D01*
X81437471Y-145936295D01*
X81130535Y-146079422D01*
X81007737Y-146216758D01*
X80961673Y-146318311D01*
X80946279Y-146485637D01*
X81068959Y-146748725D01*
X81207033Y-146844488D01*
X81314437Y-146874478D01*
X81498575Y-146868687D01*
X81805512Y-146725561D01*
X81928309Y-146588225D01*
X81974374Y-146486671D01*
X81989768Y-146319345D01*
X81867088Y-146056257D01*
X81729014Y-145960494D01*
X81621609Y-145930505D01*
X81437471Y-145936295D01*
X58525206Y-157502559D02*
X58786078Y-157460986D01*
X59169748Y-157282078D01*
X59292546Y-157144742D01*
X59338610Y-157043189D01*
X59354005Y-156875863D01*
X59292665Y-156744318D01*
X59154590Y-156648556D01*
X59047186Y-156618566D01*
X58863048Y-156624357D01*
X58525441Y-156701712D01*
X58341303Y-156707503D01*
X58233899Y-156677513D01*
X58095826Y-156581750D01*
X58034486Y-156450206D01*
X58049879Y-156282880D01*
X58095943Y-156181327D01*
X58218741Y-156043992D01*
X58602412Y-155865083D01*
X58863284Y-155823510D01*
X59369752Y-155507266D02*
X61088099Y-156387536D01*
X60444029Y-155006323D02*
X60013823Y-156888480D01*
X62546047Y-155707684D02*
X61625238Y-156137064D01*
X62085642Y-155922374D02*
X61441572Y-154541161D01*
X61380113Y-154810041D01*
X61287985Y-155013148D01*
X61165187Y-155150483D01*
X63175312Y-155254105D02*
X63282716Y-155284095D01*
X63236652Y-155385649D01*
X63129248Y-155355658D01*
X63175312Y-155254105D01*
X63236652Y-155385649D01*
X62837942Y-154530612D02*
X62945346Y-154560602D01*
X62899282Y-154662157D01*
X62791878Y-154632165D01*
X62837942Y-154530612D01*
X62899282Y-154662157D01*
X63206455Y-153718183D02*
X64280732Y-153217239D01*
X64234195Y-154920487D01*
X80283073Y-161090240D02*
X80543945Y-161048667D01*
X80927615Y-160869759D01*
X81050413Y-160732423D01*
X81096477Y-160630870D01*
X81111872Y-160463543D01*
X81050532Y-160331999D01*
X80912457Y-160236237D01*
X80805053Y-160206247D01*
X80620915Y-160212038D01*
X80283309Y-160289393D01*
X80099170Y-160295183D01*
X79991766Y-160265194D01*
X79853693Y-160169431D01*
X79792353Y-160037887D01*
X79807746Y-159870561D01*
X79853811Y-159769007D01*
X79976609Y-159631673D01*
X80360279Y-159452764D01*
X80621151Y-159411191D01*
X81127619Y-159094947D02*
X82845966Y-159975217D01*
X82201896Y-158594004D02*
X81771690Y-160476160D01*
X83122705Y-158164624D02*
X83276173Y-158093061D01*
X83460311Y-158087269D01*
X83567714Y-158117259D01*
X83705789Y-158213021D01*
X83905203Y-158440328D01*
X84058553Y-158769188D01*
X84104499Y-159068058D01*
X84089105Y-159235384D01*
X84043041Y-159336938D01*
X83920243Y-159474274D01*
X83766775Y-159545837D01*
X83582637Y-159551628D01*
X83475233Y-159521638D01*
X83337158Y-159425875D01*
X83137745Y-159198568D01*
X82984395Y-158869708D01*
X82938448Y-158570838D01*
X82953842Y-158403512D01*
X82999907Y-158301959D01*
X83122705Y-158164624D01*
X84933179Y-158841786D02*
X85040583Y-158871776D01*
X84994519Y-158973330D01*
X84887116Y-158943339D01*
X84933179Y-158841786D01*
X84994519Y-158973330D01*
X84595809Y-158118293D02*
X84703213Y-158148283D01*
X84657149Y-158249838D01*
X84549745Y-158219846D01*
X84595809Y-158118293D01*
X84657149Y-158249838D01*
X86605935Y-158221915D02*
X85685127Y-158651295D01*
X86145531Y-158436605D02*
X85501461Y-157055392D01*
X85440002Y-157324271D01*
X85347874Y-157527379D01*
X85225076Y-157664714D01*
X86959407Y-156375540D02*
X87112875Y-156303977D01*
X87297014Y-156298185D01*
X87404417Y-156328175D01*
X87542491Y-156423938D01*
X87741906Y-156651244D01*
X87895256Y-156980104D01*
X87941202Y-157278975D01*
X87925808Y-157446301D01*
X87879744Y-157547854D01*
X87756945Y-157685190D01*
X87603478Y-157756753D01*
X87419340Y-157762544D01*
X87311935Y-157732554D01*
X87173861Y-157636792D01*
X86974447Y-157409484D01*
X86821097Y-157080624D01*
X86775151Y-156781754D01*
X86790545Y-156614428D01*
X86836609Y-156512875D01*
X86959407Y-156375540D01*
X63016153Y-169139500D02*
X63277025Y-169097927D01*
X63660695Y-168919019D01*
X63783493Y-168781683D01*
X63829557Y-168680130D01*
X63844952Y-168512803D01*
X63783612Y-168381259D01*
X63645537Y-168285497D01*
X63538133Y-168255507D01*
X63353995Y-168261298D01*
X63016389Y-168338653D01*
X62832250Y-168344443D01*
X62724846Y-168314454D01*
X62586773Y-168218691D01*
X62525433Y-168087147D01*
X62540826Y-167919821D01*
X62586891Y-167818267D01*
X62709689Y-167680933D01*
X63093359Y-167502024D01*
X63354231Y-167460451D01*
X63860699Y-167144207D02*
X65579046Y-168024477D01*
X64934976Y-166643264D02*
X64504770Y-168525420D01*
X65855785Y-166213884D02*
X66009253Y-166142321D01*
X66193391Y-166136529D01*
X66300794Y-166166519D01*
X66438869Y-166262281D01*
X66638283Y-166489588D01*
X66791633Y-166818448D01*
X66837579Y-167117318D01*
X66822185Y-167284644D01*
X66776121Y-167386198D01*
X66653323Y-167523534D01*
X66499855Y-167595097D01*
X66315717Y-167600888D01*
X66208313Y-167570898D01*
X66070238Y-167475135D01*
X65870825Y-167247828D01*
X65717475Y-166918968D01*
X65671528Y-166620098D01*
X65686922Y-166452772D01*
X65732987Y-166351219D01*
X65855785Y-166213884D01*
X67666259Y-166891046D02*
X67773663Y-166921036D01*
X67727599Y-167022590D01*
X67620196Y-166992599D01*
X67666259Y-166891046D01*
X67727599Y-167022590D01*
X67328889Y-166167553D02*
X67436293Y-166197543D01*
X67390229Y-166299098D01*
X67282825Y-166269106D01*
X67328889Y-166167553D01*
X67390229Y-166299098D01*
X69339015Y-166271175D02*
X68418207Y-166700555D01*
X68878611Y-166485865D02*
X68234541Y-165104652D01*
X68173082Y-165373531D01*
X68080954Y-165576639D01*
X67958156Y-165713974D01*
X70873696Y-165555541D02*
X69952888Y-165984921D01*
X70413292Y-165770231D02*
X69769222Y-164389018D01*
X69707763Y-164657898D01*
X69615635Y-164861005D01*
X69492837Y-164998340D01*
D12*
X148526908Y-46595591D02*
X148184804Y-46937696D01*
X147286778Y-46039670D01*
X148295988Y-45885723D02*
X148535461Y-45646250D01*
X149108487Y-46014013D02*
X148766382Y-46356118D01*
X147868356Y-45458092D01*
X148210461Y-45115987D01*
X149416381Y-45706118D02*
X148518356Y-44808093D01*
X148689408Y-44637040D01*
X148834802Y-44577172D01*
X148988749Y-44594277D01*
X149108487Y-44645593D01*
X149313750Y-44782435D01*
X149442039Y-44910724D01*
X149578881Y-45115987D01*
X149630196Y-45235724D01*
X149647302Y-45389672D01*
X149587434Y-45535066D01*
X149416381Y-45706118D01*
X150442696Y-44679804D02*
X149972302Y-44209409D01*
X149852564Y-44158093D01*
X149741380Y-44183751D01*
X149604539Y-44320593D01*
X149578881Y-44431777D01*
X150399933Y-44637041D02*
X150374275Y-44748225D01*
X150203223Y-44919277D01*
X150092039Y-44944935D01*
X149972302Y-44893619D01*
X149886776Y-44808093D01*
X149835460Y-44688355D01*
X149861118Y-44577171D01*
X150032170Y-44406119D01*
X150057828Y-44294935D01*
X146621908Y-44690591D02*
X146279804Y-45032696D01*
X145381778Y-44134670D01*
X146390988Y-43980723D02*
X146630461Y-43741250D01*
X147203487Y-44109013D02*
X146861382Y-44451118D01*
X145963356Y-43553092D01*
X146305461Y-43210987D01*
X147511381Y-43801118D02*
X146613356Y-42903093D01*
X146784408Y-42732040D01*
X146929802Y-42672172D01*
X147083749Y-42689277D01*
X147203487Y-42740593D01*
X147408750Y-42877435D01*
X147537039Y-43005724D01*
X147673881Y-43210987D01*
X147725196Y-43330724D01*
X147742302Y-43484672D01*
X147682434Y-43630066D01*
X147511381Y-43801118D01*
X148229802Y-43082698D02*
X147331776Y-42184672D01*
X147673881Y-42526777D02*
X147699539Y-42415593D01*
X147836380Y-42278751D01*
X147947564Y-42253093D01*
X148024539Y-42261646D01*
X148144275Y-42312962D01*
X148400854Y-42569540D01*
X148452169Y-42689277D01*
X148460722Y-42766251D01*
X148435064Y-42877435D01*
X148298223Y-43014277D01*
X148187039Y-43039935D01*
X124323929Y-47564524D02*
X123840120Y-47564524D01*
X123840120Y-46294524D01*
X124662596Y-46899286D02*
X125001262Y-46899286D01*
X125146405Y-47564524D02*
X124662596Y-47564524D01*
X124662596Y-46294524D01*
X125146405Y-46294524D01*
X125581834Y-47564524D02*
X125581834Y-46294524D01*
X125823739Y-46294524D01*
X125968881Y-46355000D01*
X126065643Y-46475952D01*
X126114024Y-46596905D01*
X126162405Y-46838810D01*
X126162405Y-47020238D01*
X126114024Y-47262143D01*
X126065643Y-47383095D01*
X125968881Y-47504048D01*
X125823739Y-47564524D01*
X125581834Y-47564524D01*
X127033262Y-47504048D02*
X126936500Y-47564524D01*
X126742977Y-47564524D01*
X126646215Y-47504048D01*
X126597834Y-47443571D01*
X126549453Y-47322619D01*
X126549453Y-46959762D01*
X126597834Y-46838810D01*
X126646215Y-46778333D01*
X126742977Y-46717857D01*
X126936500Y-46717857D01*
X127033262Y-46778333D01*
X104396514Y-38496515D02*
X104473488Y-38487962D01*
X104584672Y-38513620D01*
X104755724Y-38684672D01*
X104781382Y-38795856D01*
X104772830Y-38872830D01*
X104721513Y-38992567D01*
X104635987Y-39078093D01*
X104473487Y-39172172D01*
X103549804Y-39274804D01*
X103994541Y-39719540D01*
X104387962Y-39941908D02*
X104379409Y-40018882D01*
X104302435Y-40027435D01*
X104310988Y-39950461D01*
X104387962Y-39941908D01*
X104302435Y-40027435D01*
X105422830Y-39522830D02*
X105499803Y-39514278D01*
X105610987Y-39539936D01*
X105782039Y-39710988D01*
X105807697Y-39822172D01*
X105799145Y-39899145D01*
X105747829Y-40018882D01*
X105662303Y-40104408D01*
X105499803Y-40198488D01*
X104576120Y-40301119D01*
X105020856Y-40745855D01*
X105328751Y-41053750D02*
X106226776Y-40155725D01*
X105739277Y-40780066D02*
X105602434Y-41327434D01*
X106201118Y-40728750D02*
X105585329Y-40797172D01*
X105876118Y-41601118D02*
X106047171Y-41772171D01*
X106218224Y-41601118D01*
X106192566Y-41489934D01*
X106209671Y-41335986D01*
X106303750Y-41173487D01*
X106517565Y-40959671D01*
X106680066Y-40865592D01*
X106834013Y-40848487D01*
X106979407Y-40908356D01*
X107116249Y-41045197D01*
X107176117Y-41190592D01*
X107159012Y-41344539D01*
X107064933Y-41507039D01*
X106851118Y-41720855D01*
X106688618Y-41814933D01*
X106534670Y-41832039D01*
X106423486Y-41806381D01*
X106252434Y-41977433D01*
X106423486Y-42148486D01*
X101221514Y-39766515D02*
X101298488Y-39757962D01*
X101409672Y-39783620D01*
X101580724Y-39954672D01*
X101606382Y-40065856D01*
X101597830Y-40142830D01*
X101546513Y-40262567D01*
X101460987Y-40348093D01*
X101298487Y-40442172D01*
X100374804Y-40544804D01*
X100819541Y-40989540D01*
X101212962Y-41211908D02*
X101204409Y-41288882D01*
X101127435Y-41297435D01*
X101135988Y-41220461D01*
X101212962Y-41211908D01*
X101127435Y-41297435D01*
X102247830Y-40792830D02*
X102324803Y-40784278D01*
X102435987Y-40809936D01*
X102607039Y-40980988D01*
X102632697Y-41092172D01*
X102624145Y-41169145D01*
X102572829Y-41288882D01*
X102487303Y-41374408D01*
X102324803Y-41468488D01*
X101401120Y-41571119D01*
X101845856Y-42015855D01*
X102153751Y-42323750D02*
X103051776Y-41425725D01*
X102564277Y-42050066D02*
X102427434Y-42597434D01*
X103026118Y-41998750D02*
X102410329Y-42067172D01*
X102701118Y-42871118D02*
X102872171Y-43042171D01*
X103043224Y-42871118D01*
X103017566Y-42759934D01*
X103034671Y-42605986D01*
X103128750Y-42443487D01*
X103342565Y-42229671D01*
X103505066Y-42135592D01*
X103659013Y-42118487D01*
X103804407Y-42178356D01*
X103941249Y-42315197D01*
X104001117Y-42460592D01*
X103984012Y-42614539D01*
X103889933Y-42777039D01*
X103676118Y-42990855D01*
X103513618Y-43084933D01*
X103359670Y-43102039D01*
X103248486Y-43076381D01*
X103077434Y-43247433D01*
X103248486Y-43418486D01*
D18*
X168214524Y-43923857D02*
X168214524Y-40875857D01*
X169182143Y-40875857D01*
X169424048Y-41021000D01*
X169545000Y-41166143D01*
X169665952Y-41456429D01*
X169665952Y-41891857D01*
X169545000Y-42182143D01*
X169424048Y-42327286D01*
X169182143Y-42472429D01*
X168214524Y-42472429D01*
X170754524Y-43923857D02*
X170754524Y-41891857D01*
X170754524Y-42472429D02*
X170875476Y-42182143D01*
X170996429Y-42037000D01*
X171238333Y-41891857D01*
X171480238Y-41891857D01*
X172689762Y-43923857D02*
X172447857Y-43778714D01*
X172326905Y-43633571D01*
X172205953Y-43343286D01*
X172205953Y-42472429D01*
X172326905Y-42182143D01*
X172447857Y-42037000D01*
X172689762Y-41891857D01*
X173052619Y-41891857D01*
X173294524Y-42037000D01*
X173415476Y-42182143D01*
X173536429Y-42472429D01*
X173536429Y-43343286D01*
X173415476Y-43633571D01*
X173294524Y-43778714D01*
X173052619Y-43923857D01*
X172689762Y-43923857D01*
X174625000Y-43923857D02*
X174625000Y-40875857D01*
X175471667Y-43053000D01*
X176318333Y-40875857D01*
X176318333Y-43923857D01*
X177527857Y-43923857D02*
X177527857Y-41891857D01*
X177527857Y-40875857D02*
X177406905Y-41021000D01*
X177527857Y-41166143D01*
X177648809Y-41021000D01*
X177527857Y-40875857D01*
X177527857Y-41166143D01*
X179825952Y-43778714D02*
X179584048Y-43923857D01*
X179100238Y-43923857D01*
X178858333Y-43778714D01*
X178737381Y-43633571D01*
X178616429Y-43343286D01*
X178616429Y-42472429D01*
X178737381Y-42182143D01*
X178858333Y-42037000D01*
X179100238Y-41891857D01*
X179584048Y-41891857D01*
X179825952Y-42037000D01*
X180914524Y-43923857D02*
X180914524Y-41891857D01*
X180914524Y-42472429D02*
X181035476Y-42182143D01*
X181156429Y-42037000D01*
X181398333Y-41891857D01*
X181640238Y-41891857D01*
X182849762Y-43923857D02*
X182607857Y-43778714D01*
X182486905Y-43633571D01*
X182365953Y-43343286D01*
X182365953Y-42472429D01*
X182486905Y-42182143D01*
X182607857Y-42037000D01*
X182849762Y-41891857D01*
X183212619Y-41891857D01*
X183454524Y-42037000D01*
X183575476Y-42182143D01*
X183696429Y-42472429D01*
X183696429Y-43343286D01*
X183575476Y-43633571D01*
X183454524Y-43778714D01*
X183212619Y-43923857D01*
X182849762Y-43923857D01*
D16*
X82075867Y-35360429D02*
X83176534Y-35360429D01*
X82583867Y-35941000D01*
X82837867Y-35941000D01*
X83007200Y-36013571D01*
X83091867Y-36086143D01*
X83176534Y-36231286D01*
X83176534Y-36594143D01*
X83091867Y-36739286D01*
X83007200Y-36811857D01*
X82837867Y-36884429D01*
X82329867Y-36884429D01*
X82160534Y-36811857D01*
X82075867Y-36739286D01*
X83938533Y-36739286D02*
X84023200Y-36811857D01*
X83938533Y-36884429D01*
X83853867Y-36811857D01*
X83938533Y-36739286D01*
X83938533Y-36884429D01*
X85631867Y-35360429D02*
X84785200Y-35360429D01*
X84700534Y-36086143D01*
X84785200Y-36013571D01*
X84954534Y-35941000D01*
X85377867Y-35941000D01*
X85547200Y-36013571D01*
X85631867Y-36086143D01*
X85716534Y-36231286D01*
X85716534Y-36594143D01*
X85631867Y-36739286D01*
X85547200Y-36811857D01*
X85377867Y-36884429D01*
X84954534Y-36884429D01*
X84785200Y-36811857D01*
X84700534Y-36739286D01*
X86478533Y-36884429D02*
X86478533Y-35868429D01*
X86478533Y-36013571D02*
X86563200Y-35941000D01*
X86732533Y-35868429D01*
X86986533Y-35868429D01*
X87155867Y-35941000D01*
X87240533Y-36086143D01*
X87240533Y-36884429D01*
X87240533Y-36086143D02*
X87325200Y-35941000D01*
X87494533Y-35868429D01*
X87748533Y-35868429D01*
X87917867Y-35941000D01*
X88002533Y-36086143D01*
X88002533Y-36884429D01*
X88849200Y-36884429D02*
X88849200Y-35868429D01*
X88849200Y-36013571D02*
X88933867Y-35941000D01*
X89103200Y-35868429D01*
X89357200Y-35868429D01*
X89526534Y-35941000D01*
X89611200Y-36086143D01*
X89611200Y-36884429D01*
X89611200Y-36086143D02*
X89695867Y-35941000D01*
X89865200Y-35868429D01*
X90119200Y-35868429D01*
X90288534Y-35941000D01*
X90373200Y-36086143D01*
X90373200Y-36884429D01*
D17*
X68749334Y-69019057D02*
X69003334Y-69091629D01*
X69426667Y-69091629D01*
X69596000Y-69019057D01*
X69680667Y-68946486D01*
X69765334Y-68801343D01*
X69765334Y-68656200D01*
X69680667Y-68511057D01*
X69596000Y-68438486D01*
X69426667Y-68365914D01*
X69088000Y-68293343D01*
X68918667Y-68220771D01*
X68834000Y-68148200D01*
X68749334Y-68003057D01*
X68749334Y-67857914D01*
X68834000Y-67712771D01*
X68918667Y-67640200D01*
X69088000Y-67567629D01*
X69511334Y-67567629D01*
X69765334Y-67640200D01*
X70358000Y-67567629D02*
X70781333Y-69091629D01*
X71120000Y-68003057D01*
X71458667Y-69091629D01*
X71882000Y-67567629D01*
X73406000Y-67567629D02*
X72559333Y-67567629D01*
X72474667Y-68293343D01*
X72559333Y-68220771D01*
X72728667Y-68148200D01*
X73152000Y-68148200D01*
X73321333Y-68220771D01*
X73406000Y-68293343D01*
X73490667Y-68438486D01*
X73490667Y-68801343D01*
X73406000Y-68946486D01*
X73321333Y-69019057D01*
X73152000Y-69091629D01*
X72728667Y-69091629D01*
X72559333Y-69019057D01*
X72474667Y-68946486D01*
X74252666Y-68946486D02*
X74337333Y-69019057D01*
X74252666Y-69091629D01*
X74168000Y-69019057D01*
X74252666Y-68946486D01*
X74252666Y-69091629D01*
X74252666Y-68148200D02*
X74337333Y-68220771D01*
X74252666Y-68293343D01*
X74168000Y-68220771D01*
X74252666Y-68148200D01*
X74252666Y-68293343D01*
X74930000Y-67567629D02*
X76115333Y-67567629D01*
X75353333Y-69091629D01*
X76308857Y-92550826D02*
X76381429Y-92296826D01*
X76381429Y-91873493D01*
X76308857Y-91704160D01*
X76236286Y-91619493D01*
X76091143Y-91534826D01*
X75946000Y-91534826D01*
X75800857Y-91619493D01*
X75728286Y-91704160D01*
X75655714Y-91873493D01*
X75583143Y-92212160D01*
X75510571Y-92381493D01*
X75438000Y-92466160D01*
X75292857Y-92550826D01*
X75147714Y-92550826D01*
X75002571Y-92466160D01*
X74930000Y-92381493D01*
X74857429Y-92212160D01*
X74857429Y-91788826D01*
X74930000Y-91534826D01*
X74857429Y-90942160D02*
X76381429Y-90518827D01*
X75292857Y-90180160D01*
X76381429Y-89841493D01*
X74857429Y-89418160D01*
X75365429Y-87978827D02*
X76381429Y-87978827D01*
X74784857Y-88402160D02*
X75873429Y-88825493D01*
X75873429Y-87724827D01*
X76236286Y-87047494D02*
X76308857Y-86962827D01*
X76381429Y-87047494D01*
X76308857Y-87132160D01*
X76236286Y-87047494D01*
X76381429Y-87047494D01*
X75438000Y-87047494D02*
X75510571Y-86962827D01*
X75583143Y-87047494D01*
X75510571Y-87132160D01*
X75438000Y-87047494D01*
X75583143Y-87047494D01*
X74857429Y-86370160D02*
X74857429Y-85184827D01*
X76381429Y-85946827D01*
X76308857Y-121125826D02*
X76381429Y-120871826D01*
X76381429Y-120448493D01*
X76308857Y-120279160D01*
X76236286Y-120194493D01*
X76091143Y-120109826D01*
X75946000Y-120109826D01*
X75800857Y-120194493D01*
X75728286Y-120279160D01*
X75655714Y-120448493D01*
X75583143Y-120787160D01*
X75510571Y-120956493D01*
X75438000Y-121041160D01*
X75292857Y-121125826D01*
X75147714Y-121125826D01*
X75002571Y-121041160D01*
X74930000Y-120956493D01*
X74857429Y-120787160D01*
X74857429Y-120363826D01*
X74930000Y-120109826D01*
X74857429Y-119517160D02*
X76381429Y-119093827D01*
X75292857Y-118755160D01*
X76381429Y-118416493D01*
X74857429Y-117993160D01*
X75002571Y-117400493D02*
X74930000Y-117315827D01*
X74857429Y-117146493D01*
X74857429Y-116723160D01*
X74930000Y-116553827D01*
X75002571Y-116469160D01*
X75147714Y-116384493D01*
X75292857Y-116384493D01*
X75510571Y-116469160D01*
X76381429Y-117485160D01*
X76381429Y-116384493D01*
X76236286Y-115622494D02*
X76308857Y-115537827D01*
X76381429Y-115622494D01*
X76308857Y-115707160D01*
X76236286Y-115622494D01*
X76381429Y-115622494D01*
X75438000Y-115622494D02*
X75510571Y-115537827D01*
X75583143Y-115622494D01*
X75510571Y-115707160D01*
X75438000Y-115622494D01*
X75583143Y-115622494D01*
X74857429Y-114945160D02*
X74857429Y-113759827D01*
X76381429Y-114521827D01*
X182202668Y-147121517D02*
X182456668Y-147194089D01*
X182880001Y-147194089D01*
X183049334Y-147121517D01*
X183134001Y-147048946D01*
X183218668Y-146903803D01*
X183218668Y-146758660D01*
X183134001Y-146613517D01*
X183049334Y-146540946D01*
X182880001Y-146468374D01*
X182541334Y-146395803D01*
X182372001Y-146323231D01*
X182287334Y-146250660D01*
X182202668Y-146105517D01*
X182202668Y-145960374D01*
X182287334Y-145815231D01*
X182372001Y-145742660D01*
X182541334Y-145670089D01*
X182964668Y-145670089D01*
X183218668Y-145742660D01*
X183811334Y-145670089D02*
X184234667Y-147194089D01*
X184573334Y-146105517D01*
X184912001Y-147194089D01*
X185335334Y-145670089D01*
X186944001Y-147194089D02*
X185928001Y-147194089D01*
X186436001Y-147194089D02*
X186436001Y-145670089D01*
X186266667Y-145887803D01*
X186097334Y-146032946D01*
X185928001Y-146105517D01*
X187706000Y-147048946D02*
X187790667Y-147121517D01*
X187706000Y-147194089D01*
X187621334Y-147121517D01*
X187706000Y-147048946D01*
X187706000Y-147194089D01*
X187706000Y-146250660D02*
X187790667Y-146323231D01*
X187706000Y-146395803D01*
X187621334Y-146323231D01*
X187706000Y-146250660D01*
X187706000Y-146395803D01*
X189484001Y-147194089D02*
X188468001Y-147194089D01*
X188976001Y-147194089D02*
X188976001Y-145670089D01*
X188806667Y-145887803D01*
X188637334Y-146032946D01*
X188468001Y-146105517D01*
X190076667Y-145670089D02*
X191177334Y-145670089D01*
X190584667Y-146250660D01*
X190838667Y-146250660D01*
X191008000Y-146323231D01*
X191092667Y-146395803D01*
X191177334Y-146540946D01*
X191177334Y-146903803D01*
X191092667Y-147048946D01*
X191008000Y-147121517D01*
X190838667Y-147194089D01*
X190330667Y-147194089D01*
X190161334Y-147121517D01*
X190076667Y-147048946D01*
X87799334Y-88066517D02*
X88053334Y-88139089D01*
X88476667Y-88139089D01*
X88646000Y-88066517D01*
X88730667Y-87993946D01*
X88815334Y-87848803D01*
X88815334Y-87703660D01*
X88730667Y-87558517D01*
X88646000Y-87485946D01*
X88476667Y-87413374D01*
X88138000Y-87340803D01*
X87968667Y-87268231D01*
X87884000Y-87195660D01*
X87799334Y-87050517D01*
X87799334Y-86905374D01*
X87884000Y-86760231D01*
X87968667Y-86687660D01*
X88138000Y-86615089D01*
X88561334Y-86615089D01*
X88815334Y-86687660D01*
X89408000Y-86615089D02*
X89831333Y-88139089D01*
X90170000Y-87050517D01*
X90508667Y-88139089D01*
X90932000Y-86615089D01*
X92371333Y-87123089D02*
X92371333Y-88139089D01*
X91948000Y-86542517D02*
X91524667Y-87631089D01*
X92625333Y-87631089D01*
X93302666Y-87993946D02*
X93387333Y-88066517D01*
X93302666Y-88139089D01*
X93218000Y-88066517D01*
X93302666Y-87993946D01*
X93302666Y-88139089D01*
X93302666Y-87195660D02*
X93387333Y-87268231D01*
X93302666Y-87340803D01*
X93218000Y-87268231D01*
X93302666Y-87195660D01*
X93302666Y-87340803D01*
X94403333Y-87268231D02*
X94234000Y-87195660D01*
X94149333Y-87123089D01*
X94064667Y-86977946D01*
X94064667Y-86905374D01*
X94149333Y-86760231D01*
X94234000Y-86687660D01*
X94403333Y-86615089D01*
X94742000Y-86615089D01*
X94911333Y-86687660D01*
X94996000Y-86760231D01*
X95080667Y-86905374D01*
X95080667Y-86977946D01*
X94996000Y-87123089D01*
X94911333Y-87195660D01*
X94742000Y-87268231D01*
X94403333Y-87268231D01*
X94234000Y-87340803D01*
X94149333Y-87413374D01*
X94064667Y-87558517D01*
X94064667Y-87848803D01*
X94149333Y-87993946D01*
X94234000Y-88066517D01*
X94403333Y-88139089D01*
X94742000Y-88139089D01*
X94911333Y-88066517D01*
X94996000Y-87993946D01*
X95080667Y-87848803D01*
X95080667Y-87558517D01*
X94996000Y-87413374D01*
X94911333Y-87340803D01*
X94742000Y-87268231D01*
X41104817Y-165623382D02*
X41365690Y-165581810D01*
X41749360Y-165402902D01*
X41872157Y-165265566D01*
X41918222Y-165164012D01*
X41933616Y-164996686D01*
X41872276Y-164865142D01*
X41734201Y-164769380D01*
X41626797Y-164739390D01*
X41442659Y-164745180D01*
X41105053Y-164822536D01*
X40920915Y-164828326D01*
X40813510Y-164798336D01*
X40675437Y-164702574D01*
X40614097Y-164571029D01*
X40629490Y-164403704D01*
X40675555Y-164302150D01*
X40798353Y-164164815D01*
X41182024Y-163985907D01*
X41442896Y-163944333D01*
X41949364Y-163628090D02*
X42977104Y-164830395D01*
X42823990Y-163700687D01*
X43590977Y-164544141D01*
X43330577Y-162984020D01*
X44251385Y-162554640D02*
X44404853Y-162483077D01*
X44588992Y-162477285D01*
X44696395Y-162507275D01*
X44834470Y-162603037D01*
X45033884Y-162830344D01*
X45187234Y-163159204D01*
X45233180Y-163458074D01*
X45217786Y-163625400D01*
X45171722Y-163726953D01*
X45048923Y-163864290D01*
X44895456Y-163935853D01*
X44711318Y-163941643D01*
X44603913Y-163911654D01*
X44465839Y-163815891D01*
X44266425Y-163588584D01*
X44113075Y-163259724D01*
X44067129Y-162960854D01*
X44082523Y-162793528D01*
X44128587Y-162691975D01*
X44251385Y-162554640D01*
X46061860Y-163231802D02*
X46169264Y-163261792D01*
X46123200Y-163363346D01*
X46015796Y-163333355D01*
X46061860Y-163231802D01*
X46123200Y-163363346D01*
X45724490Y-162508309D02*
X45831894Y-162538299D01*
X45785830Y-162639853D01*
X45678426Y-162609862D01*
X45724490Y-162508309D01*
X45785830Y-162639853D01*
X46967275Y-162969747D02*
X47274212Y-162826621D01*
X47397009Y-162689285D01*
X47443074Y-162587731D01*
X47504531Y-162318851D01*
X47458586Y-162019982D01*
X47213226Y-161493805D01*
X47075151Y-161398043D01*
X46967747Y-161368053D01*
X46783609Y-161373844D01*
X46476673Y-161516971D01*
X46353875Y-161654306D01*
X46307810Y-161755860D01*
X46292417Y-161923185D01*
X46445767Y-162252045D01*
X46583840Y-162347808D01*
X46691245Y-162377799D01*
X46875383Y-162372007D01*
X47182319Y-162228880D01*
X47305117Y-162091546D01*
X47351181Y-161989991D01*
X47366576Y-161822665D01*
X48389277Y-183248119D02*
X48650150Y-183206546D01*
X49033820Y-183027638D01*
X49156617Y-182890302D01*
X49202682Y-182788749D01*
X49218076Y-182621423D01*
X49156736Y-182489878D01*
X49018661Y-182394116D01*
X48911257Y-182364126D01*
X48727119Y-182369917D01*
X48389513Y-182447272D01*
X48205375Y-182453063D01*
X48097970Y-182423073D01*
X47959897Y-182327310D01*
X47898557Y-182195766D01*
X47913950Y-182028440D01*
X47960015Y-181926887D01*
X48082813Y-181789552D01*
X48466484Y-181610643D01*
X48727356Y-181569070D01*
X49233824Y-181252827D02*
X50261564Y-182455131D01*
X50108450Y-181325423D01*
X50875437Y-182168878D01*
X50615037Y-180608756D01*
X51535845Y-180179376D02*
X51689313Y-180107813D01*
X51873452Y-180102021D01*
X51980855Y-180132011D01*
X52118930Y-180227774D01*
X52318344Y-180455080D01*
X52471694Y-180783940D01*
X52517640Y-181082811D01*
X52502246Y-181250137D01*
X52456182Y-181351690D01*
X52333383Y-181489026D01*
X52179916Y-181560589D01*
X51995778Y-181566380D01*
X51888373Y-181536390D01*
X51750299Y-181440628D01*
X51550885Y-181213321D01*
X51397535Y-180884461D01*
X51351589Y-180585591D01*
X51366983Y-180418265D01*
X51413047Y-180316711D01*
X51535845Y-180179376D01*
X53346320Y-180856538D02*
X53453724Y-180886528D01*
X53407660Y-180988083D01*
X53300256Y-180958092D01*
X53346320Y-180856538D01*
X53407660Y-180988083D01*
X53008950Y-180133046D02*
X53116354Y-180163036D01*
X53070290Y-180264590D01*
X52962886Y-180234599D01*
X53008950Y-180133046D01*
X53070290Y-180264590D01*
X55019076Y-180236667D02*
X54098267Y-180666047D01*
X54558672Y-180451357D02*
X53914602Y-179070144D01*
X53853143Y-179339024D01*
X53761015Y-179542131D01*
X53638217Y-179679466D01*
X55050218Y-178700744D02*
X55096281Y-178599191D01*
X55219080Y-178461856D01*
X55602750Y-178282947D01*
X55786888Y-178277156D01*
X55894292Y-178307146D01*
X56032367Y-178402908D01*
X56093707Y-178534452D01*
X56108982Y-178767550D01*
X55556214Y-179986196D01*
X56553757Y-179521034D01*
X33055557Y-148359002D02*
X33316430Y-148317430D01*
X33700100Y-148138522D01*
X33822897Y-148001186D01*
X33868962Y-147899632D01*
X33884356Y-147732306D01*
X33823016Y-147600762D01*
X33684941Y-147505000D01*
X33577537Y-147475010D01*
X33393399Y-147480800D01*
X33055793Y-147558156D01*
X32871655Y-147563946D01*
X32764250Y-147533956D01*
X32626177Y-147438194D01*
X32564837Y-147306649D01*
X32580230Y-147139324D01*
X32626295Y-147037770D01*
X32749093Y-146900435D01*
X33132764Y-146721527D01*
X33393636Y-146679953D01*
X33900104Y-146363710D02*
X34927844Y-147566015D01*
X34774730Y-146436307D01*
X35541717Y-147279761D01*
X35281317Y-145719640D01*
X36202125Y-145290260D02*
X36355593Y-145218697D01*
X36539732Y-145212905D01*
X36647135Y-145242895D01*
X36785210Y-145338657D01*
X36984624Y-145565964D01*
X37137974Y-145894824D01*
X37183920Y-146193694D01*
X37168526Y-146361020D01*
X37122462Y-146462573D01*
X36999663Y-146599910D01*
X36846196Y-146671473D01*
X36662058Y-146677263D01*
X36554653Y-146647274D01*
X36416579Y-146551511D01*
X36217165Y-146324204D01*
X36063815Y-145995344D01*
X36017869Y-145696474D01*
X36033263Y-145529148D01*
X36079327Y-145427595D01*
X36202125Y-145290260D01*
X38012600Y-145967422D02*
X38120004Y-145997412D01*
X38073940Y-146098966D01*
X37966536Y-146068975D01*
X38012600Y-145967422D01*
X38073940Y-146098966D01*
X37675230Y-145243929D02*
X37782634Y-145273919D01*
X37736570Y-145375473D01*
X37629166Y-145345482D01*
X37675230Y-145243929D01*
X37736570Y-145375473D01*
X38043743Y-144431499D02*
X39118019Y-143930556D01*
X39071483Y-145633804D01*
X50319937Y-140309742D02*
X50580810Y-140268170D01*
X50964480Y-140089262D01*
X51087277Y-139951926D01*
X51133342Y-139850372D01*
X51148736Y-139683046D01*
X51087396Y-139551502D01*
X50949321Y-139455740D01*
X50841917Y-139425750D01*
X50657779Y-139431540D01*
X50320173Y-139508896D01*
X50136035Y-139514686D01*
X50028630Y-139484696D01*
X49890557Y-139388934D01*
X49829217Y-139257389D01*
X49844610Y-139090064D01*
X49890675Y-138988510D01*
X50013473Y-138851175D01*
X50397144Y-138672267D01*
X50658016Y-138630693D01*
X51164484Y-138314450D02*
X52192224Y-139516755D01*
X52039110Y-138387047D01*
X52806097Y-139230501D01*
X52545697Y-137670380D01*
X53466505Y-137241000D02*
X53619973Y-137169437D01*
X53804112Y-137163645D01*
X53911515Y-137193635D01*
X54049590Y-137289397D01*
X54249004Y-137516704D01*
X54402354Y-137845564D01*
X54448300Y-138144434D01*
X54432906Y-138311760D01*
X54386842Y-138413313D01*
X54264043Y-138550650D01*
X54110576Y-138622213D01*
X53926438Y-138628003D01*
X53819033Y-138598014D01*
X53680959Y-138502251D01*
X53481545Y-138274944D01*
X53328195Y-137946084D01*
X53282249Y-137647214D01*
X53297643Y-137479888D01*
X53343707Y-137378335D01*
X53466505Y-137241000D01*
X55276980Y-137918162D02*
X55384384Y-137948152D01*
X55338320Y-138049706D01*
X55230916Y-138019715D01*
X55276980Y-137918162D01*
X55338320Y-138049706D01*
X54939610Y-137194669D02*
X55047014Y-137224659D01*
X55000950Y-137326213D01*
X54893546Y-137296222D01*
X54939610Y-137194669D01*
X55000950Y-137326213D01*
X55967823Y-136795279D02*
X55783685Y-136801070D01*
X55676281Y-136771081D01*
X55538207Y-136675318D01*
X55507537Y-136609545D01*
X55522930Y-136442220D01*
X55568995Y-136340666D01*
X55691793Y-136203331D01*
X55998729Y-136060204D01*
X56182867Y-136054413D01*
X56290271Y-136084403D01*
X56428346Y-136180165D01*
X56459016Y-136245938D01*
X56443622Y-136413264D01*
X56397557Y-136514817D01*
X56274759Y-136652152D01*
X55967823Y-136795279D01*
X55845025Y-136932615D01*
X55798960Y-137034168D01*
X55783567Y-137201494D01*
X55906247Y-137464582D01*
X56044321Y-137560345D01*
X56151725Y-137590335D01*
X56335863Y-137584544D01*
X56642800Y-137441417D01*
X56765597Y-137304082D01*
X56811662Y-137202528D01*
X56827056Y-137035202D01*
X56704376Y-136772114D01*
X56566301Y-136676351D01*
X56458897Y-136646361D01*
X56274759Y-136652152D01*
X163152668Y-70924057D02*
X163406668Y-70996629D01*
X163830001Y-70996629D01*
X163999334Y-70924057D01*
X164084001Y-70851486D01*
X164168668Y-70706343D01*
X164168668Y-70561200D01*
X164084001Y-70416057D01*
X163999334Y-70343486D01*
X163830001Y-70270914D01*
X163491334Y-70198343D01*
X163322001Y-70125771D01*
X163237334Y-70053200D01*
X163152668Y-69908057D01*
X163152668Y-69762914D01*
X163237334Y-69617771D01*
X163322001Y-69545200D01*
X163491334Y-69472629D01*
X163914668Y-69472629D01*
X164168668Y-69545200D01*
X164761334Y-69472629D02*
X165184667Y-70996629D01*
X165523334Y-69908057D01*
X165862001Y-70996629D01*
X166285334Y-69472629D01*
X167809334Y-69472629D02*
X166962667Y-69472629D01*
X166878001Y-70198343D01*
X166962667Y-70125771D01*
X167132001Y-70053200D01*
X167555334Y-70053200D01*
X167724667Y-70125771D01*
X167809334Y-70198343D01*
X167894001Y-70343486D01*
X167894001Y-70706343D01*
X167809334Y-70851486D01*
X167724667Y-70924057D01*
X167555334Y-70996629D01*
X167132001Y-70996629D01*
X166962667Y-70924057D01*
X166878001Y-70851486D01*
X168656000Y-70851486D02*
X168740667Y-70924057D01*
X168656000Y-70996629D01*
X168571334Y-70924057D01*
X168656000Y-70851486D01*
X168656000Y-70996629D01*
X168656000Y-70053200D02*
X168740667Y-70125771D01*
X168656000Y-70198343D01*
X168571334Y-70125771D01*
X168656000Y-70053200D01*
X168656000Y-70198343D01*
X170434001Y-70996629D02*
X169418001Y-70996629D01*
X169926001Y-70996629D02*
X169926001Y-69472629D01*
X169756667Y-69690343D01*
X169587334Y-69835486D01*
X169418001Y-69908057D01*
X171111334Y-69617771D02*
X171196000Y-69545200D01*
X171365334Y-69472629D01*
X171788667Y-69472629D01*
X171958000Y-69545200D01*
X172042667Y-69617771D01*
X172127334Y-69762914D01*
X172127334Y-69908057D01*
X172042667Y-70125771D01*
X171026667Y-70996629D01*
X172127334Y-70996629D01*
X144102668Y-67746517D02*
X144356668Y-67819089D01*
X144780001Y-67819089D01*
X144949334Y-67746517D01*
X145034001Y-67673946D01*
X145118668Y-67528803D01*
X145118668Y-67383660D01*
X145034001Y-67238517D01*
X144949334Y-67165946D01*
X144780001Y-67093374D01*
X144441334Y-67020803D01*
X144272001Y-66948231D01*
X144187334Y-66875660D01*
X144102668Y-66730517D01*
X144102668Y-66585374D01*
X144187334Y-66440231D01*
X144272001Y-66367660D01*
X144441334Y-66295089D01*
X144864668Y-66295089D01*
X145118668Y-66367660D01*
X145711334Y-66295089D02*
X146134667Y-67819089D01*
X146473334Y-66730517D01*
X146812001Y-67819089D01*
X147235334Y-66295089D01*
X148759334Y-66295089D02*
X147912667Y-66295089D01*
X147828001Y-67020803D01*
X147912667Y-66948231D01*
X148082001Y-66875660D01*
X148505334Y-66875660D01*
X148674667Y-66948231D01*
X148759334Y-67020803D01*
X148844001Y-67165946D01*
X148844001Y-67528803D01*
X148759334Y-67673946D01*
X148674667Y-67746517D01*
X148505334Y-67819089D01*
X148082001Y-67819089D01*
X147912667Y-67746517D01*
X147828001Y-67673946D01*
X149606000Y-67673946D02*
X149690667Y-67746517D01*
X149606000Y-67819089D01*
X149521334Y-67746517D01*
X149606000Y-67673946D01*
X149606000Y-67819089D01*
X149606000Y-66875660D02*
X149690667Y-66948231D01*
X149606000Y-67020803D01*
X149521334Y-66948231D01*
X149606000Y-66875660D01*
X149606000Y-67020803D01*
X151384001Y-67819089D02*
X150368001Y-67819089D01*
X150876001Y-67819089D02*
X150876001Y-66295089D01*
X150706667Y-66512803D01*
X150537334Y-66657946D01*
X150368001Y-66730517D01*
X153077334Y-67819089D02*
X152061334Y-67819089D01*
X152569334Y-67819089D02*
X152569334Y-66295089D01*
X152400000Y-66512803D01*
X152230667Y-66657946D01*
X152061334Y-66730517D01*
X125052668Y-66148857D02*
X125306668Y-66221429D01*
X125730001Y-66221429D01*
X125899334Y-66148857D01*
X125984001Y-66076286D01*
X126068668Y-65931143D01*
X126068668Y-65786000D01*
X125984001Y-65640857D01*
X125899334Y-65568286D01*
X125730001Y-65495714D01*
X125391334Y-65423143D01*
X125222001Y-65350571D01*
X125137334Y-65278000D01*
X125052668Y-65132857D01*
X125052668Y-64987714D01*
X125137334Y-64842571D01*
X125222001Y-64770000D01*
X125391334Y-64697429D01*
X125814668Y-64697429D01*
X126068668Y-64770000D01*
X126661334Y-64697429D02*
X127084667Y-66221429D01*
X127423334Y-65132857D01*
X127762001Y-66221429D01*
X128185334Y-64697429D01*
X129709334Y-64697429D02*
X128862667Y-64697429D01*
X128778001Y-65423143D01*
X128862667Y-65350571D01*
X129032001Y-65278000D01*
X129455334Y-65278000D01*
X129624667Y-65350571D01*
X129709334Y-65423143D01*
X129794001Y-65568286D01*
X129794001Y-65931143D01*
X129709334Y-66076286D01*
X129624667Y-66148857D01*
X129455334Y-66221429D01*
X129032001Y-66221429D01*
X128862667Y-66148857D01*
X128778001Y-66076286D01*
X130556000Y-66076286D02*
X130640667Y-66148857D01*
X130556000Y-66221429D01*
X130471334Y-66148857D01*
X130556000Y-66076286D01*
X130556000Y-66221429D01*
X130556000Y-65278000D02*
X130640667Y-65350571D01*
X130556000Y-65423143D01*
X130471334Y-65350571D01*
X130556000Y-65278000D01*
X130556000Y-65423143D01*
X132334001Y-66221429D02*
X131318001Y-66221429D01*
X131826001Y-66221429D02*
X131826001Y-64697429D01*
X131656667Y-64915143D01*
X131487334Y-65060286D01*
X131318001Y-65132857D01*
X133434667Y-64697429D02*
X133604000Y-64697429D01*
X133773334Y-64770000D01*
X133858000Y-64842571D01*
X133942667Y-64987714D01*
X134027334Y-65278000D01*
X134027334Y-65640857D01*
X133942667Y-65931143D01*
X133858000Y-66076286D01*
X133773334Y-66148857D01*
X133604000Y-66221429D01*
X133434667Y-66221429D01*
X133265334Y-66148857D01*
X133180667Y-66076286D01*
X133096000Y-65931143D01*
X133011334Y-65640857D01*
X133011334Y-65278000D01*
X133096000Y-64987714D01*
X133180667Y-64842571D01*
X133265334Y-64770000D01*
X133434667Y-64697429D01*
X106849334Y-67746517D02*
X107103334Y-67819089D01*
X107526667Y-67819089D01*
X107696000Y-67746517D01*
X107780667Y-67673946D01*
X107865334Y-67528803D01*
X107865334Y-67383660D01*
X107780667Y-67238517D01*
X107696000Y-67165946D01*
X107526667Y-67093374D01*
X107188000Y-67020803D01*
X107018667Y-66948231D01*
X106934000Y-66875660D01*
X106849334Y-66730517D01*
X106849334Y-66585374D01*
X106934000Y-66440231D01*
X107018667Y-66367660D01*
X107188000Y-66295089D01*
X107611334Y-66295089D01*
X107865334Y-66367660D01*
X108458000Y-66295089D02*
X108881333Y-67819089D01*
X109220000Y-66730517D01*
X109558667Y-67819089D01*
X109982000Y-66295089D01*
X111506000Y-66295089D02*
X110659333Y-66295089D01*
X110574667Y-67020803D01*
X110659333Y-66948231D01*
X110828667Y-66875660D01*
X111252000Y-66875660D01*
X111421333Y-66948231D01*
X111506000Y-67020803D01*
X111590667Y-67165946D01*
X111590667Y-67528803D01*
X111506000Y-67673946D01*
X111421333Y-67746517D01*
X111252000Y-67819089D01*
X110828667Y-67819089D01*
X110659333Y-67746517D01*
X110574667Y-67673946D01*
X112352666Y-67673946D02*
X112437333Y-67746517D01*
X112352666Y-67819089D01*
X112268000Y-67746517D01*
X112352666Y-67673946D01*
X112352666Y-67819089D01*
X112352666Y-66875660D02*
X112437333Y-66948231D01*
X112352666Y-67020803D01*
X112268000Y-66948231D01*
X112352666Y-66875660D01*
X112352666Y-67020803D01*
X113284000Y-67819089D02*
X113622667Y-67819089D01*
X113792000Y-67746517D01*
X113876667Y-67673946D01*
X114046000Y-67456231D01*
X114130667Y-67165946D01*
X114130667Y-66585374D01*
X114046000Y-66440231D01*
X113961333Y-66367660D01*
X113792000Y-66295089D01*
X113453333Y-66295089D01*
X113284000Y-66367660D01*
X113199333Y-66440231D01*
X113114667Y-66585374D01*
X113114667Y-66948231D01*
X113199333Y-67093374D01*
X113284000Y-67165946D01*
X113453333Y-67238517D01*
X113792000Y-67238517D01*
X113961333Y-67165946D01*
X114046000Y-67093374D01*
X114130667Y-66948231D01*
X144102668Y-143946517D02*
X144356668Y-144019089D01*
X144780001Y-144019089D01*
X144949334Y-143946517D01*
X145034001Y-143873946D01*
X145118668Y-143728803D01*
X145118668Y-143583660D01*
X145034001Y-143438517D01*
X144949334Y-143365946D01*
X144780001Y-143293374D01*
X144441334Y-143220803D01*
X144272001Y-143148231D01*
X144187334Y-143075660D01*
X144102668Y-142930517D01*
X144102668Y-142785374D01*
X144187334Y-142640231D01*
X144272001Y-142567660D01*
X144441334Y-142495089D01*
X144864668Y-142495089D01*
X145118668Y-142567660D01*
X145711334Y-142495089D02*
X146134667Y-144019089D01*
X146473334Y-142930517D01*
X146812001Y-144019089D01*
X147235334Y-142495089D01*
X148844001Y-144019089D02*
X147828001Y-144019089D01*
X148336001Y-144019089D02*
X148336001Y-142495089D01*
X148166667Y-142712803D01*
X147997334Y-142857946D01*
X147828001Y-142930517D01*
X149606000Y-143873946D02*
X149690667Y-143946517D01*
X149606000Y-144019089D01*
X149521334Y-143946517D01*
X149606000Y-143873946D01*
X149606000Y-144019089D01*
X149606000Y-143075660D02*
X149690667Y-143148231D01*
X149606000Y-143220803D01*
X149521334Y-143148231D01*
X149606000Y-143075660D01*
X149606000Y-143220803D01*
X151384001Y-144019089D02*
X150368001Y-144019089D01*
X150876001Y-144019089D02*
X150876001Y-142495089D01*
X150706667Y-142712803D01*
X150537334Y-142857946D01*
X150368001Y-142930517D01*
X153077334Y-144019089D02*
X152061334Y-144019089D01*
X152569334Y-144019089D02*
X152569334Y-142495089D01*
X152400000Y-142712803D01*
X152230667Y-142857946D01*
X152061334Y-142930517D01*
X163152668Y-89971517D02*
X163406668Y-90044089D01*
X163830001Y-90044089D01*
X163999334Y-89971517D01*
X164084001Y-89898946D01*
X164168668Y-89753803D01*
X164168668Y-89608660D01*
X164084001Y-89463517D01*
X163999334Y-89390946D01*
X163830001Y-89318374D01*
X163491334Y-89245803D01*
X163322001Y-89173231D01*
X163237334Y-89100660D01*
X163152668Y-88955517D01*
X163152668Y-88810374D01*
X163237334Y-88665231D01*
X163322001Y-88592660D01*
X163491334Y-88520089D01*
X163914668Y-88520089D01*
X164168668Y-88592660D01*
X164761334Y-88520089D02*
X165184667Y-90044089D01*
X165523334Y-88955517D01*
X165862001Y-90044089D01*
X166285334Y-88520089D01*
X167724667Y-89028089D02*
X167724667Y-90044089D01*
X167301334Y-88447517D02*
X166878001Y-89536089D01*
X167978667Y-89536089D01*
X168656000Y-89898946D02*
X168740667Y-89971517D01*
X168656000Y-90044089D01*
X168571334Y-89971517D01*
X168656000Y-89898946D01*
X168656000Y-90044089D01*
X168656000Y-89100660D02*
X168740667Y-89173231D01*
X168656000Y-89245803D01*
X168571334Y-89173231D01*
X168656000Y-89100660D01*
X168656000Y-89245803D01*
X170434001Y-90044089D02*
X169418001Y-90044089D01*
X169926001Y-90044089D02*
X169926001Y-88520089D01*
X169756667Y-88737803D01*
X169587334Y-88882946D01*
X169418001Y-88955517D01*
X171111334Y-88665231D02*
X171196000Y-88592660D01*
X171365334Y-88520089D01*
X171788667Y-88520089D01*
X171958000Y-88592660D01*
X172042667Y-88665231D01*
X172127334Y-88810374D01*
X172127334Y-88955517D01*
X172042667Y-89173231D01*
X171026667Y-90044089D01*
X172127334Y-90044089D01*
X125052668Y-85198857D02*
X125306668Y-85271429D01*
X125730001Y-85271429D01*
X125899334Y-85198857D01*
X125984001Y-85126286D01*
X126068668Y-84981143D01*
X126068668Y-84836000D01*
X125984001Y-84690857D01*
X125899334Y-84618286D01*
X125730001Y-84545714D01*
X125391334Y-84473143D01*
X125222001Y-84400571D01*
X125137334Y-84328000D01*
X125052668Y-84182857D01*
X125052668Y-84037714D01*
X125137334Y-83892571D01*
X125222001Y-83820000D01*
X125391334Y-83747429D01*
X125814668Y-83747429D01*
X126068668Y-83820000D01*
X126661334Y-83747429D02*
X127084667Y-85271429D01*
X127423334Y-84182857D01*
X127762001Y-85271429D01*
X128185334Y-83747429D01*
X129624667Y-84255429D02*
X129624667Y-85271429D01*
X129201334Y-83674857D02*
X128778001Y-84763429D01*
X129878667Y-84763429D01*
X130556000Y-85126286D02*
X130640667Y-85198857D01*
X130556000Y-85271429D01*
X130471334Y-85198857D01*
X130556000Y-85126286D01*
X130556000Y-85271429D01*
X130556000Y-84328000D02*
X130640667Y-84400571D01*
X130556000Y-84473143D01*
X130471334Y-84400571D01*
X130556000Y-84328000D01*
X130556000Y-84473143D01*
X132334001Y-85271429D02*
X131318001Y-85271429D01*
X131826001Y-85271429D02*
X131826001Y-83747429D01*
X131656667Y-83965143D01*
X131487334Y-84110286D01*
X131318001Y-84182857D01*
X133434667Y-83747429D02*
X133604000Y-83747429D01*
X133773334Y-83820000D01*
X133858000Y-83892571D01*
X133942667Y-84037714D01*
X134027334Y-84328000D01*
X134027334Y-84690857D01*
X133942667Y-84981143D01*
X133858000Y-85126286D01*
X133773334Y-85198857D01*
X133604000Y-85271429D01*
X133434667Y-85271429D01*
X133265334Y-85198857D01*
X133180667Y-85126286D01*
X133096000Y-84981143D01*
X133011334Y-84690857D01*
X133011334Y-84328000D01*
X133096000Y-84037714D01*
X133180667Y-83892571D01*
X133265334Y-83820000D01*
X133434667Y-83747429D01*
X106849334Y-86796517D02*
X107103334Y-86869089D01*
X107526667Y-86869089D01*
X107696000Y-86796517D01*
X107780667Y-86723946D01*
X107865334Y-86578803D01*
X107865334Y-86433660D01*
X107780667Y-86288517D01*
X107696000Y-86215946D01*
X107526667Y-86143374D01*
X107188000Y-86070803D01*
X107018667Y-85998231D01*
X106934000Y-85925660D01*
X106849334Y-85780517D01*
X106849334Y-85635374D01*
X106934000Y-85490231D01*
X107018667Y-85417660D01*
X107188000Y-85345089D01*
X107611334Y-85345089D01*
X107865334Y-85417660D01*
X108458000Y-85345089D02*
X108881333Y-86869089D01*
X109220000Y-85780517D01*
X109558667Y-86869089D01*
X109982000Y-85345089D01*
X111421333Y-85853089D02*
X111421333Y-86869089D01*
X110998000Y-85272517D02*
X110574667Y-86361089D01*
X111675333Y-86361089D01*
X112352666Y-86723946D02*
X112437333Y-86796517D01*
X112352666Y-86869089D01*
X112268000Y-86796517D01*
X112352666Y-86723946D01*
X112352666Y-86869089D01*
X112352666Y-85925660D02*
X112437333Y-85998231D01*
X112352666Y-86070803D01*
X112268000Y-85998231D01*
X112352666Y-85925660D01*
X112352666Y-86070803D01*
X113284000Y-86869089D02*
X113622667Y-86869089D01*
X113792000Y-86796517D01*
X113876667Y-86723946D01*
X114046000Y-86506231D01*
X114130667Y-86215946D01*
X114130667Y-85635374D01*
X114046000Y-85490231D01*
X113961333Y-85417660D01*
X113792000Y-85345089D01*
X113453333Y-85345089D01*
X113284000Y-85417660D01*
X113199333Y-85490231D01*
X113114667Y-85635374D01*
X113114667Y-85998231D01*
X113199333Y-86143374D01*
X113284000Y-86215946D01*
X113453333Y-86288517D01*
X113792000Y-86288517D01*
X113961333Y-86215946D01*
X114046000Y-86143374D01*
X114130667Y-85998231D01*
X163152668Y-109021517D02*
X163406668Y-109094089D01*
X163830001Y-109094089D01*
X163999334Y-109021517D01*
X164084001Y-108948946D01*
X164168668Y-108803803D01*
X164168668Y-108658660D01*
X164084001Y-108513517D01*
X163999334Y-108440946D01*
X163830001Y-108368374D01*
X163491334Y-108295803D01*
X163322001Y-108223231D01*
X163237334Y-108150660D01*
X163152668Y-108005517D01*
X163152668Y-107860374D01*
X163237334Y-107715231D01*
X163322001Y-107642660D01*
X163491334Y-107570089D01*
X163914668Y-107570089D01*
X164168668Y-107642660D01*
X164761334Y-107570089D02*
X165184667Y-109094089D01*
X165523334Y-108005517D01*
X165862001Y-109094089D01*
X166285334Y-107570089D01*
X166793334Y-107570089D02*
X167894001Y-107570089D01*
X167301334Y-108150660D01*
X167555334Y-108150660D01*
X167724667Y-108223231D01*
X167809334Y-108295803D01*
X167894001Y-108440946D01*
X167894001Y-108803803D01*
X167809334Y-108948946D01*
X167724667Y-109021517D01*
X167555334Y-109094089D01*
X167047334Y-109094089D01*
X166878001Y-109021517D01*
X166793334Y-108948946D01*
X168656000Y-108948946D02*
X168740667Y-109021517D01*
X168656000Y-109094089D01*
X168571334Y-109021517D01*
X168656000Y-108948946D01*
X168656000Y-109094089D01*
X168656000Y-108150660D02*
X168740667Y-108223231D01*
X168656000Y-108295803D01*
X168571334Y-108223231D01*
X168656000Y-108150660D01*
X168656000Y-108295803D01*
X170434001Y-109094089D02*
X169418001Y-109094089D01*
X169926001Y-109094089D02*
X169926001Y-107570089D01*
X169756667Y-107787803D01*
X169587334Y-107932946D01*
X169418001Y-108005517D01*
X171111334Y-107715231D02*
X171196000Y-107642660D01*
X171365334Y-107570089D01*
X171788667Y-107570089D01*
X171958000Y-107642660D01*
X172042667Y-107715231D01*
X172127334Y-107860374D01*
X172127334Y-108005517D01*
X172042667Y-108223231D01*
X171026667Y-109094089D01*
X172127334Y-109094089D01*
X144102668Y-105846517D02*
X144356668Y-105919089D01*
X144780001Y-105919089D01*
X144949334Y-105846517D01*
X145034001Y-105773946D01*
X145118668Y-105628803D01*
X145118668Y-105483660D01*
X145034001Y-105338517D01*
X144949334Y-105265946D01*
X144780001Y-105193374D01*
X144441334Y-105120803D01*
X144272001Y-105048231D01*
X144187334Y-104975660D01*
X144102668Y-104830517D01*
X144102668Y-104685374D01*
X144187334Y-104540231D01*
X144272001Y-104467660D01*
X144441334Y-104395089D01*
X144864668Y-104395089D01*
X145118668Y-104467660D01*
X145711334Y-104395089D02*
X146134667Y-105919089D01*
X146473334Y-104830517D01*
X146812001Y-105919089D01*
X147235334Y-104395089D01*
X147743334Y-104395089D02*
X148844001Y-104395089D01*
X148251334Y-104975660D01*
X148505334Y-104975660D01*
X148674667Y-105048231D01*
X148759334Y-105120803D01*
X148844001Y-105265946D01*
X148844001Y-105628803D01*
X148759334Y-105773946D01*
X148674667Y-105846517D01*
X148505334Y-105919089D01*
X147997334Y-105919089D01*
X147828001Y-105846517D01*
X147743334Y-105773946D01*
X149606000Y-105773946D02*
X149690667Y-105846517D01*
X149606000Y-105919089D01*
X149521334Y-105846517D01*
X149606000Y-105773946D01*
X149606000Y-105919089D01*
X149606000Y-104975660D02*
X149690667Y-105048231D01*
X149606000Y-105120803D01*
X149521334Y-105048231D01*
X149606000Y-104975660D01*
X149606000Y-105120803D01*
X151384001Y-105919089D02*
X150368001Y-105919089D01*
X150876001Y-105919089D02*
X150876001Y-104395089D01*
X150706667Y-104612803D01*
X150537334Y-104757946D01*
X150368001Y-104830517D01*
X153077334Y-105919089D02*
X152061334Y-105919089D01*
X152569334Y-105919089D02*
X152569334Y-104395089D01*
X152400000Y-104612803D01*
X152230667Y-104757946D01*
X152061334Y-104830517D01*
X125052668Y-104248857D02*
X125306668Y-104321429D01*
X125730001Y-104321429D01*
X125899334Y-104248857D01*
X125984001Y-104176286D01*
X126068668Y-104031143D01*
X126068668Y-103886000D01*
X125984001Y-103740857D01*
X125899334Y-103668286D01*
X125730001Y-103595714D01*
X125391334Y-103523143D01*
X125222001Y-103450571D01*
X125137334Y-103378000D01*
X125052668Y-103232857D01*
X125052668Y-103087714D01*
X125137334Y-102942571D01*
X125222001Y-102870000D01*
X125391334Y-102797429D01*
X125814668Y-102797429D01*
X126068668Y-102870000D01*
X126661334Y-102797429D02*
X127084667Y-104321429D01*
X127423334Y-103232857D01*
X127762001Y-104321429D01*
X128185334Y-102797429D01*
X128693334Y-102797429D02*
X129794001Y-102797429D01*
X129201334Y-103378000D01*
X129455334Y-103378000D01*
X129624667Y-103450571D01*
X129709334Y-103523143D01*
X129794001Y-103668286D01*
X129794001Y-104031143D01*
X129709334Y-104176286D01*
X129624667Y-104248857D01*
X129455334Y-104321429D01*
X128947334Y-104321429D01*
X128778001Y-104248857D01*
X128693334Y-104176286D01*
X130556000Y-104176286D02*
X130640667Y-104248857D01*
X130556000Y-104321429D01*
X130471334Y-104248857D01*
X130556000Y-104176286D01*
X130556000Y-104321429D01*
X130556000Y-103378000D02*
X130640667Y-103450571D01*
X130556000Y-103523143D01*
X130471334Y-103450571D01*
X130556000Y-103378000D01*
X130556000Y-103523143D01*
X132334001Y-104321429D02*
X131318001Y-104321429D01*
X131826001Y-104321429D02*
X131826001Y-102797429D01*
X131656667Y-103015143D01*
X131487334Y-103160286D01*
X131318001Y-103232857D01*
X133434667Y-102797429D02*
X133604000Y-102797429D01*
X133773334Y-102870000D01*
X133858000Y-102942571D01*
X133942667Y-103087714D01*
X134027334Y-103378000D01*
X134027334Y-103740857D01*
X133942667Y-104031143D01*
X133858000Y-104176286D01*
X133773334Y-104248857D01*
X133604000Y-104321429D01*
X133434667Y-104321429D01*
X133265334Y-104248857D01*
X133180667Y-104176286D01*
X133096000Y-104031143D01*
X133011334Y-103740857D01*
X133011334Y-103378000D01*
X133096000Y-103087714D01*
X133180667Y-102942571D01*
X133265334Y-102870000D01*
X133434667Y-102797429D01*
X106849334Y-105846517D02*
X107103334Y-105919089D01*
X107526667Y-105919089D01*
X107696000Y-105846517D01*
X107780667Y-105773946D01*
X107865334Y-105628803D01*
X107865334Y-105483660D01*
X107780667Y-105338517D01*
X107696000Y-105265946D01*
X107526667Y-105193374D01*
X107188000Y-105120803D01*
X107018667Y-105048231D01*
X106934000Y-104975660D01*
X106849334Y-104830517D01*
X106849334Y-104685374D01*
X106934000Y-104540231D01*
X107018667Y-104467660D01*
X107188000Y-104395089D01*
X107611334Y-104395089D01*
X107865334Y-104467660D01*
X108458000Y-104395089D02*
X108881333Y-105919089D01*
X109220000Y-104830517D01*
X109558667Y-105919089D01*
X109982000Y-104395089D01*
X110490000Y-104395089D02*
X111590667Y-104395089D01*
X110998000Y-104975660D01*
X111252000Y-104975660D01*
X111421333Y-105048231D01*
X111506000Y-105120803D01*
X111590667Y-105265946D01*
X111590667Y-105628803D01*
X111506000Y-105773946D01*
X111421333Y-105846517D01*
X111252000Y-105919089D01*
X110744000Y-105919089D01*
X110574667Y-105846517D01*
X110490000Y-105773946D01*
X112352666Y-105773946D02*
X112437333Y-105846517D01*
X112352666Y-105919089D01*
X112268000Y-105846517D01*
X112352666Y-105773946D01*
X112352666Y-105919089D01*
X112352666Y-104975660D02*
X112437333Y-105048231D01*
X112352666Y-105120803D01*
X112268000Y-105048231D01*
X112352666Y-104975660D01*
X112352666Y-105120803D01*
X113284000Y-105919089D02*
X113622667Y-105919089D01*
X113792000Y-105846517D01*
X113876667Y-105773946D01*
X114046000Y-105556231D01*
X114130667Y-105265946D01*
X114130667Y-104685374D01*
X114046000Y-104540231D01*
X113961333Y-104467660D01*
X113792000Y-104395089D01*
X113453333Y-104395089D01*
X113284000Y-104467660D01*
X113199333Y-104540231D01*
X113114667Y-104685374D01*
X113114667Y-105048231D01*
X113199333Y-105193374D01*
X113284000Y-105265946D01*
X113453333Y-105338517D01*
X113792000Y-105338517D01*
X113961333Y-105265946D01*
X114046000Y-105193374D01*
X114130667Y-105048231D01*
X87799334Y-107116517D02*
X88053334Y-107189089D01*
X88476667Y-107189089D01*
X88646000Y-107116517D01*
X88730667Y-107043946D01*
X88815334Y-106898803D01*
X88815334Y-106753660D01*
X88730667Y-106608517D01*
X88646000Y-106535946D01*
X88476667Y-106463374D01*
X88138000Y-106390803D01*
X87968667Y-106318231D01*
X87884000Y-106245660D01*
X87799334Y-106100517D01*
X87799334Y-105955374D01*
X87884000Y-105810231D01*
X87968667Y-105737660D01*
X88138000Y-105665089D01*
X88561334Y-105665089D01*
X88815334Y-105737660D01*
X89408000Y-105665089D02*
X89831333Y-107189089D01*
X90170000Y-106100517D01*
X90508667Y-107189089D01*
X90932000Y-105665089D01*
X91440000Y-105665089D02*
X92540667Y-105665089D01*
X91948000Y-106245660D01*
X92202000Y-106245660D01*
X92371333Y-106318231D01*
X92456000Y-106390803D01*
X92540667Y-106535946D01*
X92540667Y-106898803D01*
X92456000Y-107043946D01*
X92371333Y-107116517D01*
X92202000Y-107189089D01*
X91694000Y-107189089D01*
X91524667Y-107116517D01*
X91440000Y-107043946D01*
X93302666Y-107043946D02*
X93387333Y-107116517D01*
X93302666Y-107189089D01*
X93218000Y-107116517D01*
X93302666Y-107043946D01*
X93302666Y-107189089D01*
X93302666Y-106245660D02*
X93387333Y-106318231D01*
X93302666Y-106390803D01*
X93218000Y-106318231D01*
X93302666Y-106245660D01*
X93302666Y-106390803D01*
X94403333Y-106318231D02*
X94234000Y-106245660D01*
X94149333Y-106173089D01*
X94064667Y-106027946D01*
X94064667Y-105955374D01*
X94149333Y-105810231D01*
X94234000Y-105737660D01*
X94403333Y-105665089D01*
X94742000Y-105665089D01*
X94911333Y-105737660D01*
X94996000Y-105810231D01*
X95080667Y-105955374D01*
X95080667Y-106027946D01*
X94996000Y-106173089D01*
X94911333Y-106245660D01*
X94742000Y-106318231D01*
X94403333Y-106318231D01*
X94234000Y-106390803D01*
X94149333Y-106463374D01*
X94064667Y-106608517D01*
X94064667Y-106898803D01*
X94149333Y-107043946D01*
X94234000Y-107116517D01*
X94403333Y-107189089D01*
X94742000Y-107189089D01*
X94911333Y-107116517D01*
X94996000Y-107043946D01*
X95080667Y-106898803D01*
X95080667Y-106608517D01*
X94996000Y-106463374D01*
X94911333Y-106390803D01*
X94742000Y-106318231D01*
X163152668Y-128071517D02*
X163406668Y-128144089D01*
X163830001Y-128144089D01*
X163999334Y-128071517D01*
X164084001Y-127998946D01*
X164168668Y-127853803D01*
X164168668Y-127708660D01*
X164084001Y-127563517D01*
X163999334Y-127490946D01*
X163830001Y-127418374D01*
X163491334Y-127345803D01*
X163322001Y-127273231D01*
X163237334Y-127200660D01*
X163152668Y-127055517D01*
X163152668Y-126910374D01*
X163237334Y-126765231D01*
X163322001Y-126692660D01*
X163491334Y-126620089D01*
X163914668Y-126620089D01*
X164168668Y-126692660D01*
X164761334Y-126620089D02*
X165184667Y-128144089D01*
X165523334Y-127055517D01*
X165862001Y-128144089D01*
X166285334Y-126620089D01*
X166878001Y-126765231D02*
X166962667Y-126692660D01*
X167132001Y-126620089D01*
X167555334Y-126620089D01*
X167724667Y-126692660D01*
X167809334Y-126765231D01*
X167894001Y-126910374D01*
X167894001Y-127055517D01*
X167809334Y-127273231D01*
X166793334Y-128144089D01*
X167894001Y-128144089D01*
X168656000Y-127998946D02*
X168740667Y-128071517D01*
X168656000Y-128144089D01*
X168571334Y-128071517D01*
X168656000Y-127998946D01*
X168656000Y-128144089D01*
X168656000Y-127200660D02*
X168740667Y-127273231D01*
X168656000Y-127345803D01*
X168571334Y-127273231D01*
X168656000Y-127200660D01*
X168656000Y-127345803D01*
X170434001Y-128144089D02*
X169418001Y-128144089D01*
X169926001Y-128144089D02*
X169926001Y-126620089D01*
X169756667Y-126837803D01*
X169587334Y-126982946D01*
X169418001Y-127055517D01*
X171111334Y-126765231D02*
X171196000Y-126692660D01*
X171365334Y-126620089D01*
X171788667Y-126620089D01*
X171958000Y-126692660D01*
X172042667Y-126765231D01*
X172127334Y-126910374D01*
X172127334Y-127055517D01*
X172042667Y-127273231D01*
X171026667Y-128144089D01*
X172127334Y-128144089D01*
X144102668Y-124896517D02*
X144356668Y-124969089D01*
X144780001Y-124969089D01*
X144949334Y-124896517D01*
X145034001Y-124823946D01*
X145118668Y-124678803D01*
X145118668Y-124533660D01*
X145034001Y-124388517D01*
X144949334Y-124315946D01*
X144780001Y-124243374D01*
X144441334Y-124170803D01*
X144272001Y-124098231D01*
X144187334Y-124025660D01*
X144102668Y-123880517D01*
X144102668Y-123735374D01*
X144187334Y-123590231D01*
X144272001Y-123517660D01*
X144441334Y-123445089D01*
X144864668Y-123445089D01*
X145118668Y-123517660D01*
X145711334Y-123445089D02*
X146134667Y-124969089D01*
X146473334Y-123880517D01*
X146812001Y-124969089D01*
X147235334Y-123445089D01*
X147828001Y-123590231D02*
X147912667Y-123517660D01*
X148082001Y-123445089D01*
X148505334Y-123445089D01*
X148674667Y-123517660D01*
X148759334Y-123590231D01*
X148844001Y-123735374D01*
X148844001Y-123880517D01*
X148759334Y-124098231D01*
X147743334Y-124969089D01*
X148844001Y-124969089D01*
X149606000Y-124823946D02*
X149690667Y-124896517D01*
X149606000Y-124969089D01*
X149521334Y-124896517D01*
X149606000Y-124823946D01*
X149606000Y-124969089D01*
X149606000Y-124025660D02*
X149690667Y-124098231D01*
X149606000Y-124170803D01*
X149521334Y-124098231D01*
X149606000Y-124025660D01*
X149606000Y-124170803D01*
X151384001Y-124969089D02*
X150368001Y-124969089D01*
X150876001Y-124969089D02*
X150876001Y-123445089D01*
X150706667Y-123662803D01*
X150537334Y-123807946D01*
X150368001Y-123880517D01*
X153077334Y-124969089D02*
X152061334Y-124969089D01*
X152569334Y-124969089D02*
X152569334Y-123445089D01*
X152400000Y-123662803D01*
X152230667Y-123807946D01*
X152061334Y-123880517D01*
X125052668Y-123298857D02*
X125306668Y-123371429D01*
X125730001Y-123371429D01*
X125899334Y-123298857D01*
X125984001Y-123226286D01*
X126068668Y-123081143D01*
X126068668Y-122936000D01*
X125984001Y-122790857D01*
X125899334Y-122718286D01*
X125730001Y-122645714D01*
X125391334Y-122573143D01*
X125222001Y-122500571D01*
X125137334Y-122428000D01*
X125052668Y-122282857D01*
X125052668Y-122137714D01*
X125137334Y-121992571D01*
X125222001Y-121920000D01*
X125391334Y-121847429D01*
X125814668Y-121847429D01*
X126068668Y-121920000D01*
X126661334Y-121847429D02*
X127084667Y-123371429D01*
X127423334Y-122282857D01*
X127762001Y-123371429D01*
X128185334Y-121847429D01*
X128778001Y-121992571D02*
X128862667Y-121920000D01*
X129032001Y-121847429D01*
X129455334Y-121847429D01*
X129624667Y-121920000D01*
X129709334Y-121992571D01*
X129794001Y-122137714D01*
X129794001Y-122282857D01*
X129709334Y-122500571D01*
X128693334Y-123371429D01*
X129794001Y-123371429D01*
X130556000Y-123226286D02*
X130640667Y-123298857D01*
X130556000Y-123371429D01*
X130471334Y-123298857D01*
X130556000Y-123226286D01*
X130556000Y-123371429D01*
X130556000Y-122428000D02*
X130640667Y-122500571D01*
X130556000Y-122573143D01*
X130471334Y-122500571D01*
X130556000Y-122428000D01*
X130556000Y-122573143D01*
X132334001Y-123371429D02*
X131318001Y-123371429D01*
X131826001Y-123371429D02*
X131826001Y-121847429D01*
X131656667Y-122065143D01*
X131487334Y-122210286D01*
X131318001Y-122282857D01*
X133434667Y-121847429D02*
X133604000Y-121847429D01*
X133773334Y-121920000D01*
X133858000Y-121992571D01*
X133942667Y-122137714D01*
X134027334Y-122428000D01*
X134027334Y-122790857D01*
X133942667Y-123081143D01*
X133858000Y-123226286D01*
X133773334Y-123298857D01*
X133604000Y-123371429D01*
X133434667Y-123371429D01*
X133265334Y-123298857D01*
X133180667Y-123226286D01*
X133096000Y-123081143D01*
X133011334Y-122790857D01*
X133011334Y-122428000D01*
X133096000Y-122137714D01*
X133180667Y-121992571D01*
X133265334Y-121920000D01*
X133434667Y-121847429D01*
X106849334Y-124896517D02*
X107103334Y-124969089D01*
X107526667Y-124969089D01*
X107696000Y-124896517D01*
X107780667Y-124823946D01*
X107865334Y-124678803D01*
X107865334Y-124533660D01*
X107780667Y-124388517D01*
X107696000Y-124315946D01*
X107526667Y-124243374D01*
X107188000Y-124170803D01*
X107018667Y-124098231D01*
X106934000Y-124025660D01*
X106849334Y-123880517D01*
X106849334Y-123735374D01*
X106934000Y-123590231D01*
X107018667Y-123517660D01*
X107188000Y-123445089D01*
X107611334Y-123445089D01*
X107865334Y-123517660D01*
X108458000Y-123445089D02*
X108881333Y-124969089D01*
X109220000Y-123880517D01*
X109558667Y-124969089D01*
X109982000Y-123445089D01*
X110574667Y-123590231D02*
X110659333Y-123517660D01*
X110828667Y-123445089D01*
X111252000Y-123445089D01*
X111421333Y-123517660D01*
X111506000Y-123590231D01*
X111590667Y-123735374D01*
X111590667Y-123880517D01*
X111506000Y-124098231D01*
X110490000Y-124969089D01*
X111590667Y-124969089D01*
X112352666Y-124823946D02*
X112437333Y-124896517D01*
X112352666Y-124969089D01*
X112268000Y-124896517D01*
X112352666Y-124823946D01*
X112352666Y-124969089D01*
X112352666Y-124025660D02*
X112437333Y-124098231D01*
X112352666Y-124170803D01*
X112268000Y-124098231D01*
X112352666Y-124025660D01*
X112352666Y-124170803D01*
X113284000Y-124969089D02*
X113622667Y-124969089D01*
X113792000Y-124896517D01*
X113876667Y-124823946D01*
X114046000Y-124606231D01*
X114130667Y-124315946D01*
X114130667Y-123735374D01*
X114046000Y-123590231D01*
X113961333Y-123517660D01*
X113792000Y-123445089D01*
X113453333Y-123445089D01*
X113284000Y-123517660D01*
X113199333Y-123590231D01*
X113114667Y-123735374D01*
X113114667Y-124098231D01*
X113199333Y-124243374D01*
X113284000Y-124315946D01*
X113453333Y-124388517D01*
X113792000Y-124388517D01*
X113961333Y-124315946D01*
X114046000Y-124243374D01*
X114130667Y-124098231D01*
X87799334Y-126166517D02*
X88053334Y-126239089D01*
X88476667Y-126239089D01*
X88646000Y-126166517D01*
X88730667Y-126093946D01*
X88815334Y-125948803D01*
X88815334Y-125803660D01*
X88730667Y-125658517D01*
X88646000Y-125585946D01*
X88476667Y-125513374D01*
X88138000Y-125440803D01*
X87968667Y-125368231D01*
X87884000Y-125295660D01*
X87799334Y-125150517D01*
X87799334Y-125005374D01*
X87884000Y-124860231D01*
X87968667Y-124787660D01*
X88138000Y-124715089D01*
X88561334Y-124715089D01*
X88815334Y-124787660D01*
X89408000Y-124715089D02*
X89831333Y-126239089D01*
X90170000Y-125150517D01*
X90508667Y-126239089D01*
X90932000Y-124715089D01*
X91524667Y-124860231D02*
X91609333Y-124787660D01*
X91778667Y-124715089D01*
X92202000Y-124715089D01*
X92371333Y-124787660D01*
X92456000Y-124860231D01*
X92540667Y-125005374D01*
X92540667Y-125150517D01*
X92456000Y-125368231D01*
X91440000Y-126239089D01*
X92540667Y-126239089D01*
X93302666Y-126093946D02*
X93387333Y-126166517D01*
X93302666Y-126239089D01*
X93218000Y-126166517D01*
X93302666Y-126093946D01*
X93302666Y-126239089D01*
X93302666Y-125295660D02*
X93387333Y-125368231D01*
X93302666Y-125440803D01*
X93218000Y-125368231D01*
X93302666Y-125295660D01*
X93302666Y-125440803D01*
X94403333Y-125368231D02*
X94234000Y-125295660D01*
X94149333Y-125223089D01*
X94064667Y-125077946D01*
X94064667Y-125005374D01*
X94149333Y-124860231D01*
X94234000Y-124787660D01*
X94403333Y-124715089D01*
X94742000Y-124715089D01*
X94911333Y-124787660D01*
X94996000Y-124860231D01*
X95080667Y-125005374D01*
X95080667Y-125077946D01*
X94996000Y-125223089D01*
X94911333Y-125295660D01*
X94742000Y-125368231D01*
X94403333Y-125368231D01*
X94234000Y-125440803D01*
X94149333Y-125513374D01*
X94064667Y-125658517D01*
X94064667Y-125948803D01*
X94149333Y-126093946D01*
X94234000Y-126166517D01*
X94403333Y-126239089D01*
X94742000Y-126239089D01*
X94911333Y-126166517D01*
X94996000Y-126093946D01*
X95080667Y-125948803D01*
X95080667Y-125658517D01*
X94996000Y-125513374D01*
X94911333Y-125440803D01*
X94742000Y-125368231D01*
X163152668Y-147121517D02*
X163406668Y-147194089D01*
X163830001Y-147194089D01*
X163999334Y-147121517D01*
X164084001Y-147048946D01*
X164168668Y-146903803D01*
X164168668Y-146758660D01*
X164084001Y-146613517D01*
X163999334Y-146540946D01*
X163830001Y-146468374D01*
X163491334Y-146395803D01*
X163322001Y-146323231D01*
X163237334Y-146250660D01*
X163152668Y-146105517D01*
X163152668Y-145960374D01*
X163237334Y-145815231D01*
X163322001Y-145742660D01*
X163491334Y-145670089D01*
X163914668Y-145670089D01*
X164168668Y-145742660D01*
X164761334Y-145670089D02*
X165184667Y-147194089D01*
X165523334Y-146105517D01*
X165862001Y-147194089D01*
X166285334Y-145670089D01*
X167894001Y-147194089D02*
X166878001Y-147194089D01*
X167386001Y-147194089D02*
X167386001Y-145670089D01*
X167216667Y-145887803D01*
X167047334Y-146032946D01*
X166878001Y-146105517D01*
X168656000Y-147048946D02*
X168740667Y-147121517D01*
X168656000Y-147194089D01*
X168571334Y-147121517D01*
X168656000Y-147048946D01*
X168656000Y-147194089D01*
X168656000Y-146250660D02*
X168740667Y-146323231D01*
X168656000Y-146395803D01*
X168571334Y-146323231D01*
X168656000Y-146250660D01*
X168656000Y-146395803D01*
X170434001Y-147194089D02*
X169418001Y-147194089D01*
X169926001Y-147194089D02*
X169926001Y-145670089D01*
X169756667Y-145887803D01*
X169587334Y-146032946D01*
X169418001Y-146105517D01*
X171111334Y-145815231D02*
X171196000Y-145742660D01*
X171365334Y-145670089D01*
X171788667Y-145670089D01*
X171958000Y-145742660D01*
X172042667Y-145815231D01*
X172127334Y-145960374D01*
X172127334Y-146105517D01*
X172042667Y-146323231D01*
X171026667Y-147194089D01*
X172127334Y-147194089D01*
X125052668Y-142348857D02*
X125306668Y-142421429D01*
X125730001Y-142421429D01*
X125899334Y-142348857D01*
X125984001Y-142276286D01*
X126068668Y-142131143D01*
X126068668Y-141986000D01*
X125984001Y-141840857D01*
X125899334Y-141768286D01*
X125730001Y-141695714D01*
X125391334Y-141623143D01*
X125222001Y-141550571D01*
X125137334Y-141478000D01*
X125052668Y-141332857D01*
X125052668Y-141187714D01*
X125137334Y-141042571D01*
X125222001Y-140970000D01*
X125391334Y-140897429D01*
X125814668Y-140897429D01*
X126068668Y-140970000D01*
X126661334Y-140897429D02*
X127084667Y-142421429D01*
X127423334Y-141332857D01*
X127762001Y-142421429D01*
X128185334Y-140897429D01*
X129794001Y-142421429D02*
X128778001Y-142421429D01*
X129286001Y-142421429D02*
X129286001Y-140897429D01*
X129116667Y-141115143D01*
X128947334Y-141260286D01*
X128778001Y-141332857D01*
X130556000Y-142276286D02*
X130640667Y-142348857D01*
X130556000Y-142421429D01*
X130471334Y-142348857D01*
X130556000Y-142276286D01*
X130556000Y-142421429D01*
X130556000Y-141478000D02*
X130640667Y-141550571D01*
X130556000Y-141623143D01*
X130471334Y-141550571D01*
X130556000Y-141478000D01*
X130556000Y-141623143D01*
X132334001Y-142421429D02*
X131318001Y-142421429D01*
X131826001Y-142421429D02*
X131826001Y-140897429D01*
X131656667Y-141115143D01*
X131487334Y-141260286D01*
X131318001Y-141332857D01*
X133434667Y-140897429D02*
X133604000Y-140897429D01*
X133773334Y-140970000D01*
X133858000Y-141042571D01*
X133942667Y-141187714D01*
X134027334Y-141478000D01*
X134027334Y-141840857D01*
X133942667Y-142131143D01*
X133858000Y-142276286D01*
X133773334Y-142348857D01*
X133604000Y-142421429D01*
X133434667Y-142421429D01*
X133265334Y-142348857D01*
X133180667Y-142276286D01*
X133096000Y-142131143D01*
X133011334Y-141840857D01*
X133011334Y-141478000D01*
X133096000Y-141187714D01*
X133180667Y-141042571D01*
X133265334Y-140970000D01*
X133434667Y-140897429D01*
X106849334Y-143946517D02*
X107103334Y-144019089D01*
X107526667Y-144019089D01*
X107696000Y-143946517D01*
X107780667Y-143873946D01*
X107865334Y-143728803D01*
X107865334Y-143583660D01*
X107780667Y-143438517D01*
X107696000Y-143365946D01*
X107526667Y-143293374D01*
X107188000Y-143220803D01*
X107018667Y-143148231D01*
X106934000Y-143075660D01*
X106849334Y-142930517D01*
X106849334Y-142785374D01*
X106934000Y-142640231D01*
X107018667Y-142567660D01*
X107188000Y-142495089D01*
X107611334Y-142495089D01*
X107865334Y-142567660D01*
X108458000Y-142495089D02*
X108881333Y-144019089D01*
X109220000Y-142930517D01*
X109558667Y-144019089D01*
X109982000Y-142495089D01*
X111590667Y-144019089D02*
X110574667Y-144019089D01*
X111082667Y-144019089D02*
X111082667Y-142495089D01*
X110913333Y-142712803D01*
X110744000Y-142857946D01*
X110574667Y-142930517D01*
X112352666Y-143873946D02*
X112437333Y-143946517D01*
X112352666Y-144019089D01*
X112268000Y-143946517D01*
X112352666Y-143873946D01*
X112352666Y-144019089D01*
X112352666Y-143075660D02*
X112437333Y-143148231D01*
X112352666Y-143220803D01*
X112268000Y-143148231D01*
X112352666Y-143075660D01*
X112352666Y-143220803D01*
X113284000Y-144019089D02*
X113622667Y-144019089D01*
X113792000Y-143946517D01*
X113876667Y-143873946D01*
X114046000Y-143656231D01*
X114130667Y-143365946D01*
X114130667Y-142785374D01*
X114046000Y-142640231D01*
X113961333Y-142567660D01*
X113792000Y-142495089D01*
X113453333Y-142495089D01*
X113284000Y-142567660D01*
X113199333Y-142640231D01*
X113114667Y-142785374D01*
X113114667Y-143148231D01*
X113199333Y-143293374D01*
X113284000Y-143365946D01*
X113453333Y-143438517D01*
X113792000Y-143438517D01*
X113961333Y-143365946D01*
X114046000Y-143293374D01*
X114130667Y-143148231D01*
X81839997Y-147863785D02*
X81881570Y-148124658D01*
X82060478Y-148508328D01*
X82197814Y-148631125D01*
X82299367Y-148677190D01*
X82466693Y-148692584D01*
X82598238Y-148631244D01*
X82694000Y-148493169D01*
X82723990Y-148385765D01*
X82718199Y-148201627D01*
X82640844Y-147864021D01*
X82635053Y-147679883D01*
X82665043Y-147572478D01*
X82760806Y-147434405D01*
X82892350Y-147373065D01*
X83059676Y-147388458D01*
X83161229Y-147434523D01*
X83298564Y-147557321D01*
X83477473Y-147940992D01*
X83519046Y-148201864D01*
X83835289Y-148708332D02*
X82632985Y-149736072D01*
X83762693Y-149582958D01*
X82919238Y-150349945D01*
X84479360Y-150089545D01*
X84908740Y-151010353D02*
X84980303Y-151163821D01*
X84986095Y-151347960D01*
X84956105Y-151455363D01*
X84860342Y-151593438D01*
X84633036Y-151792852D01*
X84304176Y-151946202D01*
X84005305Y-151992148D01*
X83837979Y-151976754D01*
X83736426Y-151930690D01*
X83599090Y-151807891D01*
X83527527Y-151654424D01*
X83521736Y-151470286D01*
X83551726Y-151362881D01*
X83647488Y-151224807D01*
X83874795Y-151025393D01*
X84203655Y-150872043D01*
X84502525Y-150826097D01*
X84669851Y-150841491D01*
X84771405Y-150887555D01*
X84908740Y-151010353D01*
X84231578Y-152820828D02*
X84201588Y-152928232D01*
X84100033Y-152882168D01*
X84130024Y-152774764D01*
X84231578Y-152820828D01*
X84100033Y-152882168D01*
X84955070Y-152483458D02*
X84925080Y-152590862D01*
X84823526Y-152544798D01*
X84853517Y-152437394D01*
X84955070Y-152483458D01*
X84823526Y-152544798D01*
X84851449Y-154493584D02*
X84422069Y-153572775D01*
X84636759Y-154033180D02*
X86017972Y-153389110D01*
X85749092Y-153327651D01*
X85545985Y-153235523D01*
X85408650Y-153112725D01*
X86697824Y-154847056D02*
X86769387Y-155000524D01*
X86775179Y-155184662D01*
X86745189Y-155292066D01*
X86649426Y-155430140D01*
X86422119Y-155629555D01*
X86093259Y-155782905D01*
X85794389Y-155828851D01*
X85627063Y-155813456D01*
X85525510Y-155767393D01*
X85388174Y-155644594D01*
X85316611Y-155491126D01*
X85310820Y-155306988D01*
X85340810Y-155199584D01*
X85436572Y-155061510D01*
X85663879Y-154862096D01*
X85992739Y-154708746D01*
X86291609Y-154662799D01*
X86458935Y-154678194D01*
X86560489Y-154724258D01*
X86697824Y-154847056D01*
X64575617Y-155915585D02*
X64617190Y-156176458D01*
X64796098Y-156560128D01*
X64933434Y-156682925D01*
X65034987Y-156728990D01*
X65202313Y-156744384D01*
X65333858Y-156683044D01*
X65429620Y-156544969D01*
X65459610Y-156437565D01*
X65453819Y-156253427D01*
X65376464Y-155915821D01*
X65370673Y-155731683D01*
X65400663Y-155624278D01*
X65496426Y-155486205D01*
X65627970Y-155424865D01*
X65795296Y-155440258D01*
X65896849Y-155486323D01*
X66034184Y-155609121D01*
X66213093Y-155992792D01*
X66254666Y-156253664D01*
X66570909Y-156760132D02*
X65368605Y-157787872D01*
X66498313Y-157634758D01*
X65654858Y-158401745D01*
X67214980Y-158141345D01*
X67644360Y-159062153D02*
X67715923Y-159215621D01*
X67721715Y-159399760D01*
X67691725Y-159507163D01*
X67595962Y-159645238D01*
X67368656Y-159844652D01*
X67039796Y-159998002D01*
X66740925Y-160043948D01*
X66573599Y-160028554D01*
X66472046Y-159982490D01*
X66334710Y-159859691D01*
X66263147Y-159706224D01*
X66257356Y-159522086D01*
X66287346Y-159414681D01*
X66383108Y-159276607D01*
X66610415Y-159077193D01*
X66939275Y-158923843D01*
X67238145Y-158877897D01*
X67405471Y-158893291D01*
X67507025Y-158939355D01*
X67644360Y-159062153D01*
X66967198Y-160872628D02*
X66937208Y-160980032D01*
X66835653Y-160933968D01*
X66865644Y-160826564D01*
X66967198Y-160872628D01*
X66835653Y-160933968D01*
X67690690Y-160535258D02*
X67660700Y-160642662D01*
X67559146Y-160596598D01*
X67589137Y-160489194D01*
X67690690Y-160535258D01*
X67559146Y-160596598D01*
X67587069Y-162545384D02*
X67157689Y-161624575D01*
X67372379Y-162084980D02*
X68753592Y-161440910D01*
X68484712Y-161379451D01*
X68281605Y-161287323D01*
X68144270Y-161164525D01*
X68302702Y-164080065D02*
X67873322Y-163159256D01*
X68088012Y-163619661D02*
X69469225Y-162975590D01*
X69200346Y-162914132D01*
X68997238Y-162822004D01*
X68859904Y-162699206D01*
X144102668Y-86796517D02*
X144356668Y-86869089D01*
X144780001Y-86869089D01*
X144949334Y-86796517D01*
X145034001Y-86723946D01*
X145118668Y-86578803D01*
X145118668Y-86433660D01*
X145034001Y-86288517D01*
X144949334Y-86215946D01*
X144780001Y-86143374D01*
X144441334Y-86070803D01*
X144272001Y-85998231D01*
X144187334Y-85925660D01*
X144102668Y-85780517D01*
X144102668Y-85635374D01*
X144187334Y-85490231D01*
X144272001Y-85417660D01*
X144441334Y-85345089D01*
X144864668Y-85345089D01*
X145118668Y-85417660D01*
X145711334Y-85345089D02*
X146134667Y-86869089D01*
X146473334Y-85780517D01*
X146812001Y-86869089D01*
X147235334Y-85345089D01*
X148674667Y-85853089D02*
X148674667Y-86869089D01*
X148251334Y-85272517D02*
X147828001Y-86361089D01*
X148928667Y-86361089D01*
X149606000Y-86723946D02*
X149690667Y-86796517D01*
X149606000Y-86869089D01*
X149521334Y-86796517D01*
X149606000Y-86723946D01*
X149606000Y-86869089D01*
X149606000Y-85925660D02*
X149690667Y-85998231D01*
X149606000Y-86070803D01*
X149521334Y-85998231D01*
X149606000Y-85925660D01*
X149606000Y-86070803D01*
X151384001Y-86869089D02*
X150368001Y-86869089D01*
X150876001Y-86869089D02*
X150876001Y-85345089D01*
X150706667Y-85562803D01*
X150537334Y-85707946D01*
X150368001Y-85780517D01*
X153077334Y-86869089D02*
X152061334Y-86869089D01*
X152569334Y-86869089D02*
X152569334Y-85345089D01*
X152400000Y-85562803D01*
X152230667Y-85707946D01*
X152061334Y-85780517D01*
X87799334Y-69019057D02*
X88053334Y-69091629D01*
X88476667Y-69091629D01*
X88646000Y-69019057D01*
X88730667Y-68946486D01*
X88815334Y-68801343D01*
X88815334Y-68656200D01*
X88730667Y-68511057D01*
X88646000Y-68438486D01*
X88476667Y-68365914D01*
X88138000Y-68293343D01*
X87968667Y-68220771D01*
X87884000Y-68148200D01*
X87799334Y-68003057D01*
X87799334Y-67857914D01*
X87884000Y-67712771D01*
X87968667Y-67640200D01*
X88138000Y-67567629D01*
X88561334Y-67567629D01*
X88815334Y-67640200D01*
X89408000Y-67567629D02*
X89831333Y-69091629D01*
X90170000Y-68003057D01*
X90508667Y-69091629D01*
X90932000Y-67567629D01*
X92456000Y-67567629D02*
X91609333Y-67567629D01*
X91524667Y-68293343D01*
X91609333Y-68220771D01*
X91778667Y-68148200D01*
X92202000Y-68148200D01*
X92371333Y-68220771D01*
X92456000Y-68293343D01*
X92540667Y-68438486D01*
X92540667Y-68801343D01*
X92456000Y-68946486D01*
X92371333Y-69019057D01*
X92202000Y-69091629D01*
X91778667Y-69091629D01*
X91609333Y-69019057D01*
X91524667Y-68946486D01*
X93302666Y-68946486D02*
X93387333Y-69019057D01*
X93302666Y-69091629D01*
X93218000Y-69019057D01*
X93302666Y-68946486D01*
X93302666Y-69091629D01*
X93302666Y-68148200D02*
X93387333Y-68220771D01*
X93302666Y-68293343D01*
X93218000Y-68220771D01*
X93302666Y-68148200D01*
X93302666Y-68293343D01*
X94403333Y-68220771D02*
X94234000Y-68148200D01*
X94149333Y-68075629D01*
X94064667Y-67930486D01*
X94064667Y-67857914D01*
X94149333Y-67712771D01*
X94234000Y-67640200D01*
X94403333Y-67567629D01*
X94742000Y-67567629D01*
X94911333Y-67640200D01*
X94996000Y-67712771D01*
X95080667Y-67857914D01*
X95080667Y-67930486D01*
X94996000Y-68075629D01*
X94911333Y-68148200D01*
X94742000Y-68220771D01*
X94403333Y-68220771D01*
X94234000Y-68293343D01*
X94149333Y-68365914D01*
X94064667Y-68511057D01*
X94064667Y-68801343D01*
X94149333Y-68946486D01*
X94234000Y-69019057D01*
X94403333Y-69091629D01*
X94742000Y-69091629D01*
X94911333Y-69019057D01*
X94996000Y-68946486D01*
X95080667Y-68801343D01*
X95080667Y-68511057D01*
X94996000Y-68365914D01*
X94911333Y-68293343D01*
X94742000Y-68220771D01*
X186965168Y-70924057D02*
X187219168Y-70996629D01*
X187642501Y-70996629D01*
X187811834Y-70924057D01*
X187896501Y-70851486D01*
X187981168Y-70706343D01*
X187981168Y-70561200D01*
X187896501Y-70416057D01*
X187811834Y-70343486D01*
X187642501Y-70270914D01*
X187303834Y-70198343D01*
X187134501Y-70125771D01*
X187049834Y-70053200D01*
X186965168Y-69908057D01*
X186965168Y-69762914D01*
X187049834Y-69617771D01*
X187134501Y-69545200D01*
X187303834Y-69472629D01*
X187727168Y-69472629D01*
X187981168Y-69545200D01*
X188573834Y-69472629D02*
X188997167Y-70996629D01*
X189335834Y-69908057D01*
X189674501Y-70996629D01*
X190097834Y-69472629D01*
X191621834Y-69472629D02*
X190775167Y-69472629D01*
X190690501Y-70198343D01*
X190775167Y-70125771D01*
X190944501Y-70053200D01*
X191367834Y-70053200D01*
X191537167Y-70125771D01*
X191621834Y-70198343D01*
X191706501Y-70343486D01*
X191706501Y-70706343D01*
X191621834Y-70851486D01*
X191537167Y-70924057D01*
X191367834Y-70996629D01*
X190944501Y-70996629D01*
X190775167Y-70924057D01*
X190690501Y-70851486D01*
X192468500Y-70851486D02*
X192553167Y-70924057D01*
X192468500Y-70996629D01*
X192383834Y-70924057D01*
X192468500Y-70851486D01*
X192468500Y-70996629D01*
X192468500Y-70053200D02*
X192553167Y-70125771D01*
X192468500Y-70198343D01*
X192383834Y-70125771D01*
X192468500Y-70053200D01*
X192468500Y-70198343D01*
X194246501Y-70996629D02*
X193230501Y-70996629D01*
X193738501Y-70996629D02*
X193738501Y-69472629D01*
X193569167Y-69690343D01*
X193399834Y-69835486D01*
X193230501Y-69908057D01*
X194839167Y-69472629D02*
X195939834Y-69472629D01*
X195347167Y-70053200D01*
X195601167Y-70053200D01*
X195770500Y-70125771D01*
X195855167Y-70198343D01*
X195939834Y-70343486D01*
X195939834Y-70706343D01*
X195855167Y-70851486D01*
X195770500Y-70924057D01*
X195601167Y-70996629D01*
X195093167Y-70996629D01*
X194923834Y-70924057D01*
X194839167Y-70851486D01*
X186965168Y-89971517D02*
X187219168Y-90044089D01*
X187642501Y-90044089D01*
X187811834Y-89971517D01*
X187896501Y-89898946D01*
X187981168Y-89753803D01*
X187981168Y-89608660D01*
X187896501Y-89463517D01*
X187811834Y-89390946D01*
X187642501Y-89318374D01*
X187303834Y-89245803D01*
X187134501Y-89173231D01*
X187049834Y-89100660D01*
X186965168Y-88955517D01*
X186965168Y-88810374D01*
X187049834Y-88665231D01*
X187134501Y-88592660D01*
X187303834Y-88520089D01*
X187727168Y-88520089D01*
X187981168Y-88592660D01*
X188573834Y-88520089D02*
X188997167Y-90044089D01*
X189335834Y-88955517D01*
X189674501Y-90044089D01*
X190097834Y-88520089D01*
X191537167Y-89028089D02*
X191537167Y-90044089D01*
X191113834Y-88447517D02*
X190690501Y-89536089D01*
X191791167Y-89536089D01*
X192468500Y-89898946D02*
X192553167Y-89971517D01*
X192468500Y-90044089D01*
X192383834Y-89971517D01*
X192468500Y-89898946D01*
X192468500Y-90044089D01*
X192468500Y-89100660D02*
X192553167Y-89173231D01*
X192468500Y-89245803D01*
X192383834Y-89173231D01*
X192468500Y-89100660D01*
X192468500Y-89245803D01*
X194246501Y-90044089D02*
X193230501Y-90044089D01*
X193738501Y-90044089D02*
X193738501Y-88520089D01*
X193569167Y-88737803D01*
X193399834Y-88882946D01*
X193230501Y-88955517D01*
X194839167Y-88520089D02*
X195939834Y-88520089D01*
X195347167Y-89100660D01*
X195601167Y-89100660D01*
X195770500Y-89173231D01*
X195855167Y-89245803D01*
X195939834Y-89390946D01*
X195939834Y-89753803D01*
X195855167Y-89898946D01*
X195770500Y-89971517D01*
X195601167Y-90044089D01*
X195093167Y-90044089D01*
X194923834Y-89971517D01*
X194839167Y-89898946D01*
X186965168Y-109021517D02*
X187219168Y-109094089D01*
X187642501Y-109094089D01*
X187811834Y-109021517D01*
X187896501Y-108948946D01*
X187981168Y-108803803D01*
X187981168Y-108658660D01*
X187896501Y-108513517D01*
X187811834Y-108440946D01*
X187642501Y-108368374D01*
X187303834Y-108295803D01*
X187134501Y-108223231D01*
X187049834Y-108150660D01*
X186965168Y-108005517D01*
X186965168Y-107860374D01*
X187049834Y-107715231D01*
X187134501Y-107642660D01*
X187303834Y-107570089D01*
X187727168Y-107570089D01*
X187981168Y-107642660D01*
X188573834Y-107570089D02*
X188997167Y-109094089D01*
X189335834Y-108005517D01*
X189674501Y-109094089D01*
X190097834Y-107570089D01*
X190605834Y-107570089D02*
X191706501Y-107570089D01*
X191113834Y-108150660D01*
X191367834Y-108150660D01*
X191537167Y-108223231D01*
X191621834Y-108295803D01*
X191706501Y-108440946D01*
X191706501Y-108803803D01*
X191621834Y-108948946D01*
X191537167Y-109021517D01*
X191367834Y-109094089D01*
X190859834Y-109094089D01*
X190690501Y-109021517D01*
X190605834Y-108948946D01*
X192468500Y-108948946D02*
X192553167Y-109021517D01*
X192468500Y-109094089D01*
X192383834Y-109021517D01*
X192468500Y-108948946D01*
X192468500Y-109094089D01*
X192468500Y-108150660D02*
X192553167Y-108223231D01*
X192468500Y-108295803D01*
X192383834Y-108223231D01*
X192468500Y-108150660D01*
X192468500Y-108295803D01*
X194246501Y-109094089D02*
X193230501Y-109094089D01*
X193738501Y-109094089D02*
X193738501Y-107570089D01*
X193569167Y-107787803D01*
X193399834Y-107932946D01*
X193230501Y-108005517D01*
X194839167Y-107570089D02*
X195939834Y-107570089D01*
X195347167Y-108150660D01*
X195601167Y-108150660D01*
X195770500Y-108223231D01*
X195855167Y-108295803D01*
X195939834Y-108440946D01*
X195939834Y-108803803D01*
X195855167Y-108948946D01*
X195770500Y-109021517D01*
X195601167Y-109094089D01*
X195093167Y-109094089D01*
X194923834Y-109021517D01*
X194839167Y-108948946D01*
X186965168Y-128071517D02*
X187219168Y-128144089D01*
X187642501Y-128144089D01*
X187811834Y-128071517D01*
X187896501Y-127998946D01*
X187981168Y-127853803D01*
X187981168Y-127708660D01*
X187896501Y-127563517D01*
X187811834Y-127490946D01*
X187642501Y-127418374D01*
X187303834Y-127345803D01*
X187134501Y-127273231D01*
X187049834Y-127200660D01*
X186965168Y-127055517D01*
X186965168Y-126910374D01*
X187049834Y-126765231D01*
X187134501Y-126692660D01*
X187303834Y-126620089D01*
X187727168Y-126620089D01*
X187981168Y-126692660D01*
X188573834Y-126620089D02*
X188997167Y-128144089D01*
X189335834Y-127055517D01*
X189674501Y-128144089D01*
X190097834Y-126620089D01*
X190690501Y-126765231D02*
X190775167Y-126692660D01*
X190944501Y-126620089D01*
X191367834Y-126620089D01*
X191537167Y-126692660D01*
X191621834Y-126765231D01*
X191706501Y-126910374D01*
X191706501Y-127055517D01*
X191621834Y-127273231D01*
X190605834Y-128144089D01*
X191706501Y-128144089D01*
X192468500Y-127998946D02*
X192553167Y-128071517D01*
X192468500Y-128144089D01*
X192383834Y-128071517D01*
X192468500Y-127998946D01*
X192468500Y-128144089D01*
X192468500Y-127200660D02*
X192553167Y-127273231D01*
X192468500Y-127345803D01*
X192383834Y-127273231D01*
X192468500Y-127200660D01*
X192468500Y-127345803D01*
X194246501Y-128144089D02*
X193230501Y-128144089D01*
X193738501Y-128144089D02*
X193738501Y-126620089D01*
X193569167Y-126837803D01*
X193399834Y-126982946D01*
X193230501Y-127055517D01*
X194839167Y-126620089D02*
X195939834Y-126620089D01*
X195347167Y-127200660D01*
X195601167Y-127200660D01*
X195770500Y-127273231D01*
X195855167Y-127345803D01*
X195939834Y-127490946D01*
X195939834Y-127853803D01*
X195855167Y-127998946D01*
X195770500Y-128071517D01*
X195601167Y-128144089D01*
X195093167Y-128144089D01*
X194923834Y-128071517D01*
X194839167Y-127998946D01*
M02*
