G04 #@! TF.FileFunction,Legend,Bot*
%FSLAX46Y46*%
G04 Gerber Fmt 4.6, Leading zero omitted, Abs format (unit mm)*
G04 Created by KiCad (PCBNEW 4.0.1-stable) date 6/16/2016 12:04:13 AM*
%MOMM*%
G01*
G04 APERTURE LIST*
%ADD10C,0.150000*%
%ADD11C,0.304800*%
%ADD12C,2.032000*%
%ADD13C,0.508000*%
%ADD14C,2.540000*%
%ADD15C,0.381000*%
%ADD16C,0.010000*%
%ADD17C,0.254000*%
%ADD18C,0.457200*%
G04 APERTURE END LIST*
D10*
D11*
X71492715Y-50552238D02*
X70984715Y-52584238D01*
X70476715Y-50552238D01*
X69388143Y-52487476D02*
X69533286Y-52584238D01*
X69823572Y-52584238D01*
X69968715Y-52487476D01*
X70041286Y-52293952D01*
X70041286Y-51519857D01*
X69968715Y-51326333D01*
X69823572Y-51229571D01*
X69533286Y-51229571D01*
X69388143Y-51326333D01*
X69315572Y-51519857D01*
X69315572Y-51713381D01*
X70041286Y-51906905D01*
X68662429Y-52584238D02*
X68662429Y-51229571D01*
X68662429Y-51616619D02*
X68589857Y-51423095D01*
X68517286Y-51326333D01*
X68372143Y-51229571D01*
X68227000Y-51229571D01*
X66267571Y-50552238D02*
X66122428Y-50552238D01*
X65977285Y-50649000D01*
X65904714Y-50745762D01*
X65832143Y-50939286D01*
X65759571Y-51326333D01*
X65759571Y-51810143D01*
X65832143Y-52197190D01*
X65904714Y-52390714D01*
X65977285Y-52487476D01*
X66122428Y-52584238D01*
X66267571Y-52584238D01*
X66412714Y-52487476D01*
X66485285Y-52390714D01*
X66557857Y-52197190D01*
X66630428Y-51810143D01*
X66630428Y-51326333D01*
X66557857Y-50939286D01*
X66485285Y-50745762D01*
X66412714Y-50649000D01*
X66267571Y-50552238D01*
X65106428Y-52390714D02*
X65033856Y-52487476D01*
X65106428Y-52584238D01*
X65178999Y-52487476D01*
X65106428Y-52390714D01*
X65106428Y-52584238D01*
X63582428Y-52584238D02*
X64453285Y-52584238D01*
X64017857Y-52584238D02*
X64017857Y-50552238D01*
X64163000Y-50842524D01*
X64308142Y-51036048D01*
X64453285Y-51132810D01*
D12*
X152799143Y-48314429D02*
X148735143Y-48314429D01*
X146993429Y-52571952D02*
X152799143Y-52571952D01*
X152799143Y-44443952D01*
X146993429Y-44443952D01*
X141768286Y-52571952D02*
X141768286Y-47153286D01*
X141768286Y-48701476D02*
X141187714Y-47927381D01*
X140607143Y-47540333D01*
X139446000Y-47153286D01*
X138284857Y-47153286D01*
X128995714Y-47153286D02*
X128995714Y-53733095D01*
X129576285Y-54507190D01*
X130156857Y-54894238D01*
X131318000Y-55281286D01*
X133059714Y-55281286D01*
X134220857Y-54894238D01*
X128995714Y-52184905D02*
X130156857Y-52571952D01*
X132479143Y-52571952D01*
X133640285Y-52184905D01*
X134220857Y-51797857D01*
X134801428Y-51023762D01*
X134801428Y-48701476D01*
X134220857Y-47927381D01*
X133640285Y-47540333D01*
X132479143Y-47153286D01*
X130156857Y-47153286D01*
X128995714Y-47540333D01*
X121448286Y-52571952D02*
X122609428Y-52184905D01*
X123190000Y-51797857D01*
X123770571Y-51023762D01*
X123770571Y-48701476D01*
X123190000Y-47927381D01*
X122609428Y-47540333D01*
X121448286Y-47153286D01*
X119706571Y-47153286D01*
X118545428Y-47540333D01*
X117964857Y-47927381D01*
X117384286Y-48701476D01*
X117384286Y-51023762D01*
X117964857Y-51797857D01*
X118545428Y-52184905D01*
X119706571Y-52571952D01*
X121448286Y-52571952D01*
X112159143Y-52571952D02*
X112159143Y-44443952D01*
X109256286Y-44443952D01*
X107514571Y-44831000D01*
X106353429Y-45605095D01*
X105772857Y-46379190D01*
X105192286Y-47927381D01*
X105192286Y-49088524D01*
X105772857Y-50636714D01*
X106353429Y-51410810D01*
X107514571Y-52184905D01*
X109256286Y-52571952D01*
X112159143Y-52571952D01*
X98225429Y-52571952D02*
X99386571Y-52184905D01*
X99967143Y-51797857D01*
X100547714Y-51023762D01*
X100547714Y-48701476D01*
X99967143Y-47927381D01*
X99386571Y-47540333D01*
X98225429Y-47153286D01*
X96483714Y-47153286D01*
X95322571Y-47540333D01*
X94742000Y-47927381D01*
X94161429Y-48701476D01*
X94161429Y-51023762D01*
X94742000Y-51797857D01*
X95322571Y-52184905D01*
X96483714Y-52571952D01*
X98225429Y-52571952D01*
X88936286Y-47153286D02*
X88936286Y-52571952D01*
X88936286Y-47927381D02*
X88355714Y-47540333D01*
X87194572Y-47153286D01*
X85452857Y-47153286D01*
X84291714Y-47540333D01*
X83711143Y-48314429D01*
X83711143Y-52571952D01*
X73260857Y-52184905D02*
X74422000Y-52571952D01*
X76744286Y-52571952D01*
X77905429Y-52184905D01*
X78486000Y-51410810D01*
X78486000Y-48314429D01*
X77905429Y-47540333D01*
X76744286Y-47153286D01*
X74422000Y-47153286D01*
X73260857Y-47540333D01*
X72680286Y-48314429D01*
X72680286Y-49088524D01*
X78486000Y-49862619D01*
D13*
X76290714Y-99956257D02*
X77500238Y-99956257D01*
X77500238Y-96908257D01*
X75444048Y-98359686D02*
X74597381Y-98359686D01*
X74234524Y-99956257D02*
X75444048Y-99956257D01*
X75444048Y-96908257D01*
X74234524Y-96908257D01*
X72299286Y-98359686D02*
X73145953Y-98359686D01*
X73145953Y-99956257D02*
X73145953Y-96908257D01*
X71936429Y-96908257D01*
X71331667Y-96908257D02*
X69880239Y-96908257D01*
X70605953Y-99956257D02*
X70605953Y-96908257D01*
X77500238Y-104731457D02*
X77500238Y-101683457D01*
X77500238Y-103134886D02*
X76048810Y-103134886D01*
X76048810Y-104731457D02*
X76048810Y-101683457D01*
X74960238Y-103860600D02*
X73750715Y-103860600D01*
X75202143Y-104731457D02*
X74355477Y-101683457D01*
X73508810Y-104731457D01*
X72662143Y-104731457D02*
X72662143Y-101683457D01*
X71210715Y-104731457D01*
X71210715Y-101683457D01*
X70001191Y-104731457D02*
X70001191Y-101683457D01*
X69396429Y-101683457D01*
X69033572Y-101828600D01*
X68791667Y-102118886D01*
X68670715Y-102409171D01*
X68549763Y-102989743D01*
X68549763Y-103425171D01*
X68670715Y-104005743D01*
X68791667Y-104296029D01*
X69033572Y-104586314D01*
X69396429Y-104731457D01*
X70001191Y-104731457D01*
D11*
X201010762Y-132842000D02*
X203042762Y-132842000D01*
X203042762Y-132479143D01*
X202946000Y-132261428D01*
X202752476Y-132116286D01*
X202558952Y-132043714D01*
X202171905Y-131971143D01*
X201881619Y-131971143D01*
X201494571Y-132043714D01*
X201301048Y-132116286D01*
X201107524Y-132261428D01*
X201010762Y-132479143D01*
X201010762Y-132842000D01*
X201107524Y-130737428D02*
X201010762Y-130882571D01*
X201010762Y-131172857D01*
X201107524Y-131318000D01*
X201301048Y-131390571D01*
X202075143Y-131390571D01*
X202268667Y-131318000D01*
X202365429Y-131172857D01*
X202365429Y-130882571D01*
X202268667Y-130737428D01*
X202075143Y-130664857D01*
X201881619Y-130664857D01*
X201688095Y-131390571D01*
X201107524Y-130084285D02*
X201010762Y-129939142D01*
X201010762Y-129648857D01*
X201107524Y-129503714D01*
X201301048Y-129431142D01*
X201397810Y-129431142D01*
X201591333Y-129503714D01*
X201688095Y-129648857D01*
X201688095Y-129866571D01*
X201784857Y-130011714D01*
X201978381Y-130084285D01*
X202075143Y-130084285D01*
X202268667Y-130011714D01*
X202365429Y-129866571D01*
X202365429Y-129648857D01*
X202268667Y-129503714D01*
X201010762Y-128778000D02*
X202365429Y-128778000D01*
X203042762Y-128778000D02*
X202946000Y-128850571D01*
X202849238Y-128778000D01*
X202946000Y-128705428D01*
X203042762Y-128778000D01*
X202849238Y-128778000D01*
X202365429Y-127399143D02*
X200720476Y-127399143D01*
X200526952Y-127471714D01*
X200430190Y-127544286D01*
X200333429Y-127689429D01*
X200333429Y-127907143D01*
X200430190Y-128052286D01*
X201107524Y-127399143D02*
X201010762Y-127544286D01*
X201010762Y-127834572D01*
X201107524Y-127979714D01*
X201204286Y-128052286D01*
X201397810Y-128124857D01*
X201978381Y-128124857D01*
X202171905Y-128052286D01*
X202268667Y-127979714D01*
X202365429Y-127834572D01*
X202365429Y-127544286D01*
X202268667Y-127399143D01*
X202365429Y-126673429D02*
X201010762Y-126673429D01*
X202171905Y-126673429D02*
X202268667Y-126600857D01*
X202365429Y-126455715D01*
X202365429Y-126238000D01*
X202268667Y-126092857D01*
X202075143Y-126020286D01*
X201010762Y-126020286D01*
X201010762Y-124133429D02*
X203042762Y-124133429D01*
X202268667Y-124133429D02*
X202365429Y-123988286D01*
X202365429Y-123698000D01*
X202268667Y-123552857D01*
X202171905Y-123480286D01*
X201978381Y-123407715D01*
X201397810Y-123407715D01*
X201204286Y-123480286D01*
X201107524Y-123552857D01*
X201010762Y-123698000D01*
X201010762Y-123988286D01*
X201107524Y-124133429D01*
X202365429Y-122899715D02*
X201010762Y-122536858D01*
X202365429Y-122174000D02*
X201010762Y-122536858D01*
X200526952Y-122682000D01*
X200430190Y-122754572D01*
X200333429Y-122899715D01*
X201010762Y-120432286D02*
X203042762Y-120432286D01*
X203042762Y-120069429D01*
X202946000Y-119851714D01*
X202752476Y-119706572D01*
X202558952Y-119634000D01*
X202171905Y-119561429D01*
X201881619Y-119561429D01*
X201494571Y-119634000D01*
X201301048Y-119706572D01*
X201107524Y-119851714D01*
X201010762Y-120069429D01*
X201010762Y-120432286D01*
X201010762Y-118690572D02*
X201107524Y-118835714D01*
X201204286Y-118908286D01*
X201397810Y-118980857D01*
X201978381Y-118980857D01*
X202171905Y-118908286D01*
X202268667Y-118835714D01*
X202365429Y-118690572D01*
X202365429Y-118472857D01*
X202268667Y-118327714D01*
X202171905Y-118255143D01*
X201978381Y-118182572D01*
X201397810Y-118182572D01*
X201204286Y-118255143D01*
X201107524Y-118327714D01*
X201010762Y-118472857D01*
X201010762Y-118690572D01*
X201010762Y-117529429D02*
X202365429Y-117529429D01*
X202171905Y-117529429D02*
X202268667Y-117456857D01*
X202365429Y-117311715D01*
X202365429Y-117094000D01*
X202268667Y-116948857D01*
X202075143Y-116876286D01*
X201010762Y-116876286D01*
X202075143Y-116876286D02*
X202268667Y-116803715D01*
X202365429Y-116658572D01*
X202365429Y-116440857D01*
X202268667Y-116295715D01*
X202075143Y-116223143D01*
X201010762Y-116223143D01*
X201010762Y-115497429D02*
X202365429Y-115497429D01*
X203042762Y-115497429D02*
X202946000Y-115570000D01*
X202849238Y-115497429D01*
X202946000Y-115424857D01*
X203042762Y-115497429D01*
X202849238Y-115497429D01*
X202365429Y-114771715D02*
X201010762Y-114771715D01*
X202171905Y-114771715D02*
X202268667Y-114699143D01*
X202365429Y-114554001D01*
X202365429Y-114336286D01*
X202268667Y-114191143D01*
X202075143Y-114118572D01*
X201010762Y-114118572D01*
X201010762Y-113392858D02*
X202365429Y-113392858D01*
X203042762Y-113392858D02*
X202946000Y-113465429D01*
X202849238Y-113392858D01*
X202946000Y-113320286D01*
X203042762Y-113392858D01*
X202849238Y-113392858D01*
X201107524Y-112014001D02*
X201010762Y-112159144D01*
X201010762Y-112449430D01*
X201107524Y-112594572D01*
X201204286Y-112667144D01*
X201397810Y-112739715D01*
X201978381Y-112739715D01*
X202171905Y-112667144D01*
X202268667Y-112594572D01*
X202365429Y-112449430D01*
X202365429Y-112159144D01*
X202268667Y-112014001D01*
X202075143Y-109691715D02*
X201978381Y-109474001D01*
X201881619Y-109401429D01*
X201688095Y-109328858D01*
X201397810Y-109328858D01*
X201204286Y-109401429D01*
X201107524Y-109474001D01*
X201010762Y-109619143D01*
X201010762Y-110199715D01*
X203042762Y-110199715D01*
X203042762Y-109691715D01*
X202946000Y-109546572D01*
X202849238Y-109474001D01*
X202655714Y-109401429D01*
X202462190Y-109401429D01*
X202268667Y-109474001D01*
X202171905Y-109546572D01*
X202075143Y-109691715D01*
X202075143Y-110199715D01*
X201107524Y-108095143D02*
X201010762Y-108240286D01*
X201010762Y-108530572D01*
X201107524Y-108675715D01*
X201301048Y-108748286D01*
X202075143Y-108748286D01*
X202268667Y-108675715D01*
X202365429Y-108530572D01*
X202365429Y-108240286D01*
X202268667Y-108095143D01*
X202075143Y-108022572D01*
X201881619Y-108022572D01*
X201688095Y-108748286D01*
X201010762Y-106716286D02*
X202075143Y-106716286D01*
X202268667Y-106788857D01*
X202365429Y-106934000D01*
X202365429Y-107224286D01*
X202268667Y-107369429D01*
X201107524Y-106716286D02*
X201010762Y-106861429D01*
X201010762Y-107224286D01*
X201107524Y-107369429D01*
X201301048Y-107442000D01*
X201494571Y-107442000D01*
X201688095Y-107369429D01*
X201784857Y-107224286D01*
X201784857Y-106861429D01*
X201881619Y-106716286D01*
X202365429Y-105337429D02*
X201010762Y-105337429D01*
X202365429Y-105990572D02*
X201301048Y-105990572D01*
X201107524Y-105918000D01*
X201010762Y-105772858D01*
X201010762Y-105555143D01*
X201107524Y-105410000D01*
X201204286Y-105337429D01*
X201107524Y-103958572D02*
X201010762Y-104103715D01*
X201010762Y-104394001D01*
X201107524Y-104539143D01*
X201204286Y-104611715D01*
X201397810Y-104684286D01*
X201978381Y-104684286D01*
X202171905Y-104611715D01*
X202268667Y-104539143D01*
X202365429Y-104394001D01*
X202365429Y-104103715D01*
X202268667Y-103958572D01*
X201010762Y-103305429D02*
X203042762Y-103305429D01*
X201010762Y-102652286D02*
X202075143Y-102652286D01*
X202268667Y-102724857D01*
X202365429Y-102870000D01*
X202365429Y-103087715D01*
X202268667Y-103232857D01*
X202171905Y-103305429D01*
X201010762Y-101273429D02*
X202075143Y-101273429D01*
X202268667Y-101346000D01*
X202365429Y-101491143D01*
X202365429Y-101781429D01*
X202268667Y-101926572D01*
X201107524Y-101273429D02*
X201010762Y-101418572D01*
X201010762Y-101781429D01*
X201107524Y-101926572D01*
X201301048Y-101999143D01*
X201494571Y-101999143D01*
X201688095Y-101926572D01*
X201784857Y-101781429D01*
X201784857Y-101418572D01*
X201881619Y-101273429D01*
X201010762Y-100547715D02*
X202365429Y-100547715D01*
X202171905Y-100547715D02*
X202268667Y-100475143D01*
X202365429Y-100330001D01*
X202365429Y-100112286D01*
X202268667Y-99967143D01*
X202075143Y-99894572D01*
X201010762Y-99894572D01*
X202075143Y-99894572D02*
X202268667Y-99822001D01*
X202365429Y-99676858D01*
X202365429Y-99459143D01*
X202268667Y-99314001D01*
X202075143Y-99241429D01*
X201010762Y-99241429D01*
X202365429Y-98515715D02*
X200333429Y-98515715D01*
X202268667Y-98515715D02*
X202365429Y-98370572D01*
X202365429Y-98080286D01*
X202268667Y-97935143D01*
X202171905Y-97862572D01*
X201978381Y-97790001D01*
X201397810Y-97790001D01*
X201204286Y-97862572D01*
X201107524Y-97935143D01*
X201010762Y-98080286D01*
X201010762Y-98370572D01*
X201107524Y-98515715D01*
X201107524Y-97064286D02*
X201010762Y-97064286D01*
X200817238Y-97136858D01*
X200720476Y-97209429D01*
X201010762Y-95250001D02*
X203042762Y-95250001D01*
X202268667Y-95250001D02*
X202365429Y-95104858D01*
X202365429Y-94814572D01*
X202268667Y-94669429D01*
X202171905Y-94596858D01*
X201978381Y-94524287D01*
X201397810Y-94524287D01*
X201204286Y-94596858D01*
X201107524Y-94669429D01*
X201010762Y-94814572D01*
X201010762Y-95104858D01*
X201107524Y-95250001D01*
X201010762Y-93218001D02*
X202075143Y-93218001D01*
X202268667Y-93290572D01*
X202365429Y-93435715D01*
X202365429Y-93726001D01*
X202268667Y-93871144D01*
X201107524Y-93218001D02*
X201010762Y-93363144D01*
X201010762Y-93726001D01*
X201107524Y-93871144D01*
X201301048Y-93943715D01*
X201494571Y-93943715D01*
X201688095Y-93871144D01*
X201784857Y-93726001D01*
X201784857Y-93363144D01*
X201881619Y-93218001D01*
X201107524Y-92564858D02*
X201010762Y-92419715D01*
X201010762Y-92129430D01*
X201107524Y-91984287D01*
X201301048Y-91911715D01*
X201397810Y-91911715D01*
X201591333Y-91984287D01*
X201688095Y-92129430D01*
X201688095Y-92347144D01*
X201784857Y-92492287D01*
X201978381Y-92564858D01*
X202075143Y-92564858D01*
X202268667Y-92492287D01*
X202365429Y-92347144D01*
X202365429Y-92129430D01*
X202268667Y-91984287D01*
X201107524Y-90678001D02*
X201010762Y-90823144D01*
X201010762Y-91113430D01*
X201107524Y-91258573D01*
X201301048Y-91331144D01*
X202075143Y-91331144D01*
X202268667Y-91258573D01*
X202365429Y-91113430D01*
X202365429Y-90823144D01*
X202268667Y-90678001D01*
X202075143Y-90605430D01*
X201881619Y-90605430D01*
X201688095Y-91331144D01*
X201010762Y-89299144D02*
X203042762Y-89299144D01*
X201107524Y-89299144D02*
X201010762Y-89444287D01*
X201010762Y-89734573D01*
X201107524Y-89879715D01*
X201204286Y-89952287D01*
X201397810Y-90024858D01*
X201978381Y-90024858D01*
X202171905Y-89952287D01*
X202268667Y-89879715D01*
X202365429Y-89734573D01*
X202365429Y-89444287D01*
X202268667Y-89299144D01*
X201010762Y-87194573D02*
X201107524Y-87339715D01*
X201204286Y-87412287D01*
X201397810Y-87484858D01*
X201978381Y-87484858D01*
X202171905Y-87412287D01*
X202268667Y-87339715D01*
X202365429Y-87194573D01*
X202365429Y-86976858D01*
X202268667Y-86831715D01*
X202171905Y-86759144D01*
X201978381Y-86686573D01*
X201397810Y-86686573D01*
X201204286Y-86759144D01*
X201107524Y-86831715D01*
X201010762Y-86976858D01*
X201010762Y-87194573D01*
X202365429Y-86033430D02*
X201010762Y-86033430D01*
X202171905Y-86033430D02*
X202268667Y-85960858D01*
X202365429Y-85815716D01*
X202365429Y-85598001D01*
X202268667Y-85452858D01*
X202075143Y-85380287D01*
X201010762Y-85380287D01*
X202365429Y-83711144D02*
X202365429Y-83130573D01*
X203042762Y-83493430D02*
X201301048Y-83493430D01*
X201107524Y-83420858D01*
X201010762Y-83275716D01*
X201010762Y-83130573D01*
X201010762Y-82622573D02*
X203042762Y-82622573D01*
X201010762Y-81969430D02*
X202075143Y-81969430D01*
X202268667Y-82042001D01*
X202365429Y-82187144D01*
X202365429Y-82404859D01*
X202268667Y-82550001D01*
X202171905Y-82622573D01*
X201107524Y-80663144D02*
X201010762Y-80808287D01*
X201010762Y-81098573D01*
X201107524Y-81243716D01*
X201301048Y-81316287D01*
X202075143Y-81316287D01*
X202268667Y-81243716D01*
X202365429Y-81098573D01*
X202365429Y-80808287D01*
X202268667Y-80663144D01*
X202075143Y-80590573D01*
X201881619Y-80590573D01*
X201688095Y-81316287D01*
X201010762Y-78776287D02*
X203042762Y-78776287D01*
X201010762Y-77905430D02*
X202171905Y-78558573D01*
X203042762Y-77905430D02*
X201881619Y-78776287D01*
X201107524Y-76671715D02*
X201010762Y-76816858D01*
X201010762Y-77107144D01*
X201107524Y-77252287D01*
X201301048Y-77324858D01*
X202075143Y-77324858D01*
X202268667Y-77252287D01*
X202365429Y-77107144D01*
X202365429Y-76816858D01*
X202268667Y-76671715D01*
X202075143Y-76599144D01*
X201881619Y-76599144D01*
X201688095Y-77324858D01*
X202365429Y-76091144D02*
X201010762Y-75728287D01*
X202365429Y-75365429D02*
X201010762Y-75728287D01*
X200526952Y-75873429D01*
X200430190Y-75946001D01*
X200333429Y-76091144D01*
X203042762Y-74131715D02*
X203042762Y-74422001D01*
X202946000Y-74567144D01*
X202849238Y-74639715D01*
X202558952Y-74784858D01*
X202171905Y-74857429D01*
X201397810Y-74857429D01*
X201204286Y-74784858D01*
X201107524Y-74712286D01*
X201010762Y-74567144D01*
X201010762Y-74276858D01*
X201107524Y-74131715D01*
X201204286Y-74059144D01*
X201397810Y-73986572D01*
X201881619Y-73986572D01*
X202075143Y-74059144D01*
X202171905Y-74131715D01*
X202268667Y-74276858D01*
X202268667Y-74567144D01*
X202171905Y-74712286D01*
X202075143Y-74784858D01*
X201881619Y-74857429D01*
X202365429Y-72680286D02*
X201010762Y-72680286D01*
X203139524Y-73043143D02*
X201688095Y-73406000D01*
X201688095Y-72462572D01*
X201010762Y-70720857D02*
X203042762Y-70720857D01*
X202268667Y-70720857D02*
X202365429Y-70575714D01*
X202365429Y-70285428D01*
X202268667Y-70140285D01*
X202171905Y-70067714D01*
X201978381Y-69995143D01*
X201397810Y-69995143D01*
X201204286Y-70067714D01*
X201107524Y-70140285D01*
X201010762Y-70285428D01*
X201010762Y-70575714D01*
X201107524Y-70720857D01*
X202365429Y-69487143D02*
X201010762Y-69124286D01*
X202365429Y-68761428D02*
X201010762Y-69124286D01*
X200526952Y-69269428D01*
X200430190Y-69342000D01*
X200333429Y-69487143D01*
X201010762Y-65858571D02*
X203042762Y-65858571D01*
X201010762Y-64987714D01*
X203042762Y-64987714D01*
X201107524Y-63681428D02*
X201010762Y-63826571D01*
X201010762Y-64116857D01*
X201107524Y-64262000D01*
X201301048Y-64334571D01*
X202075143Y-64334571D01*
X202268667Y-64262000D01*
X202365429Y-64116857D01*
X202365429Y-63826571D01*
X202268667Y-63681428D01*
X202075143Y-63608857D01*
X201881619Y-63608857D01*
X201688095Y-64334571D01*
X201107524Y-63028285D02*
X201010762Y-62883142D01*
X201010762Y-62592857D01*
X201107524Y-62447714D01*
X201301048Y-62375142D01*
X201397810Y-62375142D01*
X201591333Y-62447714D01*
X201688095Y-62592857D01*
X201688095Y-62810571D01*
X201784857Y-62955714D01*
X201978381Y-63028285D01*
X202075143Y-63028285D01*
X202268667Y-62955714D01*
X202365429Y-62810571D01*
X202365429Y-62592857D01*
X202268667Y-62447714D01*
X202365429Y-61939714D02*
X202365429Y-61359143D01*
X203042762Y-61722000D02*
X201301048Y-61722000D01*
X201107524Y-61649428D01*
X201010762Y-61504286D01*
X201010762Y-61359143D01*
X201010762Y-60633429D02*
X201107524Y-60778571D01*
X201204286Y-60851143D01*
X201397810Y-60923714D01*
X201978381Y-60923714D01*
X202171905Y-60851143D01*
X202268667Y-60778571D01*
X202365429Y-60633429D01*
X202365429Y-60415714D01*
X202268667Y-60270571D01*
X202171905Y-60198000D01*
X201978381Y-60125429D01*
X201397810Y-60125429D01*
X201204286Y-60198000D01*
X201107524Y-60270571D01*
X201010762Y-60415714D01*
X201010762Y-60633429D01*
X201010762Y-59472286D02*
X202365429Y-59472286D01*
X201978381Y-59472286D02*
X202171905Y-59399714D01*
X202268667Y-59327143D01*
X202365429Y-59182000D01*
X202365429Y-59036857D01*
X201591333Y-57440285D02*
X201591333Y-56714571D01*
X201010762Y-57585428D02*
X203042762Y-57077428D01*
X201010762Y-56569428D01*
X201204286Y-56061428D02*
X201107524Y-55988856D01*
X201010762Y-56061428D01*
X201107524Y-56133999D01*
X201204286Y-56061428D01*
X201010762Y-56061428D01*
X201010762Y-54174571D02*
X203042762Y-54174571D01*
X203042762Y-53811714D01*
X202946000Y-53593999D01*
X202752476Y-53448857D01*
X202558952Y-53376285D01*
X202171905Y-53303714D01*
X201881619Y-53303714D01*
X201494571Y-53376285D01*
X201301048Y-53448857D01*
X201107524Y-53593999D01*
X201010762Y-53811714D01*
X201010762Y-54174571D01*
X201010762Y-52650571D02*
X202365429Y-52650571D01*
X203042762Y-52650571D02*
X202946000Y-52723142D01*
X202849238Y-52650571D01*
X202946000Y-52577999D01*
X203042762Y-52650571D01*
X202849238Y-52650571D01*
X201010762Y-51271714D02*
X202075143Y-51271714D01*
X202268667Y-51344285D01*
X202365429Y-51489428D01*
X202365429Y-51779714D01*
X202268667Y-51924857D01*
X201107524Y-51271714D02*
X201010762Y-51416857D01*
X201010762Y-51779714D01*
X201107524Y-51924857D01*
X201301048Y-51997428D01*
X201494571Y-51997428D01*
X201688095Y-51924857D01*
X201784857Y-51779714D01*
X201784857Y-51416857D01*
X201881619Y-51271714D01*
X202365429Y-50691143D02*
X202365429Y-49892857D01*
X201010762Y-50691143D01*
X201010762Y-49892857D01*
D14*
X78740000Y-37465000D02*
X78740000Y-34925000D01*
X93980000Y-40005000D02*
X93980000Y-37465000D01*
D15*
X91109800Y-30480000D02*
X91109800Y-42545000D01*
X91109800Y-42545000D02*
X81508600Y-42545000D01*
X81508600Y-42545000D02*
X81508600Y-30480000D01*
X66040000Y-58750200D02*
X67818000Y-58750200D01*
X76962000Y-58750200D02*
X78740000Y-58750200D01*
X78740000Y-58750200D02*
X78740000Y-60528200D01*
X78740000Y-69672200D02*
X78740000Y-71450200D01*
X78740000Y-71450200D02*
X76962000Y-71450200D01*
X67818000Y-71450200D02*
X66040000Y-71450200D01*
X66040000Y-71450200D02*
X66040000Y-69672200D01*
X66040000Y-60528200D02*
X66040000Y-58750200D01*
X66040000Y-95260160D02*
X66040000Y-93482160D01*
X66040000Y-84338160D02*
X66040000Y-82560160D01*
X66040000Y-82560160D02*
X67818000Y-82560160D01*
X76962000Y-82560160D02*
X78740000Y-82560160D01*
X78740000Y-82560160D02*
X78740000Y-84338160D01*
X78740000Y-93482160D02*
X78740000Y-95260160D01*
X78740000Y-95260160D02*
X76962000Y-95260160D01*
X67818000Y-95260160D02*
X66040000Y-95260160D01*
X66040000Y-123835160D02*
X66040000Y-122057160D01*
X66040000Y-112913160D02*
X66040000Y-111135160D01*
X66040000Y-111135160D02*
X67818000Y-111135160D01*
X76962000Y-111135160D02*
X78740000Y-111135160D01*
X78740000Y-111135160D02*
X78740000Y-112913160D01*
X78740000Y-122057160D02*
X78740000Y-123835160D01*
X78740000Y-123835160D02*
X76962000Y-123835160D01*
X67818000Y-123835160D02*
X66040000Y-123835160D01*
X180340000Y-136852660D02*
X182118000Y-136852660D01*
X191262000Y-136852660D02*
X193040000Y-136852660D01*
X193040000Y-136852660D02*
X193040000Y-138630660D01*
X193040000Y-147774660D02*
X193040000Y-149552660D01*
X193040000Y-149552660D02*
X191262000Y-149552660D01*
X182118000Y-149552660D02*
X180340000Y-149552660D01*
X180340000Y-149552660D02*
X180340000Y-147774660D01*
X180340000Y-138630660D02*
X180340000Y-136852660D01*
X85090000Y-77797660D02*
X86868000Y-77797660D01*
X96012000Y-77797660D02*
X97790000Y-77797660D01*
X97790000Y-77797660D02*
X97790000Y-79575660D01*
X97790000Y-88719660D02*
X97790000Y-90497660D01*
X97790000Y-90497660D02*
X96012000Y-90497660D01*
X86868000Y-90497660D02*
X85090000Y-90497660D01*
X85090000Y-90497660D02*
X85090000Y-88719660D01*
X85090000Y-79575660D02*
X85090000Y-77797660D01*
X34309520Y-157461652D02*
X35920935Y-156710236D01*
X44208213Y-152845815D02*
X45819628Y-152094400D01*
X45819628Y-152094400D02*
X46571044Y-153705815D01*
X50435465Y-161993093D02*
X51186880Y-163604508D01*
X51186880Y-163604508D02*
X49575465Y-164355924D01*
X41288187Y-168220345D02*
X39676772Y-168971760D01*
X39676772Y-168971760D02*
X38925356Y-167360345D01*
X35060935Y-159073067D02*
X34309520Y-157461652D01*
X42361320Y-174728572D02*
X43972735Y-173977156D01*
X52260013Y-170112735D02*
X53871428Y-169361320D01*
X53871428Y-169361320D02*
X54622844Y-170972735D01*
X58487265Y-179260013D02*
X59238680Y-180871428D01*
X59238680Y-180871428D02*
X57627265Y-181622844D01*
X49339987Y-185487265D02*
X47728572Y-186238680D01*
X47728572Y-186238680D02*
X46977156Y-184627265D01*
X43112735Y-176339987D02*
X42361320Y-174728572D01*
X26260260Y-140197272D02*
X27871675Y-139445856D01*
X36158953Y-135581435D02*
X37770368Y-134830020D01*
X37770368Y-134830020D02*
X38521784Y-136441435D01*
X42386205Y-144728713D02*
X43137620Y-146340128D01*
X43137620Y-146340128D02*
X41526205Y-147091544D01*
X33238927Y-150955965D02*
X31627512Y-151707380D01*
X31627512Y-151707380D02*
X30876096Y-150095965D01*
X27011675Y-141808687D02*
X26260260Y-140197272D01*
X43524640Y-132148012D02*
X45136055Y-131396596D01*
X53423333Y-127532175D02*
X55034748Y-126780760D01*
X55034748Y-126780760D02*
X55786164Y-128392175D01*
X59650585Y-136679453D02*
X60402000Y-138290868D01*
X60402000Y-138290868D02*
X58790585Y-139042284D01*
X50503307Y-142906705D02*
X48891892Y-143658120D01*
X48891892Y-143658120D02*
X48140476Y-142046705D01*
X44276055Y-133759427D02*
X43524640Y-132148012D01*
X161290000Y-60655200D02*
X163068000Y-60655200D01*
X172212000Y-60655200D02*
X173990000Y-60655200D01*
X173990000Y-60655200D02*
X173990000Y-62433200D01*
X173990000Y-71577200D02*
X173990000Y-73355200D01*
X173990000Y-73355200D02*
X172212000Y-73355200D01*
X163068000Y-73355200D02*
X161290000Y-73355200D01*
X161290000Y-73355200D02*
X161290000Y-71577200D01*
X161290000Y-62433200D02*
X161290000Y-60655200D01*
X142240000Y-57477660D02*
X144018000Y-57477660D01*
X153162000Y-57477660D02*
X154940000Y-57477660D01*
X154940000Y-57477660D02*
X154940000Y-59255660D01*
X154940000Y-68399660D02*
X154940000Y-70177660D01*
X154940000Y-70177660D02*
X153162000Y-70177660D01*
X144018000Y-70177660D02*
X142240000Y-70177660D01*
X142240000Y-70177660D02*
X142240000Y-68399660D01*
X142240000Y-59255660D02*
X142240000Y-57477660D01*
X123190000Y-55880000D02*
X124968000Y-55880000D01*
X134112000Y-55880000D02*
X135890000Y-55880000D01*
X135890000Y-55880000D02*
X135890000Y-57658000D01*
X135890000Y-66802000D02*
X135890000Y-68580000D01*
X135890000Y-68580000D02*
X134112000Y-68580000D01*
X124968000Y-68580000D02*
X123190000Y-68580000D01*
X123190000Y-68580000D02*
X123190000Y-66802000D01*
X123190000Y-57658000D02*
X123190000Y-55880000D01*
X104140000Y-57477660D02*
X105918000Y-57477660D01*
X115062000Y-57477660D02*
X116840000Y-57477660D01*
X116840000Y-57477660D02*
X116840000Y-59255660D01*
X116840000Y-68399660D02*
X116840000Y-70177660D01*
X116840000Y-70177660D02*
X115062000Y-70177660D01*
X105918000Y-70177660D02*
X104140000Y-70177660D01*
X104140000Y-70177660D02*
X104140000Y-68399660D01*
X104140000Y-59255660D02*
X104140000Y-57477660D01*
X142240000Y-133677660D02*
X144018000Y-133677660D01*
X153162000Y-133677660D02*
X154940000Y-133677660D01*
X154940000Y-133677660D02*
X154940000Y-135455660D01*
X154940000Y-144599660D02*
X154940000Y-146377660D01*
X154940000Y-146377660D02*
X153162000Y-146377660D01*
X144018000Y-146377660D02*
X142240000Y-146377660D01*
X142240000Y-146377660D02*
X142240000Y-144599660D01*
X142240000Y-135455660D02*
X142240000Y-133677660D01*
X161290000Y-79702660D02*
X163068000Y-79702660D01*
X172212000Y-79702660D02*
X173990000Y-79702660D01*
X173990000Y-79702660D02*
X173990000Y-81480660D01*
X173990000Y-90624660D02*
X173990000Y-92402660D01*
X173990000Y-92402660D02*
X172212000Y-92402660D01*
X163068000Y-92402660D02*
X161290000Y-92402660D01*
X161290000Y-92402660D02*
X161290000Y-90624660D01*
X161290000Y-81480660D02*
X161290000Y-79702660D01*
X123190000Y-74930000D02*
X124968000Y-74930000D01*
X134112000Y-74930000D02*
X135890000Y-74930000D01*
X135890000Y-74930000D02*
X135890000Y-76708000D01*
X135890000Y-85852000D02*
X135890000Y-87630000D01*
X135890000Y-87630000D02*
X134112000Y-87630000D01*
X124968000Y-87630000D02*
X123190000Y-87630000D01*
X123190000Y-87630000D02*
X123190000Y-85852000D01*
X123190000Y-76708000D02*
X123190000Y-74930000D01*
X104140000Y-76527660D02*
X105918000Y-76527660D01*
X115062000Y-76527660D02*
X116840000Y-76527660D01*
X116840000Y-76527660D02*
X116840000Y-78305660D01*
X116840000Y-87449660D02*
X116840000Y-89227660D01*
X116840000Y-89227660D02*
X115062000Y-89227660D01*
X105918000Y-89227660D02*
X104140000Y-89227660D01*
X104140000Y-89227660D02*
X104140000Y-87449660D01*
X104140000Y-78305660D02*
X104140000Y-76527660D01*
X161290000Y-98752660D02*
X163068000Y-98752660D01*
X172212000Y-98752660D02*
X173990000Y-98752660D01*
X173990000Y-98752660D02*
X173990000Y-100530660D01*
X173990000Y-109674660D02*
X173990000Y-111452660D01*
X173990000Y-111452660D02*
X172212000Y-111452660D01*
X163068000Y-111452660D02*
X161290000Y-111452660D01*
X161290000Y-111452660D02*
X161290000Y-109674660D01*
X161290000Y-100530660D02*
X161290000Y-98752660D01*
X142240000Y-95577660D02*
X144018000Y-95577660D01*
X153162000Y-95577660D02*
X154940000Y-95577660D01*
X154940000Y-95577660D02*
X154940000Y-97355660D01*
X154940000Y-106499660D02*
X154940000Y-108277660D01*
X154940000Y-108277660D02*
X153162000Y-108277660D01*
X144018000Y-108277660D02*
X142240000Y-108277660D01*
X142240000Y-108277660D02*
X142240000Y-106499660D01*
X142240000Y-97355660D02*
X142240000Y-95577660D01*
X123190000Y-93980000D02*
X124968000Y-93980000D01*
X134112000Y-93980000D02*
X135890000Y-93980000D01*
X135890000Y-93980000D02*
X135890000Y-95758000D01*
X135890000Y-104902000D02*
X135890000Y-106680000D01*
X135890000Y-106680000D02*
X134112000Y-106680000D01*
X124968000Y-106680000D02*
X123190000Y-106680000D01*
X123190000Y-106680000D02*
X123190000Y-104902000D01*
X123190000Y-95758000D02*
X123190000Y-93980000D01*
X104140000Y-95577660D02*
X105918000Y-95577660D01*
X115062000Y-95577660D02*
X116840000Y-95577660D01*
X116840000Y-95577660D02*
X116840000Y-97355660D01*
X116840000Y-106499660D02*
X116840000Y-108277660D01*
X116840000Y-108277660D02*
X115062000Y-108277660D01*
X105918000Y-108277660D02*
X104140000Y-108277660D01*
X104140000Y-108277660D02*
X104140000Y-106499660D01*
X104140000Y-97355660D02*
X104140000Y-95577660D01*
X85090000Y-96847660D02*
X86868000Y-96847660D01*
X96012000Y-96847660D02*
X97790000Y-96847660D01*
X97790000Y-96847660D02*
X97790000Y-98625660D01*
X97790000Y-107769660D02*
X97790000Y-109547660D01*
X97790000Y-109547660D02*
X96012000Y-109547660D01*
X86868000Y-109547660D02*
X85090000Y-109547660D01*
X85090000Y-109547660D02*
X85090000Y-107769660D01*
X85090000Y-98625660D02*
X85090000Y-96847660D01*
X161290000Y-117802660D02*
X163068000Y-117802660D01*
X172212000Y-117802660D02*
X173990000Y-117802660D01*
X173990000Y-117802660D02*
X173990000Y-119580660D01*
X173990000Y-128724660D02*
X173990000Y-130502660D01*
X173990000Y-130502660D02*
X172212000Y-130502660D01*
X163068000Y-130502660D02*
X161290000Y-130502660D01*
X161290000Y-130502660D02*
X161290000Y-128724660D01*
X161290000Y-119580660D02*
X161290000Y-117802660D01*
X142240000Y-114627660D02*
X144018000Y-114627660D01*
X153162000Y-114627660D02*
X154940000Y-114627660D01*
X154940000Y-114627660D02*
X154940000Y-116405660D01*
X154940000Y-125549660D02*
X154940000Y-127327660D01*
X154940000Y-127327660D02*
X153162000Y-127327660D01*
X144018000Y-127327660D02*
X142240000Y-127327660D01*
X142240000Y-127327660D02*
X142240000Y-125549660D01*
X142240000Y-116405660D02*
X142240000Y-114627660D01*
X123190000Y-113030000D02*
X124968000Y-113030000D01*
X134112000Y-113030000D02*
X135890000Y-113030000D01*
X135890000Y-113030000D02*
X135890000Y-114808000D01*
X135890000Y-123952000D02*
X135890000Y-125730000D01*
X135890000Y-125730000D02*
X134112000Y-125730000D01*
X124968000Y-125730000D02*
X123190000Y-125730000D01*
X123190000Y-125730000D02*
X123190000Y-123952000D01*
X123190000Y-114808000D02*
X123190000Y-113030000D01*
X104140000Y-114627660D02*
X105918000Y-114627660D01*
X115062000Y-114627660D02*
X116840000Y-114627660D01*
X116840000Y-114627660D02*
X116840000Y-116405660D01*
X116840000Y-125549660D02*
X116840000Y-127327660D01*
X116840000Y-127327660D02*
X115062000Y-127327660D01*
X105918000Y-127327660D02*
X104140000Y-127327660D01*
X104140000Y-127327660D02*
X104140000Y-125549660D01*
X104140000Y-116405660D02*
X104140000Y-114627660D01*
X85090000Y-115897660D02*
X86868000Y-115897660D01*
X96012000Y-115897660D02*
X97790000Y-115897660D01*
X97790000Y-115897660D02*
X97790000Y-117675660D01*
X97790000Y-126819660D02*
X97790000Y-128597660D01*
X97790000Y-128597660D02*
X96012000Y-128597660D01*
X86868000Y-128597660D02*
X85090000Y-128597660D01*
X85090000Y-128597660D02*
X85090000Y-126819660D01*
X85090000Y-117675660D02*
X85090000Y-115897660D01*
X161290000Y-136852660D02*
X163068000Y-136852660D01*
X172212000Y-136852660D02*
X173990000Y-136852660D01*
X173990000Y-136852660D02*
X173990000Y-138630660D01*
X173990000Y-147774660D02*
X173990000Y-149552660D01*
X173990000Y-149552660D02*
X172212000Y-149552660D01*
X163068000Y-149552660D02*
X161290000Y-149552660D01*
X161290000Y-149552660D02*
X161290000Y-147774660D01*
X161290000Y-138630660D02*
X161290000Y-136852660D01*
X123190000Y-132080000D02*
X124968000Y-132080000D01*
X134112000Y-132080000D02*
X135890000Y-132080000D01*
X135890000Y-132080000D02*
X135890000Y-133858000D01*
X135890000Y-143002000D02*
X135890000Y-144780000D01*
X135890000Y-144780000D02*
X134112000Y-144780000D01*
X124968000Y-144780000D02*
X123190000Y-144780000D01*
X123190000Y-144780000D02*
X123190000Y-143002000D01*
X123190000Y-133858000D02*
X123190000Y-132080000D01*
X104140000Y-133677660D02*
X105918000Y-133677660D01*
X115062000Y-133677660D02*
X116840000Y-133677660D01*
X116840000Y-133677660D02*
X116840000Y-135455660D01*
X116840000Y-144599660D02*
X116840000Y-146377660D01*
X116840000Y-146377660D02*
X115062000Y-146377660D01*
X105918000Y-146377660D02*
X104140000Y-146377660D01*
X104140000Y-146377660D02*
X104140000Y-144599660D01*
X104140000Y-135455660D02*
X104140000Y-133677660D01*
X78231432Y-161504160D02*
X77480016Y-159892745D01*
X73615595Y-151605467D02*
X72864180Y-149994052D01*
X72864180Y-149994052D02*
X74475595Y-149242636D01*
X82762873Y-145378215D02*
X84374288Y-144626800D01*
X84374288Y-144626800D02*
X85125704Y-146238215D01*
X88990125Y-154525493D02*
X89741540Y-156136908D01*
X89741540Y-156136908D02*
X88130125Y-156888324D01*
X79842847Y-160752745D02*
X78231432Y-161504160D01*
X60967052Y-169555960D02*
X60215636Y-167944545D01*
X56351215Y-159657267D02*
X55599800Y-158045852D01*
X55599800Y-158045852D02*
X57211215Y-157294436D01*
X65498493Y-153430015D02*
X67109908Y-152678600D01*
X67109908Y-152678600D02*
X67861324Y-154290015D01*
X71725745Y-162577293D02*
X72477160Y-164188708D01*
X72477160Y-164188708D02*
X70865745Y-164940124D01*
X62578467Y-168804545D02*
X60967052Y-169555960D01*
X142240000Y-76527660D02*
X144018000Y-76527660D01*
X153162000Y-76527660D02*
X154940000Y-76527660D01*
X154940000Y-76527660D02*
X154940000Y-78305660D01*
X154940000Y-87449660D02*
X154940000Y-89227660D01*
X154940000Y-89227660D02*
X153162000Y-89227660D01*
X144018000Y-89227660D02*
X142240000Y-89227660D01*
X142240000Y-89227660D02*
X142240000Y-87449660D01*
X142240000Y-78305660D02*
X142240000Y-76527660D01*
X85090000Y-58750200D02*
X86868000Y-58750200D01*
X96012000Y-58750200D02*
X97790000Y-58750200D01*
X97790000Y-58750200D02*
X97790000Y-60528200D01*
X97790000Y-69672200D02*
X97790000Y-71450200D01*
X97790000Y-71450200D02*
X96012000Y-71450200D01*
X86868000Y-71450200D02*
X85090000Y-71450200D01*
X85090000Y-71450200D02*
X85090000Y-69672200D01*
X85090000Y-60528200D02*
X85090000Y-58750200D01*
X185102500Y-60655200D02*
X186880500Y-60655200D01*
X196024500Y-60655200D02*
X197802500Y-60655200D01*
X197802500Y-60655200D02*
X197802500Y-62433200D01*
X197802500Y-71577200D02*
X197802500Y-73355200D01*
X197802500Y-73355200D02*
X196024500Y-73355200D01*
X186880500Y-73355200D02*
X185102500Y-73355200D01*
X185102500Y-73355200D02*
X185102500Y-71577200D01*
X185102500Y-62433200D02*
X185102500Y-60655200D01*
X185102500Y-79702660D02*
X186880500Y-79702660D01*
X196024500Y-79702660D02*
X197802500Y-79702660D01*
X197802500Y-79702660D02*
X197802500Y-81480660D01*
X197802500Y-90624660D02*
X197802500Y-92402660D01*
X197802500Y-92402660D02*
X196024500Y-92402660D01*
X186880500Y-92402660D02*
X185102500Y-92402660D01*
X185102500Y-92402660D02*
X185102500Y-90624660D01*
X185102500Y-81480660D02*
X185102500Y-79702660D01*
X185102500Y-98752660D02*
X186880500Y-98752660D01*
X196024500Y-98752660D02*
X197802500Y-98752660D01*
X197802500Y-98752660D02*
X197802500Y-100530660D01*
X197802500Y-109674660D02*
X197802500Y-111452660D01*
X197802500Y-111452660D02*
X196024500Y-111452660D01*
X186880500Y-111452660D02*
X185102500Y-111452660D01*
X185102500Y-111452660D02*
X185102500Y-109674660D01*
X185102500Y-100530660D02*
X185102500Y-98752660D01*
X185102500Y-117802660D02*
X186880500Y-117802660D01*
X196024500Y-117802660D02*
X197802500Y-117802660D01*
X197802500Y-117802660D02*
X197802500Y-119580660D01*
X197802500Y-128724660D02*
X197802500Y-130502660D01*
X197802500Y-130502660D02*
X196024500Y-130502660D01*
X186880500Y-130502660D02*
X185102500Y-130502660D01*
X185102500Y-130502660D02*
X185102500Y-128724660D01*
X185102500Y-119580660D02*
X185102500Y-117802660D01*
X159370000Y-45060000D02*
X197470000Y-45060000D01*
X197470000Y-45060000D02*
X197470000Y-39980000D01*
X197470000Y-39980000D02*
X159370000Y-39980000D01*
X159370000Y-39980000D02*
X159370000Y-45060000D01*
X159370000Y-43790000D02*
X160640000Y-43790000D01*
X160640000Y-43790000D02*
X160640000Y-41250000D01*
X160640000Y-41250000D02*
X159370000Y-41250000D01*
D16*
G36*
X67221776Y-44850479D02*
X66963019Y-45101385D01*
X66791268Y-45247161D01*
X66676910Y-45305455D01*
X66590334Y-45293915D01*
X66536754Y-45258754D01*
X66390459Y-45141758D01*
X66167897Y-44960798D01*
X65971991Y-44800079D01*
X65559982Y-44460667D01*
X65157398Y-44916904D01*
X64959554Y-45138698D01*
X64815096Y-45263490D01*
X64682699Y-45290620D01*
X64521038Y-45219425D01*
X64288787Y-45049244D01*
X64099139Y-44899957D01*
X63869587Y-44722435D01*
X63738569Y-44640068D01*
X63671509Y-44643346D01*
X63633831Y-44722756D01*
X63620745Y-44768345D01*
X63563341Y-45167375D01*
X63572339Y-45664043D01*
X63640142Y-46203676D01*
X63759153Y-46731604D01*
X63921775Y-47193155D01*
X63972556Y-47300049D01*
X64323558Y-47827280D01*
X64789113Y-48290904D01*
X65319212Y-48643055D01*
X65432828Y-48697814D01*
X65945905Y-48868612D01*
X66513553Y-48959578D01*
X67072401Y-48965575D01*
X67559078Y-48881464D01*
X67587449Y-48872513D01*
X68257902Y-48572944D01*
X68811634Y-48152241D01*
X69246266Y-47614170D01*
X69559418Y-46962500D01*
X69748709Y-46200995D01*
X69811749Y-45352559D01*
X69813000Y-44720451D01*
X69355942Y-45171831D01*
X68898884Y-45623212D01*
X68606619Y-45295939D01*
X68363262Y-45021430D01*
X68107567Y-44730094D01*
X68034198Y-44645805D01*
X67754043Y-44322943D01*
X67221776Y-44850479D01*
X67221776Y-44850479D01*
G37*
X67221776Y-44850479D02*
X66963019Y-45101385D01*
X66791268Y-45247161D01*
X66676910Y-45305455D01*
X66590334Y-45293915D01*
X66536754Y-45258754D01*
X66390459Y-45141758D01*
X66167897Y-44960798D01*
X65971991Y-44800079D01*
X65559982Y-44460667D01*
X65157398Y-44916904D01*
X64959554Y-45138698D01*
X64815096Y-45263490D01*
X64682699Y-45290620D01*
X64521038Y-45219425D01*
X64288787Y-45049244D01*
X64099139Y-44899957D01*
X63869587Y-44722435D01*
X63738569Y-44640068D01*
X63671509Y-44643346D01*
X63633831Y-44722756D01*
X63620745Y-44768345D01*
X63563341Y-45167375D01*
X63572339Y-45664043D01*
X63640142Y-46203676D01*
X63759153Y-46731604D01*
X63921775Y-47193155D01*
X63972556Y-47300049D01*
X64323558Y-47827280D01*
X64789113Y-48290904D01*
X65319212Y-48643055D01*
X65432828Y-48697814D01*
X65945905Y-48868612D01*
X66513553Y-48959578D01*
X67072401Y-48965575D01*
X67559078Y-48881464D01*
X67587449Y-48872513D01*
X68257902Y-48572944D01*
X68811634Y-48152241D01*
X69246266Y-47614170D01*
X69559418Y-46962500D01*
X69748709Y-46200995D01*
X69811749Y-45352559D01*
X69813000Y-44720451D01*
X69355942Y-45171831D01*
X68898884Y-45623212D01*
X68606619Y-45295939D01*
X68363262Y-45021430D01*
X68107567Y-44730094D01*
X68034198Y-44645805D01*
X67754043Y-44322943D01*
X67221776Y-44850479D01*
G36*
X65945616Y-40934812D02*
X65405308Y-41234964D01*
X64913281Y-41690794D01*
X64475123Y-42297530D01*
X64226828Y-42760172D01*
X64060918Y-43128555D01*
X63915920Y-43491172D01*
X63803789Y-43813044D01*
X63736481Y-44059187D01*
X63725951Y-44194621D01*
X63732602Y-44206236D01*
X63806364Y-44268567D01*
X63975187Y-44409135D01*
X64203550Y-44598368D01*
X64219579Y-44611624D01*
X64679825Y-44992201D01*
X65055449Y-44535934D01*
X65248921Y-44309591D01*
X65401879Y-44146574D01*
X65482611Y-44080572D01*
X65484203Y-44080423D01*
X65571307Y-44129260D01*
X65755922Y-44258405D01*
X66002882Y-44442946D01*
X66081771Y-44503757D01*
X66339969Y-44699634D01*
X66545722Y-44847298D01*
X66664038Y-44921907D01*
X66677088Y-44926333D01*
X66755840Y-44870178D01*
X66921594Y-44720512D01*
X67143621Y-44505534D01*
X67230667Y-44418333D01*
X67466060Y-44186747D01*
X67657066Y-44010487D01*
X67772605Y-43917802D01*
X67789603Y-43910333D01*
X67865935Y-43970613D01*
X68022336Y-44131801D01*
X68230834Y-44364417D01*
X68331897Y-44481833D01*
X68554882Y-44739438D01*
X68737671Y-44942122D01*
X68852128Y-45059049D01*
X68873374Y-45075299D01*
X68956112Y-45030806D01*
X69119500Y-44893047D01*
X69326041Y-44693950D01*
X69723290Y-44290637D01*
X69486315Y-43606269D01*
X69172758Y-42853762D01*
X68792783Y-42198241D01*
X68359750Y-41652404D01*
X67887018Y-41228948D01*
X67387947Y-40940572D01*
X66875896Y-40799971D01*
X66528616Y-40795107D01*
X65945616Y-40934812D01*
X65945616Y-40934812D01*
G37*
X65945616Y-40934812D02*
X65405308Y-41234964D01*
X64913281Y-41690794D01*
X64475123Y-42297530D01*
X64226828Y-42760172D01*
X64060918Y-43128555D01*
X63915920Y-43491172D01*
X63803789Y-43813044D01*
X63736481Y-44059187D01*
X63725951Y-44194621D01*
X63732602Y-44206236D01*
X63806364Y-44268567D01*
X63975187Y-44409135D01*
X64203550Y-44598368D01*
X64219579Y-44611624D01*
X64679825Y-44992201D01*
X65055449Y-44535934D01*
X65248921Y-44309591D01*
X65401879Y-44146574D01*
X65482611Y-44080572D01*
X65484203Y-44080423D01*
X65571307Y-44129260D01*
X65755922Y-44258405D01*
X66002882Y-44442946D01*
X66081771Y-44503757D01*
X66339969Y-44699634D01*
X66545722Y-44847298D01*
X66664038Y-44921907D01*
X66677088Y-44926333D01*
X66755840Y-44870178D01*
X66921594Y-44720512D01*
X67143621Y-44505534D01*
X67230667Y-44418333D01*
X67466060Y-44186747D01*
X67657066Y-44010487D01*
X67772605Y-43917802D01*
X67789603Y-43910333D01*
X67865935Y-43970613D01*
X68022336Y-44131801D01*
X68230834Y-44364417D01*
X68331897Y-44481833D01*
X68554882Y-44739438D01*
X68737671Y-44942122D01*
X68852128Y-45059049D01*
X68873374Y-45075299D01*
X68956112Y-45030806D01*
X69119500Y-44893047D01*
X69326041Y-44693950D01*
X69723290Y-44290637D01*
X69486315Y-43606269D01*
X69172758Y-42853762D01*
X68792783Y-42198241D01*
X68359750Y-41652404D01*
X67887018Y-41228948D01*
X67387947Y-40940572D01*
X66875896Y-40799971D01*
X66528616Y-40795107D01*
X65945616Y-40934812D01*
D17*
X98530833Y-139872357D02*
X98276833Y-139944929D01*
X97853500Y-139944929D01*
X97684167Y-139872357D01*
X97599500Y-139799786D01*
X97514833Y-139654643D01*
X97514833Y-139509500D01*
X97599500Y-139364357D01*
X97684167Y-139291786D01*
X97853500Y-139219214D01*
X98192167Y-139146643D01*
X98361500Y-139074071D01*
X98446167Y-139001500D01*
X98530833Y-138856357D01*
X98530833Y-138711214D01*
X98446167Y-138566071D01*
X98361500Y-138493500D01*
X98192167Y-138420929D01*
X97768833Y-138420929D01*
X97514833Y-138493500D01*
X97006834Y-138420929D02*
X95990834Y-138420929D01*
X96498834Y-139944929D02*
X96498834Y-138420929D01*
X95482833Y-139509500D02*
X94636167Y-139509500D01*
X95652167Y-139944929D02*
X95059500Y-138420929D01*
X94466833Y-139944929D01*
X92858167Y-139944929D02*
X93450833Y-139219214D01*
X93874167Y-139944929D02*
X93874167Y-138420929D01*
X93196833Y-138420929D01*
X93027500Y-138493500D01*
X92942833Y-138566071D01*
X92858167Y-138711214D01*
X92858167Y-138928929D01*
X92942833Y-139074071D01*
X93027500Y-139146643D01*
X93196833Y-139219214D01*
X93874167Y-139219214D01*
X91842167Y-139799786D02*
X91757500Y-139872357D01*
X91842167Y-139944929D01*
X91926833Y-139872357D01*
X91842167Y-139799786D01*
X91842167Y-139944929D01*
X92180833Y-138493500D02*
X92011500Y-138420929D01*
X91588167Y-138420929D01*
X91418833Y-138493500D01*
X91334167Y-138638643D01*
X91334167Y-138783786D01*
X91418833Y-138928929D01*
X91503500Y-139001500D01*
X91672833Y-139074071D01*
X91757500Y-139146643D01*
X91842167Y-139291786D01*
X91842167Y-139364357D01*
X97768833Y-139872357D02*
X97514833Y-139944929D01*
X97091500Y-139944929D01*
X96922167Y-139872357D01*
X96837500Y-139799786D01*
X96752833Y-139654643D01*
X96752833Y-139509500D01*
X96837500Y-139364357D01*
X96922167Y-139291786D01*
X97091500Y-139219214D01*
X97430167Y-139146643D01*
X97599500Y-139074071D01*
X97684167Y-139001500D01*
X97768833Y-138856357D01*
X97768833Y-138711214D01*
X97684167Y-138566071D01*
X97599500Y-138493500D01*
X97430167Y-138420929D01*
X97006833Y-138420929D01*
X96752833Y-138493500D01*
X96244834Y-138420929D02*
X95228834Y-138420929D01*
X95736834Y-139944929D02*
X95736834Y-138420929D01*
X94720833Y-139509500D02*
X93874167Y-139509500D01*
X94890167Y-139944929D02*
X94297500Y-138420929D01*
X93704833Y-139944929D01*
X92096167Y-139944929D02*
X92688833Y-139219214D01*
X93112167Y-139944929D02*
X93112167Y-138420929D01*
X92434833Y-138420929D01*
X92265500Y-138493500D01*
X92180833Y-138566071D01*
X92096167Y-138711214D01*
X92096167Y-138928929D01*
X92180833Y-139074071D01*
X92265500Y-139146643D01*
X92434833Y-139219214D01*
X93112167Y-139219214D01*
X97768833Y-146476357D02*
X97514833Y-146548929D01*
X97091500Y-146548929D01*
X96922167Y-146476357D01*
X96837500Y-146403786D01*
X96752833Y-146258643D01*
X96752833Y-146113500D01*
X96837500Y-145968357D01*
X96922167Y-145895786D01*
X97091500Y-145823214D01*
X97430167Y-145750643D01*
X97599500Y-145678071D01*
X97684167Y-145605500D01*
X97768833Y-145460357D01*
X97768833Y-145315214D01*
X97684167Y-145170071D01*
X97599500Y-145097500D01*
X97430167Y-145024929D01*
X97006833Y-145024929D01*
X96752833Y-145097500D01*
X96244834Y-145024929D02*
X95228834Y-145024929D01*
X95736834Y-146548929D02*
X95736834Y-145024929D01*
X94720833Y-146113500D02*
X93874167Y-146113500D01*
X94890167Y-146548929D02*
X94297500Y-145024929D01*
X93704833Y-146548929D01*
X92096167Y-146548929D02*
X92688833Y-145823214D01*
X93112167Y-146548929D02*
X93112167Y-145024929D01*
X92434833Y-145024929D01*
X92265500Y-145097500D01*
X92180833Y-145170071D01*
X92096167Y-145315214D01*
X92096167Y-145532929D01*
X92180833Y-145678071D01*
X92265500Y-145750643D01*
X92434833Y-145823214D01*
X93112167Y-145823214D01*
X82081776Y-146516662D02*
X81882244Y-146689780D01*
X81498574Y-146868688D01*
X81314436Y-146874479D01*
X81207032Y-146844489D01*
X81068958Y-146748726D01*
X81007618Y-146617182D01*
X81023012Y-146449856D01*
X81069076Y-146348303D01*
X81191874Y-146210967D01*
X81468141Y-146002068D01*
X81590938Y-145864732D01*
X81637003Y-145763179D01*
X81652396Y-145595853D01*
X81591056Y-145464309D01*
X81452982Y-145368546D01*
X81345578Y-145338556D01*
X81161441Y-145344348D01*
X80777770Y-145523257D01*
X80578237Y-145696373D01*
X80010430Y-145881073D02*
X79580223Y-147763230D01*
X78936153Y-146382017D02*
X80654500Y-147262286D01*
X78122276Y-148443082D02*
X79043085Y-148013701D01*
X78582680Y-148228392D02*
X77938610Y-146847178D01*
X78184089Y-146972931D01*
X78398897Y-147032912D01*
X78583034Y-147027120D01*
X77370330Y-148633572D02*
X77324266Y-148735126D01*
X77431670Y-148765116D01*
X77477734Y-148663562D01*
X77370330Y-148633572D01*
X77431670Y-148765116D01*
X77032960Y-147910079D02*
X76986896Y-148011633D01*
X77094300Y-148041624D01*
X77140363Y-147940070D01*
X77032960Y-147910079D01*
X77094300Y-148041624D01*
X75252918Y-148099537D02*
X76020259Y-147741720D01*
X76403693Y-148363659D01*
X76296289Y-148333668D01*
X76112150Y-148339460D01*
X75728480Y-148518368D01*
X75605682Y-148655703D01*
X75559618Y-148757257D01*
X75544224Y-148924583D01*
X75697574Y-149253444D01*
X75835649Y-149349206D01*
X75943053Y-149379196D01*
X76127191Y-149373405D01*
X76510861Y-149194497D01*
X76633659Y-149057161D01*
X76679723Y-148955608D01*
X64817396Y-154568462D02*
X64617864Y-154741580D01*
X64234194Y-154920488D01*
X64050056Y-154926279D01*
X63942652Y-154896289D01*
X63804578Y-154800526D01*
X63743238Y-154668982D01*
X63758632Y-154501656D01*
X63804696Y-154400103D01*
X63927494Y-154262767D01*
X64203761Y-154053868D01*
X64326558Y-153916532D01*
X64372623Y-153814979D01*
X64388016Y-153647653D01*
X64326676Y-153516109D01*
X64188602Y-153420346D01*
X64081198Y-153390356D01*
X63897061Y-153396148D01*
X63513390Y-153575057D01*
X63313857Y-153748173D01*
X62746050Y-153932873D02*
X62315843Y-155815030D01*
X61671773Y-154433817D02*
X63390120Y-155314086D01*
X60857896Y-156494882D02*
X61778705Y-156065501D01*
X61318300Y-156280192D02*
X60674230Y-154898978D01*
X60919709Y-155024731D01*
X61134517Y-155084712D01*
X61318654Y-155078920D01*
X60105950Y-156685372D02*
X60059886Y-156786926D01*
X60167290Y-156816916D01*
X60213354Y-156715362D01*
X60105950Y-156685372D01*
X60167290Y-156816916D01*
X59768580Y-155961879D02*
X59722516Y-156063433D01*
X59829920Y-156093424D01*
X59875983Y-155991870D01*
X59768580Y-155961879D01*
X59829920Y-156093424D01*
X58065273Y-156115555D02*
X58372208Y-155972429D01*
X58556347Y-155966637D01*
X58663750Y-155996627D01*
X58909229Y-156122380D01*
X59108642Y-156349686D01*
X59354003Y-156875863D01*
X59338609Y-157043189D01*
X59292545Y-157144743D01*
X59169747Y-157282078D01*
X58862811Y-157425205D01*
X58678673Y-157430996D01*
X58571269Y-157401006D01*
X58433194Y-157305244D01*
X58279844Y-156976383D01*
X58295238Y-156809057D01*
X58341302Y-156707503D01*
X58464100Y-156570168D01*
X58771037Y-156427041D01*
X58955175Y-156421250D01*
X59062579Y-156451240D01*
X59200653Y-156547003D01*
X87342604Y-157798326D02*
X87143072Y-157971444D01*
X86759402Y-158150352D01*
X86575264Y-158156143D01*
X86467860Y-158126153D01*
X86329786Y-158030390D01*
X86268446Y-157898846D01*
X86283840Y-157731520D01*
X86329904Y-157629967D01*
X86452702Y-157492631D01*
X86728969Y-157283732D01*
X86851766Y-157146396D01*
X86897831Y-157044843D01*
X86913224Y-156877517D01*
X86851884Y-156745973D01*
X86713810Y-156650210D01*
X86606406Y-156620220D01*
X86422269Y-156626012D01*
X86038598Y-156804921D01*
X85839065Y-156978037D01*
X85271258Y-157162737D02*
X84841051Y-159044894D01*
X84196981Y-157663681D02*
X85915328Y-158543950D01*
X83276173Y-158093061D02*
X83122705Y-158164624D01*
X82999906Y-158301959D01*
X82953842Y-158403512D01*
X82938448Y-158570838D01*
X82984394Y-158869709D01*
X83137744Y-159198569D01*
X83337158Y-159425875D01*
X83475233Y-159521638D01*
X83582636Y-159551628D01*
X83766775Y-159545837D01*
X83920243Y-159474274D01*
X84043040Y-159336938D01*
X84089105Y-159235384D01*
X84104499Y-159068058D01*
X84058552Y-158769189D01*
X83905202Y-158440328D01*
X83705789Y-158213021D01*
X83567714Y-158117259D01*
X83460310Y-158087269D01*
X83276173Y-158093061D01*
X82631158Y-159915236D02*
X82585094Y-160016790D01*
X82692498Y-160046780D01*
X82738562Y-159945226D01*
X82631158Y-159915236D01*
X82692498Y-160046780D01*
X82293788Y-159191743D02*
X82247724Y-159293297D01*
X82355128Y-159323288D01*
X82401191Y-159221734D01*
X82293788Y-159191743D01*
X82355128Y-159323288D01*
X81434555Y-158951821D02*
X80437012Y-159416983D01*
X81219511Y-159692687D01*
X80989308Y-159800032D01*
X80866510Y-159937367D01*
X80820446Y-160038921D01*
X80805052Y-160206247D01*
X80958402Y-160535108D01*
X81096477Y-160630870D01*
X81203881Y-160660860D01*
X81388019Y-160655069D01*
X81848423Y-160440379D01*
X81971221Y-160303043D01*
X82017285Y-160201490D01*
X70075684Y-165847586D02*
X69876152Y-166020704D01*
X69492482Y-166199612D01*
X69308344Y-166205403D01*
X69200940Y-166175413D01*
X69062866Y-166079650D01*
X69001526Y-165948106D01*
X69016920Y-165780780D01*
X69062984Y-165679227D01*
X69185782Y-165541891D01*
X69462049Y-165332992D01*
X69584846Y-165195656D01*
X69630911Y-165094103D01*
X69646304Y-164926777D01*
X69584964Y-164795233D01*
X69446890Y-164699470D01*
X69339486Y-164669480D01*
X69155349Y-164675272D01*
X68771678Y-164854181D01*
X68572145Y-165027297D01*
X68004338Y-165211997D02*
X67574131Y-167094154D01*
X66930061Y-165712941D02*
X68648408Y-166593210D01*
X66009253Y-166142321D02*
X65855785Y-166213884D01*
X65732986Y-166351219D01*
X65686922Y-166452772D01*
X65671528Y-166620098D01*
X65717474Y-166918969D01*
X65870824Y-167247829D01*
X66070238Y-167475135D01*
X66208313Y-167570898D01*
X66315716Y-167600888D01*
X66499855Y-167595097D01*
X66653323Y-167523534D01*
X66776120Y-167386198D01*
X66822185Y-167284644D01*
X66837579Y-167117318D01*
X66791632Y-166818449D01*
X66638282Y-166489588D01*
X66438869Y-166262281D01*
X66300794Y-166166519D01*
X66193390Y-166136529D01*
X66009253Y-166142321D01*
X65364238Y-167964496D02*
X65318174Y-168066050D01*
X65425578Y-168096040D01*
X65471642Y-167994486D01*
X65364238Y-167964496D01*
X65425578Y-168096040D01*
X65026868Y-167241003D02*
X64980804Y-167342557D01*
X65088208Y-167372548D01*
X65134271Y-167270994D01*
X65026868Y-167241003D01*
X65088208Y-167372548D01*
X64152240Y-167168406D02*
X64044837Y-167138416D01*
X63860699Y-167144208D01*
X63477029Y-167323116D01*
X63354231Y-167460451D01*
X63308166Y-167562004D01*
X63292772Y-167729331D01*
X63354112Y-167860875D01*
X63522856Y-168022409D01*
X64811705Y-168382294D01*
X63814162Y-168847456D01*
D11*
X90542533Y-35360429D02*
X89441866Y-35360429D01*
X90034533Y-35941000D01*
X89780533Y-35941000D01*
X89611200Y-36013571D01*
X89526533Y-36086143D01*
X89441866Y-36231286D01*
X89441866Y-36594143D01*
X89526533Y-36739286D01*
X89611200Y-36811857D01*
X89780533Y-36884429D01*
X90288533Y-36884429D01*
X90457866Y-36811857D01*
X90542533Y-36739286D01*
X88679867Y-36739286D02*
X88595200Y-36811857D01*
X88679867Y-36884429D01*
X88764533Y-36811857D01*
X88679867Y-36739286D01*
X88679867Y-36884429D01*
X86986533Y-35360429D02*
X87833200Y-35360429D01*
X87917866Y-36086143D01*
X87833200Y-36013571D01*
X87663866Y-35941000D01*
X87240533Y-35941000D01*
X87071200Y-36013571D01*
X86986533Y-36086143D01*
X86901866Y-36231286D01*
X86901866Y-36594143D01*
X86986533Y-36739286D01*
X87071200Y-36811857D01*
X87240533Y-36884429D01*
X87663866Y-36884429D01*
X87833200Y-36811857D01*
X87917866Y-36739286D01*
X86139867Y-36884429D02*
X86139867Y-35868429D01*
X86139867Y-36013571D02*
X86055200Y-35941000D01*
X85885867Y-35868429D01*
X85631867Y-35868429D01*
X85462533Y-35941000D01*
X85377867Y-36086143D01*
X85377867Y-36884429D01*
X85377867Y-36086143D02*
X85293200Y-35941000D01*
X85123867Y-35868429D01*
X84869867Y-35868429D01*
X84700533Y-35941000D01*
X84615867Y-36086143D01*
X84615867Y-36884429D01*
X83769200Y-36884429D02*
X83769200Y-35868429D01*
X83769200Y-36013571D02*
X83684533Y-35941000D01*
X83515200Y-35868429D01*
X83261200Y-35868429D01*
X83091866Y-35941000D01*
X83007200Y-36086143D01*
X83007200Y-36884429D01*
X83007200Y-36086143D02*
X82922533Y-35941000D01*
X82753200Y-35868429D01*
X82499200Y-35868429D01*
X82329866Y-35941000D01*
X82245200Y-36086143D01*
X82245200Y-36884429D01*
D17*
X76030666Y-69019057D02*
X75776666Y-69091629D01*
X75353333Y-69091629D01*
X75184000Y-69019057D01*
X75099333Y-68946486D01*
X75014666Y-68801343D01*
X75014666Y-68656200D01*
X75099333Y-68511057D01*
X75184000Y-68438486D01*
X75353333Y-68365914D01*
X75692000Y-68293343D01*
X75861333Y-68220771D01*
X75946000Y-68148200D01*
X76030666Y-68003057D01*
X76030666Y-67857914D01*
X75946000Y-67712771D01*
X75861333Y-67640200D01*
X75692000Y-67567629D01*
X75268666Y-67567629D01*
X75014666Y-67640200D01*
X74422000Y-67567629D02*
X73998667Y-69091629D01*
X73660000Y-68003057D01*
X73321333Y-69091629D01*
X72898000Y-67567629D01*
X71374000Y-67567629D02*
X72220667Y-67567629D01*
X72305333Y-68293343D01*
X72220667Y-68220771D01*
X72051333Y-68148200D01*
X71628000Y-68148200D01*
X71458667Y-68220771D01*
X71374000Y-68293343D01*
X71289333Y-68438486D01*
X71289333Y-68801343D01*
X71374000Y-68946486D01*
X71458667Y-69019057D01*
X71628000Y-69091629D01*
X72051333Y-69091629D01*
X72220667Y-69019057D01*
X72305333Y-68946486D01*
X70527334Y-68946486D02*
X70442667Y-69019057D01*
X70527334Y-69091629D01*
X70612000Y-69019057D01*
X70527334Y-68946486D01*
X70527334Y-69091629D01*
X70527334Y-68148200D02*
X70442667Y-68220771D01*
X70527334Y-68293343D01*
X70612000Y-68220771D01*
X70527334Y-68148200D01*
X70527334Y-68293343D01*
X68918667Y-67567629D02*
X69257333Y-67567629D01*
X69426667Y-67640200D01*
X69511333Y-67712771D01*
X69680667Y-67930486D01*
X69765333Y-68220771D01*
X69765333Y-68801343D01*
X69680667Y-68946486D01*
X69596000Y-69019057D01*
X69426667Y-69091629D01*
X69088000Y-69091629D01*
X68918667Y-69019057D01*
X68834000Y-68946486D01*
X68749333Y-68801343D01*
X68749333Y-68438486D01*
X68834000Y-68293343D01*
X68918667Y-68220771D01*
X69088000Y-68148200D01*
X69426667Y-68148200D01*
X69596000Y-68220771D01*
X69680667Y-68293343D01*
X69765333Y-68438486D01*
X76308857Y-85269494D02*
X76381429Y-85523494D01*
X76381429Y-85946827D01*
X76308857Y-86116160D01*
X76236286Y-86200827D01*
X76091143Y-86285494D01*
X75946000Y-86285494D01*
X75800857Y-86200827D01*
X75728286Y-86116160D01*
X75655714Y-85946827D01*
X75583143Y-85608160D01*
X75510571Y-85438827D01*
X75438000Y-85354160D01*
X75292857Y-85269494D01*
X75147714Y-85269494D01*
X75002571Y-85354160D01*
X74930000Y-85438827D01*
X74857429Y-85608160D01*
X74857429Y-86031494D01*
X74930000Y-86285494D01*
X74857429Y-86878160D02*
X76381429Y-87301493D01*
X75292857Y-87640160D01*
X76381429Y-87978827D01*
X74857429Y-88402160D01*
X75365429Y-89841493D02*
X76381429Y-89841493D01*
X74784857Y-89418160D02*
X75873429Y-88994827D01*
X75873429Y-90095493D01*
X76236286Y-90772826D02*
X76308857Y-90857493D01*
X76381429Y-90772826D01*
X76308857Y-90688160D01*
X76236286Y-90772826D01*
X76381429Y-90772826D01*
X75438000Y-90772826D02*
X75510571Y-90857493D01*
X75583143Y-90772826D01*
X75510571Y-90688160D01*
X75438000Y-90772826D01*
X75583143Y-90772826D01*
X74857429Y-92381493D02*
X74857429Y-92042827D01*
X74930000Y-91873493D01*
X75002571Y-91788827D01*
X75220286Y-91619493D01*
X75510571Y-91534827D01*
X76091143Y-91534827D01*
X76236286Y-91619493D01*
X76308857Y-91704160D01*
X76381429Y-91873493D01*
X76381429Y-92212160D01*
X76308857Y-92381493D01*
X76236286Y-92466160D01*
X76091143Y-92550827D01*
X75728286Y-92550827D01*
X75583143Y-92466160D01*
X75510571Y-92381493D01*
X75438000Y-92212160D01*
X75438000Y-91873493D01*
X75510571Y-91704160D01*
X75583143Y-91619493D01*
X75728286Y-91534827D01*
X76308857Y-113844494D02*
X76381429Y-114098494D01*
X76381429Y-114521827D01*
X76308857Y-114691160D01*
X76236286Y-114775827D01*
X76091143Y-114860494D01*
X75946000Y-114860494D01*
X75800857Y-114775827D01*
X75728286Y-114691160D01*
X75655714Y-114521827D01*
X75583143Y-114183160D01*
X75510571Y-114013827D01*
X75438000Y-113929160D01*
X75292857Y-113844494D01*
X75147714Y-113844494D01*
X75002571Y-113929160D01*
X74930000Y-114013827D01*
X74857429Y-114183160D01*
X74857429Y-114606494D01*
X74930000Y-114860494D01*
X74857429Y-115453160D02*
X76381429Y-115876493D01*
X75292857Y-116215160D01*
X76381429Y-116553827D01*
X74857429Y-116977160D01*
X75002571Y-117569827D02*
X74930000Y-117654493D01*
X74857429Y-117823827D01*
X74857429Y-118247160D01*
X74930000Y-118416493D01*
X75002571Y-118501160D01*
X75147714Y-118585827D01*
X75292857Y-118585827D01*
X75510571Y-118501160D01*
X76381429Y-117485160D01*
X76381429Y-118585827D01*
X76236286Y-119347826D02*
X76308857Y-119432493D01*
X76381429Y-119347826D01*
X76308857Y-119263160D01*
X76236286Y-119347826D01*
X76381429Y-119347826D01*
X75438000Y-119347826D02*
X75510571Y-119432493D01*
X75583143Y-119347826D01*
X75510571Y-119263160D01*
X75438000Y-119347826D01*
X75583143Y-119347826D01*
X74857429Y-120956493D02*
X74857429Y-120617827D01*
X74930000Y-120448493D01*
X75002571Y-120363827D01*
X75220286Y-120194493D01*
X75510571Y-120109827D01*
X76091143Y-120109827D01*
X76236286Y-120194493D01*
X76308857Y-120279160D01*
X76381429Y-120448493D01*
X76381429Y-120787160D01*
X76308857Y-120956493D01*
X76236286Y-121041160D01*
X76091143Y-121125827D01*
X75728286Y-121125827D01*
X75583143Y-121041160D01*
X75510571Y-120956493D01*
X75438000Y-120787160D01*
X75438000Y-120448493D01*
X75510571Y-120279160D01*
X75583143Y-120194493D01*
X75728286Y-120109827D01*
X190330666Y-147121517D02*
X190076666Y-147194089D01*
X189653333Y-147194089D01*
X189484000Y-147121517D01*
X189399333Y-147048946D01*
X189314666Y-146903803D01*
X189314666Y-146758660D01*
X189399333Y-146613517D01*
X189484000Y-146540946D01*
X189653333Y-146468374D01*
X189992000Y-146395803D01*
X190161333Y-146323231D01*
X190246000Y-146250660D01*
X190330666Y-146105517D01*
X190330666Y-145960374D01*
X190246000Y-145815231D01*
X190161333Y-145742660D01*
X189992000Y-145670089D01*
X189568666Y-145670089D01*
X189314666Y-145742660D01*
X188722000Y-145670089D02*
X188298667Y-147194089D01*
X187960000Y-146105517D01*
X187621333Y-147194089D01*
X187198000Y-145670089D01*
X185589333Y-147194089D02*
X186605333Y-147194089D01*
X186097333Y-147194089D02*
X186097333Y-145670089D01*
X186266667Y-145887803D01*
X186436000Y-146032946D01*
X186605333Y-146105517D01*
X184827334Y-147048946D02*
X184742667Y-147121517D01*
X184827334Y-147194089D01*
X184912000Y-147121517D01*
X184827334Y-147048946D01*
X184827334Y-147194089D01*
X184827334Y-146250660D02*
X184742667Y-146323231D01*
X184827334Y-146395803D01*
X184912000Y-146323231D01*
X184827334Y-146250660D01*
X184827334Y-146395803D01*
X183642000Y-145670089D02*
X183472667Y-145670089D01*
X183303333Y-145742660D01*
X183218667Y-145815231D01*
X183134000Y-145960374D01*
X183049333Y-146250660D01*
X183049333Y-146613517D01*
X183134000Y-146903803D01*
X183218667Y-147048946D01*
X183303333Y-147121517D01*
X183472667Y-147194089D01*
X183642000Y-147194089D01*
X183811333Y-147121517D01*
X183896000Y-147048946D01*
X183980667Y-146903803D01*
X184065333Y-146613517D01*
X184065333Y-146250660D01*
X183980667Y-145960374D01*
X183896000Y-145815231D01*
X183811333Y-145742660D01*
X183642000Y-145670089D01*
X95080666Y-88066517D02*
X94826666Y-88139089D01*
X94403333Y-88139089D01*
X94234000Y-88066517D01*
X94149333Y-87993946D01*
X94064666Y-87848803D01*
X94064666Y-87703660D01*
X94149333Y-87558517D01*
X94234000Y-87485946D01*
X94403333Y-87413374D01*
X94742000Y-87340803D01*
X94911333Y-87268231D01*
X94996000Y-87195660D01*
X95080666Y-87050517D01*
X95080666Y-86905374D01*
X94996000Y-86760231D01*
X94911333Y-86687660D01*
X94742000Y-86615089D01*
X94318666Y-86615089D01*
X94064666Y-86687660D01*
X93472000Y-86615089D02*
X93048667Y-88139089D01*
X92710000Y-87050517D01*
X92371333Y-88139089D01*
X91948000Y-86615089D01*
X90508667Y-87123089D02*
X90508667Y-88139089D01*
X90932000Y-86542517D02*
X91355333Y-87631089D01*
X90254667Y-87631089D01*
X89577334Y-87993946D02*
X89492667Y-88066517D01*
X89577334Y-88139089D01*
X89662000Y-88066517D01*
X89577334Y-87993946D01*
X89577334Y-88139089D01*
X89577334Y-87195660D02*
X89492667Y-87268231D01*
X89577334Y-87340803D01*
X89662000Y-87268231D01*
X89577334Y-87195660D01*
X89577334Y-87340803D01*
X87884000Y-86615089D02*
X88730667Y-86615089D01*
X88815333Y-87340803D01*
X88730667Y-87268231D01*
X88561333Y-87195660D01*
X88138000Y-87195660D01*
X87968667Y-87268231D01*
X87884000Y-87340803D01*
X87799333Y-87485946D01*
X87799333Y-87848803D01*
X87884000Y-87993946D01*
X87968667Y-88066517D01*
X88138000Y-88139089D01*
X88561333Y-88139089D01*
X88730667Y-88066517D01*
X88815333Y-87993946D01*
X47703945Y-162546158D02*
X47504413Y-162719276D01*
X47120743Y-162898184D01*
X46936605Y-162903975D01*
X46829201Y-162873985D01*
X46691126Y-162778223D01*
X46629786Y-162646678D01*
X46645181Y-162479352D01*
X46691245Y-162377799D01*
X46814043Y-162240463D01*
X47090309Y-162031565D01*
X47213107Y-161894229D01*
X47259171Y-161792675D01*
X47274565Y-161625350D01*
X47213225Y-161493805D01*
X47075151Y-161398043D01*
X46967747Y-161368053D01*
X46783609Y-161373844D01*
X46399938Y-161552753D01*
X46200406Y-161725870D01*
X45632598Y-161910569D02*
X45892999Y-163470691D01*
X45126012Y-162627236D01*
X45279126Y-163756945D01*
X44251385Y-162554640D01*
X43330577Y-162984020D02*
X43177109Y-163055583D01*
X43054310Y-163192918D01*
X43008246Y-163294471D01*
X42992852Y-163461798D01*
X43038798Y-163760668D01*
X43192148Y-164089528D01*
X43391562Y-164316835D01*
X43529637Y-164412597D01*
X43637040Y-164442587D01*
X43821179Y-164436796D01*
X43974647Y-164365233D01*
X44097444Y-164227897D01*
X44143509Y-164126344D01*
X44158903Y-163959018D01*
X44112957Y-163660148D01*
X43959607Y-163331288D01*
X43760193Y-163103981D01*
X43622119Y-163008218D01*
X43514714Y-162978228D01*
X43330577Y-162984020D01*
X42685563Y-164806195D02*
X42639498Y-164907749D01*
X42746903Y-164937740D01*
X42792966Y-164836186D01*
X42685563Y-164806195D01*
X42746903Y-164937740D01*
X42348192Y-164082702D02*
X42302128Y-164184256D01*
X42409532Y-164214247D01*
X42455596Y-164112693D01*
X42348192Y-164082702D01*
X42409532Y-164214247D01*
X40859575Y-164696783D02*
X41288955Y-165617592D01*
X40997885Y-163991698D02*
X41841605Y-164799371D01*
X40844063Y-165264532D01*
X55755745Y-179813078D02*
X55556213Y-179986196D01*
X55172543Y-180165104D01*
X54988405Y-180170895D01*
X54881001Y-180140905D01*
X54742926Y-180045143D01*
X54681586Y-179913598D01*
X54696981Y-179746272D01*
X54743045Y-179644719D01*
X54865843Y-179507383D01*
X55142109Y-179298485D01*
X55264907Y-179161149D01*
X55310971Y-179059595D01*
X55326365Y-178892270D01*
X55265025Y-178760725D01*
X55126951Y-178664963D01*
X55019547Y-178634973D01*
X54835409Y-178640764D01*
X54451738Y-178819673D01*
X54252206Y-178992790D01*
X53684398Y-179177489D02*
X53944799Y-180737611D01*
X53177812Y-179894156D01*
X53330926Y-181023865D01*
X52303185Y-179821560D01*
X51382377Y-180250940D02*
X51228909Y-180322503D01*
X51106110Y-180459838D01*
X51060046Y-180561391D01*
X51044652Y-180728718D01*
X51090598Y-181027588D01*
X51243948Y-181356448D01*
X51443362Y-181583755D01*
X51581437Y-181679517D01*
X51688840Y-181709507D01*
X51872979Y-181703716D01*
X52026447Y-181632153D01*
X52149244Y-181494817D01*
X52195309Y-181393264D01*
X52210703Y-181225938D01*
X52164757Y-180927068D01*
X52011407Y-180598208D01*
X51811993Y-180370901D01*
X51673919Y-180275138D01*
X51566514Y-180245148D01*
X51382377Y-180250940D01*
X50737363Y-182073115D02*
X50691298Y-182174669D01*
X50798703Y-182204660D01*
X50844766Y-182103106D01*
X50737363Y-182073115D01*
X50798703Y-182204660D01*
X50399992Y-181349622D02*
X50353928Y-181451176D01*
X50461332Y-181481167D01*
X50507396Y-181379613D01*
X50399992Y-181349622D01*
X50461332Y-181481167D01*
X49187286Y-182956075D02*
X50108095Y-182526695D01*
X49647691Y-182741385D02*
X49003621Y-181360172D01*
X49249099Y-181485924D01*
X49463907Y-181545905D01*
X49648045Y-181540114D01*
X39654685Y-145281778D02*
X39455153Y-145454896D01*
X39071483Y-145633804D01*
X38887345Y-145639595D01*
X38779941Y-145609605D01*
X38641866Y-145513843D01*
X38580526Y-145382298D01*
X38595921Y-145214972D01*
X38641985Y-145113419D01*
X38764783Y-144976083D01*
X39041049Y-144767185D01*
X39163847Y-144629849D01*
X39209911Y-144528295D01*
X39225305Y-144360970D01*
X39163965Y-144229425D01*
X39025891Y-144133663D01*
X38918487Y-144103673D01*
X38734349Y-144109464D01*
X38350678Y-144288373D01*
X38151146Y-144461490D01*
X37583338Y-144646189D02*
X37843739Y-146206311D01*
X37076752Y-145362856D01*
X37229866Y-146492565D01*
X36202125Y-145290260D01*
X35281317Y-145719640D02*
X35127849Y-145791203D01*
X35005050Y-145928538D01*
X34958986Y-146030091D01*
X34943592Y-146197418D01*
X34989538Y-146496288D01*
X35142888Y-146825148D01*
X35342302Y-147052455D01*
X35480377Y-147148217D01*
X35587780Y-147178207D01*
X35771919Y-147172416D01*
X35925387Y-147100853D01*
X36048184Y-146963517D01*
X36094249Y-146861964D01*
X36109643Y-146694638D01*
X36063697Y-146395768D01*
X35910347Y-146066908D01*
X35710933Y-145839601D01*
X35572859Y-145743838D01*
X35465454Y-145713848D01*
X35281317Y-145719640D01*
X34636303Y-147541815D02*
X34590238Y-147643369D01*
X34697643Y-147673360D01*
X34743706Y-147571806D01*
X34636303Y-147541815D01*
X34697643Y-147673360D01*
X34298932Y-146818322D02*
X34252868Y-146919876D01*
X34360272Y-146949867D01*
X34406336Y-146848313D01*
X34298932Y-146818322D01*
X34360272Y-146949867D01*
X32595625Y-146971999D02*
X32902561Y-146828872D01*
X33086699Y-146823080D01*
X33194102Y-146853070D01*
X33439581Y-146978824D01*
X33638995Y-147206130D01*
X33884355Y-147732307D01*
X33868962Y-147899632D01*
X33822897Y-148001186D01*
X33700100Y-148138522D01*
X33393163Y-148281648D01*
X33209025Y-148287439D01*
X33101621Y-148257449D01*
X32963546Y-148161687D01*
X32810196Y-147832827D01*
X32825591Y-147665501D01*
X32871655Y-147563946D01*
X32994453Y-147426611D01*
X33301389Y-147283484D01*
X33485527Y-147277693D01*
X33592931Y-147307684D01*
X33731005Y-147403446D01*
X56919065Y-137232518D02*
X56719533Y-137405636D01*
X56335863Y-137584544D01*
X56151725Y-137590335D01*
X56044321Y-137560345D01*
X55906246Y-137464583D01*
X55844906Y-137333038D01*
X55860301Y-137165712D01*
X55906365Y-137064159D01*
X56029163Y-136926823D01*
X56305429Y-136717925D01*
X56428227Y-136580589D01*
X56474291Y-136479035D01*
X56489685Y-136311710D01*
X56428345Y-136180165D01*
X56290271Y-136084403D01*
X56182867Y-136054413D01*
X55998729Y-136060204D01*
X55615058Y-136239113D01*
X55415526Y-136412230D01*
X54847718Y-136596929D02*
X55108119Y-138157051D01*
X54341132Y-137313596D01*
X54494246Y-138443305D01*
X53466505Y-137241000D01*
X52545697Y-137670380D02*
X52392229Y-137741943D01*
X52269430Y-137879278D01*
X52223366Y-137980831D01*
X52207972Y-138148158D01*
X52253918Y-138447028D01*
X52407268Y-138775888D01*
X52606682Y-139003195D01*
X52744757Y-139098957D01*
X52852160Y-139128947D01*
X53036299Y-139123156D01*
X53189767Y-139051593D01*
X53312564Y-138914257D01*
X53358629Y-138812704D01*
X53374023Y-138645378D01*
X53328077Y-138346508D01*
X53174727Y-138017648D01*
X52975313Y-137790341D01*
X52837239Y-137694578D01*
X52729834Y-137664588D01*
X52545697Y-137670380D01*
X51900683Y-139492555D02*
X51854618Y-139594109D01*
X51962023Y-139624100D01*
X52008086Y-139522546D01*
X51900683Y-139492555D01*
X51962023Y-139624100D01*
X51563312Y-138769062D02*
X51517248Y-138870616D01*
X51624652Y-138900607D01*
X51670716Y-138799053D01*
X51563312Y-138769062D01*
X51624652Y-138900607D01*
X49783271Y-138958520D02*
X50550611Y-138600703D01*
X50934045Y-139222642D01*
X50826641Y-139192651D01*
X50642503Y-139198443D01*
X50258833Y-139377351D01*
X50136035Y-139514686D01*
X50089971Y-139616241D01*
X50074576Y-139783567D01*
X50227926Y-140112427D01*
X50366001Y-140208189D01*
X50473405Y-140238179D01*
X50657543Y-140232388D01*
X51041213Y-140053480D01*
X51164011Y-139916144D01*
X51210075Y-139814591D01*
X171280666Y-70924057D02*
X171026666Y-70996629D01*
X170603333Y-70996629D01*
X170434000Y-70924057D01*
X170349333Y-70851486D01*
X170264666Y-70706343D01*
X170264666Y-70561200D01*
X170349333Y-70416057D01*
X170434000Y-70343486D01*
X170603333Y-70270914D01*
X170942000Y-70198343D01*
X171111333Y-70125771D01*
X171196000Y-70053200D01*
X171280666Y-69908057D01*
X171280666Y-69762914D01*
X171196000Y-69617771D01*
X171111333Y-69545200D01*
X170942000Y-69472629D01*
X170518666Y-69472629D01*
X170264666Y-69545200D01*
X169672000Y-69472629D02*
X169248667Y-70996629D01*
X168910000Y-69908057D01*
X168571333Y-70996629D01*
X168148000Y-69472629D01*
X166624000Y-69472629D02*
X167470667Y-69472629D01*
X167555333Y-70198343D01*
X167470667Y-70125771D01*
X167301333Y-70053200D01*
X166878000Y-70053200D01*
X166708667Y-70125771D01*
X166624000Y-70198343D01*
X166539333Y-70343486D01*
X166539333Y-70706343D01*
X166624000Y-70851486D01*
X166708667Y-70924057D01*
X166878000Y-70996629D01*
X167301333Y-70996629D01*
X167470667Y-70924057D01*
X167555333Y-70851486D01*
X165777334Y-70851486D02*
X165692667Y-70924057D01*
X165777334Y-70996629D01*
X165862000Y-70924057D01*
X165777334Y-70851486D01*
X165777334Y-70996629D01*
X165777334Y-70053200D02*
X165692667Y-70125771D01*
X165777334Y-70198343D01*
X165862000Y-70125771D01*
X165777334Y-70053200D01*
X165777334Y-70198343D01*
X163999333Y-70996629D02*
X165015333Y-70996629D01*
X164507333Y-70996629D02*
X164507333Y-69472629D01*
X164676667Y-69690343D01*
X164846000Y-69835486D01*
X165015333Y-69908057D01*
X152230666Y-67746517D02*
X151976666Y-67819089D01*
X151553333Y-67819089D01*
X151384000Y-67746517D01*
X151299333Y-67673946D01*
X151214666Y-67528803D01*
X151214666Y-67383660D01*
X151299333Y-67238517D01*
X151384000Y-67165946D01*
X151553333Y-67093374D01*
X151892000Y-67020803D01*
X152061333Y-66948231D01*
X152146000Y-66875660D01*
X152230666Y-66730517D01*
X152230666Y-66585374D01*
X152146000Y-66440231D01*
X152061333Y-66367660D01*
X151892000Y-66295089D01*
X151468666Y-66295089D01*
X151214666Y-66367660D01*
X150622000Y-66295089D02*
X150198667Y-67819089D01*
X149860000Y-66730517D01*
X149521333Y-67819089D01*
X149098000Y-66295089D01*
X147574000Y-66295089D02*
X148420667Y-66295089D01*
X148505333Y-67020803D01*
X148420667Y-66948231D01*
X148251333Y-66875660D01*
X147828000Y-66875660D01*
X147658667Y-66948231D01*
X147574000Y-67020803D01*
X147489333Y-67165946D01*
X147489333Y-67528803D01*
X147574000Y-67673946D01*
X147658667Y-67746517D01*
X147828000Y-67819089D01*
X148251333Y-67819089D01*
X148420667Y-67746517D01*
X148505333Y-67673946D01*
X146727334Y-67673946D02*
X146642667Y-67746517D01*
X146727334Y-67819089D01*
X146812000Y-67746517D01*
X146727334Y-67673946D01*
X146727334Y-67819089D01*
X146727334Y-66875660D02*
X146642667Y-66948231D01*
X146727334Y-67020803D01*
X146812000Y-66948231D01*
X146727334Y-66875660D01*
X146727334Y-67020803D01*
X145965333Y-66440231D02*
X145880667Y-66367660D01*
X145711333Y-66295089D01*
X145288000Y-66295089D01*
X145118667Y-66367660D01*
X145034000Y-66440231D01*
X144949333Y-66585374D01*
X144949333Y-66730517D01*
X145034000Y-66948231D01*
X146050000Y-67819089D01*
X144949333Y-67819089D01*
X133180666Y-66148857D02*
X132926666Y-66221429D01*
X132503333Y-66221429D01*
X132334000Y-66148857D01*
X132249333Y-66076286D01*
X132164666Y-65931143D01*
X132164666Y-65786000D01*
X132249333Y-65640857D01*
X132334000Y-65568286D01*
X132503333Y-65495714D01*
X132842000Y-65423143D01*
X133011333Y-65350571D01*
X133096000Y-65278000D01*
X133180666Y-65132857D01*
X133180666Y-64987714D01*
X133096000Y-64842571D01*
X133011333Y-64770000D01*
X132842000Y-64697429D01*
X132418666Y-64697429D01*
X132164666Y-64770000D01*
X131572000Y-64697429D02*
X131148667Y-66221429D01*
X130810000Y-65132857D01*
X130471333Y-66221429D01*
X130048000Y-64697429D01*
X128524000Y-64697429D02*
X129370667Y-64697429D01*
X129455333Y-65423143D01*
X129370667Y-65350571D01*
X129201333Y-65278000D01*
X128778000Y-65278000D01*
X128608667Y-65350571D01*
X128524000Y-65423143D01*
X128439333Y-65568286D01*
X128439333Y-65931143D01*
X128524000Y-66076286D01*
X128608667Y-66148857D01*
X128778000Y-66221429D01*
X129201333Y-66221429D01*
X129370667Y-66148857D01*
X129455333Y-66076286D01*
X127677334Y-66076286D02*
X127592667Y-66148857D01*
X127677334Y-66221429D01*
X127762000Y-66148857D01*
X127677334Y-66076286D01*
X127677334Y-66221429D01*
X127677334Y-65278000D02*
X127592667Y-65350571D01*
X127677334Y-65423143D01*
X127762000Y-65350571D01*
X127677334Y-65278000D01*
X127677334Y-65423143D01*
X127000000Y-64697429D02*
X125899333Y-64697429D01*
X126492000Y-65278000D01*
X126238000Y-65278000D01*
X126068667Y-65350571D01*
X125984000Y-65423143D01*
X125899333Y-65568286D01*
X125899333Y-65931143D01*
X125984000Y-66076286D01*
X126068667Y-66148857D01*
X126238000Y-66221429D01*
X126746000Y-66221429D01*
X126915333Y-66148857D01*
X127000000Y-66076286D01*
X114130666Y-67746517D02*
X113876666Y-67819089D01*
X113453333Y-67819089D01*
X113284000Y-67746517D01*
X113199333Y-67673946D01*
X113114666Y-67528803D01*
X113114666Y-67383660D01*
X113199333Y-67238517D01*
X113284000Y-67165946D01*
X113453333Y-67093374D01*
X113792000Y-67020803D01*
X113961333Y-66948231D01*
X114046000Y-66875660D01*
X114130666Y-66730517D01*
X114130666Y-66585374D01*
X114046000Y-66440231D01*
X113961333Y-66367660D01*
X113792000Y-66295089D01*
X113368666Y-66295089D01*
X113114666Y-66367660D01*
X112522000Y-66295089D02*
X112098667Y-67819089D01*
X111760000Y-66730517D01*
X111421333Y-67819089D01*
X110998000Y-66295089D01*
X109474000Y-66295089D02*
X110320667Y-66295089D01*
X110405333Y-67020803D01*
X110320667Y-66948231D01*
X110151333Y-66875660D01*
X109728000Y-66875660D01*
X109558667Y-66948231D01*
X109474000Y-67020803D01*
X109389333Y-67165946D01*
X109389333Y-67528803D01*
X109474000Y-67673946D01*
X109558667Y-67746517D01*
X109728000Y-67819089D01*
X110151333Y-67819089D01*
X110320667Y-67746517D01*
X110405333Y-67673946D01*
X108627334Y-67673946D02*
X108542667Y-67746517D01*
X108627334Y-67819089D01*
X108712000Y-67746517D01*
X108627334Y-67673946D01*
X108627334Y-67819089D01*
X108627334Y-66875660D02*
X108542667Y-66948231D01*
X108627334Y-67020803D01*
X108712000Y-66948231D01*
X108627334Y-66875660D01*
X108627334Y-67020803D01*
X107018667Y-66803089D02*
X107018667Y-67819089D01*
X107442000Y-66222517D02*
X107865333Y-67311089D01*
X106764667Y-67311089D01*
X152230666Y-143946517D02*
X151976666Y-144019089D01*
X151553333Y-144019089D01*
X151384000Y-143946517D01*
X151299333Y-143873946D01*
X151214666Y-143728803D01*
X151214666Y-143583660D01*
X151299333Y-143438517D01*
X151384000Y-143365946D01*
X151553333Y-143293374D01*
X151892000Y-143220803D01*
X152061333Y-143148231D01*
X152146000Y-143075660D01*
X152230666Y-142930517D01*
X152230666Y-142785374D01*
X152146000Y-142640231D01*
X152061333Y-142567660D01*
X151892000Y-142495089D01*
X151468666Y-142495089D01*
X151214666Y-142567660D01*
X150622000Y-142495089D02*
X150198667Y-144019089D01*
X149860000Y-142930517D01*
X149521333Y-144019089D01*
X149098000Y-142495089D01*
X147489333Y-144019089D02*
X148505333Y-144019089D01*
X147997333Y-144019089D02*
X147997333Y-142495089D01*
X148166667Y-142712803D01*
X148336000Y-142857946D01*
X148505333Y-142930517D01*
X146727334Y-143873946D02*
X146642667Y-143946517D01*
X146727334Y-144019089D01*
X146812000Y-143946517D01*
X146727334Y-143873946D01*
X146727334Y-144019089D01*
X146727334Y-143075660D02*
X146642667Y-143148231D01*
X146727334Y-143220803D01*
X146812000Y-143148231D01*
X146727334Y-143075660D01*
X146727334Y-143220803D01*
X145965333Y-142640231D02*
X145880667Y-142567660D01*
X145711333Y-142495089D01*
X145288000Y-142495089D01*
X145118667Y-142567660D01*
X145034000Y-142640231D01*
X144949333Y-142785374D01*
X144949333Y-142930517D01*
X145034000Y-143148231D01*
X146050000Y-144019089D01*
X144949333Y-144019089D01*
X171280666Y-89971517D02*
X171026666Y-90044089D01*
X170603333Y-90044089D01*
X170434000Y-89971517D01*
X170349333Y-89898946D01*
X170264666Y-89753803D01*
X170264666Y-89608660D01*
X170349333Y-89463517D01*
X170434000Y-89390946D01*
X170603333Y-89318374D01*
X170942000Y-89245803D01*
X171111333Y-89173231D01*
X171196000Y-89100660D01*
X171280666Y-88955517D01*
X171280666Y-88810374D01*
X171196000Y-88665231D01*
X171111333Y-88592660D01*
X170942000Y-88520089D01*
X170518666Y-88520089D01*
X170264666Y-88592660D01*
X169672000Y-88520089D02*
X169248667Y-90044089D01*
X168910000Y-88955517D01*
X168571333Y-90044089D01*
X168148000Y-88520089D01*
X166708667Y-89028089D02*
X166708667Y-90044089D01*
X167132000Y-88447517D02*
X167555333Y-89536089D01*
X166454667Y-89536089D01*
X165777334Y-89898946D02*
X165692667Y-89971517D01*
X165777334Y-90044089D01*
X165862000Y-89971517D01*
X165777334Y-89898946D01*
X165777334Y-90044089D01*
X165777334Y-89100660D02*
X165692667Y-89173231D01*
X165777334Y-89245803D01*
X165862000Y-89173231D01*
X165777334Y-89100660D01*
X165777334Y-89245803D01*
X163999333Y-90044089D02*
X165015333Y-90044089D01*
X164507333Y-90044089D02*
X164507333Y-88520089D01*
X164676667Y-88737803D01*
X164846000Y-88882946D01*
X165015333Y-88955517D01*
X133180666Y-85198857D02*
X132926666Y-85271429D01*
X132503333Y-85271429D01*
X132334000Y-85198857D01*
X132249333Y-85126286D01*
X132164666Y-84981143D01*
X132164666Y-84836000D01*
X132249333Y-84690857D01*
X132334000Y-84618286D01*
X132503333Y-84545714D01*
X132842000Y-84473143D01*
X133011333Y-84400571D01*
X133096000Y-84328000D01*
X133180666Y-84182857D01*
X133180666Y-84037714D01*
X133096000Y-83892571D01*
X133011333Y-83820000D01*
X132842000Y-83747429D01*
X132418666Y-83747429D01*
X132164666Y-83820000D01*
X131572000Y-83747429D02*
X131148667Y-85271429D01*
X130810000Y-84182857D01*
X130471333Y-85271429D01*
X130048000Y-83747429D01*
X128608667Y-84255429D02*
X128608667Y-85271429D01*
X129032000Y-83674857D02*
X129455333Y-84763429D01*
X128354667Y-84763429D01*
X127677334Y-85126286D02*
X127592667Y-85198857D01*
X127677334Y-85271429D01*
X127762000Y-85198857D01*
X127677334Y-85126286D01*
X127677334Y-85271429D01*
X127677334Y-84328000D02*
X127592667Y-84400571D01*
X127677334Y-84473143D01*
X127762000Y-84400571D01*
X127677334Y-84328000D01*
X127677334Y-84473143D01*
X127000000Y-83747429D02*
X125899333Y-83747429D01*
X126492000Y-84328000D01*
X126238000Y-84328000D01*
X126068667Y-84400571D01*
X125984000Y-84473143D01*
X125899333Y-84618286D01*
X125899333Y-84981143D01*
X125984000Y-85126286D01*
X126068667Y-85198857D01*
X126238000Y-85271429D01*
X126746000Y-85271429D01*
X126915333Y-85198857D01*
X127000000Y-85126286D01*
X114130666Y-86796517D02*
X113876666Y-86869089D01*
X113453333Y-86869089D01*
X113284000Y-86796517D01*
X113199333Y-86723946D01*
X113114666Y-86578803D01*
X113114666Y-86433660D01*
X113199333Y-86288517D01*
X113284000Y-86215946D01*
X113453333Y-86143374D01*
X113792000Y-86070803D01*
X113961333Y-85998231D01*
X114046000Y-85925660D01*
X114130666Y-85780517D01*
X114130666Y-85635374D01*
X114046000Y-85490231D01*
X113961333Y-85417660D01*
X113792000Y-85345089D01*
X113368666Y-85345089D01*
X113114666Y-85417660D01*
X112522000Y-85345089D02*
X112098667Y-86869089D01*
X111760000Y-85780517D01*
X111421333Y-86869089D01*
X110998000Y-85345089D01*
X109558667Y-85853089D02*
X109558667Y-86869089D01*
X109982000Y-85272517D02*
X110405333Y-86361089D01*
X109304667Y-86361089D01*
X108627334Y-86723946D02*
X108542667Y-86796517D01*
X108627334Y-86869089D01*
X108712000Y-86796517D01*
X108627334Y-86723946D01*
X108627334Y-86869089D01*
X108627334Y-85925660D02*
X108542667Y-85998231D01*
X108627334Y-86070803D01*
X108712000Y-85998231D01*
X108627334Y-85925660D01*
X108627334Y-86070803D01*
X107018667Y-85853089D02*
X107018667Y-86869089D01*
X107442000Y-85272517D02*
X107865333Y-86361089D01*
X106764667Y-86361089D01*
X171280666Y-109021517D02*
X171026666Y-109094089D01*
X170603333Y-109094089D01*
X170434000Y-109021517D01*
X170349333Y-108948946D01*
X170264666Y-108803803D01*
X170264666Y-108658660D01*
X170349333Y-108513517D01*
X170434000Y-108440946D01*
X170603333Y-108368374D01*
X170942000Y-108295803D01*
X171111333Y-108223231D01*
X171196000Y-108150660D01*
X171280666Y-108005517D01*
X171280666Y-107860374D01*
X171196000Y-107715231D01*
X171111333Y-107642660D01*
X170942000Y-107570089D01*
X170518666Y-107570089D01*
X170264666Y-107642660D01*
X169672000Y-107570089D02*
X169248667Y-109094089D01*
X168910000Y-108005517D01*
X168571333Y-109094089D01*
X168148000Y-107570089D01*
X167640000Y-107570089D02*
X166539333Y-107570089D01*
X167132000Y-108150660D01*
X166878000Y-108150660D01*
X166708667Y-108223231D01*
X166624000Y-108295803D01*
X166539333Y-108440946D01*
X166539333Y-108803803D01*
X166624000Y-108948946D01*
X166708667Y-109021517D01*
X166878000Y-109094089D01*
X167386000Y-109094089D01*
X167555333Y-109021517D01*
X167640000Y-108948946D01*
X165777334Y-108948946D02*
X165692667Y-109021517D01*
X165777334Y-109094089D01*
X165862000Y-109021517D01*
X165777334Y-108948946D01*
X165777334Y-109094089D01*
X165777334Y-108150660D02*
X165692667Y-108223231D01*
X165777334Y-108295803D01*
X165862000Y-108223231D01*
X165777334Y-108150660D01*
X165777334Y-108295803D01*
X163999333Y-109094089D02*
X165015333Y-109094089D01*
X164507333Y-109094089D02*
X164507333Y-107570089D01*
X164676667Y-107787803D01*
X164846000Y-107932946D01*
X165015333Y-108005517D01*
X152230666Y-105846517D02*
X151976666Y-105919089D01*
X151553333Y-105919089D01*
X151384000Y-105846517D01*
X151299333Y-105773946D01*
X151214666Y-105628803D01*
X151214666Y-105483660D01*
X151299333Y-105338517D01*
X151384000Y-105265946D01*
X151553333Y-105193374D01*
X151892000Y-105120803D01*
X152061333Y-105048231D01*
X152146000Y-104975660D01*
X152230666Y-104830517D01*
X152230666Y-104685374D01*
X152146000Y-104540231D01*
X152061333Y-104467660D01*
X151892000Y-104395089D01*
X151468666Y-104395089D01*
X151214666Y-104467660D01*
X150622000Y-104395089D02*
X150198667Y-105919089D01*
X149860000Y-104830517D01*
X149521333Y-105919089D01*
X149098000Y-104395089D01*
X148590000Y-104395089D02*
X147489333Y-104395089D01*
X148082000Y-104975660D01*
X147828000Y-104975660D01*
X147658667Y-105048231D01*
X147574000Y-105120803D01*
X147489333Y-105265946D01*
X147489333Y-105628803D01*
X147574000Y-105773946D01*
X147658667Y-105846517D01*
X147828000Y-105919089D01*
X148336000Y-105919089D01*
X148505333Y-105846517D01*
X148590000Y-105773946D01*
X146727334Y-105773946D02*
X146642667Y-105846517D01*
X146727334Y-105919089D01*
X146812000Y-105846517D01*
X146727334Y-105773946D01*
X146727334Y-105919089D01*
X146727334Y-104975660D02*
X146642667Y-105048231D01*
X146727334Y-105120803D01*
X146812000Y-105048231D01*
X146727334Y-104975660D01*
X146727334Y-105120803D01*
X145965333Y-104540231D02*
X145880667Y-104467660D01*
X145711333Y-104395089D01*
X145288000Y-104395089D01*
X145118667Y-104467660D01*
X145034000Y-104540231D01*
X144949333Y-104685374D01*
X144949333Y-104830517D01*
X145034000Y-105048231D01*
X146050000Y-105919089D01*
X144949333Y-105919089D01*
X133180666Y-104248857D02*
X132926666Y-104321429D01*
X132503333Y-104321429D01*
X132334000Y-104248857D01*
X132249333Y-104176286D01*
X132164666Y-104031143D01*
X132164666Y-103886000D01*
X132249333Y-103740857D01*
X132334000Y-103668286D01*
X132503333Y-103595714D01*
X132842000Y-103523143D01*
X133011333Y-103450571D01*
X133096000Y-103378000D01*
X133180666Y-103232857D01*
X133180666Y-103087714D01*
X133096000Y-102942571D01*
X133011333Y-102870000D01*
X132842000Y-102797429D01*
X132418666Y-102797429D01*
X132164666Y-102870000D01*
X131572000Y-102797429D02*
X131148667Y-104321429D01*
X130810000Y-103232857D01*
X130471333Y-104321429D01*
X130048000Y-102797429D01*
X129540000Y-102797429D02*
X128439333Y-102797429D01*
X129032000Y-103378000D01*
X128778000Y-103378000D01*
X128608667Y-103450571D01*
X128524000Y-103523143D01*
X128439333Y-103668286D01*
X128439333Y-104031143D01*
X128524000Y-104176286D01*
X128608667Y-104248857D01*
X128778000Y-104321429D01*
X129286000Y-104321429D01*
X129455333Y-104248857D01*
X129540000Y-104176286D01*
X127677334Y-104176286D02*
X127592667Y-104248857D01*
X127677334Y-104321429D01*
X127762000Y-104248857D01*
X127677334Y-104176286D01*
X127677334Y-104321429D01*
X127677334Y-103378000D02*
X127592667Y-103450571D01*
X127677334Y-103523143D01*
X127762000Y-103450571D01*
X127677334Y-103378000D01*
X127677334Y-103523143D01*
X127000000Y-102797429D02*
X125899333Y-102797429D01*
X126492000Y-103378000D01*
X126238000Y-103378000D01*
X126068667Y-103450571D01*
X125984000Y-103523143D01*
X125899333Y-103668286D01*
X125899333Y-104031143D01*
X125984000Y-104176286D01*
X126068667Y-104248857D01*
X126238000Y-104321429D01*
X126746000Y-104321429D01*
X126915333Y-104248857D01*
X127000000Y-104176286D01*
X114130666Y-105846517D02*
X113876666Y-105919089D01*
X113453333Y-105919089D01*
X113284000Y-105846517D01*
X113199333Y-105773946D01*
X113114666Y-105628803D01*
X113114666Y-105483660D01*
X113199333Y-105338517D01*
X113284000Y-105265946D01*
X113453333Y-105193374D01*
X113792000Y-105120803D01*
X113961333Y-105048231D01*
X114046000Y-104975660D01*
X114130666Y-104830517D01*
X114130666Y-104685374D01*
X114046000Y-104540231D01*
X113961333Y-104467660D01*
X113792000Y-104395089D01*
X113368666Y-104395089D01*
X113114666Y-104467660D01*
X112522000Y-104395089D02*
X112098667Y-105919089D01*
X111760000Y-104830517D01*
X111421333Y-105919089D01*
X110998000Y-104395089D01*
X110490000Y-104395089D02*
X109389333Y-104395089D01*
X109982000Y-104975660D01*
X109728000Y-104975660D01*
X109558667Y-105048231D01*
X109474000Y-105120803D01*
X109389333Y-105265946D01*
X109389333Y-105628803D01*
X109474000Y-105773946D01*
X109558667Y-105846517D01*
X109728000Y-105919089D01*
X110236000Y-105919089D01*
X110405333Y-105846517D01*
X110490000Y-105773946D01*
X108627334Y-105773946D02*
X108542667Y-105846517D01*
X108627334Y-105919089D01*
X108712000Y-105846517D01*
X108627334Y-105773946D01*
X108627334Y-105919089D01*
X108627334Y-104975660D02*
X108542667Y-105048231D01*
X108627334Y-105120803D01*
X108712000Y-105048231D01*
X108627334Y-104975660D01*
X108627334Y-105120803D01*
X107018667Y-104903089D02*
X107018667Y-105919089D01*
X107442000Y-104322517D02*
X107865333Y-105411089D01*
X106764667Y-105411089D01*
X95080666Y-107116517D02*
X94826666Y-107189089D01*
X94403333Y-107189089D01*
X94234000Y-107116517D01*
X94149333Y-107043946D01*
X94064666Y-106898803D01*
X94064666Y-106753660D01*
X94149333Y-106608517D01*
X94234000Y-106535946D01*
X94403333Y-106463374D01*
X94742000Y-106390803D01*
X94911333Y-106318231D01*
X94996000Y-106245660D01*
X95080666Y-106100517D01*
X95080666Y-105955374D01*
X94996000Y-105810231D01*
X94911333Y-105737660D01*
X94742000Y-105665089D01*
X94318666Y-105665089D01*
X94064666Y-105737660D01*
X93472000Y-105665089D02*
X93048667Y-107189089D01*
X92710000Y-106100517D01*
X92371333Y-107189089D01*
X91948000Y-105665089D01*
X91440000Y-105665089D02*
X90339333Y-105665089D01*
X90932000Y-106245660D01*
X90678000Y-106245660D01*
X90508667Y-106318231D01*
X90424000Y-106390803D01*
X90339333Y-106535946D01*
X90339333Y-106898803D01*
X90424000Y-107043946D01*
X90508667Y-107116517D01*
X90678000Y-107189089D01*
X91186000Y-107189089D01*
X91355333Y-107116517D01*
X91440000Y-107043946D01*
X89577334Y-107043946D02*
X89492667Y-107116517D01*
X89577334Y-107189089D01*
X89662000Y-107116517D01*
X89577334Y-107043946D01*
X89577334Y-107189089D01*
X89577334Y-106245660D02*
X89492667Y-106318231D01*
X89577334Y-106390803D01*
X89662000Y-106318231D01*
X89577334Y-106245660D01*
X89577334Y-106390803D01*
X87884000Y-105665089D02*
X88730667Y-105665089D01*
X88815333Y-106390803D01*
X88730667Y-106318231D01*
X88561333Y-106245660D01*
X88138000Y-106245660D01*
X87968667Y-106318231D01*
X87884000Y-106390803D01*
X87799333Y-106535946D01*
X87799333Y-106898803D01*
X87884000Y-107043946D01*
X87968667Y-107116517D01*
X88138000Y-107189089D01*
X88561333Y-107189089D01*
X88730667Y-107116517D01*
X88815333Y-107043946D01*
X171280666Y-128071517D02*
X171026666Y-128144089D01*
X170603333Y-128144089D01*
X170434000Y-128071517D01*
X170349333Y-127998946D01*
X170264666Y-127853803D01*
X170264666Y-127708660D01*
X170349333Y-127563517D01*
X170434000Y-127490946D01*
X170603333Y-127418374D01*
X170942000Y-127345803D01*
X171111333Y-127273231D01*
X171196000Y-127200660D01*
X171280666Y-127055517D01*
X171280666Y-126910374D01*
X171196000Y-126765231D01*
X171111333Y-126692660D01*
X170942000Y-126620089D01*
X170518666Y-126620089D01*
X170264666Y-126692660D01*
X169672000Y-126620089D02*
X169248667Y-128144089D01*
X168910000Y-127055517D01*
X168571333Y-128144089D01*
X168148000Y-126620089D01*
X167555333Y-126765231D02*
X167470667Y-126692660D01*
X167301333Y-126620089D01*
X166878000Y-126620089D01*
X166708667Y-126692660D01*
X166624000Y-126765231D01*
X166539333Y-126910374D01*
X166539333Y-127055517D01*
X166624000Y-127273231D01*
X167640000Y-128144089D01*
X166539333Y-128144089D01*
X165777334Y-127998946D02*
X165692667Y-128071517D01*
X165777334Y-128144089D01*
X165862000Y-128071517D01*
X165777334Y-127998946D01*
X165777334Y-128144089D01*
X165777334Y-127200660D02*
X165692667Y-127273231D01*
X165777334Y-127345803D01*
X165862000Y-127273231D01*
X165777334Y-127200660D01*
X165777334Y-127345803D01*
X163999333Y-128144089D02*
X165015333Y-128144089D01*
X164507333Y-128144089D02*
X164507333Y-126620089D01*
X164676667Y-126837803D01*
X164846000Y-126982946D01*
X165015333Y-127055517D01*
X152230666Y-124896517D02*
X151976666Y-124969089D01*
X151553333Y-124969089D01*
X151384000Y-124896517D01*
X151299333Y-124823946D01*
X151214666Y-124678803D01*
X151214666Y-124533660D01*
X151299333Y-124388517D01*
X151384000Y-124315946D01*
X151553333Y-124243374D01*
X151892000Y-124170803D01*
X152061333Y-124098231D01*
X152146000Y-124025660D01*
X152230666Y-123880517D01*
X152230666Y-123735374D01*
X152146000Y-123590231D01*
X152061333Y-123517660D01*
X151892000Y-123445089D01*
X151468666Y-123445089D01*
X151214666Y-123517660D01*
X150622000Y-123445089D02*
X150198667Y-124969089D01*
X149860000Y-123880517D01*
X149521333Y-124969089D01*
X149098000Y-123445089D01*
X148505333Y-123590231D02*
X148420667Y-123517660D01*
X148251333Y-123445089D01*
X147828000Y-123445089D01*
X147658667Y-123517660D01*
X147574000Y-123590231D01*
X147489333Y-123735374D01*
X147489333Y-123880517D01*
X147574000Y-124098231D01*
X148590000Y-124969089D01*
X147489333Y-124969089D01*
X146727334Y-124823946D02*
X146642667Y-124896517D01*
X146727334Y-124969089D01*
X146812000Y-124896517D01*
X146727334Y-124823946D01*
X146727334Y-124969089D01*
X146727334Y-124025660D02*
X146642667Y-124098231D01*
X146727334Y-124170803D01*
X146812000Y-124098231D01*
X146727334Y-124025660D01*
X146727334Y-124170803D01*
X145965333Y-123590231D02*
X145880667Y-123517660D01*
X145711333Y-123445089D01*
X145288000Y-123445089D01*
X145118667Y-123517660D01*
X145034000Y-123590231D01*
X144949333Y-123735374D01*
X144949333Y-123880517D01*
X145034000Y-124098231D01*
X146050000Y-124969089D01*
X144949333Y-124969089D01*
X133180666Y-123298857D02*
X132926666Y-123371429D01*
X132503333Y-123371429D01*
X132334000Y-123298857D01*
X132249333Y-123226286D01*
X132164666Y-123081143D01*
X132164666Y-122936000D01*
X132249333Y-122790857D01*
X132334000Y-122718286D01*
X132503333Y-122645714D01*
X132842000Y-122573143D01*
X133011333Y-122500571D01*
X133096000Y-122428000D01*
X133180666Y-122282857D01*
X133180666Y-122137714D01*
X133096000Y-121992571D01*
X133011333Y-121920000D01*
X132842000Y-121847429D01*
X132418666Y-121847429D01*
X132164666Y-121920000D01*
X131572000Y-121847429D02*
X131148667Y-123371429D01*
X130810000Y-122282857D01*
X130471333Y-123371429D01*
X130048000Y-121847429D01*
X129455333Y-121992571D02*
X129370667Y-121920000D01*
X129201333Y-121847429D01*
X128778000Y-121847429D01*
X128608667Y-121920000D01*
X128524000Y-121992571D01*
X128439333Y-122137714D01*
X128439333Y-122282857D01*
X128524000Y-122500571D01*
X129540000Y-123371429D01*
X128439333Y-123371429D01*
X127677334Y-123226286D02*
X127592667Y-123298857D01*
X127677334Y-123371429D01*
X127762000Y-123298857D01*
X127677334Y-123226286D01*
X127677334Y-123371429D01*
X127677334Y-122428000D02*
X127592667Y-122500571D01*
X127677334Y-122573143D01*
X127762000Y-122500571D01*
X127677334Y-122428000D01*
X127677334Y-122573143D01*
X127000000Y-121847429D02*
X125899333Y-121847429D01*
X126492000Y-122428000D01*
X126238000Y-122428000D01*
X126068667Y-122500571D01*
X125984000Y-122573143D01*
X125899333Y-122718286D01*
X125899333Y-123081143D01*
X125984000Y-123226286D01*
X126068667Y-123298857D01*
X126238000Y-123371429D01*
X126746000Y-123371429D01*
X126915333Y-123298857D01*
X127000000Y-123226286D01*
X114130666Y-124896517D02*
X113876666Y-124969089D01*
X113453333Y-124969089D01*
X113284000Y-124896517D01*
X113199333Y-124823946D01*
X113114666Y-124678803D01*
X113114666Y-124533660D01*
X113199333Y-124388517D01*
X113284000Y-124315946D01*
X113453333Y-124243374D01*
X113792000Y-124170803D01*
X113961333Y-124098231D01*
X114046000Y-124025660D01*
X114130666Y-123880517D01*
X114130666Y-123735374D01*
X114046000Y-123590231D01*
X113961333Y-123517660D01*
X113792000Y-123445089D01*
X113368666Y-123445089D01*
X113114666Y-123517660D01*
X112522000Y-123445089D02*
X112098667Y-124969089D01*
X111760000Y-123880517D01*
X111421333Y-124969089D01*
X110998000Y-123445089D01*
X110405333Y-123590231D02*
X110320667Y-123517660D01*
X110151333Y-123445089D01*
X109728000Y-123445089D01*
X109558667Y-123517660D01*
X109474000Y-123590231D01*
X109389333Y-123735374D01*
X109389333Y-123880517D01*
X109474000Y-124098231D01*
X110490000Y-124969089D01*
X109389333Y-124969089D01*
X108627334Y-124823946D02*
X108542667Y-124896517D01*
X108627334Y-124969089D01*
X108712000Y-124896517D01*
X108627334Y-124823946D01*
X108627334Y-124969089D01*
X108627334Y-124025660D02*
X108542667Y-124098231D01*
X108627334Y-124170803D01*
X108712000Y-124098231D01*
X108627334Y-124025660D01*
X108627334Y-124170803D01*
X107018667Y-123953089D02*
X107018667Y-124969089D01*
X107442000Y-123372517D02*
X107865333Y-124461089D01*
X106764667Y-124461089D01*
X95080666Y-126166517D02*
X94826666Y-126239089D01*
X94403333Y-126239089D01*
X94234000Y-126166517D01*
X94149333Y-126093946D01*
X94064666Y-125948803D01*
X94064666Y-125803660D01*
X94149333Y-125658517D01*
X94234000Y-125585946D01*
X94403333Y-125513374D01*
X94742000Y-125440803D01*
X94911333Y-125368231D01*
X94996000Y-125295660D01*
X95080666Y-125150517D01*
X95080666Y-125005374D01*
X94996000Y-124860231D01*
X94911333Y-124787660D01*
X94742000Y-124715089D01*
X94318666Y-124715089D01*
X94064666Y-124787660D01*
X93472000Y-124715089D02*
X93048667Y-126239089D01*
X92710000Y-125150517D01*
X92371333Y-126239089D01*
X91948000Y-124715089D01*
X91355333Y-124860231D02*
X91270667Y-124787660D01*
X91101333Y-124715089D01*
X90678000Y-124715089D01*
X90508667Y-124787660D01*
X90424000Y-124860231D01*
X90339333Y-125005374D01*
X90339333Y-125150517D01*
X90424000Y-125368231D01*
X91440000Y-126239089D01*
X90339333Y-126239089D01*
X89577334Y-126093946D02*
X89492667Y-126166517D01*
X89577334Y-126239089D01*
X89662000Y-126166517D01*
X89577334Y-126093946D01*
X89577334Y-126239089D01*
X89577334Y-125295660D02*
X89492667Y-125368231D01*
X89577334Y-125440803D01*
X89662000Y-125368231D01*
X89577334Y-125295660D01*
X89577334Y-125440803D01*
X87884000Y-124715089D02*
X88730667Y-124715089D01*
X88815333Y-125440803D01*
X88730667Y-125368231D01*
X88561333Y-125295660D01*
X88138000Y-125295660D01*
X87968667Y-125368231D01*
X87884000Y-125440803D01*
X87799333Y-125585946D01*
X87799333Y-125948803D01*
X87884000Y-126093946D01*
X87968667Y-126166517D01*
X88138000Y-126239089D01*
X88561333Y-126239089D01*
X88730667Y-126166517D01*
X88815333Y-126093946D01*
X171280666Y-147121517D02*
X171026666Y-147194089D01*
X170603333Y-147194089D01*
X170434000Y-147121517D01*
X170349333Y-147048946D01*
X170264666Y-146903803D01*
X170264666Y-146758660D01*
X170349333Y-146613517D01*
X170434000Y-146540946D01*
X170603333Y-146468374D01*
X170942000Y-146395803D01*
X171111333Y-146323231D01*
X171196000Y-146250660D01*
X171280666Y-146105517D01*
X171280666Y-145960374D01*
X171196000Y-145815231D01*
X171111333Y-145742660D01*
X170942000Y-145670089D01*
X170518666Y-145670089D01*
X170264666Y-145742660D01*
X169672000Y-145670089D02*
X169248667Y-147194089D01*
X168910000Y-146105517D01*
X168571333Y-147194089D01*
X168148000Y-145670089D01*
X166539333Y-147194089D02*
X167555333Y-147194089D01*
X167047333Y-147194089D02*
X167047333Y-145670089D01*
X167216667Y-145887803D01*
X167386000Y-146032946D01*
X167555333Y-146105517D01*
X165777334Y-147048946D02*
X165692667Y-147121517D01*
X165777334Y-147194089D01*
X165862000Y-147121517D01*
X165777334Y-147048946D01*
X165777334Y-147194089D01*
X165777334Y-146250660D02*
X165692667Y-146323231D01*
X165777334Y-146395803D01*
X165862000Y-146323231D01*
X165777334Y-146250660D01*
X165777334Y-146395803D01*
X163999333Y-147194089D02*
X165015333Y-147194089D01*
X164507333Y-147194089D02*
X164507333Y-145670089D01*
X164676667Y-145887803D01*
X164846000Y-146032946D01*
X165015333Y-146105517D01*
X133180666Y-142348857D02*
X132926666Y-142421429D01*
X132503333Y-142421429D01*
X132334000Y-142348857D01*
X132249333Y-142276286D01*
X132164666Y-142131143D01*
X132164666Y-141986000D01*
X132249333Y-141840857D01*
X132334000Y-141768286D01*
X132503333Y-141695714D01*
X132842000Y-141623143D01*
X133011333Y-141550571D01*
X133096000Y-141478000D01*
X133180666Y-141332857D01*
X133180666Y-141187714D01*
X133096000Y-141042571D01*
X133011333Y-140970000D01*
X132842000Y-140897429D01*
X132418666Y-140897429D01*
X132164666Y-140970000D01*
X131572000Y-140897429D02*
X131148667Y-142421429D01*
X130810000Y-141332857D01*
X130471333Y-142421429D01*
X130048000Y-140897429D01*
X128439333Y-142421429D02*
X129455333Y-142421429D01*
X128947333Y-142421429D02*
X128947333Y-140897429D01*
X129116667Y-141115143D01*
X129286000Y-141260286D01*
X129455333Y-141332857D01*
X127677334Y-142276286D02*
X127592667Y-142348857D01*
X127677334Y-142421429D01*
X127762000Y-142348857D01*
X127677334Y-142276286D01*
X127677334Y-142421429D01*
X127677334Y-141478000D02*
X127592667Y-141550571D01*
X127677334Y-141623143D01*
X127762000Y-141550571D01*
X127677334Y-141478000D01*
X127677334Y-141623143D01*
X127000000Y-140897429D02*
X125899333Y-140897429D01*
X126492000Y-141478000D01*
X126238000Y-141478000D01*
X126068667Y-141550571D01*
X125984000Y-141623143D01*
X125899333Y-141768286D01*
X125899333Y-142131143D01*
X125984000Y-142276286D01*
X126068667Y-142348857D01*
X126238000Y-142421429D01*
X126746000Y-142421429D01*
X126915333Y-142348857D01*
X127000000Y-142276286D01*
X114130666Y-143946517D02*
X113876666Y-144019089D01*
X113453333Y-144019089D01*
X113284000Y-143946517D01*
X113199333Y-143873946D01*
X113114666Y-143728803D01*
X113114666Y-143583660D01*
X113199333Y-143438517D01*
X113284000Y-143365946D01*
X113453333Y-143293374D01*
X113792000Y-143220803D01*
X113961333Y-143148231D01*
X114046000Y-143075660D01*
X114130666Y-142930517D01*
X114130666Y-142785374D01*
X114046000Y-142640231D01*
X113961333Y-142567660D01*
X113792000Y-142495089D01*
X113368666Y-142495089D01*
X113114666Y-142567660D01*
X112522000Y-142495089D02*
X112098667Y-144019089D01*
X111760000Y-142930517D01*
X111421333Y-144019089D01*
X110998000Y-142495089D01*
X109389333Y-144019089D02*
X110405333Y-144019089D01*
X109897333Y-144019089D02*
X109897333Y-142495089D01*
X110066667Y-142712803D01*
X110236000Y-142857946D01*
X110405333Y-142930517D01*
X108627334Y-143873946D02*
X108542667Y-143946517D01*
X108627334Y-144019089D01*
X108712000Y-143946517D01*
X108627334Y-143873946D01*
X108627334Y-144019089D01*
X108627334Y-143075660D02*
X108542667Y-143148231D01*
X108627334Y-143220803D01*
X108712000Y-143148231D01*
X108627334Y-143075660D01*
X108627334Y-143220803D01*
X107018667Y-143003089D02*
X107018667Y-144019089D01*
X107442000Y-142422517D02*
X107865333Y-143511089D01*
X106764667Y-143511089D01*
X85275038Y-155230253D02*
X85101920Y-155030721D01*
X84923012Y-154647051D01*
X84917221Y-154462913D01*
X84947211Y-154355509D01*
X85042973Y-154217434D01*
X85174518Y-154156094D01*
X85341844Y-154171489D01*
X85443397Y-154217553D01*
X85580733Y-154340351D01*
X85789631Y-154616617D01*
X85926967Y-154739415D01*
X86028521Y-154785479D01*
X86195846Y-154800873D01*
X86327391Y-154739533D01*
X86423153Y-154601459D01*
X86453143Y-154494055D01*
X86447352Y-154309917D01*
X86268443Y-153926246D01*
X86095326Y-153726714D01*
X85910627Y-153158906D02*
X84350505Y-153419307D01*
X85193960Y-152652320D01*
X84064251Y-152805434D01*
X85266556Y-151777693D01*
X84837176Y-150856885D02*
X84765613Y-150703417D01*
X84628278Y-150580618D01*
X84526725Y-150534554D01*
X84359398Y-150519160D01*
X84060528Y-150565106D01*
X83731668Y-150718456D01*
X83504361Y-150917870D01*
X83408599Y-151055945D01*
X83378609Y-151163348D01*
X83384400Y-151347487D01*
X83455963Y-151500955D01*
X83593299Y-151623752D01*
X83694852Y-151669817D01*
X83862178Y-151685211D01*
X84161048Y-151639265D01*
X84489908Y-151485915D01*
X84717215Y-151286501D01*
X84812978Y-151148427D01*
X84842968Y-151041022D01*
X84837176Y-150856885D01*
X83015001Y-150211871D02*
X82913447Y-150165806D01*
X82883456Y-150273211D01*
X82985010Y-150319274D01*
X83015001Y-150211871D01*
X82883456Y-150273211D01*
X83738494Y-149874500D02*
X83636940Y-149828436D01*
X83606949Y-149935840D01*
X83708503Y-149981904D01*
X83738494Y-149874500D01*
X83606949Y-149935840D01*
X83978416Y-149015267D02*
X83513254Y-148017724D01*
X83237550Y-148800223D01*
X83130205Y-148570021D01*
X82992870Y-148447223D01*
X82891315Y-148401159D01*
X82723989Y-148385764D01*
X82395129Y-148539114D01*
X82299367Y-148677189D01*
X82269377Y-148784593D01*
X82275168Y-148968731D01*
X82489858Y-149429135D01*
X82627193Y-149551933D01*
X82728747Y-149597997D01*
X68010658Y-163282053D02*
X67837540Y-163082521D01*
X67658632Y-162698851D01*
X67652841Y-162514713D01*
X67682831Y-162407309D01*
X67778593Y-162269234D01*
X67910138Y-162207894D01*
X68077464Y-162223289D01*
X68179017Y-162269353D01*
X68316353Y-162392151D01*
X68525251Y-162668417D01*
X68662587Y-162791215D01*
X68764141Y-162837279D01*
X68931466Y-162852673D01*
X69063011Y-162791333D01*
X69158773Y-162653259D01*
X69188763Y-162545855D01*
X69182972Y-162361717D01*
X69004063Y-161978046D01*
X68830946Y-161778514D01*
X68646247Y-161210706D02*
X67086125Y-161471107D01*
X67929580Y-160704120D01*
X66799871Y-160857234D01*
X68002176Y-159829493D01*
X67572796Y-158908685D02*
X67501233Y-158755217D01*
X67363898Y-158632418D01*
X67262345Y-158586354D01*
X67095018Y-158570960D01*
X66796148Y-158616906D01*
X66467288Y-158770256D01*
X66239981Y-158969670D01*
X66144219Y-159107745D01*
X66114229Y-159215148D01*
X66120020Y-159399287D01*
X66191583Y-159552755D01*
X66328919Y-159675552D01*
X66430472Y-159721617D01*
X66597798Y-159737011D01*
X66896668Y-159691065D01*
X67225528Y-159537715D01*
X67452835Y-159338301D01*
X67548598Y-159200227D01*
X67578588Y-159092822D01*
X67572796Y-158908685D01*
X65750621Y-158263671D02*
X65649067Y-158217606D01*
X65619076Y-158325011D01*
X65720630Y-158371074D01*
X65750621Y-158263671D01*
X65619076Y-158325011D01*
X66474114Y-157926300D02*
X66372560Y-157880236D01*
X66342569Y-157987640D01*
X66444123Y-158033704D01*
X66474114Y-157926300D01*
X66342569Y-157987640D01*
X66546711Y-157051673D02*
X66576701Y-156944269D01*
X66570909Y-156760131D01*
X66392001Y-156376461D01*
X66254666Y-156253663D01*
X66153112Y-156207598D01*
X65985786Y-156192204D01*
X65854242Y-156253544D01*
X65692708Y-156422288D01*
X65332823Y-157711138D01*
X64867661Y-156713594D01*
X152230666Y-86796517D02*
X151976666Y-86869089D01*
X151553333Y-86869089D01*
X151384000Y-86796517D01*
X151299333Y-86723946D01*
X151214666Y-86578803D01*
X151214666Y-86433660D01*
X151299333Y-86288517D01*
X151384000Y-86215946D01*
X151553333Y-86143374D01*
X151892000Y-86070803D01*
X152061333Y-85998231D01*
X152146000Y-85925660D01*
X152230666Y-85780517D01*
X152230666Y-85635374D01*
X152146000Y-85490231D01*
X152061333Y-85417660D01*
X151892000Y-85345089D01*
X151468666Y-85345089D01*
X151214666Y-85417660D01*
X150622000Y-85345089D02*
X150198667Y-86869089D01*
X149860000Y-85780517D01*
X149521333Y-86869089D01*
X149098000Y-85345089D01*
X147658667Y-85853089D02*
X147658667Y-86869089D01*
X148082000Y-85272517D02*
X148505333Y-86361089D01*
X147404667Y-86361089D01*
X146727334Y-86723946D02*
X146642667Y-86796517D01*
X146727334Y-86869089D01*
X146812000Y-86796517D01*
X146727334Y-86723946D01*
X146727334Y-86869089D01*
X146727334Y-85925660D02*
X146642667Y-85998231D01*
X146727334Y-86070803D01*
X146812000Y-85998231D01*
X146727334Y-85925660D01*
X146727334Y-86070803D01*
X145965333Y-85490231D02*
X145880667Y-85417660D01*
X145711333Y-85345089D01*
X145288000Y-85345089D01*
X145118667Y-85417660D01*
X145034000Y-85490231D01*
X144949333Y-85635374D01*
X144949333Y-85780517D01*
X145034000Y-85998231D01*
X146050000Y-86869089D01*
X144949333Y-86869089D01*
X95080666Y-69019057D02*
X94826666Y-69091629D01*
X94403333Y-69091629D01*
X94234000Y-69019057D01*
X94149333Y-68946486D01*
X94064666Y-68801343D01*
X94064666Y-68656200D01*
X94149333Y-68511057D01*
X94234000Y-68438486D01*
X94403333Y-68365914D01*
X94742000Y-68293343D01*
X94911333Y-68220771D01*
X94996000Y-68148200D01*
X95080666Y-68003057D01*
X95080666Y-67857914D01*
X94996000Y-67712771D01*
X94911333Y-67640200D01*
X94742000Y-67567629D01*
X94318666Y-67567629D01*
X94064666Y-67640200D01*
X93472000Y-67567629D02*
X93048667Y-69091629D01*
X92710000Y-68003057D01*
X92371333Y-69091629D01*
X91948000Y-67567629D01*
X90424000Y-67567629D02*
X91270667Y-67567629D01*
X91355333Y-68293343D01*
X91270667Y-68220771D01*
X91101333Y-68148200D01*
X90678000Y-68148200D01*
X90508667Y-68220771D01*
X90424000Y-68293343D01*
X90339333Y-68438486D01*
X90339333Y-68801343D01*
X90424000Y-68946486D01*
X90508667Y-69019057D01*
X90678000Y-69091629D01*
X91101333Y-69091629D01*
X91270667Y-69019057D01*
X91355333Y-68946486D01*
X89577334Y-68946486D02*
X89492667Y-69019057D01*
X89577334Y-69091629D01*
X89662000Y-69019057D01*
X89577334Y-68946486D01*
X89577334Y-69091629D01*
X89577334Y-68148200D02*
X89492667Y-68220771D01*
X89577334Y-68293343D01*
X89662000Y-68220771D01*
X89577334Y-68148200D01*
X89577334Y-68293343D01*
X87884000Y-67567629D02*
X88730667Y-67567629D01*
X88815333Y-68293343D01*
X88730667Y-68220771D01*
X88561333Y-68148200D01*
X88138000Y-68148200D01*
X87968667Y-68220771D01*
X87884000Y-68293343D01*
X87799333Y-68438486D01*
X87799333Y-68801343D01*
X87884000Y-68946486D01*
X87968667Y-69019057D01*
X88138000Y-69091629D01*
X88561333Y-69091629D01*
X88730667Y-69019057D01*
X88815333Y-68946486D01*
X195093166Y-70924057D02*
X194839166Y-70996629D01*
X194415833Y-70996629D01*
X194246500Y-70924057D01*
X194161833Y-70851486D01*
X194077166Y-70706343D01*
X194077166Y-70561200D01*
X194161833Y-70416057D01*
X194246500Y-70343486D01*
X194415833Y-70270914D01*
X194754500Y-70198343D01*
X194923833Y-70125771D01*
X195008500Y-70053200D01*
X195093166Y-69908057D01*
X195093166Y-69762914D01*
X195008500Y-69617771D01*
X194923833Y-69545200D01*
X194754500Y-69472629D01*
X194331166Y-69472629D01*
X194077166Y-69545200D01*
X193484500Y-69472629D02*
X193061167Y-70996629D01*
X192722500Y-69908057D01*
X192383833Y-70996629D01*
X191960500Y-69472629D01*
X190436500Y-69472629D02*
X191283167Y-69472629D01*
X191367833Y-70198343D01*
X191283167Y-70125771D01*
X191113833Y-70053200D01*
X190690500Y-70053200D01*
X190521167Y-70125771D01*
X190436500Y-70198343D01*
X190351833Y-70343486D01*
X190351833Y-70706343D01*
X190436500Y-70851486D01*
X190521167Y-70924057D01*
X190690500Y-70996629D01*
X191113833Y-70996629D01*
X191283167Y-70924057D01*
X191367833Y-70851486D01*
X189589834Y-70851486D02*
X189505167Y-70924057D01*
X189589834Y-70996629D01*
X189674500Y-70924057D01*
X189589834Y-70851486D01*
X189589834Y-70996629D01*
X189589834Y-70053200D02*
X189505167Y-70125771D01*
X189589834Y-70198343D01*
X189674500Y-70125771D01*
X189589834Y-70053200D01*
X189589834Y-70198343D01*
X188404500Y-69472629D02*
X188235167Y-69472629D01*
X188065833Y-69545200D01*
X187981167Y-69617771D01*
X187896500Y-69762914D01*
X187811833Y-70053200D01*
X187811833Y-70416057D01*
X187896500Y-70706343D01*
X187981167Y-70851486D01*
X188065833Y-70924057D01*
X188235167Y-70996629D01*
X188404500Y-70996629D01*
X188573833Y-70924057D01*
X188658500Y-70851486D01*
X188743167Y-70706343D01*
X188827833Y-70416057D01*
X188827833Y-70053200D01*
X188743167Y-69762914D01*
X188658500Y-69617771D01*
X188573833Y-69545200D01*
X188404500Y-69472629D01*
X195093166Y-89971517D02*
X194839166Y-90044089D01*
X194415833Y-90044089D01*
X194246500Y-89971517D01*
X194161833Y-89898946D01*
X194077166Y-89753803D01*
X194077166Y-89608660D01*
X194161833Y-89463517D01*
X194246500Y-89390946D01*
X194415833Y-89318374D01*
X194754500Y-89245803D01*
X194923833Y-89173231D01*
X195008500Y-89100660D01*
X195093166Y-88955517D01*
X195093166Y-88810374D01*
X195008500Y-88665231D01*
X194923833Y-88592660D01*
X194754500Y-88520089D01*
X194331166Y-88520089D01*
X194077166Y-88592660D01*
X193484500Y-88520089D02*
X193061167Y-90044089D01*
X192722500Y-88955517D01*
X192383833Y-90044089D01*
X191960500Y-88520089D01*
X190521167Y-89028089D02*
X190521167Y-90044089D01*
X190944500Y-88447517D02*
X191367833Y-89536089D01*
X190267167Y-89536089D01*
X189589834Y-89898946D02*
X189505167Y-89971517D01*
X189589834Y-90044089D01*
X189674500Y-89971517D01*
X189589834Y-89898946D01*
X189589834Y-90044089D01*
X189589834Y-89100660D02*
X189505167Y-89173231D01*
X189589834Y-89245803D01*
X189674500Y-89173231D01*
X189589834Y-89100660D01*
X189589834Y-89245803D01*
X188404500Y-88520089D02*
X188235167Y-88520089D01*
X188065833Y-88592660D01*
X187981167Y-88665231D01*
X187896500Y-88810374D01*
X187811833Y-89100660D01*
X187811833Y-89463517D01*
X187896500Y-89753803D01*
X187981167Y-89898946D01*
X188065833Y-89971517D01*
X188235167Y-90044089D01*
X188404500Y-90044089D01*
X188573833Y-89971517D01*
X188658500Y-89898946D01*
X188743167Y-89753803D01*
X188827833Y-89463517D01*
X188827833Y-89100660D01*
X188743167Y-88810374D01*
X188658500Y-88665231D01*
X188573833Y-88592660D01*
X188404500Y-88520089D01*
X195093166Y-109021517D02*
X194839166Y-109094089D01*
X194415833Y-109094089D01*
X194246500Y-109021517D01*
X194161833Y-108948946D01*
X194077166Y-108803803D01*
X194077166Y-108658660D01*
X194161833Y-108513517D01*
X194246500Y-108440946D01*
X194415833Y-108368374D01*
X194754500Y-108295803D01*
X194923833Y-108223231D01*
X195008500Y-108150660D01*
X195093166Y-108005517D01*
X195093166Y-107860374D01*
X195008500Y-107715231D01*
X194923833Y-107642660D01*
X194754500Y-107570089D01*
X194331166Y-107570089D01*
X194077166Y-107642660D01*
X193484500Y-107570089D02*
X193061167Y-109094089D01*
X192722500Y-108005517D01*
X192383833Y-109094089D01*
X191960500Y-107570089D01*
X191452500Y-107570089D02*
X190351833Y-107570089D01*
X190944500Y-108150660D01*
X190690500Y-108150660D01*
X190521167Y-108223231D01*
X190436500Y-108295803D01*
X190351833Y-108440946D01*
X190351833Y-108803803D01*
X190436500Y-108948946D01*
X190521167Y-109021517D01*
X190690500Y-109094089D01*
X191198500Y-109094089D01*
X191367833Y-109021517D01*
X191452500Y-108948946D01*
X189589834Y-108948946D02*
X189505167Y-109021517D01*
X189589834Y-109094089D01*
X189674500Y-109021517D01*
X189589834Y-108948946D01*
X189589834Y-109094089D01*
X189589834Y-108150660D02*
X189505167Y-108223231D01*
X189589834Y-108295803D01*
X189674500Y-108223231D01*
X189589834Y-108150660D01*
X189589834Y-108295803D01*
X188404500Y-107570089D02*
X188235167Y-107570089D01*
X188065833Y-107642660D01*
X187981167Y-107715231D01*
X187896500Y-107860374D01*
X187811833Y-108150660D01*
X187811833Y-108513517D01*
X187896500Y-108803803D01*
X187981167Y-108948946D01*
X188065833Y-109021517D01*
X188235167Y-109094089D01*
X188404500Y-109094089D01*
X188573833Y-109021517D01*
X188658500Y-108948946D01*
X188743167Y-108803803D01*
X188827833Y-108513517D01*
X188827833Y-108150660D01*
X188743167Y-107860374D01*
X188658500Y-107715231D01*
X188573833Y-107642660D01*
X188404500Y-107570089D01*
X195093166Y-128071517D02*
X194839166Y-128144089D01*
X194415833Y-128144089D01*
X194246500Y-128071517D01*
X194161833Y-127998946D01*
X194077166Y-127853803D01*
X194077166Y-127708660D01*
X194161833Y-127563517D01*
X194246500Y-127490946D01*
X194415833Y-127418374D01*
X194754500Y-127345803D01*
X194923833Y-127273231D01*
X195008500Y-127200660D01*
X195093166Y-127055517D01*
X195093166Y-126910374D01*
X195008500Y-126765231D01*
X194923833Y-126692660D01*
X194754500Y-126620089D01*
X194331166Y-126620089D01*
X194077166Y-126692660D01*
X193484500Y-126620089D02*
X193061167Y-128144089D01*
X192722500Y-127055517D01*
X192383833Y-128144089D01*
X191960500Y-126620089D01*
X191367833Y-126765231D02*
X191283167Y-126692660D01*
X191113833Y-126620089D01*
X190690500Y-126620089D01*
X190521167Y-126692660D01*
X190436500Y-126765231D01*
X190351833Y-126910374D01*
X190351833Y-127055517D01*
X190436500Y-127273231D01*
X191452500Y-128144089D01*
X190351833Y-128144089D01*
X189589834Y-127998946D02*
X189505167Y-128071517D01*
X189589834Y-128144089D01*
X189674500Y-128071517D01*
X189589834Y-127998946D01*
X189589834Y-128144089D01*
X189589834Y-127200660D02*
X189505167Y-127273231D01*
X189589834Y-127345803D01*
X189674500Y-127273231D01*
X189589834Y-127200660D01*
X189589834Y-127345803D01*
X188404500Y-126620089D02*
X188235167Y-126620089D01*
X188065833Y-126692660D01*
X187981167Y-126765231D01*
X187896500Y-126910374D01*
X187811833Y-127200660D01*
X187811833Y-127563517D01*
X187896500Y-127853803D01*
X187981167Y-127998946D01*
X188065833Y-128071517D01*
X188235167Y-128144089D01*
X188404500Y-128144089D01*
X188573833Y-128071517D01*
X188658500Y-127998946D01*
X188743167Y-127853803D01*
X188827833Y-127563517D01*
X188827833Y-127200660D01*
X188743167Y-126910374D01*
X188658500Y-126765231D01*
X188573833Y-126692660D01*
X188404500Y-126620089D01*
D18*
X187854286Y-43898857D02*
X187854286Y-40850857D01*
X187007619Y-43028000D01*
X186160953Y-40850857D01*
X186160953Y-43898857D01*
X183500001Y-43608571D02*
X183620953Y-43753714D01*
X183983810Y-43898857D01*
X184225715Y-43898857D01*
X184588572Y-43753714D01*
X184830477Y-43463429D01*
X184951429Y-43173143D01*
X185072381Y-42592571D01*
X185072381Y-42157143D01*
X184951429Y-41576571D01*
X184830477Y-41286286D01*
X184588572Y-40996000D01*
X184225715Y-40850857D01*
X183983810Y-40850857D01*
X183620953Y-40996000D01*
X183500001Y-41141143D01*
X182411429Y-43898857D02*
X182411429Y-40850857D01*
X181443810Y-40850857D01*
X181201905Y-40996000D01*
X181080953Y-41141143D01*
X180960001Y-41431429D01*
X180960001Y-41866857D01*
X181080953Y-42157143D01*
X181201905Y-42302286D01*
X181443810Y-42447429D01*
X182411429Y-42447429D01*
X179992381Y-41141143D02*
X179871429Y-40996000D01*
X179629524Y-40850857D01*
X179024762Y-40850857D01*
X178782858Y-40996000D01*
X178661905Y-41141143D01*
X178540953Y-41431429D01*
X178540953Y-41721714D01*
X178661905Y-42157143D01*
X180113334Y-43898857D01*
X178540953Y-43898857D01*
X177694286Y-40850857D02*
X176121905Y-40850857D01*
X176968572Y-42012000D01*
X176605714Y-42012000D01*
X176363810Y-42157143D01*
X176242857Y-42302286D01*
X176121905Y-42592571D01*
X176121905Y-43318286D01*
X176242857Y-43608571D01*
X176363810Y-43753714D01*
X176605714Y-43898857D01*
X177331429Y-43898857D01*
X177573333Y-43753714D01*
X177694286Y-43608571D01*
X174549524Y-40850857D02*
X174307619Y-40850857D01*
X174065714Y-40996000D01*
X173944762Y-41141143D01*
X173823809Y-41431429D01*
X173702857Y-42012000D01*
X173702857Y-42737714D01*
X173823809Y-43318286D01*
X173944762Y-43608571D01*
X174065714Y-43753714D01*
X174307619Y-43898857D01*
X174549524Y-43898857D01*
X174791428Y-43753714D01*
X174912381Y-43608571D01*
X175033333Y-43318286D01*
X175154285Y-42737714D01*
X175154285Y-42012000D01*
X175033333Y-41431429D01*
X174912381Y-41141143D01*
X174791428Y-40996000D01*
X174549524Y-40850857D01*
X171283809Y-43898857D02*
X172735237Y-43898857D01*
X172009523Y-43898857D02*
X172009523Y-40850857D01*
X172251428Y-41286286D01*
X172493333Y-41576571D01*
X172735237Y-41721714D01*
X170437142Y-40850857D02*
X168743809Y-40850857D01*
X169832380Y-43898857D01*
M02*
