%FSLAX45Y45*%
G04 Gerber Fmt 4.5, Leading zero omitted, Abs format (unit mm)*
G04 Created by KiCad (PCBNEW 4.0.6) date 04/09/17 10:00:21*
%MOMM*%
%LPD*%
G01*
G04 APERTURE LIST*
%ADD10C,0.127000*%
%ADD11C,0.381000*%
%ADD12C,0.200000*%
%ADD13C,0.300000*%
G04 APERTURE END LIST*
D10*
D11*
X12715240Y-15290800D02*
X19639280Y-15290800D01*
X19639280Y-15290800D02*
X20591780Y-14338300D01*
X20591780Y-14338300D02*
X20591780Y-3543300D01*
X20591780Y-3543300D02*
X20274280Y-3225800D01*
X20274280Y-3225800D02*
X14340840Y-3225800D01*
X14340840Y-3225800D02*
X14340840Y-3048000D01*
X14340840Y-3048000D02*
X13190220Y-3048000D01*
X13190220Y-3048000D02*
X13190220Y-3225800D01*
X13190220Y-3225800D02*
X9504680Y-3225800D01*
X9504680Y-3225800D02*
X9504680Y-3048000D01*
X9504680Y-3048000D02*
X8870950Y-3048000D01*
X8870950Y-3048000D02*
X8870950Y-3175000D01*
X8870950Y-3175000D02*
X8421370Y-3175000D01*
X8421370Y-3175000D02*
X8421370Y-3048000D01*
X8421370Y-3048000D02*
X7787640Y-3048000D01*
X7787640Y-3048000D02*
X7787640Y-3225800D01*
X7787640Y-3225800D02*
X6581140Y-3225800D01*
X6581140Y-3225800D02*
X6261100Y-3543300D01*
X6261100Y-3543300D02*
X6261100Y-12166600D01*
X6261100Y-12166600D02*
X5770880Y-12166600D01*
X5770880Y-12166600D02*
X2461768Y-13709650D01*
X2461768Y-13709650D02*
X2308098Y-14131544D01*
X2308098Y-14131544D02*
X4476496Y-18781776D01*
X4476496Y-18781776D02*
X4898390Y-18935192D01*
X4898390Y-18935192D02*
X12715240Y-15290800D01*
D12*
X8581390Y-3288030D02*
X8680450Y-3387090D01*
X8680450Y-3288030D02*
X8581390Y-3387090D01*
X8581390Y-3788410D02*
X8680450Y-3887470D01*
X8680450Y-3788410D02*
X8581390Y-3887470D01*
X18785610Y-4633000D02*
G75*
G03X18785610Y-4633000I-54610J0D01*
G01*
X19547610Y-4633000D02*
G75*
G03X19547610Y-4633000I-54610J0D01*
G01*
X6532382Y-14582179D02*
X6532382Y-14886979D01*
X6379982Y-14734579D02*
X6684782Y-14734579D01*
X6992708Y-14367397D02*
X6992708Y-14672197D01*
X6840308Y-14519797D02*
X7145108Y-14519797D01*
X7541426Y-16746079D02*
X7541426Y-17050879D01*
X7389026Y-16898479D02*
X7693826Y-16898479D01*
X8001752Y-16531297D02*
X8001752Y-16836097D01*
X7849352Y-16683697D02*
X8154152Y-16683697D01*
X3610885Y-14467861D02*
X3610885Y-14185879D01*
X3328903Y-14185879D01*
X3328903Y-14467861D01*
X3610885Y-14467861D01*
X4415811Y-16194299D02*
X4415811Y-15912317D01*
X4133829Y-15912317D01*
X4133829Y-16194299D01*
X4415811Y-16194299D01*
X5220991Y-17920991D02*
X5220991Y-17639009D01*
X4939009Y-17639009D01*
X4939009Y-17920991D01*
X5220991Y-17920991D01*
X5292161Y-15519640D02*
X5292161Y-15237658D01*
X5010178Y-15237658D01*
X5010178Y-15519640D01*
X5292161Y-15519640D01*
X5337323Y-13662935D02*
X5337323Y-13380953D01*
X5055341Y-13380953D01*
X5055341Y-13662935D01*
X5337323Y-13662935D01*
X6142503Y-15389373D02*
X6142503Y-15107391D01*
X5860521Y-15107391D01*
X5860521Y-15389373D01*
X6142503Y-15389373D01*
X6301204Y-17683541D02*
X6301204Y-17401558D01*
X6019221Y-17401558D01*
X6019221Y-17683541D01*
X6301204Y-17683541D01*
X6544839Y-16252719D02*
X6544839Y-15970737D01*
X6262857Y-15970737D01*
X6262857Y-16252719D01*
X6544839Y-16252719D01*
X6947429Y-17115811D02*
X6947429Y-16833829D01*
X6665447Y-16833829D01*
X6665447Y-17115811D01*
X6947429Y-17115811D01*
X7379991Y-6651011D02*
X7379991Y-6369029D01*
X7098009Y-6369029D01*
X7098009Y-6651011D01*
X7379991Y-6651011D01*
X7379991Y-9032007D02*
X7379991Y-8750025D01*
X7098009Y-8750025D01*
X7098009Y-9032007D01*
X7379991Y-9032007D01*
X7379991Y-11889507D02*
X7379991Y-11607525D01*
X7098009Y-11607525D01*
X7098009Y-11889507D01*
X7379991Y-11889507D01*
X7868941Y-14584193D02*
X7868941Y-14302211D01*
X7586959Y-14302211D01*
X7586959Y-14584193D01*
X7868941Y-14584193D01*
X8271277Y-15447539D02*
X8271277Y-15165557D01*
X7989295Y-15165557D01*
X7989295Y-15447539D01*
X8271277Y-15447539D01*
X8514913Y-14016718D02*
X8514913Y-13734735D01*
X8232930Y-13734735D01*
X8232930Y-14016718D01*
X8514913Y-14016718D01*
X8674121Y-16310885D02*
X8674121Y-16028903D01*
X8392139Y-16028903D01*
X8392139Y-16310885D01*
X8674121Y-16310885D01*
X9284991Y-6651011D02*
X9284991Y-6369029D01*
X9003009Y-6369029D01*
X9003009Y-6651011D01*
X9284991Y-6651011D01*
X9284991Y-8555757D02*
X9284991Y-8273775D01*
X9003009Y-8273775D01*
X9003009Y-8555757D01*
X9284991Y-8555757D01*
X9284991Y-10460757D02*
X9284991Y-10178775D01*
X9003009Y-10178775D01*
X9003009Y-10460757D01*
X9284991Y-10460757D01*
X9284991Y-12365757D02*
X9284991Y-12083775D01*
X9003009Y-12083775D01*
X9003009Y-12365757D01*
X9284991Y-12365757D01*
X9523956Y-16180618D02*
X9523956Y-15898635D01*
X9241973Y-15898635D01*
X9241973Y-16180618D01*
X9523956Y-16180618D01*
X11189991Y-6523757D02*
X11189991Y-6241775D01*
X10908009Y-6241775D01*
X10908009Y-6523757D01*
X11189991Y-6523757D01*
X11189991Y-8428757D02*
X11189991Y-8146775D01*
X10908009Y-8146775D01*
X10908009Y-8428757D01*
X11189991Y-8428757D01*
X11189991Y-10333757D02*
X11189991Y-10051775D01*
X10908009Y-10051775D01*
X10908009Y-10333757D01*
X11189991Y-10333757D01*
X11189991Y-12238757D02*
X11189991Y-11956775D01*
X10908009Y-11956775D01*
X10908009Y-12238757D01*
X11189991Y-12238757D01*
X11189991Y-14143757D02*
X11189991Y-13861775D01*
X10908009Y-13861775D01*
X10908009Y-14143757D01*
X11189991Y-14143757D01*
X13094991Y-6363991D02*
X13094991Y-6082009D01*
X12813009Y-6082009D01*
X12813009Y-6363991D01*
X13094991Y-6363991D01*
X13094991Y-8268991D02*
X13094991Y-7987009D01*
X12813009Y-7987009D01*
X12813009Y-8268991D01*
X13094991Y-8268991D01*
X13094991Y-10173991D02*
X13094991Y-9892009D01*
X12813009Y-9892009D01*
X12813009Y-10173991D01*
X13094991Y-10173991D01*
X13094991Y-12078991D02*
X13094991Y-11797009D01*
X12813009Y-11797009D01*
X12813009Y-12078991D01*
X13094991Y-12078991D01*
X13094991Y-13983991D02*
X13094991Y-13702009D01*
X12813009Y-13702009D01*
X12813009Y-13983991D01*
X13094991Y-13983991D01*
X14999991Y-6523757D02*
X14999991Y-6241775D01*
X14718009Y-6241775D01*
X14718009Y-6523757D01*
X14999991Y-6523757D01*
X14999991Y-8428757D02*
X14999991Y-8146775D01*
X14718009Y-8146775D01*
X14718009Y-8428757D01*
X14999991Y-8428757D01*
X14999991Y-10333757D02*
X14999991Y-10051775D01*
X14718009Y-10051775D01*
X14718009Y-10333757D01*
X14999991Y-10333757D01*
X14999991Y-12238757D02*
X14999991Y-11956775D01*
X14718009Y-11956775D01*
X14718009Y-12238757D01*
X14999991Y-12238757D01*
X14999991Y-14143757D02*
X14999991Y-13861775D01*
X14718009Y-13861775D01*
X14718009Y-14143757D01*
X14999991Y-14143757D01*
X16904991Y-6841511D02*
X16904991Y-6559529D01*
X16623009Y-6559529D01*
X16623009Y-6841511D01*
X16904991Y-6841511D01*
X16904991Y-8746257D02*
X16904991Y-8464275D01*
X16623009Y-8464275D01*
X16623009Y-8746257D01*
X16904991Y-8746257D01*
X16904991Y-10651257D02*
X16904991Y-10369275D01*
X16623009Y-10369275D01*
X16623009Y-10651257D01*
X16904991Y-10651257D01*
X16904991Y-12556257D02*
X16904991Y-12274275D01*
X16623009Y-12274275D01*
X16623009Y-12556257D01*
X16904991Y-12556257D01*
X16904991Y-14461257D02*
X16904991Y-14179275D01*
X16623009Y-14179275D01*
X16623009Y-14461257D01*
X16904991Y-14461257D01*
X18809991Y-14461257D02*
X18809991Y-14179275D01*
X18528009Y-14179275D01*
X18528009Y-14461257D01*
X18809991Y-14461257D01*
X19047989Y-6841511D02*
X19047989Y-6559529D01*
X18766007Y-6559529D01*
X18766007Y-6841511D01*
X19047989Y-6841511D01*
X18668873Y-6889910D02*
X19145123Y-6889910D01*
X18668873Y-6511130D02*
X19145123Y-6511130D01*
X19145123Y-6889910D02*
G75*
G03X19145123Y-6511130I0J189390D01*
G01*
X18668873Y-6511130D02*
G75*
G03X18668873Y-6889910I0J-189390D01*
G01*
X19047989Y-8746257D02*
X19047989Y-8464275D01*
X18766007Y-8464275D01*
X18766007Y-8746257D01*
X19047989Y-8746257D01*
X18668873Y-8794656D02*
X19145123Y-8794656D01*
X18668873Y-8415876D02*
X19145123Y-8415876D01*
X19145123Y-8794656D02*
G75*
G03X19145123Y-8415876I0J189390D01*
G01*
X18668873Y-8415876D02*
G75*
G03X18668873Y-8794656I0J-189390D01*
G01*
X19047989Y-10651257D02*
X19047989Y-10369275D01*
X18766007Y-10369275D01*
X18766007Y-10651257D01*
X19047989Y-10651257D01*
X18668873Y-10699656D02*
X19145123Y-10699656D01*
X18668873Y-10320876D02*
X19145123Y-10320876D01*
X19145123Y-10699656D02*
G75*
G03X19145123Y-10320876I0J189390D01*
G01*
X18668873Y-10320876D02*
G75*
G03X18668873Y-10699656I0J-189390D01*
G01*
X19047989Y-12556257D02*
X19047989Y-12274275D01*
X18766007Y-12274275D01*
X18766007Y-12556257D01*
X19047989Y-12556257D01*
X18668873Y-12604656D02*
X19145123Y-12604656D01*
X18668873Y-12225876D02*
X19145123Y-12225876D01*
X19145123Y-12604656D02*
G75*
G03X19145123Y-12225876I0J189390D01*
G01*
X18668873Y-12225876D02*
G75*
G03X18668873Y-12604656I0J-189390D01*
G01*
D13*
X2560477Y-19419956D02*
X2560477Y-19119956D01*
X2631905Y-19119956D01*
X2674762Y-19134242D01*
X2703334Y-19162814D01*
X2717619Y-19191385D01*
X2731905Y-19248528D01*
X2731905Y-19291385D01*
X2717619Y-19348528D01*
X2703334Y-19377099D01*
X2674762Y-19405671D01*
X2631905Y-19419956D01*
X2560477Y-19419956D01*
X2860476Y-19419956D02*
X2860476Y-19219956D01*
X2860476Y-19277099D02*
X2874762Y-19248528D01*
X2889048Y-19234242D01*
X2917619Y-19219956D01*
X2946191Y-19219956D01*
X3046191Y-19419956D02*
X3046191Y-19219956D01*
X3046191Y-19119956D02*
X3031905Y-19134242D01*
X3046191Y-19148528D01*
X3060476Y-19134242D01*
X3046191Y-19119956D01*
X3046191Y-19148528D01*
X3231905Y-19419956D02*
X3203334Y-19405671D01*
X3189048Y-19377099D01*
X3189048Y-19119956D01*
X3389048Y-19419956D02*
X3360476Y-19405671D01*
X3346191Y-19377099D01*
X3346191Y-19119956D01*
X3731905Y-19419956D02*
X3731905Y-19119956D01*
X3831905Y-19334242D01*
X3931905Y-19119956D01*
X3931905Y-19419956D01*
X4203334Y-19419956D02*
X4203334Y-19262814D01*
X4189048Y-19234242D01*
X4160476Y-19219956D01*
X4103334Y-19219956D01*
X4074762Y-19234242D01*
X4203334Y-19405671D02*
X4174762Y-19419956D01*
X4103334Y-19419956D01*
X4074762Y-19405671D01*
X4060476Y-19377099D01*
X4060476Y-19348528D01*
X4074762Y-19319956D01*
X4103334Y-19305671D01*
X4174762Y-19305671D01*
X4203334Y-19291385D01*
X4346191Y-19219956D02*
X4346191Y-19519956D01*
X4346191Y-19234242D02*
X4374762Y-19219956D01*
X4431905Y-19219956D01*
X4460477Y-19234242D01*
X4474762Y-19248528D01*
X4489048Y-19277099D01*
X4489048Y-19362814D01*
X4474762Y-19391385D01*
X4460477Y-19405671D01*
X4431905Y-19419956D01*
X4374762Y-19419956D01*
X4346191Y-19405671D01*
X4617619Y-19391385D02*
X4631905Y-19405671D01*
X4617619Y-19419956D01*
X4603334Y-19405671D01*
X4617619Y-19391385D01*
X4617619Y-19419956D01*
X4617619Y-19234242D02*
X4631905Y-19248528D01*
X4617619Y-19262814D01*
X4603334Y-19248528D01*
X4617619Y-19234242D01*
X4617619Y-19262814D01*
X2189988Y-19864712D02*
X2289048Y-19963772D01*
X2289048Y-19864712D02*
X2189988Y-19963772D01*
X2617619Y-19749956D02*
X2646191Y-19749956D01*
X2674762Y-19764242D01*
X2689048Y-19778528D01*
X2703334Y-19807099D01*
X2717619Y-19864242D01*
X2717619Y-19935671D01*
X2703334Y-19992814D01*
X2689048Y-20021385D01*
X2674762Y-20035671D01*
X2646191Y-20049956D01*
X2617619Y-20049956D01*
X2589048Y-20035671D01*
X2574762Y-20021385D01*
X2560477Y-19992814D01*
X2546191Y-19935671D01*
X2546191Y-19864242D01*
X2560477Y-19807099D01*
X2574762Y-19778528D01*
X2589048Y-19764242D01*
X2617619Y-19749956D01*
X2846191Y-20021385D02*
X2860476Y-20035671D01*
X2846191Y-20049956D01*
X2831905Y-20035671D01*
X2846191Y-20021385D01*
X2846191Y-20049956D01*
X3003334Y-20049956D02*
X3060476Y-20049956D01*
X3089048Y-20035671D01*
X3103334Y-20021385D01*
X3131905Y-19978528D01*
X3146191Y-19921385D01*
X3146191Y-19807099D01*
X3131905Y-19778528D01*
X3117619Y-19764242D01*
X3089048Y-19749956D01*
X3031905Y-19749956D01*
X3003334Y-19764242D01*
X2989048Y-19778528D01*
X2974762Y-19807099D01*
X2974762Y-19878528D01*
X2989048Y-19907099D01*
X3003334Y-19921385D01*
X3031905Y-19935671D01*
X3089048Y-19935671D01*
X3117619Y-19921385D01*
X3131905Y-19907099D01*
X3146191Y-19878528D01*
X3289048Y-20049956D02*
X3346191Y-20049956D01*
X3374762Y-20035671D01*
X3389048Y-20021385D01*
X3417619Y-19978528D01*
X3431905Y-19921385D01*
X3431905Y-19807099D01*
X3417619Y-19778528D01*
X3403334Y-19764242D01*
X3374762Y-19749956D01*
X3317619Y-19749956D01*
X3289048Y-19764242D01*
X3274762Y-19778528D01*
X3260476Y-19807099D01*
X3260476Y-19878528D01*
X3274762Y-19907099D01*
X3289048Y-19921385D01*
X3317619Y-19935671D01*
X3374762Y-19935671D01*
X3403334Y-19921385D01*
X3417619Y-19907099D01*
X3431905Y-19878528D01*
X3560476Y-20049956D02*
X3560476Y-19849956D01*
X3560476Y-19878528D02*
X3574762Y-19864242D01*
X3603334Y-19849956D01*
X3646191Y-19849956D01*
X3674762Y-19864242D01*
X3689048Y-19892814D01*
X3689048Y-20049956D01*
X3689048Y-19892814D02*
X3703334Y-19864242D01*
X3731905Y-19849956D01*
X3774762Y-19849956D01*
X3803334Y-19864242D01*
X3817619Y-19892814D01*
X3817619Y-20049956D01*
X3960476Y-20049956D02*
X3960476Y-19849956D01*
X3960476Y-19878528D02*
X3974762Y-19864242D01*
X4003334Y-19849956D01*
X4046191Y-19849956D01*
X4074762Y-19864242D01*
X4089048Y-19892814D01*
X4089048Y-20049956D01*
X4089048Y-19892814D02*
X4103334Y-19864242D01*
X4131905Y-19849956D01*
X4174762Y-19849956D01*
X4203334Y-19864242D01*
X4217619Y-19892814D01*
X4217619Y-20049956D01*
X4803334Y-19735671D02*
X4546191Y-20121385D01*
X5189048Y-19749956D02*
X5217619Y-19749956D01*
X5246191Y-19764242D01*
X5260476Y-19778528D01*
X5274762Y-19807099D01*
X5289048Y-19864242D01*
X5289048Y-19935671D01*
X5274762Y-19992814D01*
X5260476Y-20021385D01*
X5246191Y-20035671D01*
X5217619Y-20049956D01*
X5189048Y-20049956D01*
X5160476Y-20035671D01*
X5146191Y-20021385D01*
X5131905Y-19992814D01*
X5117619Y-19935671D01*
X5117619Y-19864242D01*
X5131905Y-19807099D01*
X5146191Y-19778528D01*
X5160476Y-19764242D01*
X5189048Y-19749956D01*
X5417619Y-20021385D02*
X5431905Y-20035671D01*
X5417619Y-20049956D01*
X5403334Y-20035671D01*
X5417619Y-20021385D01*
X5417619Y-20049956D01*
X5617619Y-19749956D02*
X5646191Y-19749956D01*
X5674762Y-19764242D01*
X5689048Y-19778528D01*
X5703333Y-19807099D01*
X5717619Y-19864242D01*
X5717619Y-19935671D01*
X5703333Y-19992814D01*
X5689048Y-20021385D01*
X5674762Y-20035671D01*
X5646191Y-20049956D01*
X5617619Y-20049956D01*
X5589048Y-20035671D01*
X5574762Y-20021385D01*
X5560476Y-19992814D01*
X5546191Y-19935671D01*
X5546191Y-19864242D01*
X5560476Y-19807099D01*
X5574762Y-19778528D01*
X5589048Y-19764242D01*
X5617619Y-19749956D01*
X5817619Y-19749956D02*
X6003333Y-19749956D01*
X5903333Y-19864242D01*
X5946191Y-19864242D01*
X5974762Y-19878528D01*
X5989048Y-19892814D01*
X6003333Y-19921385D01*
X6003333Y-19992814D01*
X5989048Y-20021385D01*
X5974762Y-20035671D01*
X5946191Y-20049956D01*
X5860476Y-20049956D01*
X5831905Y-20035671D01*
X5817619Y-20021385D01*
X6146191Y-20049956D02*
X6203333Y-20049956D01*
X6231905Y-20035671D01*
X6246191Y-20021385D01*
X6274762Y-19978528D01*
X6289048Y-19921385D01*
X6289048Y-19807099D01*
X6274762Y-19778528D01*
X6260476Y-19764242D01*
X6231905Y-19749956D01*
X6174762Y-19749956D01*
X6146191Y-19764242D01*
X6131905Y-19778528D01*
X6117619Y-19807099D01*
X6117619Y-19878528D01*
X6131905Y-19907099D01*
X6146191Y-19921385D01*
X6174762Y-19935671D01*
X6231905Y-19935671D01*
X6260476Y-19921385D01*
X6274762Y-19907099D01*
X6289048Y-19878528D01*
X6403334Y-19749956D02*
X6403334Y-19807099D01*
X6517619Y-19749956D02*
X6517619Y-19807099D01*
X6960476Y-20164242D02*
X6946191Y-20149956D01*
X6917619Y-20107099D01*
X6903333Y-20078528D01*
X6889048Y-20035671D01*
X6874762Y-19964242D01*
X6874762Y-19907099D01*
X6889048Y-19835671D01*
X6903333Y-19792814D01*
X6917619Y-19764242D01*
X6946191Y-19721385D01*
X6960476Y-19707099D01*
X7060476Y-19778528D02*
X7074762Y-19764242D01*
X7103333Y-19749956D01*
X7174762Y-19749956D01*
X7203333Y-19764242D01*
X7217619Y-19778528D01*
X7231905Y-19807099D01*
X7231905Y-19835671D01*
X7217619Y-19878528D01*
X7046191Y-20049956D01*
X7231905Y-20049956D01*
X7589048Y-20049956D02*
X7589048Y-19749956D01*
X7717619Y-20049956D02*
X7717619Y-19892814D01*
X7703333Y-19864242D01*
X7674762Y-19849956D01*
X7631905Y-19849956D01*
X7603333Y-19864242D01*
X7589048Y-19878528D01*
X7903333Y-20049956D02*
X7874762Y-20035671D01*
X7860476Y-20021385D01*
X7846191Y-19992814D01*
X7846191Y-19907099D01*
X7860476Y-19878528D01*
X7874762Y-19864242D01*
X7903333Y-19849956D01*
X7946191Y-19849956D01*
X7974762Y-19864242D01*
X7989048Y-19878528D01*
X8003333Y-19907099D01*
X8003333Y-19992814D01*
X7989048Y-20021385D01*
X7974762Y-20035671D01*
X7946191Y-20049956D01*
X7903333Y-20049956D01*
X8174762Y-20049956D02*
X8146191Y-20035671D01*
X8131905Y-20007099D01*
X8131905Y-19749956D01*
X8403334Y-20035671D02*
X8374762Y-20049956D01*
X8317619Y-20049956D01*
X8289048Y-20035671D01*
X8274762Y-20007099D01*
X8274762Y-19892814D01*
X8289048Y-19864242D01*
X8317619Y-19849956D01*
X8374762Y-19849956D01*
X8403334Y-19864242D01*
X8417619Y-19892814D01*
X8417619Y-19921385D01*
X8274762Y-19949956D01*
X8531905Y-20035671D02*
X8560477Y-20049956D01*
X8617619Y-20049956D01*
X8646191Y-20035671D01*
X8660477Y-20007099D01*
X8660477Y-19992814D01*
X8646191Y-19964242D01*
X8617619Y-19949956D01*
X8574762Y-19949956D01*
X8546191Y-19935671D01*
X8531905Y-19907099D01*
X8531905Y-19892814D01*
X8546191Y-19864242D01*
X8574762Y-19849956D01*
X8617619Y-19849956D01*
X8646191Y-19864242D01*
X8760476Y-20164242D02*
X8774762Y-20149956D01*
X8803334Y-20107099D01*
X8817619Y-20078528D01*
X8831905Y-20035671D01*
X8846191Y-19964242D01*
X8846191Y-19907099D01*
X8831905Y-19835671D01*
X8817619Y-19792814D01*
X8803334Y-19764242D01*
X8774762Y-19721385D01*
X8760476Y-19707099D01*
X9303334Y-20164242D02*
X9289048Y-20149956D01*
X9260476Y-20107099D01*
X9246191Y-20078528D01*
X9231905Y-20035671D01*
X9217619Y-19964242D01*
X9217619Y-19907099D01*
X9231905Y-19835671D01*
X9246191Y-19792814D01*
X9260476Y-19764242D01*
X9289048Y-19721385D01*
X9303334Y-19707099D01*
X9417619Y-19849956D02*
X9417619Y-20049956D01*
X9417619Y-19878528D02*
X9431905Y-19864242D01*
X9460476Y-19849956D01*
X9503334Y-19849956D01*
X9531905Y-19864242D01*
X9546191Y-19892814D01*
X9546191Y-20049956D01*
X9731905Y-20049956D02*
X9703334Y-20035671D01*
X9689048Y-20021385D01*
X9674762Y-19992814D01*
X9674762Y-19907099D01*
X9689048Y-19878528D01*
X9703334Y-19864242D01*
X9731905Y-19849956D01*
X9774762Y-19849956D01*
X9803334Y-19864242D01*
X9817619Y-19878528D01*
X9831905Y-19907099D01*
X9831905Y-19992814D01*
X9817619Y-20021385D01*
X9803334Y-20035671D01*
X9774762Y-20049956D01*
X9731905Y-20049956D01*
X9917619Y-19849956D02*
X10031905Y-19849956D01*
X9960477Y-19749956D02*
X9960477Y-20007099D01*
X9974762Y-20035671D01*
X10003334Y-20049956D01*
X10031905Y-20049956D01*
X10360477Y-19849956D02*
X10360477Y-20149956D01*
X10360477Y-19864242D02*
X10389048Y-19849956D01*
X10446191Y-19849956D01*
X10474762Y-19864242D01*
X10489048Y-19878528D01*
X10503334Y-19907099D01*
X10503334Y-19992814D01*
X10489048Y-20021385D01*
X10474762Y-20035671D01*
X10446191Y-20049956D01*
X10389048Y-20049956D01*
X10360477Y-20035671D01*
X10674762Y-20049956D02*
X10646191Y-20035671D01*
X10631905Y-20007099D01*
X10631905Y-19749956D01*
X10917619Y-20049956D02*
X10917619Y-19892814D01*
X10903334Y-19864242D01*
X10874762Y-19849956D01*
X10817619Y-19849956D01*
X10789048Y-19864242D01*
X10917619Y-20035671D02*
X10889048Y-20049956D01*
X10817619Y-20049956D01*
X10789048Y-20035671D01*
X10774762Y-20007099D01*
X10774762Y-19978528D01*
X10789048Y-19949956D01*
X10817619Y-19935671D01*
X10889048Y-19935671D01*
X10917619Y-19921385D01*
X11017619Y-19849956D02*
X11131905Y-19849956D01*
X11060477Y-19749956D02*
X11060477Y-20007099D01*
X11074762Y-20035671D01*
X11103334Y-20049956D01*
X11131905Y-20049956D01*
X11346191Y-20035671D02*
X11317619Y-20049956D01*
X11260477Y-20049956D01*
X11231905Y-20035671D01*
X11217619Y-20007099D01*
X11217619Y-19892814D01*
X11231905Y-19864242D01*
X11260477Y-19849956D01*
X11317619Y-19849956D01*
X11346191Y-19864242D01*
X11360477Y-19892814D01*
X11360477Y-19921385D01*
X11217619Y-19949956D01*
X11617619Y-20049956D02*
X11617619Y-19749956D01*
X11617619Y-20035671D02*
X11589048Y-20049956D01*
X11531905Y-20049956D01*
X11503334Y-20035671D01*
X11489048Y-20021385D01*
X11474762Y-19992814D01*
X11474762Y-19907099D01*
X11489048Y-19878528D01*
X11503334Y-19864242D01*
X11531905Y-19849956D01*
X11589048Y-19849956D01*
X11617619Y-19864242D01*
X11731905Y-20164242D02*
X11746191Y-20149956D01*
X11774762Y-20107099D01*
X11789048Y-20078528D01*
X11803334Y-20035671D01*
X11817619Y-19964242D01*
X11817619Y-19907099D01*
X11803334Y-19835671D01*
X11789048Y-19792814D01*
X11774762Y-19764242D01*
X11746191Y-19721385D01*
X11731905Y-19707099D01*
X2289048Y-20310242D02*
G75*
G03X2289048Y-20310242I-54610J0D01*
G01*
X2717619Y-20445956D02*
X2546191Y-20445956D01*
X2631905Y-20445956D02*
X2631905Y-20145956D01*
X2603334Y-20188814D01*
X2574762Y-20217385D01*
X2546191Y-20231671D01*
X2846191Y-20417385D02*
X2860476Y-20431671D01*
X2846191Y-20445956D01*
X2831905Y-20431671D01*
X2846191Y-20417385D01*
X2846191Y-20445956D01*
X3046191Y-20145956D02*
X3074762Y-20145956D01*
X3103334Y-20160242D01*
X3117619Y-20174528D01*
X3131905Y-20203099D01*
X3146191Y-20260242D01*
X3146191Y-20331671D01*
X3131905Y-20388814D01*
X3117619Y-20417385D01*
X3103334Y-20431671D01*
X3074762Y-20445956D01*
X3046191Y-20445956D01*
X3017619Y-20431671D01*
X3003334Y-20417385D01*
X2989048Y-20388814D01*
X2974762Y-20331671D01*
X2974762Y-20260242D01*
X2989048Y-20203099D01*
X3003334Y-20174528D01*
X3017619Y-20160242D01*
X3046191Y-20145956D01*
X3289048Y-20445956D02*
X3346191Y-20445956D01*
X3374762Y-20431671D01*
X3389048Y-20417385D01*
X3417619Y-20374528D01*
X3431905Y-20317385D01*
X3431905Y-20203099D01*
X3417619Y-20174528D01*
X3403334Y-20160242D01*
X3374762Y-20145956D01*
X3317619Y-20145956D01*
X3289048Y-20160242D01*
X3274762Y-20174528D01*
X3260476Y-20203099D01*
X3260476Y-20274528D01*
X3274762Y-20303099D01*
X3289048Y-20317385D01*
X3317619Y-20331671D01*
X3374762Y-20331671D01*
X3403334Y-20317385D01*
X3417619Y-20303099D01*
X3431905Y-20274528D01*
X3560476Y-20445956D02*
X3560476Y-20245956D01*
X3560476Y-20274528D02*
X3574762Y-20260242D01*
X3603334Y-20245956D01*
X3646191Y-20245956D01*
X3674762Y-20260242D01*
X3689048Y-20288814D01*
X3689048Y-20445956D01*
X3689048Y-20288814D02*
X3703334Y-20260242D01*
X3731905Y-20245956D01*
X3774762Y-20245956D01*
X3803334Y-20260242D01*
X3817619Y-20288814D01*
X3817619Y-20445956D01*
X3960476Y-20445956D02*
X3960476Y-20245956D01*
X3960476Y-20274528D02*
X3974762Y-20260242D01*
X4003334Y-20245956D01*
X4046191Y-20245956D01*
X4074762Y-20260242D01*
X4089048Y-20288814D01*
X4089048Y-20445956D01*
X4089048Y-20288814D02*
X4103334Y-20260242D01*
X4131905Y-20245956D01*
X4174762Y-20245956D01*
X4203334Y-20260242D01*
X4217619Y-20288814D01*
X4217619Y-20445956D01*
X4803334Y-20131671D02*
X4546191Y-20517385D01*
X5189048Y-20145956D02*
X5217619Y-20145956D01*
X5246191Y-20160242D01*
X5260476Y-20174528D01*
X5274762Y-20203099D01*
X5289048Y-20260242D01*
X5289048Y-20331671D01*
X5274762Y-20388814D01*
X5260476Y-20417385D01*
X5246191Y-20431671D01*
X5217619Y-20445956D01*
X5189048Y-20445956D01*
X5160476Y-20431671D01*
X5146191Y-20417385D01*
X5131905Y-20388814D01*
X5117619Y-20331671D01*
X5117619Y-20260242D01*
X5131905Y-20203099D01*
X5146191Y-20174528D01*
X5160476Y-20160242D01*
X5189048Y-20145956D01*
X5417619Y-20417385D02*
X5431905Y-20431671D01*
X5417619Y-20445956D01*
X5403334Y-20431671D01*
X5417619Y-20417385D01*
X5417619Y-20445956D01*
X5617619Y-20145956D02*
X5646191Y-20145956D01*
X5674762Y-20160242D01*
X5689048Y-20174528D01*
X5703333Y-20203099D01*
X5717619Y-20260242D01*
X5717619Y-20331671D01*
X5703333Y-20388814D01*
X5689048Y-20417385D01*
X5674762Y-20431671D01*
X5646191Y-20445956D01*
X5617619Y-20445956D01*
X5589048Y-20431671D01*
X5574762Y-20417385D01*
X5560476Y-20388814D01*
X5546191Y-20331671D01*
X5546191Y-20260242D01*
X5560476Y-20203099D01*
X5574762Y-20174528D01*
X5589048Y-20160242D01*
X5617619Y-20145956D01*
X5974762Y-20245956D02*
X5974762Y-20445956D01*
X5903333Y-20131671D02*
X5831905Y-20345956D01*
X6017619Y-20345956D01*
X6103333Y-20145956D02*
X6289048Y-20145956D01*
X6189048Y-20260242D01*
X6231905Y-20260242D01*
X6260476Y-20274528D01*
X6274762Y-20288814D01*
X6289048Y-20317385D01*
X6289048Y-20388814D01*
X6274762Y-20417385D01*
X6260476Y-20431671D01*
X6231905Y-20445956D01*
X6146191Y-20445956D01*
X6117619Y-20431671D01*
X6103333Y-20417385D01*
X6403334Y-20145956D02*
X6403334Y-20203099D01*
X6517619Y-20145956D02*
X6517619Y-20203099D01*
X6960476Y-20560242D02*
X6946191Y-20545956D01*
X6917619Y-20503099D01*
X6903333Y-20474528D01*
X6889048Y-20431671D01*
X6874762Y-20360242D01*
X6874762Y-20303099D01*
X6889048Y-20231671D01*
X6903333Y-20188814D01*
X6917619Y-20160242D01*
X6946191Y-20117385D01*
X6960476Y-20103099D01*
X7060476Y-20174528D02*
X7074762Y-20160242D01*
X7103333Y-20145956D01*
X7174762Y-20145956D01*
X7203333Y-20160242D01*
X7217619Y-20174528D01*
X7231905Y-20203099D01*
X7231905Y-20231671D01*
X7217619Y-20274528D01*
X7046191Y-20445956D01*
X7231905Y-20445956D01*
X7589048Y-20445956D02*
X7589048Y-20145956D01*
X7717619Y-20445956D02*
X7717619Y-20288814D01*
X7703333Y-20260242D01*
X7674762Y-20245956D01*
X7631905Y-20245956D01*
X7603333Y-20260242D01*
X7589048Y-20274528D01*
X7903333Y-20445956D02*
X7874762Y-20431671D01*
X7860476Y-20417385D01*
X7846191Y-20388814D01*
X7846191Y-20303099D01*
X7860476Y-20274528D01*
X7874762Y-20260242D01*
X7903333Y-20245956D01*
X7946191Y-20245956D01*
X7974762Y-20260242D01*
X7989048Y-20274528D01*
X8003333Y-20303099D01*
X8003333Y-20388814D01*
X7989048Y-20417385D01*
X7974762Y-20431671D01*
X7946191Y-20445956D01*
X7903333Y-20445956D01*
X8174762Y-20445956D02*
X8146191Y-20431671D01*
X8131905Y-20403099D01*
X8131905Y-20145956D01*
X8403334Y-20431671D02*
X8374762Y-20445956D01*
X8317619Y-20445956D01*
X8289048Y-20431671D01*
X8274762Y-20403099D01*
X8274762Y-20288814D01*
X8289048Y-20260242D01*
X8317619Y-20245956D01*
X8374762Y-20245956D01*
X8403334Y-20260242D01*
X8417619Y-20288814D01*
X8417619Y-20317385D01*
X8274762Y-20345956D01*
X8531905Y-20431671D02*
X8560477Y-20445956D01*
X8617619Y-20445956D01*
X8646191Y-20431671D01*
X8660477Y-20403099D01*
X8660477Y-20388814D01*
X8646191Y-20360242D01*
X8617619Y-20345956D01*
X8574762Y-20345956D01*
X8546191Y-20331671D01*
X8531905Y-20303099D01*
X8531905Y-20288814D01*
X8546191Y-20260242D01*
X8574762Y-20245956D01*
X8617619Y-20245956D01*
X8646191Y-20260242D01*
X8760476Y-20560242D02*
X8774762Y-20545956D01*
X8803334Y-20503099D01*
X8817619Y-20474528D01*
X8831905Y-20431671D01*
X8846191Y-20360242D01*
X8846191Y-20303099D01*
X8831905Y-20231671D01*
X8817619Y-20188814D01*
X8803334Y-20160242D01*
X8774762Y-20117385D01*
X8760476Y-20103099D01*
X9303334Y-20560242D02*
X9289048Y-20545956D01*
X9260476Y-20503099D01*
X9246191Y-20474528D01*
X9231905Y-20431671D01*
X9217619Y-20360242D01*
X9217619Y-20303099D01*
X9231905Y-20231671D01*
X9246191Y-20188814D01*
X9260476Y-20160242D01*
X9289048Y-20117385D01*
X9303334Y-20103099D01*
X9417619Y-20245956D02*
X9417619Y-20445956D01*
X9417619Y-20274528D02*
X9431905Y-20260242D01*
X9460476Y-20245956D01*
X9503334Y-20245956D01*
X9531905Y-20260242D01*
X9546191Y-20288814D01*
X9546191Y-20445956D01*
X9731905Y-20445956D02*
X9703334Y-20431671D01*
X9689048Y-20417385D01*
X9674762Y-20388814D01*
X9674762Y-20303099D01*
X9689048Y-20274528D01*
X9703334Y-20260242D01*
X9731905Y-20245956D01*
X9774762Y-20245956D01*
X9803334Y-20260242D01*
X9817619Y-20274528D01*
X9831905Y-20303099D01*
X9831905Y-20388814D01*
X9817619Y-20417385D01*
X9803334Y-20431671D01*
X9774762Y-20445956D01*
X9731905Y-20445956D01*
X9917619Y-20245956D02*
X10031905Y-20245956D01*
X9960477Y-20145956D02*
X9960477Y-20403099D01*
X9974762Y-20431671D01*
X10003334Y-20445956D01*
X10031905Y-20445956D01*
X10360477Y-20245956D02*
X10360477Y-20545956D01*
X10360477Y-20260242D02*
X10389048Y-20245956D01*
X10446191Y-20245956D01*
X10474762Y-20260242D01*
X10489048Y-20274528D01*
X10503334Y-20303099D01*
X10503334Y-20388814D01*
X10489048Y-20417385D01*
X10474762Y-20431671D01*
X10446191Y-20445956D01*
X10389048Y-20445956D01*
X10360477Y-20431671D01*
X10674762Y-20445956D02*
X10646191Y-20431671D01*
X10631905Y-20403099D01*
X10631905Y-20145956D01*
X10917619Y-20445956D02*
X10917619Y-20288814D01*
X10903334Y-20260242D01*
X10874762Y-20245956D01*
X10817619Y-20245956D01*
X10789048Y-20260242D01*
X10917619Y-20431671D02*
X10889048Y-20445956D01*
X10817619Y-20445956D01*
X10789048Y-20431671D01*
X10774762Y-20403099D01*
X10774762Y-20374528D01*
X10789048Y-20345956D01*
X10817619Y-20331671D01*
X10889048Y-20331671D01*
X10917619Y-20317385D01*
X11017619Y-20245956D02*
X11131905Y-20245956D01*
X11060477Y-20145956D02*
X11060477Y-20403099D01*
X11074762Y-20431671D01*
X11103334Y-20445956D01*
X11131905Y-20445956D01*
X11346191Y-20431671D02*
X11317619Y-20445956D01*
X11260477Y-20445956D01*
X11231905Y-20431671D01*
X11217619Y-20403099D01*
X11217619Y-20288814D01*
X11231905Y-20260242D01*
X11260477Y-20245956D01*
X11317619Y-20245956D01*
X11346191Y-20260242D01*
X11360477Y-20288814D01*
X11360477Y-20317385D01*
X11217619Y-20345956D01*
X11617619Y-20445956D02*
X11617619Y-20145956D01*
X11617619Y-20431671D02*
X11589048Y-20445956D01*
X11531905Y-20445956D01*
X11503334Y-20431671D01*
X11489048Y-20417385D01*
X11474762Y-20388814D01*
X11474762Y-20303099D01*
X11489048Y-20274528D01*
X11503334Y-20260242D01*
X11531905Y-20245956D01*
X11589048Y-20245956D01*
X11617619Y-20260242D01*
X11731905Y-20560242D02*
X11746191Y-20545956D01*
X11774762Y-20503099D01*
X11789048Y-20474528D01*
X11803334Y-20431671D01*
X11817619Y-20360242D01*
X11817619Y-20303099D01*
X11803334Y-20231671D01*
X11789048Y-20188814D01*
X11774762Y-20160242D01*
X11746191Y-20117385D01*
X11731905Y-20103099D01*
X2136648Y-20553842D02*
X2136648Y-20858642D01*
X1984248Y-20706242D02*
X2289048Y-20706242D01*
X2531905Y-20541956D02*
X2717619Y-20541956D01*
X2617619Y-20656242D01*
X2660477Y-20656242D01*
X2689048Y-20670528D01*
X2703334Y-20684814D01*
X2717619Y-20713385D01*
X2717619Y-20784814D01*
X2703334Y-20813385D01*
X2689048Y-20827671D01*
X2660477Y-20841956D01*
X2574762Y-20841956D01*
X2546191Y-20827671D01*
X2531905Y-20813385D01*
X2846191Y-20813385D02*
X2860476Y-20827671D01*
X2846191Y-20841956D01*
X2831905Y-20827671D01*
X2846191Y-20813385D01*
X2846191Y-20841956D01*
X3046191Y-20541956D02*
X3074762Y-20541956D01*
X3103334Y-20556242D01*
X3117619Y-20570528D01*
X3131905Y-20599099D01*
X3146191Y-20656242D01*
X3146191Y-20727671D01*
X3131905Y-20784814D01*
X3117619Y-20813385D01*
X3103334Y-20827671D01*
X3074762Y-20841956D01*
X3046191Y-20841956D01*
X3017619Y-20827671D01*
X3003334Y-20813385D01*
X2989048Y-20784814D01*
X2974762Y-20727671D01*
X2974762Y-20656242D01*
X2989048Y-20599099D01*
X3003334Y-20570528D01*
X3017619Y-20556242D01*
X3046191Y-20541956D01*
X3417619Y-20541956D02*
X3274762Y-20541956D01*
X3260476Y-20684814D01*
X3274762Y-20670528D01*
X3303334Y-20656242D01*
X3374762Y-20656242D01*
X3403334Y-20670528D01*
X3417619Y-20684814D01*
X3431905Y-20713385D01*
X3431905Y-20784814D01*
X3417619Y-20813385D01*
X3403334Y-20827671D01*
X3374762Y-20841956D01*
X3303334Y-20841956D01*
X3274762Y-20827671D01*
X3260476Y-20813385D01*
X3560476Y-20841956D02*
X3560476Y-20641956D01*
X3560476Y-20670528D02*
X3574762Y-20656242D01*
X3603334Y-20641956D01*
X3646191Y-20641956D01*
X3674762Y-20656242D01*
X3689048Y-20684814D01*
X3689048Y-20841956D01*
X3689048Y-20684814D02*
X3703334Y-20656242D01*
X3731905Y-20641956D01*
X3774762Y-20641956D01*
X3803334Y-20656242D01*
X3817619Y-20684814D01*
X3817619Y-20841956D01*
X3960476Y-20841956D02*
X3960476Y-20641956D01*
X3960476Y-20670528D02*
X3974762Y-20656242D01*
X4003334Y-20641956D01*
X4046191Y-20641956D01*
X4074762Y-20656242D01*
X4089048Y-20684814D01*
X4089048Y-20841956D01*
X4089048Y-20684814D02*
X4103334Y-20656242D01*
X4131905Y-20641956D01*
X4174762Y-20641956D01*
X4203334Y-20656242D01*
X4217619Y-20684814D01*
X4217619Y-20841956D01*
X4803334Y-20527671D02*
X4546191Y-20913385D01*
X5189048Y-20541956D02*
X5217619Y-20541956D01*
X5246191Y-20556242D01*
X5260476Y-20570528D01*
X5274762Y-20599099D01*
X5289048Y-20656242D01*
X5289048Y-20727671D01*
X5274762Y-20784814D01*
X5260476Y-20813385D01*
X5246191Y-20827671D01*
X5217619Y-20841956D01*
X5189048Y-20841956D01*
X5160476Y-20827671D01*
X5146191Y-20813385D01*
X5131905Y-20784814D01*
X5117619Y-20727671D01*
X5117619Y-20656242D01*
X5131905Y-20599099D01*
X5146191Y-20570528D01*
X5160476Y-20556242D01*
X5189048Y-20541956D01*
X5417619Y-20813385D02*
X5431905Y-20827671D01*
X5417619Y-20841956D01*
X5403334Y-20827671D01*
X5417619Y-20813385D01*
X5417619Y-20841956D01*
X5717619Y-20841956D02*
X5546191Y-20841956D01*
X5631905Y-20841956D02*
X5631905Y-20541956D01*
X5603333Y-20584814D01*
X5574762Y-20613385D01*
X5546191Y-20627671D01*
X5831905Y-20570528D02*
X5846191Y-20556242D01*
X5874762Y-20541956D01*
X5946191Y-20541956D01*
X5974762Y-20556242D01*
X5989048Y-20570528D01*
X6003333Y-20599099D01*
X6003333Y-20627671D01*
X5989048Y-20670528D01*
X5817619Y-20841956D01*
X6003333Y-20841956D01*
X6189048Y-20541956D02*
X6217619Y-20541956D01*
X6246191Y-20556242D01*
X6260476Y-20570528D01*
X6274762Y-20599099D01*
X6289048Y-20656242D01*
X6289048Y-20727671D01*
X6274762Y-20784814D01*
X6260476Y-20813385D01*
X6246191Y-20827671D01*
X6217619Y-20841956D01*
X6189048Y-20841956D01*
X6160476Y-20827671D01*
X6146191Y-20813385D01*
X6131905Y-20784814D01*
X6117619Y-20727671D01*
X6117619Y-20656242D01*
X6131905Y-20599099D01*
X6146191Y-20570528D01*
X6160476Y-20556242D01*
X6189048Y-20541956D01*
X6403334Y-20541956D02*
X6403334Y-20599099D01*
X6517619Y-20541956D02*
X6517619Y-20599099D01*
X6960476Y-20956242D02*
X6946191Y-20941956D01*
X6917619Y-20899099D01*
X6903333Y-20870528D01*
X6889048Y-20827671D01*
X6874762Y-20756242D01*
X6874762Y-20699099D01*
X6889048Y-20627671D01*
X6903333Y-20584814D01*
X6917619Y-20556242D01*
X6946191Y-20513385D01*
X6960476Y-20499099D01*
X7203333Y-20641956D02*
X7203333Y-20841956D01*
X7131905Y-20527671D02*
X7060476Y-20741956D01*
X7246191Y-20741956D01*
X7589048Y-20841956D02*
X7589048Y-20541956D01*
X7717619Y-20841956D02*
X7717619Y-20684814D01*
X7703333Y-20656242D01*
X7674762Y-20641956D01*
X7631905Y-20641956D01*
X7603333Y-20656242D01*
X7589048Y-20670528D01*
X7903333Y-20841956D02*
X7874762Y-20827671D01*
X7860476Y-20813385D01*
X7846191Y-20784814D01*
X7846191Y-20699099D01*
X7860476Y-20670528D01*
X7874762Y-20656242D01*
X7903333Y-20641956D01*
X7946191Y-20641956D01*
X7974762Y-20656242D01*
X7989048Y-20670528D01*
X8003333Y-20699099D01*
X8003333Y-20784814D01*
X7989048Y-20813385D01*
X7974762Y-20827671D01*
X7946191Y-20841956D01*
X7903333Y-20841956D01*
X8174762Y-20841956D02*
X8146191Y-20827671D01*
X8131905Y-20799099D01*
X8131905Y-20541956D01*
X8403334Y-20827671D02*
X8374762Y-20841956D01*
X8317619Y-20841956D01*
X8289048Y-20827671D01*
X8274762Y-20799099D01*
X8274762Y-20684814D01*
X8289048Y-20656242D01*
X8317619Y-20641956D01*
X8374762Y-20641956D01*
X8403334Y-20656242D01*
X8417619Y-20684814D01*
X8417619Y-20713385D01*
X8274762Y-20741956D01*
X8531905Y-20827671D02*
X8560477Y-20841956D01*
X8617619Y-20841956D01*
X8646191Y-20827671D01*
X8660477Y-20799099D01*
X8660477Y-20784814D01*
X8646191Y-20756242D01*
X8617619Y-20741956D01*
X8574762Y-20741956D01*
X8546191Y-20727671D01*
X8531905Y-20699099D01*
X8531905Y-20684814D01*
X8546191Y-20656242D01*
X8574762Y-20641956D01*
X8617619Y-20641956D01*
X8646191Y-20656242D01*
X8760476Y-20956242D02*
X8774762Y-20941956D01*
X8803334Y-20899099D01*
X8817619Y-20870528D01*
X8831905Y-20827671D01*
X8846191Y-20756242D01*
X8846191Y-20699099D01*
X8831905Y-20627671D01*
X8817619Y-20584814D01*
X8803334Y-20556242D01*
X8774762Y-20513385D01*
X8760476Y-20499099D01*
X9303334Y-20956242D02*
X9289048Y-20941956D01*
X9260476Y-20899099D01*
X9246191Y-20870528D01*
X9231905Y-20827671D01*
X9217619Y-20756242D01*
X9217619Y-20699099D01*
X9231905Y-20627671D01*
X9246191Y-20584814D01*
X9260476Y-20556242D01*
X9289048Y-20513385D01*
X9303334Y-20499099D01*
X9417619Y-20641956D02*
X9417619Y-20841956D01*
X9417619Y-20670528D02*
X9431905Y-20656242D01*
X9460476Y-20641956D01*
X9503334Y-20641956D01*
X9531905Y-20656242D01*
X9546191Y-20684814D01*
X9546191Y-20841956D01*
X9731905Y-20841956D02*
X9703334Y-20827671D01*
X9689048Y-20813385D01*
X9674762Y-20784814D01*
X9674762Y-20699099D01*
X9689048Y-20670528D01*
X9703334Y-20656242D01*
X9731905Y-20641956D01*
X9774762Y-20641956D01*
X9803334Y-20656242D01*
X9817619Y-20670528D01*
X9831905Y-20699099D01*
X9831905Y-20784814D01*
X9817619Y-20813385D01*
X9803334Y-20827671D01*
X9774762Y-20841956D01*
X9731905Y-20841956D01*
X9917619Y-20641956D02*
X10031905Y-20641956D01*
X9960477Y-20541956D02*
X9960477Y-20799099D01*
X9974762Y-20827671D01*
X10003334Y-20841956D01*
X10031905Y-20841956D01*
X10360477Y-20641956D02*
X10360477Y-20941956D01*
X10360477Y-20656242D02*
X10389048Y-20641956D01*
X10446191Y-20641956D01*
X10474762Y-20656242D01*
X10489048Y-20670528D01*
X10503334Y-20699099D01*
X10503334Y-20784814D01*
X10489048Y-20813385D01*
X10474762Y-20827671D01*
X10446191Y-20841956D01*
X10389048Y-20841956D01*
X10360477Y-20827671D01*
X10674762Y-20841956D02*
X10646191Y-20827671D01*
X10631905Y-20799099D01*
X10631905Y-20541956D01*
X10917619Y-20841956D02*
X10917619Y-20684814D01*
X10903334Y-20656242D01*
X10874762Y-20641956D01*
X10817619Y-20641956D01*
X10789048Y-20656242D01*
X10917619Y-20827671D02*
X10889048Y-20841956D01*
X10817619Y-20841956D01*
X10789048Y-20827671D01*
X10774762Y-20799099D01*
X10774762Y-20770528D01*
X10789048Y-20741956D01*
X10817619Y-20727671D01*
X10889048Y-20727671D01*
X10917619Y-20713385D01*
X11017619Y-20641956D02*
X11131905Y-20641956D01*
X11060477Y-20541956D02*
X11060477Y-20799099D01*
X11074762Y-20827671D01*
X11103334Y-20841956D01*
X11131905Y-20841956D01*
X11346191Y-20827671D02*
X11317619Y-20841956D01*
X11260477Y-20841956D01*
X11231905Y-20827671D01*
X11217619Y-20799099D01*
X11217619Y-20684814D01*
X11231905Y-20656242D01*
X11260477Y-20641956D01*
X11317619Y-20641956D01*
X11346191Y-20656242D01*
X11360477Y-20684814D01*
X11360477Y-20713385D01*
X11217619Y-20741956D01*
X11617619Y-20841956D02*
X11617619Y-20541956D01*
X11617619Y-20827671D02*
X11589048Y-20841956D01*
X11531905Y-20841956D01*
X11503334Y-20827671D01*
X11489048Y-20813385D01*
X11474762Y-20784814D01*
X11474762Y-20699099D01*
X11489048Y-20670528D01*
X11503334Y-20656242D01*
X11531905Y-20641956D01*
X11589048Y-20641956D01*
X11617619Y-20656242D01*
X11731905Y-20956242D02*
X11746191Y-20941956D01*
X11774762Y-20899099D01*
X11789048Y-20870528D01*
X11803334Y-20827671D01*
X11817619Y-20756242D01*
X11817619Y-20699099D01*
X11803334Y-20627671D01*
X11789048Y-20584814D01*
X11774762Y-20556242D01*
X11746191Y-20513385D01*
X11731905Y-20499099D01*
X2230649Y-21282034D02*
X2230649Y-21000051D01*
X1948666Y-21000051D01*
X1948666Y-21282034D01*
X2230649Y-21282034D01*
X2531905Y-20976756D02*
X2717619Y-20976756D01*
X2617619Y-21091042D01*
X2660477Y-21091042D01*
X2689048Y-21105328D01*
X2703334Y-21119614D01*
X2717619Y-21148185D01*
X2717619Y-21219614D01*
X2703334Y-21248185D01*
X2689048Y-21262471D01*
X2660477Y-21276756D01*
X2574762Y-21276756D01*
X2546191Y-21262471D01*
X2531905Y-21248185D01*
X2846191Y-21248185D02*
X2860476Y-21262471D01*
X2846191Y-21276756D01*
X2831905Y-21262471D01*
X2846191Y-21248185D01*
X2846191Y-21276756D01*
X3003334Y-21276756D02*
X3060476Y-21276756D01*
X3089048Y-21262471D01*
X3103334Y-21248185D01*
X3131905Y-21205328D01*
X3146191Y-21148185D01*
X3146191Y-21033899D01*
X3131905Y-21005328D01*
X3117619Y-20991042D01*
X3089048Y-20976756D01*
X3031905Y-20976756D01*
X3003334Y-20991042D01*
X2989048Y-21005328D01*
X2974762Y-21033899D01*
X2974762Y-21105328D01*
X2989048Y-21133899D01*
X3003334Y-21148185D01*
X3031905Y-21162471D01*
X3089048Y-21162471D01*
X3117619Y-21148185D01*
X3131905Y-21133899D01*
X3146191Y-21105328D01*
X3289048Y-21276756D02*
X3346191Y-21276756D01*
X3374762Y-21262471D01*
X3389048Y-21248185D01*
X3417619Y-21205328D01*
X3431905Y-21148185D01*
X3431905Y-21033899D01*
X3417619Y-21005328D01*
X3403334Y-20991042D01*
X3374762Y-20976756D01*
X3317619Y-20976756D01*
X3289048Y-20991042D01*
X3274762Y-21005328D01*
X3260476Y-21033899D01*
X3260476Y-21105328D01*
X3274762Y-21133899D01*
X3289048Y-21148185D01*
X3317619Y-21162471D01*
X3374762Y-21162471D01*
X3403334Y-21148185D01*
X3417619Y-21133899D01*
X3431905Y-21105328D01*
X3560476Y-21276756D02*
X3560476Y-21076756D01*
X3560476Y-21105328D02*
X3574762Y-21091042D01*
X3603334Y-21076756D01*
X3646191Y-21076756D01*
X3674762Y-21091042D01*
X3689048Y-21119614D01*
X3689048Y-21276756D01*
X3689048Y-21119614D02*
X3703334Y-21091042D01*
X3731905Y-21076756D01*
X3774762Y-21076756D01*
X3803334Y-21091042D01*
X3817619Y-21119614D01*
X3817619Y-21276756D01*
X3960476Y-21276756D02*
X3960476Y-21076756D01*
X3960476Y-21105328D02*
X3974762Y-21091042D01*
X4003334Y-21076756D01*
X4046191Y-21076756D01*
X4074762Y-21091042D01*
X4089048Y-21119614D01*
X4089048Y-21276756D01*
X4089048Y-21119614D02*
X4103334Y-21091042D01*
X4131905Y-21076756D01*
X4174762Y-21076756D01*
X4203334Y-21091042D01*
X4217619Y-21119614D01*
X4217619Y-21276756D01*
X4803334Y-20962471D02*
X4546191Y-21348185D01*
X5189048Y-20976756D02*
X5217619Y-20976756D01*
X5246191Y-20991042D01*
X5260476Y-21005328D01*
X5274762Y-21033899D01*
X5289048Y-21091042D01*
X5289048Y-21162471D01*
X5274762Y-21219614D01*
X5260476Y-21248185D01*
X5246191Y-21262471D01*
X5217619Y-21276756D01*
X5189048Y-21276756D01*
X5160476Y-21262471D01*
X5146191Y-21248185D01*
X5131905Y-21219614D01*
X5117619Y-21162471D01*
X5117619Y-21091042D01*
X5131905Y-21033899D01*
X5146191Y-21005328D01*
X5160476Y-20991042D01*
X5189048Y-20976756D01*
X5417619Y-21248185D02*
X5431905Y-21262471D01*
X5417619Y-21276756D01*
X5403334Y-21262471D01*
X5417619Y-21248185D01*
X5417619Y-21276756D01*
X5717619Y-21276756D02*
X5546191Y-21276756D01*
X5631905Y-21276756D02*
X5631905Y-20976756D01*
X5603333Y-21019614D01*
X5574762Y-21048185D01*
X5546191Y-21062471D01*
X5989048Y-20976756D02*
X5846191Y-20976756D01*
X5831905Y-21119614D01*
X5846191Y-21105328D01*
X5874762Y-21091042D01*
X5946191Y-21091042D01*
X5974762Y-21105328D01*
X5989048Y-21119614D01*
X6003333Y-21148185D01*
X6003333Y-21219614D01*
X5989048Y-21248185D01*
X5974762Y-21262471D01*
X5946191Y-21276756D01*
X5874762Y-21276756D01*
X5846191Y-21262471D01*
X5831905Y-21248185D01*
X6103333Y-20976756D02*
X6303333Y-20976756D01*
X6174762Y-21276756D01*
X6403334Y-20976756D02*
X6403334Y-21033899D01*
X6517619Y-20976756D02*
X6517619Y-21033899D01*
X6960476Y-21391042D02*
X6946191Y-21376756D01*
X6917619Y-21333899D01*
X6903333Y-21305328D01*
X6889048Y-21262471D01*
X6874762Y-21191042D01*
X6874762Y-21133899D01*
X6889048Y-21062471D01*
X6903333Y-21019614D01*
X6917619Y-20991042D01*
X6946191Y-20948185D01*
X6960476Y-20933899D01*
X7203333Y-21076756D02*
X7203333Y-21276756D01*
X7131905Y-20962471D02*
X7060476Y-21176756D01*
X7246191Y-21176756D01*
X7346191Y-21005328D02*
X7360476Y-20991042D01*
X7389048Y-20976756D01*
X7460476Y-20976756D01*
X7489048Y-20991042D01*
X7503333Y-21005328D01*
X7517619Y-21033899D01*
X7517619Y-21062471D01*
X7503333Y-21105328D01*
X7331905Y-21276756D01*
X7517619Y-21276756D01*
X7874762Y-21276756D02*
X7874762Y-20976756D01*
X8003333Y-21276756D02*
X8003333Y-21119614D01*
X7989048Y-21091042D01*
X7960476Y-21076756D01*
X7917619Y-21076756D01*
X7889048Y-21091042D01*
X7874762Y-21105328D01*
X8189048Y-21276756D02*
X8160476Y-21262471D01*
X8146191Y-21248185D01*
X8131905Y-21219614D01*
X8131905Y-21133899D01*
X8146191Y-21105328D01*
X8160476Y-21091042D01*
X8189048Y-21076756D01*
X8231905Y-21076756D01*
X8260476Y-21091042D01*
X8274762Y-21105328D01*
X8289048Y-21133899D01*
X8289048Y-21219614D01*
X8274762Y-21248185D01*
X8260476Y-21262471D01*
X8231905Y-21276756D01*
X8189048Y-21276756D01*
X8460476Y-21276756D02*
X8431905Y-21262471D01*
X8417619Y-21233899D01*
X8417619Y-20976756D01*
X8689048Y-21262471D02*
X8660477Y-21276756D01*
X8603334Y-21276756D01*
X8574762Y-21262471D01*
X8560477Y-21233899D01*
X8560477Y-21119614D01*
X8574762Y-21091042D01*
X8603334Y-21076756D01*
X8660477Y-21076756D01*
X8689048Y-21091042D01*
X8703334Y-21119614D01*
X8703334Y-21148185D01*
X8560477Y-21176756D01*
X8817619Y-21262471D02*
X8846191Y-21276756D01*
X8903334Y-21276756D01*
X8931905Y-21262471D01*
X8946191Y-21233899D01*
X8946191Y-21219614D01*
X8931905Y-21191042D01*
X8903334Y-21176756D01*
X8860477Y-21176756D01*
X8831905Y-21162471D01*
X8817619Y-21133899D01*
X8817619Y-21119614D01*
X8831905Y-21091042D01*
X8860477Y-21076756D01*
X8903334Y-21076756D01*
X8931905Y-21091042D01*
X9303334Y-21162471D02*
X9531905Y-21162471D01*
X9417619Y-21276756D02*
X9417619Y-21048185D01*
X10031905Y-21076756D02*
X10031905Y-21276756D01*
X9960476Y-20962471D02*
X9889048Y-21176756D01*
X10074762Y-21176756D01*
X10403334Y-21262471D02*
X10431905Y-21276756D01*
X10489048Y-21276756D01*
X10517619Y-21262471D01*
X10531905Y-21233899D01*
X10531905Y-21219614D01*
X10517619Y-21191042D01*
X10489048Y-21176756D01*
X10446191Y-21176756D01*
X10417619Y-21162471D01*
X10403334Y-21133899D01*
X10403334Y-21119614D01*
X10417619Y-21091042D01*
X10446191Y-21076756D01*
X10489048Y-21076756D01*
X10517619Y-21091042D01*
X10703334Y-21276756D02*
X10674762Y-21262471D01*
X10660476Y-21233899D01*
X10660476Y-20976756D01*
X10860476Y-21276756D02*
X10831905Y-21262471D01*
X10817619Y-21248185D01*
X10803334Y-21219614D01*
X10803334Y-21133899D01*
X10817619Y-21105328D01*
X10831905Y-21091042D01*
X10860476Y-21076756D01*
X10903334Y-21076756D01*
X10931905Y-21091042D01*
X10946191Y-21105328D01*
X10960476Y-21133899D01*
X10960476Y-21219614D01*
X10946191Y-21248185D01*
X10931905Y-21262471D01*
X10903334Y-21276756D01*
X10860476Y-21276756D01*
X11046191Y-21076756D02*
X11160476Y-21076756D01*
X11089048Y-20976756D02*
X11089048Y-21233899D01*
X11103334Y-21262471D01*
X11131905Y-21276756D01*
X11160476Y-21276756D01*
X11246191Y-21262471D02*
X11274762Y-21276756D01*
X11331905Y-21276756D01*
X11360476Y-21262471D01*
X11374762Y-21233899D01*
X11374762Y-21219614D01*
X11360476Y-21191042D01*
X11331905Y-21176756D01*
X11289048Y-21176756D01*
X11260476Y-21162471D01*
X11246191Y-21133899D01*
X11246191Y-21119614D01*
X11260476Y-21091042D01*
X11289048Y-21076756D01*
X11331905Y-21076756D01*
X11360476Y-21091042D01*
X11474762Y-21391042D02*
X11489048Y-21376756D01*
X11517619Y-21333899D01*
X11531905Y-21305328D01*
X11546191Y-21262471D01*
X11560476Y-21191042D01*
X11560476Y-21133899D01*
X11546191Y-21062471D01*
X11531905Y-21019614D01*
X11517619Y-20991042D01*
X11489048Y-20948185D01*
X11474762Y-20933899D01*
X12017619Y-21391042D02*
X12003333Y-21376756D01*
X11974762Y-21333899D01*
X11960476Y-21305328D01*
X11946191Y-21262471D01*
X11931905Y-21191042D01*
X11931905Y-21133899D01*
X11946191Y-21062471D01*
X11960476Y-21019614D01*
X11974762Y-20991042D01*
X12003333Y-20948185D01*
X12017619Y-20933899D01*
X12131905Y-21076756D02*
X12131905Y-21276756D01*
X12131905Y-21105328D02*
X12146191Y-21091042D01*
X12174762Y-21076756D01*
X12217619Y-21076756D01*
X12246191Y-21091042D01*
X12260476Y-21119614D01*
X12260476Y-21276756D01*
X12446191Y-21276756D02*
X12417619Y-21262471D01*
X12403334Y-21248185D01*
X12389048Y-21219614D01*
X12389048Y-21133899D01*
X12403334Y-21105328D01*
X12417619Y-21091042D01*
X12446191Y-21076756D01*
X12489048Y-21076756D01*
X12517619Y-21091042D01*
X12531905Y-21105328D01*
X12546191Y-21133899D01*
X12546191Y-21219614D01*
X12531905Y-21248185D01*
X12517619Y-21262471D01*
X12489048Y-21276756D01*
X12446191Y-21276756D01*
X12631905Y-21076756D02*
X12746191Y-21076756D01*
X12674762Y-20976756D02*
X12674762Y-21233899D01*
X12689048Y-21262471D01*
X12717619Y-21276756D01*
X12746191Y-21276756D01*
X13074762Y-21076756D02*
X13074762Y-21376756D01*
X13074762Y-21091042D02*
X13103334Y-21076756D01*
X13160476Y-21076756D01*
X13189048Y-21091042D01*
X13203334Y-21105328D01*
X13217619Y-21133899D01*
X13217619Y-21219614D01*
X13203334Y-21248185D01*
X13189048Y-21262471D01*
X13160476Y-21276756D01*
X13103334Y-21276756D01*
X13074762Y-21262471D01*
X13389048Y-21276756D02*
X13360476Y-21262471D01*
X13346191Y-21233899D01*
X13346191Y-20976756D01*
X13631905Y-21276756D02*
X13631905Y-21119614D01*
X13617619Y-21091042D01*
X13589048Y-21076756D01*
X13531905Y-21076756D01*
X13503334Y-21091042D01*
X13631905Y-21262471D02*
X13603334Y-21276756D01*
X13531905Y-21276756D01*
X13503334Y-21262471D01*
X13489048Y-21233899D01*
X13489048Y-21205328D01*
X13503334Y-21176756D01*
X13531905Y-21162471D01*
X13603334Y-21162471D01*
X13631905Y-21148185D01*
X13731905Y-21076756D02*
X13846191Y-21076756D01*
X13774762Y-20976756D02*
X13774762Y-21233899D01*
X13789048Y-21262471D01*
X13817619Y-21276756D01*
X13846191Y-21276756D01*
X14060477Y-21262471D02*
X14031905Y-21276756D01*
X13974762Y-21276756D01*
X13946191Y-21262471D01*
X13931905Y-21233899D01*
X13931905Y-21119614D01*
X13946191Y-21091042D01*
X13974762Y-21076756D01*
X14031905Y-21076756D01*
X14060477Y-21091042D01*
X14074762Y-21119614D01*
X14074762Y-21148185D01*
X13931905Y-21176756D01*
X14331905Y-21276756D02*
X14331905Y-20976756D01*
X14331905Y-21262471D02*
X14303334Y-21276756D01*
X14246191Y-21276756D01*
X14217619Y-21262471D01*
X14203334Y-21248185D01*
X14189048Y-21219614D01*
X14189048Y-21133899D01*
X14203334Y-21105328D01*
X14217619Y-21091042D01*
X14246191Y-21076756D01*
X14303334Y-21076756D01*
X14331905Y-21091042D01*
X14446191Y-21391042D02*
X14460477Y-21376756D01*
X14489048Y-21333899D01*
X14503334Y-21305328D01*
X14517619Y-21262471D01*
X14531905Y-21191042D01*
X14531905Y-21133899D01*
X14517619Y-21062471D01*
X14503334Y-21019614D01*
X14489048Y-20991042D01*
X14460477Y-20948185D01*
X14446191Y-20933899D01*
M02*
